<svg width="16" height="15" viewBox="0 0 16 15" fill="none" xmlns="http://www.w3.org/2000/svg">
<path d="M3.61233 11.5C2.96577 11.4999 2.33109 11.3317 1.77451 11.013C1.21792 10.6943 0.759819 10.2367 0.447988 9.68803C0.136157 9.13937 -0.0179755 8.5197 0.00166833 7.89366C0.0213121 7.26763 0.214013 6.65817 0.559668 6.12887C0.905324 5.59956 1.39127 5.16981 1.96681 4.88443C2.54235 4.59905 3.1864 4.46851 3.83177 4.50642C4.47714 4.54433 5.10019 4.74931 5.63591 5.09996C6.17164 5.45062 6.60042 5.93411 6.87751 6.5H14.4515L16 8L14.4515 9.5L13.4192 8.5L12.3869 9.5L11.3546 8.5L10.3223 9.5L9.29001 8.5L8.2577 9.5H6.87751C6.58443 10.0985 6.12202 10.6042 5.54403 10.9582C4.96603 11.3123 4.29618 11.5001 3.61233 11.5ZM2.58002 9C2.8538 9 3.11638 8.89464 3.30997 8.70711C3.50357 8.51957 3.61233 8.26522 3.61233 8C3.61233 7.73478 3.50357 7.48043 3.30997 7.29289C3.11638 7.10536 2.8538 7 2.58002 7C2.30624 7 2.04366 7.10536 1.85007 7.29289C1.65647 7.48043 1.54771 7.73478 1.54771 8C1.54771 8.26522 1.65647 8.51957 1.85007 8.70711C2.04366 8.89464 2.30624 9 2.58002 9Z" fill="white"/>
</svg>
