<svg id="Layer_1" data-name="Layer 1" xmlns="http://www.w3.org/2000/svg" viewBox="0 0 15 20"><defs><style>.cls-1{fill:#fff;}</style></defs><title>Form-new</title><path class="cls-1" d="M9.0638,15l-.7181,1.3333L8.984,17.5H6.0319V15ZM10.5,12.5H7.2287V11.25h7.7394V10H6.0319v3.75h3.75Zm1.516,2.6667H10.58l.6383,1.1666h2.633L15.2074,18.75H12.5745l-.6383-1.25L10.66,15.1667l-.6383,1.1666L10.66,17.5l.7181,1.25.6383,1.1667h3.9893l.6383-1.1667-1.9947-3.5833ZM14.9681,8.75H6.0319V5h8.9362Zm-1.1968-2.5H7.2287V7.5h6.5426ZM18,0V13.6667L16.8032,11.5V3.75H4.1968v15H9.7021L10.42,20H3V0ZM16.8032,1.25H4.1968V2.5H16.8032Zm0,13.1667L15.9255,12.75H11.9362l-.5585,1-.08.25h3.9893l1.9947,3.5833.6383-1.1666Z" transform="translate(-3)"/></svg>