<svg xmlns="http://www.w3.org/2000/svg" width="16" height="17" viewBox="0 0 16 17" fill="white">
        <path d="M3.61233 12C2.96577 11.9999 2.33109 11.8317 1.77451 11.513C1.21792 11.1943 0.759819 10.7367 0.447988 10.188C0.136157 9.63937 -0.0179755 9.0197 0.00166833 8.39366C0.0213121 7.76763 0.214013 7.15817 0.559668 6.62887C0.905324 6.09956 1.39127 5.66981 1.96681 5.38443C2.54235 5.09905 3.1864 4.96851 3.83177 5.00642C4.47714 5.04433 5.10019 5.24931 5.63591 5.59996C6.17164 5.95062 6.60042 6.43411 6.87751 7H14.4515L16 8.5L14.4515 10L13.4192 9L12.3869 10L11.3546 9L10.3223 10L9.29001 9L8.2577 10H6.87751C6.58443 10.5985 6.12202 11.1042 5.54402 11.4582C4.96603 11.8123 4.29618 12.0001 3.61233 12ZM2.58002 9.5C2.8538 9.5 3.11638 9.39464 3.30997 9.20711C3.50357 9.01957 3.61233 8.76522 3.61233 8.5C3.61233 8.23478 3.50357 7.98043 3.30997 7.79289C3.11638 7.60536 2.8538 7.5 2.58002 7.5C2.30624 7.5 2.04366 7.60536 1.85007 7.79289C1.65647 7.98043 1.54771 8.23478 1.54771 8.5C1.54771 8.76522 1.65647 9.01957 1.85007 9.20711C2.04366 9.39464 2.30624 9.5 2.58002 9.5Z" fill="white"/>
    </svg>