<svg width="20" height="20" viewBox="0 0 20 20" fill="none" xmlns="http://www.w3.org/2000/svg">
<path fill-rule="evenodd" clip-rule="evenodd" d="M10 20C15.5228 20 20 15.5228 20 10C20 4.47715 15.5228 0 10 0C4.47715 0 0 4.47715 0 10C0 15.5228 4.47715 20 10 20ZM11.8616 13.334H11.8646L10.9028 11.6675L9.94049 10.001H6.09173L5.12891 8.33398H10.9028L12.8269 11.6675H12.8274L13.7892 13.334H13.7862L12.8239 15.001H7.0505L6.08869 13.334H6.08819L5.12638 11.6675H5.12587L4.16406 10.001V10.0005L5.12587 8.33398L6.08869 10.001L7.0505 11.6675H7.05101L8.01282 13.334H11.8616ZM14.7502 8.33297V8.33348L15.7125 9.99997H15.712L14.7502 11.6665L13.7879 9.99997L12.8255 8.33297L11.8637 6.66649H6.08984L7.05216 5H12.8261L13.7879 6.66649L14.7502 8.33297Z" fill="white"/>
</svg>
