<svg width="16" height="16" viewBox="0 0 16 16" fill="none" xmlns="http://www.w3.org/2000/svg">
<path d="M15.2385 4.76161C15.1257 4.66327 14.9863 4.60066 14.8378 4.58174C14.6894 4.56282 14.5386 4.58845 14.4048 4.65536L11.2667 6.21786L8.64666 1.86599C8.57931 1.75432 8.48425 1.66194 8.37069 1.59782C8.25714 1.53369 8.12894 1.5 7.99853 1.5C7.86812 1.5 7.73993 1.53369 7.62637 1.59782C7.51282 1.66194 7.41776 1.75432 7.35041 1.86599L4.73041 6.21974L1.59353 4.65724C1.46 4.59092 1.30985 4.56552 1.16193 4.58422C1.01401 4.60293 0.874904 4.6649 0.762078 4.76237C0.649252 4.85984 0.567728 4.98847 0.527735 5.1321C0.487743 5.27574 0.491064 5.42798 0.537283 5.56974L2.84978 12.6547C2.87303 12.7259 2.91197 12.791 2.96373 12.8451C3.01548 12.8992 3.07873 12.941 3.1488 12.9674C3.21887 12.9938 3.29398 13.0041 3.36858 12.9976C3.44317 12.9911 3.51535 12.9679 3.57978 12.9297C3.59541 12.9204 5.19353 11.9997 7.99853 11.9997C10.8035 11.9997 12.4017 12.9204 12.416 12.9291C12.4805 12.9676 12.5528 12.9911 12.6276 12.9979C12.7024 13.0046 12.7777 12.9944 12.848 12.9681C12.9183 12.9417 12.9818 12.8999 13.0337 12.8456C13.0856 12.7914 13.1247 12.7261 13.1479 12.6547L15.4604 5.57161C15.508 5.42982 15.5122 5.27709 15.4727 5.13285C15.4332 4.98861 15.3517 4.85938 15.2385 4.76161ZM12.3735 11.8016C11.6235 11.4835 10.1285 10.9997 7.99853 10.9997C5.86853 10.9997 4.37353 11.4835 3.62353 11.8016L1.66791 5.81224L4.48478 7.21661C4.65529 7.3007 4.8511 7.31788 5.03364 7.26478C5.21619 7.21169 5.37223 7.09215 5.47103 6.92974L7.99853 2.72849L10.526 6.92849C10.6249 7.09064 10.7809 7.20997 10.9632 7.26305C11.1456 7.31613 11.3412 7.29912 11.5117 7.21536L14.3292 5.81224L12.3735 11.8016ZM10.9904 9.80161C10.97 9.91728 10.9095 10.0221 10.8196 10.0976C10.7296 10.1731 10.616 10.2146 10.4985 10.2147C10.4692 10.2147 10.4399 10.2122 10.411 10.2072C8.81396 9.93307 7.18185 9.93307 5.58478 10.2072C5.45416 10.2303 5.31974 10.2005 5.21109 10.1244C5.10243 10.0483 5.02845 9.93223 5.00541 9.80161C4.98237 9.67099 5.01216 9.53657 5.08823 9.42792C5.1643 9.31926 5.28041 9.24528 5.41103 9.22224C7.12307 8.92807 8.87274 8.92807 10.5848 9.22224C10.7151 9.24513 10.8311 9.31877 10.9073 9.42702C10.9834 9.53528 11.0135 9.66931 10.991 9.79974L10.9904 9.80161Z" fill="white"/>
</svg>
