<svg width="400" height="300" viewBox="0 0 400 300" fill="none" xmlns="http://www.w3.org/2000/svg">
<path d="M284.795 13.2327C306.704 27.3684 320.257 54.1518 333.254 80.1912C346.065 106.231 358.319 131.526 360.547 158.123C362.961 184.907 355.534 212.806 342.723 238.846C329.912 265.071 311.531 289.25 287.394 294.644C263.072 300.224 232.993 286.833 202.73 287.204C172.466 287.576 141.83 301.712 116.208 297.062C90.7717 292.412 69.9769 268.977 56.2374 242.566C42.3123 215.968 35.257 186.395 41.0127 160.169C46.5827 133.758 64.9638 110.695 84.459 93.7689C103.768 76.8433 124.006 66.0555 143.873 50.8039C163.925 35.3662 183.42 15.6507 208.114 6.72287C232.993 -2.39092 262.886 -0.902955 284.795 13.2327Z" fill="black"/>
</svg>
