<?xml version="1.0" encoding="utf-8"?>
<!-- Generator: Adobe Illustrator 24.1.3, SVG Export Plug-In . SVG Version: 6.00 Build 0)  -->
<svg version="1.1" id="Layer_1" xmlns="http://www.w3.org/2000/svg" xmlns:xlink="http://www.w3.org/1999/xlink" x="0px" y="0px"
	 viewBox="0 0 24 24" style="enable-background:new 0 0 24 24;" xml:space="preserve">
<style type="text/css">
	.st0{fill:url(#SVGID_1_);}
	.st1{fill:#4579F0;}
</style>
<linearGradient id="SVGID_1_" gradientUnits="userSpaceOnUse" x1="11.995" y1="0.47" x2="11.995" y2="23.5303">
	<stop  offset="0" style="stop-color:#2E54EB"/>
	<stop  offset="1" style="stop-color:#66C6D2"/>
</linearGradient>
<path class="st0" d="M17.61,8.72v1.13l1.75,0.03c0.3507,0.0441,0.5992,0.3641,0.5552,0.7148
	c-0.0365,0.2902-0.265,0.5187-0.5552,0.5552h-1.75v1.13h1.75c0.3507,0.0441,0.5992,0.3641,0.5552,0.7148
	c-0.0365,0.2901-0.265,0.5187-0.5552,0.5551H17c-0.3495-0.0054-0.6301-0.2904-0.63-0.64V8.08c0-0.348,0.282-0.63,0.63-0.63h2.39
	c0.3507,0.0441,0.5992,0.3641,0.5552,0.7148C19.9087,8.455,19.6802,8.6835,19.39,8.72H17.61z M14.88,7.43
	c-0.348,0-0.63,0.282-0.63,0.63v3l-2.46-3.35c-0.1185-0.1582-0.3024-0.2538-0.5-0.26c-0.0034,0-0.0067,0-0.0101,0.0001
	C10.9376,7.4556,10.6645,7.7376,10.67,8.08v4.85c0,0.348,0.2821,0.63,0.63,0.63c0.348,0,0.63-0.282,0.63-0.63v-3l2.44,3.29
	c0.1185,0.1634,0.3082,0.2601,0.51,0.26c0.066,0.0132,0.134,0.0132,0.2,0c0.2597-0.0836,0.4343-0.3271,0.43-0.6V8.06
	C15.5046,7.7143,15.2257,7.4354,14.88,7.43z M8.51,8.08v4.8c0,0.348,0.282,0.63,0.63,0.63c0.3479,0,0.63-0.282,0.63-0.63v-4.8
	c0-0.348-0.2821-0.63-0.63-0.63C8.7921,7.45,8.51,7.7321,8.51,8.08z M4.92,7.45c-0.3479,0-0.63,0.282-0.63,0.63v4.8
	c0,0.3496,0.2805,0.6345,0.63,0.64H7.3c0.2902-0.0365,0.5187-0.265,0.5552-0.5552C7.8992,12.6141,7.6507,12.2941,7.3,12.25H5.55
	V8.08C5.55,7.7321,5.2679,7.45,4.92,7.45z M12.7578,21.3137c-0.317,0.1838-0.6248,0.3825-0.9478,0.5563l0.12-0.75
	c0.0823-0.4536,0.051-0.9194-0.0843-1.3599l-0.0672-0.1145c-0.3307-0.53-0.8907-0.8771-1.5185-0.9156
	c-5.08-0.68-8.76-4.18-8.76-8.32C1.5,5.76,6.21,2,12,2s10.5,3.76,10.5,8.39c-0.0198,1.1135-0.2955,2.1938-0.7867,3.17h0.4702
	l0.6379,1.0865C23.5502,13.3601,23.9755,11.9131,24,10.41c0-5.48-5.38-9.94-12-9.94S0,4.93-0.01,10.41c0,4.9,4.23,9.03,10,9.8
	c0.1594,0.0291,0.3141,0.0795,0.46,0.15c0.0309,0.1888,0.0309,0.3813,0,0.57l-0.17,1c-0.1294,0.4937,0.02,1.0186,0.39,1.37
	c0.2076,0.1549,0.4611,0.2359,0.72,0.23c0.3152-0.0102,0.6249-0.0851,0.91-0.22c0.4155-0.2182,0.8113-0.4688,1.2174-0.7027
	L12.7578,21.3137z"/>
<g>
	<polygon class="st1" points="16.0276,19.2916 17.2987,21.4936 19.8415,21.4936 18.5701,19.2916 	"/>
	<path class="st1" d="M21.2862,14.6177h-5.4215l-2.7108,4.6952l2.7108,4.6951h5.4215l2.7108-4.6951L21.2862,14.6177z
		 M20.4771,22.5949h-3.814l-1.9069-3.3033l0.6356-1.1012l-0.0001-0.0001h3.8145l1.9069,3.3034L20.4771,22.5949z M21.7485,20.3923
		l-1.9069-3.3031h-3.8144l0.636-1.1008h3.8143l1.9069,3.3029H22.384L21.7485,20.3923z"/>
</g>
</svg>
