<?xml version="1.0" encoding="utf-8"?>
<!-- Generator: Adobe Illustrator 24.1.3, SVG Export Plug-In . SVG Version: 6.00 Build 0)  -->
<svg version="1.1" id="Layer_1" xmlns="http://www.w3.org/2000/svg" xmlns:xlink="http://www.w3.org/1999/xlink" x="0px" y="0px"
	 viewBox="0 0 24 24" style="enable-background:new 0 0 24 24;" xml:space="preserve">
<style type="text/css">
	.st0{fill:url(#SVGID_1_);}
	.st1{fill:#4579F0;}
</style>
<linearGradient id="SVGID_1_" gradientUnits="userSpaceOnUse" x1="11.7092" y1="26.0056" x2="11.7092" y2="1.9879" gradientTransform="matrix(1 0 0 -1 0 26)">
	<stop  offset="0" style="stop-color:#2E54EB"/>
	<stop  offset="1" style="stop-color:#66C6D2"/>
</linearGradient>
<path class="st0" d="M13.0297,16.5153c-0.7393-0.0807-1.4412-0.372-1.9975-0.8752c-0.1965-0.1811-0.4719-0.249-0.73-0.18
	c-0.2573,0.0742-0.4555,0.28-0.52,0.54c-0.23,0.89-0.6,2.35-0.7,2.73c-0.49,1.8-1.49,3.71-1.89,3.8c-0.39-0.4-0.21-2.9901,0.11-4.34
	l1.55-6.73c0.0457-0.15,0.0457-0.3101,0-0.46c-0.2098-0.5588-0.3083-1.1533-0.29-1.75c0-1.61,0.86-2.87,2-2.87
	c0.81,0,1.31,0.62,1.31,1.51c-0.0855,0.8882-0.2838,1.7619-0.59,2.6c-0.18,0.58-0.37,1.18-0.51,1.78
	c-0.1817,0.6956-0.0262,1.4362,0.42,2c0.4698,0.5887,1.187,0.9251,1.9399,0.91c0.2529-0.0128,0.7458-0.0835,0.9754-0.1759
	c0.4484-0.1804,1.0216-0.549,1.4316-0.9174c0.2985-0.2681,0.5699-0.6116,0.7501-0.9542c0.0236-0.0448,0.0515-0.0863,0.0729-0.1325
	c0.7982-1.5145,1.1941-3.2086,1.15-4.92c0-3.16-2.21-5.21-5.62-5.21c-0.0947-0.0033-0.1894-0.0045-0.2841-0.0035
	C8.0957,2.9017,5.2769,5.7776,5.3122,9.29c-0.0381,0.9859,0.2896,1.951,0.92,2.71c0.0281,0.0649,0.0515,0.1317,0.07,0.2
	c0.0049,0.0599,0.0049,0.1201,0,0.18l-0.26,1c0.0012,0.0233,0.0012,0.0467,0,0.07h-0.08c-1.46-0.6-2.33-2.26-2.33-4.45
	c0.0312-1.8826,0.7996-3.6778,2.14-5c1.7105-1.6788,4.0347-2.5825,6.43-2.5c2.0421-0.0389,4.0201,0.7136,5.52,2.1
	c1.3076,1.225,2.0619,2.9285,2.09,4.72c0.0525,1.6823-0.3427,3.338-1.1232,4.8125h1.6662c0.6658-1.5063,1.0024-3.147,0.957-4.8125
	c-0.0214-2.1974-0.9302-4.2929-2.52-5.81c-1.7797-1.6538-4.131-2.5535-6.56-2.51c-2.797-0.0927-5.5103,0.9623-7.51,2.92
	c-1.648,1.6176-2.5898,3.821-2.62,6.13c0,2.84,1.27,5,3.27,5.84c0.3672,0.139,0.7727,0.139,1.14,0l-0.71,3
	c-0.08,0.23-1.27,5.52,0.92,6.11c0.1362,0.0162,0.2738,0.0162,0.41,0c1.95,0,3.16-4,3.39-4.87c0.07-0.26,0.26-0.98,0.44-1.7
	c0.4006,0.2163,0.83,0.3629,1.2698,0.467L13.0297,16.5153z M6.8171,8.9941C6.9445,6.2964,9.2345,4.2127,11.9322,4.34
	c2.58,0,4.12,1.3799,4.12,3.7c0.0282,1.4462-0.3162,2.8754-1,4.15c-0.3412,0.7833-1.0718,1.3274-1.92,1.43
	c-0.2942,0.0055-0.5758-0.1189-0.77-0.34c-0.1497-0.2081-0.1974-0.4727-0.13-0.72c0.13-0.54,0.31-1.12,0.48-1.68
	c0.3585-0.9644,0.5806-1.9742,0.66-3c0.0068-0.0862,0.0096-0.1726,0.0084-0.259c-0.0214-1.5352-1.2833-2.7624-2.8184-2.741
	c-1.98,0-3.54,1.92-3.54,4.37c-0.0021,0.5331,0.0651,1.0642,0.2,1.58c-0.2933-0.4583-0.4366-0.9966-0.41-1.54
	C6.8109,9.1913,6.8125,9.0927,6.8171,8.9941z"/>
<g>
	<polygon class="st1" points="15.9861,19.2621 17.2572,21.4642 19.8,21.4642 18.5286,19.2621 	"/>
	<path class="st1" d="M21.2447,14.5883h-5.4215l-2.7108,4.6952l2.7108,4.6951h5.4215l2.7108-4.6951L21.2447,14.5883z
		 M20.4356,22.5655h-3.814l-1.9069-3.3033l0.6356-1.1012l-0.0001-0.0001h3.8145l1.9069,3.3034L20.4356,22.5655z M21.707,20.3629
		l-1.9069-3.3031h-3.8144l0.636-1.1008h3.8143l1.9069,3.3029h-0.0004L21.707,20.3629z"/>
</g>
</svg>
