<?xml version="1.0" encoding="utf-8"?>
<!-- Generator: Adobe Illustrator 24.1.3, SVG Export Plug-In . SVG Version: 6.00 Build 0)  -->
<svg version="1.1" id="Layer_1" xmlns="http://www.w3.org/2000/svg" xmlns:xlink="http://www.w3.org/1999/xlink" x="0px" y="0px"
	 viewBox="0 0 24 24" style="enable-background:new 0 0 24 24;" xml:space="preserve">
<style type="text/css">
	.st0{fill:url(#SVGID_1_);}
	.st1{fill:#4579F0;}
</style>
<linearGradient id="SVGID_1_" gradientUnits="userSpaceOnUse" x1="12" y1="0" x2="12" y2="24">
	<stop  offset="0" style="stop-color:#2E54EB"/>
	<stop  offset="1" style="stop-color:#66C6D2"/>
</linearGradient>
<polygon class="st0" points="13.2676,22.5 12.8,22.5 12.8,21.69 11.4276,19.3129 12.8,16.9357 12.8,1.5 21,1.5 21,4.1 22.5,4.1 
	22.5,0 1.5,0 1.5,4.1 3,4.1 3,1.5 11.2,1.5 11.2,22.5 6.2,22.5 6.2,24 11.3,24 12.8,24 14.1337,24 "/>
<g>
	<polygon class="st1" points="18.5731,19.2914 16.0306,19.2914 17.3017,21.4935 19.8445,21.4935 	"/>
	<path class="st1" d="M21.2892,14.6177h-5.4216l-2.7108,4.6952l2.7108,4.6951h5.4216L24,19.3129L21.2892,14.6177z M20.4801,22.5948
		h-3.814l-1.907-3.3033l0.6356-1.1013h3.8143l1.9069,3.3033L20.4801,22.5948z M21.7516,20.3923l-1.9069-3.303h-3.8145l0.636-1.1009
		h3.8143l1.9069,3.303H22.387L21.7516,20.3923z"/>
</g>
</svg>
