<?xml version="1.0" encoding="utf-8"?>
<!-- Generator: Adobe Illustrator 24.1.3, SVG Export Plug-In . SVG Version: 6.00 Build 0)  -->
<svg version="1.1" id="Layer_1" xmlns="http://www.w3.org/2000/svg" xmlns:xlink="http://www.w3.org/1999/xlink" x="0px" y="0px"
	 viewBox="0 0 24 24" style="enable-background:new 0 0 24 24;" xml:space="preserve">
<style type="text/css">
	.st0{fill:url(#SVGID_1_);}
	.st1{fill:#4579F0;}
</style>
<linearGradient id="SVGID_1_" gradientUnits="userSpaceOnUse" x1="12" y1="3.0994" x2="12" y2="19.7094">
	<stop  offset="0" style="stop-color:#2E54EB"/>
	<stop  offset="1" style="stop-color:#66C6D2"/>
</linearGradient>
<path class="st0" d="M18.08,10.3594c-0.3035-0.5109-0.4594-1.0959-0.45-1.69c-0.009-0.5909,0.1468-1.1727,0.45-1.68
	c0.3044-0.496,0.7406-0.8976,1.26-1.16c0.5637-0.2853,1.1882-0.4295,1.8199-0.42c0.6099-0.0145,1.2131,0.1303,1.75,0.42
	c0.4871,0.2672,0.8707,0.6896,1.09,1.2l-1.39,0.76c-0.2621-0.543-0.8171-0.8831-1.42-0.8701c-0.4443-0.0132-0.8746,0.1567-1.19,0.47
	c-0.3243,0.345-0.494,0.8072-0.47,1.28c-0.0245,0.4759,0.1451,0.9414,0.47,1.29c0.3057,0.3033,0.7194,0.4724,1.15,0.47
	c0.6035,0.0156,1.1597-0.3252,1.42-0.8699l1.43,0.77c-0.223,0.503-0.6063,0.9179-1.09,1.18
	c-0.1447,0.079-0.2948,0.1454-0.448,0.2031L22.1257,11.13h-3.3476C18.5084,10.9091,18.264,10.6592,18.08,10.3594z M11.76,11.8394H10
	v-8.74h1.81v3.12c0.4853-0.5396,1.1848-0.8362,1.91-0.81c0.563-0.0042,1.1176,0.137,1.61,0.41
	c0.4918,0.2591,0.8982,0.6551,1.17,1.14c0.2881,0.5231,0.433,1.113,0.42,1.71c0.0144,0.6003-0.1306,1.1938-0.42,1.72
	c-0.1546,0.2839-0.3662,0.5253-0.6031,0.7407h-0.8737l-0.4022,0.6967c-0.2801,0.0742-0.5688,0.1149-0.861,0.1127
	c-0.7599,0.0521-1.5002-0.2551-2-0.83V11.8394z M11.79,8.6694c-0.0248,0.4693,0.1369,0.9295,0.45,1.28
	c0.0002,0.0002,0.0005,0.0005,0.0007,0.0007c0.6407,0.6403,1.6791,0.64,2.3193-0.0007c0.3095-0.3521,0.4676-0.812,0.44-1.28
	c0.0271-0.4648-0.1311-0.9216-0.44-1.27c-0.0002-0.0002-0.0004-0.0004-0.0007-0.0007c-0.6407-0.6403-1.6791-0.6399-2.3193,0.0007
	C11.9275,7.7463,11.7656,8.2031,11.79,8.6694z M2,11.8394H0l3.67-8.24h1.89l3.68,8.24h-2l-0.73-1.76H2.69L2,11.8394z M3.3,8.6293
	h2.61l-1.31-3.16L3.3,8.6293z M10.22,18.1294c-0.4,0.16-0.9399,0.33-1.39,0.45l0.1792,0.7269
	c0.4918-0.1373,0.9761-0.2994,1.4508-0.4869c0.43-0.16,0.86-0.35,1.4-0.61l-0.3244-0.6685
	C11.0056,17.7909,10.62,17.9694,10.22,18.1294z M9.01,19.3094l-0.0008-0.0031C9.0061,19.3071,9.0031,19.3086,9,19.3094H9.01z
	 M3,18.7394c-0.4442-0.0352-0.93-0.16-1.43-0.26l-0.14,0.6699l-0.01,0.07c0.5,0.11,0.997,0.2299,1.45,0.26
	c0.0324,0.0022,0.13,0,0.13,0l0.12-0.74C3.12,18.7394,3.0299,18.7417,3,18.7394z M7.41,18.8494
	c-0.4677,0.062-0.9384,0.0987-1.41,0.11H5.89c-0.4664,0.0237-0.9337,0.0237-1.4,0v0.75h1.27H6c0.52,0,1,0,1.54-0.0999l-0.09-0.74
	L7.41,18.8494z"/>
<g>
	<polygon class="st1" points="16.0266,17.2596 17.2977,19.4617 19.8405,19.4617 18.5691,17.2596 	"/>
	<path class="st1" d="M21.2852,12.5858h-5.4214l-2.7108,4.6952l2.7108,4.6951h5.4214l2.7108-4.6951L21.2852,12.5858z
		 M20.4761,20.563h-3.814l-1.9069-3.3034l0.6356-1.1011l-0.0001-0.0001h3.8144l1.9069,3.3034L20.4761,20.563z M21.7475,18.3604
		l-1.9069-3.3031h-3.8144l0.636-1.1008h3.8143l1.9069,3.3029H22.383L21.7475,18.3604z"/>
</g>
</svg>
