<?xml version="1.0" encoding="utf-8"?>
<!-- Generator: Adobe Illustrator 24.1.3, SVG Export Plug-In . SVG Version: 6.00 Build 0)  -->
<svg version="1.1" id="Layer_1" xmlns="http://www.w3.org/2000/svg" xmlns:xlink="http://www.w3.org/1999/xlink" x="0px" y="0px"
	 viewBox="0 0 24 24" style="enable-background:new 0 0 24 24;" xml:space="preserve">
<style type="text/css">
	.st0{fill:url(#SVGID_1_);}
	.st1{fill:#4579F0;}
</style>
<linearGradient id="SVGID_1_" gradientUnits="userSpaceOnUse" x1="12" y1="3.66" x2="12" y2="17.16">
	<stop  offset="0" style="stop-color:#2E54EB"/>
	<stop  offset="1" style="stop-color:#66C6D2"/>
</linearGradient>
<path class="st0" d="M12.2723,17.16H0V3.66h24v9.209l-1.5-2.5981V5.16h-21v10.5h9.9063L12.2723,17.16z M6,9.66v1.5h7.9868l0.866-1.5
	H6z"/>
<g>
	<polygon class="st1" points="15.9522,15.6235 17.2233,17.8256 19.7661,17.8256 18.4947,15.6235 	"/>
	<path class="st1" d="M21.2108,10.9497h-5.4215l-2.7108,4.6952l2.7108,4.6951h5.4215l2.7108-4.6951L21.2108,10.9497z
		 M20.4017,18.9268h-3.814l-1.9069-3.3033l0.6356-1.1012l-0.0001-0.0001h3.8145l1.9069,3.3034L20.4017,18.9268z M21.6731,16.7243
		l-1.9069-3.3031h-3.8144l0.636-1.1008h3.8143l1.9069,3.3029h-0.0004L21.6731,16.7243z"/>
</g>
</svg>
