<?xml version="1.0" encoding="utf-8"?>
<!-- Generator: Adobe Illustrator 24.1.3, SVG Export Plug-In . SVG Version: 6.00 Build 0)  -->
<svg version="1.1" id="Layer_1" xmlns="http://www.w3.org/2000/svg" xmlns:xlink="http://www.w3.org/1999/xlink" x="0px" y="0px"
	 viewBox="0 0 24 24" style="enable-background:new 0 0 24 24;" xml:space="preserve">
<style type="text/css">
	.st0{fill:url(#SVGID_1_);}
	.st1{fill:#4579F0;}
</style>
<linearGradient id="SVGID_1_" gradientUnits="userSpaceOnUse" x1="12" y1="0" x2="12" y2="24">
	<stop  offset="0" style="stop-color:#2E54EB"/>
	<stop  offset="1" style="stop-color:#66C6D2"/>
</linearGradient>
<path class="st0" d="M12.8,12.8h1.5v1.5h-1.5V12.8z M12.8,16.9881L13.486,15.8H12.8V16.9881z M12.8,11.3h1.5V9.8h-1.5V11.3z
	 M15.8,11.3h1.5V9.8h-1.5V11.3z M15.8,13.1474h1.5V12.8h-1.5V13.1474z M18.8,13.1474h1.5V12.8h-1.5V13.1474z M18.8,11.3h1.5V9.8
	h-1.5V11.3z M11.3,15.8H9.8v1.5h1.5V15.8z M14.1807,24H0V1.5h3.8V0h1.4v1.5h13.5V0h1.5v1.5H24v14.9038l-1.5-2.5981V7.5h-21v15
	h11.8146L14.1807,24z M1.5,6h20.9V3h-2.2v1.5h-1.5V3H5.2v1.5H3.7V3H1.5V6z M5.3,15.8H3.8v1.5h1.5V15.8z M3.8,20.3h1.5v-1.5H3.8V20.3
	z M5.3,12.8H3.8v1.5h1.5V12.8z M8.3,12.8H6.8v1.5h1.5V12.8z M8.3,15.8H6.8v1.5h1.5V15.8z M11.3,12.8H9.8v1.5h1.5V12.8z M6.8,20.3
	h1.5v-1.5H6.8V20.3z M11.3,9.8H9.8v1.5h1.5V9.8z M9.8,20.3h1.5v-1.5H9.8V20.3z"/>
<g>
	<polygon class="st1" points="16.0208,19.277 17.2919,21.4791 19.8347,21.4791 18.5633,19.277 	"/>
	<path class="st1" d="M21.2794,14.6032h-5.4215l-2.7108,4.6952l2.7108,4.6951h5.4215l2.7108-4.6951L21.2794,14.6032z
		 M20.4704,22.5803h-3.814l-1.9069-3.3033l0.6356-1.1012l-0.0001-0.0001h3.8145l1.9069,3.3034L20.4704,22.5803z M21.7417,20.3778
		l-1.9069-3.3031h-3.8144l0.636-1.1008h3.8143l1.9069,3.3029h-0.0004L21.7417,20.3778z"/>
</g>
</svg>
