<?xml version="1.0" encoding="utf-8"?>
<!-- Generator: Adobe Illustrator 24.1.3, SVG Export Plug-In . SVG Version: 6.00 Build 0)  -->
<svg version="1.1" id="Layer_1" xmlns="http://www.w3.org/2000/svg" xmlns:xlink="http://www.w3.org/1999/xlink" x="0px" y="0px"
	 viewBox="0 0 24 24" style="enable-background:new 0 0 24 24;" xml:space="preserve">
<style type="text/css">
	.st0{fill:url(#SVGID_1_);}
	.st1{fill:#4579F0;}
</style>
<linearGradient id="SVGID_1_" gradientUnits="userSpaceOnUse" x1="12" y1="2.2258" x2="12" y2="15.7258">
	<stop  offset="0" style="stop-color:#2E54EB"/>
	<stop  offset="1" style="stop-color:#66C6D2"/>
</linearGradient>
<path class="st0" d="M12.2452,15.7258H0v-13.5h24l-0.01,11.9407l-1.4847-2.5715L22.5,10.9258v-7.2h-21v10.5h11.6112L12.2452,15.7258
	z M15.75,7.0258l2.25,3.9l2.25-3.9H15.75z"/>
<g>
	<polygon class="st1" points="16.0199,17.0555 17.291,19.2576 19.8338,19.2576 18.5623,17.0555 	"/>
	<path class="st1" d="M21.2785,12.3817H15.857l-2.7108,4.6952l2.7108,4.6951h5.4215l2.7108-4.6951L21.2785,12.3817z
		 M20.4694,20.3588h-3.814l-1.9069-3.3033l0.6356-1.1012l-0.0001-0.0001h3.8145l1.9069,3.3034L20.4694,20.3588z M21.7407,18.1562
		l-1.9069-3.3031h-3.8144l0.636-1.1008h3.8143l1.9069,3.3029h-0.0004L21.7407,18.1562z"/>
</g>
</svg>
