<svg width="24" height="24" viewBox="0 0 24 24" fill="none" xmlns="http://www.w3.org/2000/svg">
<g clip-path="url(#clip0_17010_49)">
<path fill-rule="evenodd" clip-rule="evenodd" d="M13.0117 22.0289H0V6.56242H3.26325V3.29468H6.51299V0.0449219H24V15.5114H23.5268L22.578 13.8607L22.5 13.725V1.54492H8.01299V3.29468H20.7502V13.1077H19.2502V4.79468H4.76325V6.56242H17.487V13.1077H15.987V8.06242H1.5V16.8345L7.85474 10.7159L10.6582 13.9874L12.2745 12.3712L14.28 14.3775L13.506 15.7244L12.2745 14.493L10.5735 16.1932L7.7505 12.8992L1.5 18.9165V20.5289H12.15L13.0117 22.0289ZM4.20225 9.22121C4.8165 9.22496 5.31374 9.72443 5.31374 10.3394C5.31374 10.9552 4.8165 11.4547 4.20225 11.4584H4.19475C3.5775 11.4584 3.07575 10.9574 3.07575 10.3394C3.07575 9.72218 3.5775 9.22043 4.19475 9.22043L4.20225 9.22121Z" fill="url(#paint0_linear_17010_49)"/>
<path d="M15.8775 14.6084L13.1782 19.3086L15.873 24.0007H21.282L23.9782 19.3086L21.2775 14.6084H15.8775ZM14.7772 19.2081L15.378 18.1086H19.1775L21.078 21.4079L20.4772 22.5081H16.6777L14.7772 19.2081ZM15.9772 19.2081L17.277 21.4079H19.7767L18.5775 19.2081H15.9772ZM16.5772 15.9081H20.3775L22.2772 19.2081L21.7777 20.3084L19.878 17.0076H15.978L16.5772 15.9081Z" fill="#3D72E5"/>
</g>
<defs>
<linearGradient id="paint0_linear_17010_49" x1="12" y1="0.0449219" x2="12" y2="22.0289" gradientUnits="userSpaceOnUse">
<stop stop-color="#2754DF"/>
<stop offset="1" stop-color="#67B8CB"/>
</linearGradient>
<clipPath id="clip0_17010_49">
<rect width="24" height="24" fill="white"/>
</clipPath>
</defs>
</svg>
