<?xml version="1.0" encoding="utf-8"?>
<!-- Generator: Adobe Illustrator 24.1.3, SVG Export Plug-In . SVG Version: 6.00 Build 0)  -->
<svg version="1.1" id="Layer_1" xmlns="http://www.w3.org/2000/svg" xmlns:xlink="http://www.w3.org/1999/xlink" x="0px" y="0px"
	 viewBox="0 0 24 24" style="enable-background:new 0 0 24 24;" xml:space="preserve">
<style type="text/css">
	.st0{fill:url(#SVGID_1_);}
	.st1{fill:#4579F0;}
</style>
<linearGradient id="SVGID_1_" gradientUnits="userSpaceOnUse" x1="12" y1="0" x2="12" y2="24">
	<stop  offset="0" style="stop-color:#2E54EB"/>
	<stop  offset="1" style="stop-color:#66C6D2"/>
</linearGradient>
<path class="st0" d="M15,9.62c0-1.6569-1.3431-3-3-3s-3,1.3431-3,3s1.3431,3,3,3S15,11.2769,15,9.62z M10.51,9.63
	c0-0.8229,0.6671-1.49,1.49-1.49s1.49,0.6671,1.49,1.49s-0.6671,1.49-1.49,1.49S10.51,10.4529,10.51,9.63z M3.75,22.5v-21H15v5.25
	h5.25v6.3832h1.5V5.25L16.5,0H2.25v24h11.5458l-0.866-1.5H3.75z M16.5,2.12l3.13,3.13H16.5V2.12z M12,13.5
	c0.8954,0,1.7299,0.2344,2.4633,0.6334l-0.7543,1.3066c-0.2938-0.1525-0.6031-0.2784-0.9374-0.3484
	C10.7391,14.6654,8.7461,15.9676,8.32,18h3.9108l-0.7415,1.2842L11.614,19.5H6.75v-0.75C6.75,15.8505,9.1005,13.5,12,13.5z"/>
<g>
	<polygon class="st1" points="16.0441,19.2629 17.3152,21.465 19.858,21.465 18.5866,19.2629 	"/>
	<path class="st1" d="M21.3027,14.589h-5.4215l-2.7108,4.6952l2.7108,4.6951h5.4215l2.7108-4.6951L21.3027,14.589z M20.4936,22.5662
		h-3.814l-1.9069-3.3033l0.6356-1.1012l-0.0001-0.0001h3.8145l1.9069,3.3034L20.4936,22.5662z M21.765,20.3636l-1.9069-3.3031
		h-3.8144l0.636-1.1008h3.8143l1.9069,3.3029h-0.0004L21.765,20.3636z"/>
</g>
</svg>
