<?xml version="1.0" encoding="utf-8"?>
<!-- Generator: Adobe Illustrator 24.1.3, SVG Export Plug-In . SVG Version: 6.00 Build 0)  -->
<svg version="1.1" id="Layer_1" xmlns="http://www.w3.org/2000/svg" xmlns:xlink="http://www.w3.org/1999/xlink" x="0px" y="0px"
	 viewBox="0 0 24 24" style="enable-background:new 0 0 24 24;" xml:space="preserve">
<style type="text/css">
	.st0{fill:url(#SVGID_1_);}
	.st1{fill:#4579F0;}
</style>
<linearGradient id="SVGID_1_" gradientUnits="userSpaceOnUse" x1="12" y1="2.6932" x2="12" y2="19.1932">
	<stop  offset="0" style="stop-color:#2E54EB"/>
	<stop  offset="1" style="stop-color:#66C6D2"/>
</linearGradient>
<path class="st0" d="M14.25,9.5932h-4.5l2.25-3.9L14.25,9.5932z M12,16.1432l2.25-3.9001h-4.5L12,16.1432z M24,2.6932H0v1.5h24
	V2.6932z M12.384,17.6932H0v1.5h11.5179L12.384,17.6932z"/>
<g>
	<polygon class="st1" points="16.021,19.2613 17.2921,21.4634 19.8349,21.4634 18.5635,19.2613 	"/>
	<path class="st1" d="M21.2796,14.5875h-5.4215l-2.7108,4.6952l2.7108,4.6951h5.4215l2.7108-4.6951L21.2796,14.5875z
		 M20.4705,22.5647h-3.814l-1.9069-3.3033l0.6356-1.1012L15.385,18.16h3.8145l1.9069,3.3034L20.4705,22.5647z M21.7419,20.3621
		L19.835,17.059h-3.8144l0.636-1.1008h3.8143l1.9069,3.3029h-0.0004L21.7419,20.3621z"/>
</g>
</svg>
