<?xml version="1.0" encoding="utf-8"?>
<!-- Generator: Adobe Illustrator 24.1.3, SVG Export Plug-In . SVG Version: 6.00 Build 0)  -->
<svg version="1.1" id="Layer_1" xmlns="http://www.w3.org/2000/svg" xmlns:xlink="http://www.w3.org/1999/xlink" x="0px" y="0px"
	 viewBox="0 0 24 24" style="enable-background:new 0 0 24 24;" xml:space="preserve">
<style type="text/css">
	.st0{fill:url(#SVGID_1_);}
	.st1{fill:#4579F0;}
</style>
<linearGradient id="SVGID_1_" gradientUnits="userSpaceOnUse" x1="12" y1="1.4694" x2="12" y2="17.2593">
	<stop  offset="0" style="stop-color:#2E54EB"/>
	<stop  offset="1" style="stop-color:#66C6D2"/>
</linearGradient>
<path class="st0" d="M10.13,5.2194h3v3h-1.5v-1.5h-1.5V5.2194z M5.63,6.7194h1.5v1.5h1.5v-3h-3V6.7194z M9.75,17.2593v-4.5H7.62
	l-2.35,2.3401l-2.34-2.34H0v-11.29h18.75v6.75l5.25,0.04v7.7488l-1.4689-2.5443L22.5,9.7594h-3.75v3h-7.5v3h2.0465l-0.866,1.4999
	H9.75z M17.25,11.2594v-8.29H1.56v8.25h2l0.44,0.44l1.27,1.33l1.28-1.33l0.45-0.4H17.25z"/>
<g>
	<polygon class="st1" points="16.0286,18.8948 17.2997,21.0969 19.8425,21.0969 18.5711,18.8948 	"/>
	<path class="st1" d="M21.2872,14.221h-5.4215l-2.7108,4.6952l2.7108,4.6951h5.4215l2.7108-4.6951L21.2872,14.221z M20.4781,22.1982
		h-3.814l-1.9069-3.3033l0.6356-1.1012l-0.0001-0.0001h3.8145l1.9069,3.3034L20.4781,22.1982z M21.7495,19.9956l-1.9069-3.3031
		h-3.8144l0.636-1.1008h3.8143l1.9069,3.3029H22.385L21.7495,19.9956z"/>
</g>
</svg>
