<?xml version="1.0" encoding="utf-8"?>
<!-- Generator: Adobe Illustrator 24.1.3, SVG Export Plug-In . SVG Version: 6.00 Build 0)  -->
<svg version="1.1" id="Layer_1" xmlns="http://www.w3.org/2000/svg" xmlns:xlink="http://www.w3.org/1999/xlink" x="0px" y="0px"
	 viewBox="0 0 24 24" style="enable-background:new 0 0 24 24;" xml:space="preserve">
<style type="text/css">
	.st0{fill:url(#SVGID_1_);}
	.st1{fill:#4579F0;}
</style>
<linearGradient id="SVGID_1_" gradientUnits="userSpaceOnUse" x1="12.0036" y1="-1.595602e-05" x2="12.0036" y2="24">
	<stop  offset="0" style="stop-color:#2E54EB"/>
	<stop  offset="1" style="stop-color:#66C6D2"/>
</linearGradient>
<path class="st0" d="M7.13,5.25H5C3.8954,5.2776,3.0224,6.1954,3.05,7.3C3.0776,8.4045,3.9954,9.2776,5.1,9.25h0.0485
	c0.0142,0.0386,0.0425,0.075,0.0618,0.1152C3.4603,9.6852,2.55,10.37,2.55,11.25c0.1357,1.2408,1.2516,2.1366,2.4924,2.0009
	C5.0449,13.2505,5.0474,13.2503,5.05,13.25c1.3,0,2.5-0.24,2.5-2c-0.0735-0.6922-0.4369-1.3208-1-1.73
	c-0.1993-0.1588-0.3686-0.3517-0.5-0.57c0.606-0.3497,0.9852-0.9905,1-1.69c-0.0006-0.3513-0.0938-0.6962-0.27-1h0.27
	c0.279,0.0386,0.5366-0.1562,0.5752-0.4352C7.6286,5.8,7.6302,5.775,7.63,5.75C7.6247,5.4761,7.4039,5.2553,7.13,5.25z M6.63,11.24
	c0,0.66-0.06,1-1.49,1c-1.23,0-1.5-0.79-1.5-1c0-0.21,0.63-0.75,2.38-1C6.39,10.64,6.63,10.89,6.63,11.24z M5.14,8.24
	c-0.5523,0-1-0.4477-1-1c0-0.5522,0.4477-1,1-1c0.5522,0.0055,0.9955,0.4576,0.99,1.0099C6.13,7.8022,5.6923,8.24,5.14,8.24z
	 M17.29,8.17c-0.2794-0.0334-0.5486-0.1254-0.79-0.27c-0.6829-0.3869-1.1007-1.1152-1.09-1.9c0.0099-0.5517,0.2195-1.0811,0.59-1.49
	c0.404-0.4528,0.9738-0.7233,1.58-0.75c0.5175,0.0039,1.0182,0.1838,1.42,0.51l0.28,0.24c0.0912,0.1085,0.1716,0.2257,0.24,0.35
	c0.1591,0.2452,0.2647,0.5212,0.31,0.81c0.0099,0.1098,0.0099,0.2202,0,0.33c-0.0219,1.2049-1.0049,2.1702-2.21,2.17
	C17.5106,8.1853,17.3995,8.1853,17.29,8.17z M13.3149,22.48H3l7.22-7.22l2.3955,2.0541l0.7565-1.3102L11.28,14.21l2.31-2.31
	c0.3322,0.6459,0.6862,1.2799,1.0495,1.9084l0.3857-0.668h0.8884c-0.3441-0.5929-0.6791-1.1909-0.9937-1.8004l-0.27-0.53l-0.34-0.73
	c-0.1-0.24-0.21-0.47-0.3-0.7c-0.3348-0.765-0.5895-1.5626-0.76-2.38c-0.0391-0.1746-0.0659-0.3517-0.08-0.53
	c-0.0096-0.1465-0.0044-0.2932,0-0.4399c0.0334-1.1045,0.397-2.1732,1.13-3c1.6345-1.8575,4.4653-2.0383,6.3228-0.4039
	C20.7558,2.7432,20.8818,2.868,21,3c0.1405,0.1497,0.2645,0.3139,0.37,0.49c0.4961,0.742,0.7542,1.6176,0.74,2.51
	c0,0,0.0081,0.3303,0,0.44c-0.0098,0.134-0.05,0.34-0.09,0.53C21.8637,7.6657,21.6428,8.3453,21.36,9c-0.12,0.32-0.26,0.6533-0.42,1
	c-0.19,0.41-0.4,0.85-0.63,1.3c-0.14,0.3-0.31,0.58-0.45,0.87v0.02c-0.1644,0.3049-0.3575,0.6302-0.5434,0.9504H21.39V12.55
	c0.9022-1.5977,1.5945-3.3051,2.06-5.08c0.0508-0.1723,0.0502-0.1507,0.0751-0.3009c0.0261-0.1573,0.0764-0.3892,0.0848-0.639
	c0.0097-0.1866,0.0097-0.3735,0-0.5601c-0.0165-3.298-2.6918-5.9645-5.99-5.97c-2.1486-0.0049-4.1357,1.1393-5.21,3H0.39v21h13.8024
	L13.3149,22.48z M1.86,4.53h9.92C11.6686,5.0118,11.6435,5.5057,11.63,6c-0.0051,0.1869-0.0073,0.3732,0,0.56
	c0.0079,0.1998,0.0469,0.3777,0.08,0.6c0.0215,0.1446,0.0267,0.171,0.07,0.34c0.262,1.0239,0.5652,2.0367,1,3l-11,11L1.86,4.53z"/>
<g>
	<polygon class="st1" points="16.0286,19.27 17.2997,21.4721 19.8425,21.4721 18.5711,19.27 	"/>
	<path class="st1" d="M21.2872,14.5962h-5.4215l-2.7108,4.6952l2.7108,4.6951h5.4215l2.7108-4.6951L21.2872,14.5962z
		 M20.4781,22.5734h-3.814L14.7572,19.27l0.6356-1.1012l-0.0001-0.0001h3.8145l1.9069,3.3034L20.4781,22.5734z M21.7495,20.3708
		l-1.9069-3.3031h-3.8144l0.636-1.1008h3.8143l1.9069,3.3029H22.385L21.7495,20.3708z"/>
</g>
</svg>
