<?xml version="1.0" encoding="utf-8"?>
<!-- Generator: Adobe Illustrator 24.1.3, SVG Export Plug-In . SVG Version: 6.00 Build 0)  -->
<svg version="1.1" id="Layer_1" xmlns="http://www.w3.org/2000/svg" xmlns:xlink="http://www.w3.org/1999/xlink" x="0px" y="0px"
	 viewBox="0 0 24 24" style="enable-background:new 0 0 24 24;" xml:space="preserve">
<style type="text/css">
	.st0{fill:url(#SVGID_1_);}
	.st1{fill:#4579F0;}
</style>
<linearGradient id="SVGID_1_" gradientUnits="userSpaceOnUse" x1="9.5" y1="0" x2="9.5" y2="24">
	<stop  offset="0" style="stop-color:#2E54EB"/>
	<stop  offset="1" style="stop-color:#66C6D2"/>
</linearGradient>
<path class="st0" d="M6.93,17.25L5.45,13.5L4,17.25l-4,0.26l3,2.58L2,24l3.42-2.16L8.85,24l-1-3.91l3-2.58L6.93,17.25z M7.08,19.23
	l-0.53,0.46l0.18,0.67l0.29,1.18l-1-0.65l-0.6-0.38l-0.61,0.38l-0.99,0.65l0.3-1.18l0.18-0.67l-0.54-0.46l-0.92-0.78L4,18.38
	l0.7-0.06L5,17.66l0.46-1.12l0.44,1.12L6.16,18.32l0.71,0.06L8,18.45L7.08,19.23z M7.62,13.47L12,10.72l4.3589,2.7362L15.1,8.47
	L19,5.16l-5.09-0.34L12,0l-1.92,4.82L5,5.16l3.89,3.31L7.62,13.47z M8.79,6.41l1.39-0.1l0.94-0.06l0.36-0.87L12,4.06l0.52,1.32
	l0.35,0.87l0.94,0.06l1.4,0.1l-1.09,0.92l-0.71,0.6l0.23,0.91L14,10.21l-1.2-0.75L12,9l-0.8,0.5L10,10.21l0.34-1.37l0.23-0.91
	l-0.71-0.6L8.79,6.41z"/>
<g>
	<polygon class="st1" points="16.0045,19.2819 17.2756,21.4839 19.8184,21.4839 18.547,19.2819 	"/>
	<path class="st1" d="M21.2631,14.608h-5.4215l-2.7108,4.6952l2.7108,4.6951h5.4215l2.7108-4.6951L21.2631,14.608z M20.454,22.5852
		H16.64l-1.9069-3.3033l0.6356-1.1012l-0.0001-0.0001h3.8145l1.9069,3.3034L20.454,22.5852z M21.7254,20.3826l-1.9069-3.3031
		h-3.8144l0.636-1.1008h3.8143l1.9069,3.3029h-0.0004L21.7254,20.3826z"/>
</g>
</svg>
