<svg width="24" height="24" viewBox="0 0 24 24" fill="none" xmlns="http://www.w3.org/2000/svg">
<g clip-path="url(#clip0_16529_3488)">
<path fill-rule="evenodd" clip-rule="evenodd" d="M8.322 14.6168C5.37451 11.1293 5.54399 5.90627 8.8305 2.61977C10.5623 0.886515 12.834 0.0202637 15.105 0.0202637C17.376 0.0202637 19.6478 0.886515 21.3795 2.61977C24.4163 5.65577 24.792 10.3448 22.5082 13.791L22.092 13.0673H21.1875C22.0275 11.8485 22.479 10.4063 22.479 8.89503C22.479 6.92477 21.7125 5.07302 20.319 3.68027C18.927 2.28752 17.0745 1.52027 15.105 1.52027C13.1355 1.52027 11.283 2.28752 9.891 3.68027C8.4975 5.07302 7.731 6.92477 7.731 8.89503C7.731 10.8638 8.4975 12.7163 9.891 14.109C10.8352 15.0533 11.991 15.7103 13.2518 16.035L12.4822 17.3745C11.3715 17.0318 10.3148 16.4663 9.3825 15.6773L7.9545 17.106L9.015 18.1665L3.18226 24L0 20.8178L5.83348 14.9843L6.89399 16.0448L8.322 14.6168ZM5.83348 17.106L6.89399 18.1665L3.18226 21.8783L2.121 20.8178L5.83348 17.106ZM14.4083 6.47327V11.9738H12.9443V13.4738H17.4443V11.9738H15.9083V6.47327H17.694V7.20525H19.194V4.97327H11.1945V7.20525H12.6945V6.47327H14.4083Z" fill="url(#paint0_linear_16529_3488)"/>
<path d="M15.7958 14.5447L13.0845 19.2398L15.7958 23.9347H21.2175L23.9272 19.2398L21.2175 14.5447H15.7958ZM14.6865 19.2187L15.3225 18.1178H19.137L21.0435 21.4207L20.4083 22.5217H16.5945L14.6865 19.2187ZM15.9585 19.2187L17.2298 21.4207H19.7723L18.501 19.2187H15.9585ZM16.5945 15.9157H20.409L22.3148 19.2187L21.6788 20.3189L19.7723 17.0159H15.9578L16.5945 15.9157Z" fill="#4579F0"/>
</g>
<defs>
<linearGradient id="paint0_linear_16529_3488" x1="11.9895" y1="0.0202637" x2="11.9895" y2="24" gradientUnits="userSpaceOnUse">
<stop stop-color="#2E54EB"/>
<stop offset="1" stop-color="#66C6D2"/>
</linearGradient>
<clipPath id="clip0_16529_3488">
<rect width="24" height="24" fill="white"/>
</clipPath>
</defs>
</svg>
