<?xml version="1.0" encoding="utf-8"?>
<!-- Generator: Adobe Illustrator 24.1.3, SVG Export Plug-In . SVG Version: 6.00 Build 0)  -->
<svg version="1.1" id="Layer_1" xmlns="http://www.w3.org/2000/svg" xmlns:xlink="http://www.w3.org/1999/xlink" x="0px" y="0px"
	 viewBox="0 0 24 24" style="enable-background:new 0 0 24 24;" xml:space="preserve">
<style type="text/css">
	.st0{fill:url(#SVGID_1_);}
	.st1{fill:#4579F0;}
</style>
<linearGradient id="SVGID_1_" gradientUnits="userSpaceOnUse" x1="12" y1="0" x2="12" y2="24">
	<stop  offset="0" style="stop-color:#2E54EB"/>
	<stop  offset="1" style="stop-color:#66C6D2"/>
</linearGradient>
<path class="st0" d="M15.167191,3.346335c1.466049,0,2.844019,0.57106,3.880589,1.607631l-1.054041,1.054041
	c-0.754862-0.754862-1.758677-1.170874-2.826548-1.170874c-1.067143,0-2.071686,0.416011-2.826549,1.170874l-1.054041-1.054041
	C12.323173,3.917395,13.70187,3.346335,15.167191,3.346335z M22.420502,13.847756l-0.39572-0.688803h-0.862869h-0.083757
	c2.111221-2.866129,1.879013-6.929156-0.713369-9.521538c-1.384249-1.384294-3.224726-2.146617-5.1824-2.146617
	c-1.957629,0-3.798106,0.762324-5.1824,2.146617c-2.857576,2.857576-2.857576,7.507222,0,10.364799
	c0.940985,0.940939,2.095389,1.586247,3.351431,1.908357l-0.763597,1.329198c-1.105724-0.341581-2.159492-0.8979-3.088375-1.683063
	l-1.591162,1.591161l1.054224,1.05427L3.164643,24l-3.162442-3.162441l5.797863-5.797864l1.054178,1.054132l1.591161-1.591161
	C5.516445,11.037405,5.67941,5.849683,8.945855,2.583238C10.667998,0.861094,12.925215,0,15.182386,0
	c2.257217,0,4.514387,0.861094,6.236576,2.583238C24.485546,5.649821,24.814388,10.40902,22.420502,13.847756z M6.854197,18.202137
	l-1.054132-1.054132l-3.689553,3.689554l1.054132,1.054131L6.854197,18.202137z"/>
<g>
	<polygon class="st1" points="15.928275,19.310362 17.191578,21.498955 19.718779,21.498955 18.455179,19.310362 	"/>
	<path class="st1" d="M21.154617,14.665234h-5.388244l-2.694171,4.666399l2.694171,4.666298h5.388244l2.69417-4.666296
		L21.154617,14.665234z M20.350481,22.593498h-3.790604l-1.895203-3.283035l0.631701-1.094444l-0.000099-0.000099h3.791101
		l1.895203,3.283134L20.350481,22.593498z M21.61408,20.404409l-1.895203-3.282839h-3.791001l0.632098-1.094046h3.790903
		l1.895203,3.282639h-0.000399L21.61408,20.404409z"/>
</g>
</svg>
