<?xml version="1.0" encoding="utf-8"?>
<!-- Generator: Adobe Illustrator 24.1.3, SVG Export Plug-In . SVG Version: 6.00 Build 0)  -->
<svg version="1.1" id="Layer_1" xmlns="http://www.w3.org/2000/svg" xmlns:xlink="http://www.w3.org/1999/xlink" x="0px" y="0px"
	 viewBox="0 0 24 24" style="enable-background:new 0 0 24 24;" xml:space="preserve">
<style type="text/css">
	.st0{fill:url(#SVGID_1_);}
	.st1{fill:url(#SVGID_2_);}
	.st2{fill:#4579F0;}
</style>
<g>
	<linearGradient id="SVGID_1_" gradientUnits="userSpaceOnUse" x1="12" y1="0" x2="12" y2="24">
		<stop  offset="0" style="stop-color:#2E54EB"/>
		<stop  offset="1" style="stop-color:#66C6D2"/>
	</linearGradient>
	<path class="st0" d="M13.3002,22.405C12.8734,22.4597,12.4418,22.5,12,22.5C6.201,22.5,1.5,17.799,1.5,12
		C1.5055,6.2033,6.2033,1.5055,12,1.5c5.799,0,10.5,4.701,10.5,10.5c0,0.5211-0.0433,1.0314-0.1178,1.5316l1.0974,1.9008
		C23.8086,14.3438,24,13.1961,24,12c0-6.6274-5.3726-12-12-12S0,5.3726,0,12s5.3726,12,12,12c0.7208,0,1.4237-0.0714,2.1088-0.1945
		L13.3002,22.405z"/>
	<linearGradient id="SVGID_2_" gradientUnits="userSpaceOnUse" x1="12" y1="4.88" x2="12" y2="19.13">
		<stop  offset="0" style="stop-color:#2E54EB"/>
		<stop  offset="1" style="stop-color:#66C6D2"/>
	</linearGradient>
	<polygon class="st1" points="16.1133,13.1036 19.39,10.32 14.02,9.96 12,4.88 9.97,9.96 4.61,10.32 8.73,13.82 7.38,19.13 12,16.2 
		12.9113,16.778 15.0326,13.1036 	"/>
</g>
<g>
	<polygon class="st2" points="16.036,19.2333 17.3071,21.4354 19.8499,21.4354 18.5785,19.2333 	"/>
	<path class="st2" d="M21.2946,14.5595h-5.4215l-2.7108,4.6952l2.7108,4.6951h5.4215l2.7108-4.6951L21.2946,14.5595z
		 M20.4855,22.5366h-3.814l-1.9069-3.3033l0.6356-1.1012l-0.0001-0.0001h3.8145l1.9069,3.3034L20.4855,22.5366z M21.7569,20.3341
		L19.85,17.031h-3.8144l0.636-1.1008h3.8143l1.9069,3.3029h-0.0004L21.7569,20.3341z"/>
</g>
</svg>
