<?xml version="1.0" encoding="utf-8"?>
<!-- Generator: Adobe Illustrator 24.1.3, SVG Export Plug-In . SVG Version: 6.00 Build 0)  -->
<svg version="1.1" id="Layer_1" xmlns="http://www.w3.org/2000/svg" xmlns:xlink="http://www.w3.org/1999/xlink" x="0px" y="0px"
	 viewBox="0 0 24 24" style="enable-background:new 0 0 24 24;" xml:space="preserve">
<style type="text/css">
	.st0{fill:url(#SVGID_1_);}
	.st1{fill:#4579F0;}
</style>
<linearGradient id="SVGID_1_" gradientUnits="userSpaceOnUse" x1="12" y1="0" x2="12" y2="23.25">
	<stop  offset="0" style="stop-color:#2E54EB"/>
	<stop  offset="1" style="stop-color:#66C6D2"/>
</linearGradient>
<path class="st0" d="M6,15.75h7.5276l-0.866,1.5H6V15.75z M5.25,3c-0.8284,0-1.5,0.6716-1.5,1.5S4.4216,6,5.25,6s1.5-0.6716,1.5-1.5
	S6.0784,3,5.25,3z M11.475,19.3051l0.3204-0.5551H1.5v1.5h10.5206L11.475,19.3051z M0,13.5V0h24v13.5H0z M22.5,9.43l-6.72-3.91
	L6.2,12h16.3V9.43z M3.52,12l12.2-8.25l6.78,3.94V1.5h-21L1.52,12H3.52z M12.8867,21.75H3.75v1.5h10.0027L12.8867,21.75z"/>
<g>
	<polygon class="st1" points="16.0297,19.2837 17.3009,21.4858 19.8436,21.4858 18.5722,19.2837 	"/>
	<path class="st1" d="M21.2883,14.6098h-5.4215L13.156,19.305l2.7108,4.6951h5.4215l2.7108-4.6951L21.2883,14.6098z M20.4793,22.587
		h-3.814l-1.9069-3.3033l0.6356-1.1012l-0.0001-0.0001h3.8145l1.9069,3.3034L20.4793,22.587z M21.7506,20.3844l-1.9069-3.3031
		h-3.8144l0.636-1.1008h3.8143l1.9069,3.3029h-0.0004L21.7506,20.3844z"/>
</g>
</svg>
