<?xml version="1.0" encoding="utf-8"?>
<!-- Generator: Adobe Illustrator 24.1.3, SVG Export Plug-In . SVG Version: 6.00 Build 0)  -->
<svg version="1.1" id="Layer_1" xmlns="http://www.w3.org/2000/svg" xmlns:xlink="http://www.w3.org/1999/xlink" x="0px" y="0px"
	 viewBox="0 0 24 24" style="enable-background:new 0 0 24 24;" xml:space="preserve">
<style type="text/css">
	.st0{fill:url(#SVGID_1_);}
	.st1{fill:url(#SVGID_2_);}
	.st2{fill:#4579F0;}
</style>
<g>
	<linearGradient id="SVGID_1_" gradientUnits="userSpaceOnUse" x1="10.9702" y1="6.2548" x2="10.9702" y2="17.558">
		<stop  offset="0" style="stop-color:#2E54EB"/>
		<stop  offset="1" style="stop-color:#66C6D2"/>
	</linearGradient>
	<path class="st0" d="M9.33,14.67c0.0162,0.4311,0.2209,0.8333,0.56,1.1c0.5687,0.4765,1.6719,1.2285,2.5167,1.788l0.7692-1.3322
		c-0.755-0.4999-1.7307-1.1652-2.2759-1.6158l-0.01-0.02c1.24-1.14,2.75-2.58,3.67-3.4901c0.49-0.5,0.81-1.23,0.38-1.74
		c-0.6-0.73-1.67-0.01-2.23,0.38L7.87,13c-0.3228,0.1186-0.6772,0.1186-1,0l-1.43-0.47l7.93-3.28l3.47-1.47H16.97
		c-0.03,0.34-0.18,1.33-0.35,2.47l-0.4507,2.848h1.5389L18.14,10.48c0.2-1.3,0.37-2.24,0.37-2.61
		c0.0936-0.5068-0.1031-1.0236-0.51-1.34c-0.5186-0.3231-1.1646-0.3644-1.72-0.11c0,0-2.71,1.11-3.5,1.45L4.71,11.2
		c-0.3,0.12-1.23,0.48-1.3,1.29C3.3801,12.9446,3.6082,13.3775,4,13.61l0.16,0.11c0,0,1.23,0.42,2.28,0.7401
		c0.7274,0.2792,1.5399,0.2319,2.23-0.13l1.36-0.92L9.91,13.52C9.5547,13.7975,9.3419,14.2193,9.33,14.67z"/>
	<linearGradient id="SVGID_2_" gradientUnits="userSpaceOnUse" x1="12" y1="0" x2="12" y2="24">
		<stop  offset="0" style="stop-color:#2E54EB"/>
		<stop  offset="1" style="stop-color:#66C6D2"/>
	</linearGradient>
	<path class="st1" d="M13.2548,22.4088C12.8424,22.46,12.4264,22.5,12,22.5C6.201,22.5,1.5,17.799,1.5,12
		C1.5055,6.2033,6.2033,1.5055,12,1.5c5.799,0,10.5,4.701,10.5,10.5c0,0.5445-0.045,1.078-0.1262,1.5995l1.0891,1.8862
		C23.8021,14.3813,24,13.2158,24,12c0-6.6274-5.3726-12-12-12S0,5.3726,0,12s5.3726,12,12,12c0.7057,0,1.3946-0.0677,2.0663-0.1856
		L13.2548,22.4088z"/>
</g>
<g>
	<polygon class="st2" points="15.9851,19.2277 17.2562,21.4298 19.799,21.4298 18.5276,19.2277 	"/>
	<path class="st2" d="M21.2437,14.5538h-5.4215l-2.7108,4.6952l2.7108,4.6951h5.4215l2.7108-4.6951L21.2437,14.5538z
		 M20.4347,22.531h-3.814l-1.9069-3.3033l0.6356-1.1012l-0.0001-0.0001h3.8145l1.9069,3.3034L20.4347,22.531z M21.706,20.3284
		l-1.9069-3.3031h-3.8144l0.636-1.1008h3.8143l1.9069,3.3029h-0.0004L21.706,20.3284z"/>
</g>
</svg>
