<?xml version="1.0" encoding="utf-8"?>
<!-- Generator: Adobe Illustrator 24.1.3, SVG Export Plug-In . SVG Version: 6.00 Build 0)  -->
<svg version="1.1" id="Layer_1" xmlns="http://www.w3.org/2000/svg" xmlns:xlink="http://www.w3.org/1999/xlink" x="0px" y="0px"
	 viewBox="0 0 24 24" style="enable-background:new 0 0 24 24;" xml:space="preserve">
<style type="text/css">
	.st0{fill:url(#SVGID_1_);}
	.st1{fill:#4579F0;}
</style>
<linearGradient id="SVGID_1_" gradientUnits="userSpaceOnUse" x1="9.3837" y1="-0.0002" x2="9.3837" y2="23.9998">
	<stop  offset="0" style="stop-color:#2E54EB"/>
	<stop  offset="1" style="stop-color:#66C6D2"/>
</linearGradient>
<path class="st0" d="M12.2537,22.4998h-0.1699c-4.36-0.01-5.94-3.15-5.94-5.26v-8.1h-2.3v-1.64
	c2.4317-1.0742,4.1106-3.3584,4.4099-6h2.0901v5.73h4.58v1.91h-4.59v7.76c-0.0195,0.1642-0.0237,0.3297-0.0128,0.4946
	c0.0466,0.6999,0.3622,1.3121,0.8342,1.7582l0.8249-1.4288c-0.0906-0.2064-0.1463-0.4742-0.1463-0.8339v-6.25h4.59v-4.91h-4.58
	v-5.73H7.7437C7.2691,0.0032,6.875,0.367,6.8337,0.8398c-0.1348,2.4467-1.7047,4.5818-4,5.44l-0.49,0.17v4.1899h2.35v6.6
	c0,2.76,1.93,6.76,7.4,6.76l0.1699-0.04c0.4185-0.0076,0.8726-0.0547,1.3288-0.136l-0.7902-1.3685
	C12.6198,22.474,12.4377,22.4955,12.2537,22.4998z"/>
<g>
	<polygon class="st1" points="15.6311,19.2675 16.9023,21.4696 19.445,21.4696 18.1736,19.2675 	"/>
	<path class="st1" d="M20.8897,14.5937h-5.4215l-2.7108,4.6952l2.7108,4.6951h5.4215l2.7108-4.6951L20.8897,14.5937z
		 M20.0807,22.5709h-3.814l-1.9069-3.3033l0.6356-1.1012l-0.0001-0.0001h3.8145l1.9069,3.3034L20.0807,22.5709z M21.352,20.3683
		l-1.9069-3.3031h-3.8144l0.636-1.1008h3.8143l1.9069,3.3029h-0.0004L21.352,20.3683z"/>
</g>
</svg>
