<svg width="24" height="24" viewBox="0 0 24 24" fill="none" xmlns="http://www.w3.org/2000/svg">
<path d="M6 9.73462H18V11.2346H6V9.73462ZM15 2.24194H9V3.74194H15V2.24194ZM22.5 2.24194H16.5V3.74194H22.5V2.24194ZM6 14.2423H14.3533L14.577 13.8529L15.2186 12.7423H6V14.2423ZM6 17.2423H12.6299L13.4916 15.7423H6V17.2423ZM7.5 5.24231V2.24231H0V5.24231V21.7423H12.8507L11.989 20.2423H1.5V6.74231H22.5V13.7165L22.5784 13.8529L24 16.3276V5.24231H7.5Z" fill="url(#paint0_linear_8802_1781)"/>
<path d="M15.9778 19.2002L17.2778 21.4002H19.7778L18.5778 19.2002H15.9778Z" fill="#FF808B"/>
<path d="M21.2777 14.6001H15.8777L13.1777 19.3001L15.8777 24.0001H21.2777L23.9777 19.3001L21.2777 14.6001ZM20.4777 22.5001H16.6777L14.7777 19.2001L15.3777 18.1001H19.1777L21.0777 21.4001L20.4777 22.5001ZM21.7777 20.3001L19.8777 17.0001H15.9777L16.5777 15.9001H20.3777L22.2777 19.2001L21.7777 20.3001Z" fill="#FF808B"/>
<defs>
<linearGradient id="paint0_linear_8802_1781" x1="12" y1="2.24194" x2="12" y2="21.7423" gradientUnits="userSpaceOnUse">
<stop stop-color="#2E54EB"/>
<stop offset="1" stop-color="#66C6D2"/>
</linearGradient>
</defs>
</svg>
