<?xml version="1.0" encoding="utf-8"?>
<!-- Generator: Adobe Illustrator 24.1.3, SVG Export Plug-In . SVG Version: 6.00 Build 0)  -->
<svg version="1.1" id="Layer_1" xmlns="http://www.w3.org/2000/svg" xmlns:xlink="http://www.w3.org/1999/xlink" x="0px" y="0px"
	 viewBox="0 0 24 24" style="enable-background:new 0 0 24 24;" xml:space="preserve">
<style type="text/css">
	.st0{fill:url(#SVGID_1_);}
	.st1{fill:#4579F0;}
</style>
<linearGradient id="SVGID_1_" gradientUnits="userSpaceOnUse" x1="12" y1="2.6232" x2="12" y2="18.7887">
	<stop  offset="0" style="stop-color:#2E54EB"/>
	<stop  offset="1" style="stop-color:#66C6D2"/>
</linearGradient>
<path class="st0" d="M14.25,6.5132h-4.5l2.25-3.89L14.25,6.5132z M24,10.1932H0v1.5h24V10.1932z M13.6975,15.3732H9.75
	l1.9756,3.4155L13.6975,15.3732z"/>
<g>
	<polygon class="st1" points="16.0063,19.2419 17.2774,21.444 19.8202,21.444 18.5488,19.2419 	"/>
	<path class="st1" d="M21.2649,14.5681h-5.4215l-2.7108,4.6952l2.7108,4.6951h5.4215l2.7108-4.6951L21.2649,14.5681z
		 M20.4558,22.5452h-3.814l-1.9069-3.3033l0.6356-1.1012l-0.0001-0.0001h3.8145l1.9069,3.3034L20.4558,22.5452z M21.7272,20.3427
		l-1.9069-3.3031h-3.8144l0.636-1.1008h3.8143l1.9069,3.3029h-0.0004L21.7272,20.3427z"/>
</g>
</svg>
