<?xml version="1.0" encoding="utf-8"?>
<!-- Generator: Adobe Illustrator 24.1.3, SVG Export Plug-In . SVG Version: 6.00 Build 0)  -->
<svg version="1.1" id="Layer_1" xmlns="http://www.w3.org/2000/svg" xmlns:xlink="http://www.w3.org/1999/xlink" x="0px" y="0px"
	 viewBox="0 0 24 24" style="enable-background:new 0 0 24 24;" xml:space="preserve">
<style type="text/css">
	.st0{fill:url(#SVGID_1_);}
	.st1{fill:#4579F0;}
</style>
<linearGradient id="SVGID_1_" gradientUnits="userSpaceOnUse" x1="12" y1="5.3143" x2="12" y2="14.2143">
	<stop  offset="0" style="stop-color:#2E54EB"/>
	<stop  offset="1" style="stop-color:#66C6D2"/>
</linearGradient>
<path class="st0" d="M11.4924,14.2143H6.8v-1.5h5.5584L11.4924,14.2143z M22.059,8.2143H24v-1.5H6.8v1.5h8.1565H22.059z M4.4,7.5143
	c0,1.2-0.9,2.2-2.2,2.2c-1.2,0-2.2-1-2.2-2.2s1-2.2,2.2-2.2S4.4,6.3143,4.4,7.5143z M3,7.5143c0-0.5-0.3-0.8-0.8-0.8
	c-0.4,0-0.7,0.3-0.7,0.8s0.3,0.8,0.8,0.8S3,7.9144,3,7.5143z"/>
<g>
	<polygon class="st1" points="15.9599,14.344 17.231,16.5461 19.7738,16.5461 18.5024,14.344 	"/>
	<path class="st1" d="M21.2185,9.6701H15.797l-2.7108,4.6952l2.7108,4.6951h5.4215l2.7108-4.6951L21.2185,9.6701z M20.4094,17.6473
		h-3.814l-1.9069-3.3033l0.6356-1.1012l-0.0001-0.0001h3.8145l1.9069,3.3034L20.4094,17.6473z M21.6808,15.4447l-1.9069-3.3031
		h-3.8144l0.636-1.1008h3.8143l1.9069,3.3029h-0.0004L21.6808,15.4447z"/>
</g>
</svg>
