<?xml version="1.0" encoding="utf-8"?>
<!-- Generator: Adobe Illustrator 24.1.3, SVG Export Plug-In . SVG Version: 6.00 Build 0)  -->
<svg version="1.1" id="Layer_1" xmlns="http://www.w3.org/2000/svg" xmlns:xlink="http://www.w3.org/1999/xlink" x="0px" y="0px"
	 viewBox="0 0 24 24" style="enable-background:new 0 0 24 24;" xml:space="preserve">
<style type="text/css">
	.st0{fill:url(#SVGID_1_);}
	.st1{fill:#4579F0;}
</style>
<linearGradient id="SVGID_1_" gradientUnits="userSpaceOnUse" x1="12" y1="0" x2="12" y2="24">
	<stop  offset="0" style="stop-color:#2E54EB"/>
	<stop  offset="1" style="stop-color:#66C6D2"/>
</linearGradient>
<path class="st0" d="M24.013474,3.752057v12.653183l-1.476158-2.569654l-0.025526-0.044454V5.254153l-6.006233,0.001741
	l-0.543929,0.000183l-0.417858-0.348245l-4.087378-3.406148H1.488211v20.996632H13.2379L14.100607,24h-14.11408V0h12.013565
	l4.505053,3.75421L24.013474,3.752057z M10.819889,7.508512H5.993676v2.976238H7.49536V9.010197h3.324529v9.009739H8.246202
	v1.501684h3.01432l0.563361-0.980715l0.497689-0.866373V9.010197h3.433049v1.474554h1.501685V7.508512h-4.934734H10.819889z"/>
<g>
	<polygon class="st1" points="15.9633,19.240168 17.235926,21.444639 19.781481,21.444639 18.508656,19.240168 	"/>
	<path class="st1" d="M21.227804,14.561018h-5.427588l-2.713843,4.700472l2.713843,4.700371h5.427588l2.713842-4.700371
		L21.227804,14.561018z M20.417894,22.547174h-3.818281l-1.909041-3.307009l0.636314-1.102438l-0.0001-0.000099h3.818783
		l1.909042,3.30711L20.417894,22.547174z M21.690622,20.342104l-1.909042-3.30681h-3.818682l0.636713-1.102036h3.818584
		l1.90904,3.306608h-0.000401L21.690622,20.342104z"/>
</g>
</svg>
