<?xml version="1.0" encoding="utf-8"?>
<!-- Generator: Adobe Illustrator 24.1.3, SVG Export Plug-In . SVG Version: 6.00 Build 0)  -->
<svg version="1.1" id="Layer_1" xmlns="http://www.w3.org/2000/svg" xmlns:xlink="http://www.w3.org/1999/xlink" x="0px" y="0px"
	 viewBox="0 0 24 24" style="enable-background:new 0 0 24 24;" xml:space="preserve">
<style type="text/css">
	.st0{fill:url(#SVGID_1_);}
	.st1{fill:#4579F0;}
</style>
<linearGradient id="SVGID_1_" gradientUnits="userSpaceOnUse" x1="12" y1="0.56" x2="12" y2="23.44">
	<stop  offset="0" style="stop-color:#2E54EB"/>
	<stop  offset="1" style="stop-color:#66C6D2"/>
</linearGradient>
<path class="st0" d="M18.9692,13.1136h-4.0426L13.5,15.5845V14.81c0-1.6569,1.3431-3,3-3
	C17.5266,11.81,18.4299,12.3267,18.9692,13.1136z M0,8.44h6v15H0V8.44z M1.5,21.94h3v-12h-3V21.94z M6,3.56c0,1.6569-1.3431,3-3,3
	s-3-1.3431-3-3s1.3431-3,3-3S6,1.9031,6,3.56z M4.5,3.56c0-0.8284-0.6716-1.5-1.5-1.5s-1.5,0.6716-1.5,1.5s0.6716,1.5,1.5,1.5
	S4.5,4.3884,4.5,3.56z M12.9199,21.94H10.5v-7.13c0-3.3137,2.6863-6,6-6c2.9516,0,5.3968,2.1339,5.8974,4.9415L24,16.5273V14.81
	c0-4.1422-3.3578-7.5-7.5-7.5S9,10.6678,9,14.81v8.63h4.786L12.9199,21.94z"/>
<g>
	<polygon class="st1" points="15.93,19.2433 17.2011,21.4453 19.7439,21.4453 18.4725,19.2433 	"/>
	<path class="st1" d="M21.1886,14.5694h-5.4215l-2.7108,4.6952l2.7108,4.6951h5.4215l2.7108-4.6951L21.1886,14.5694z
		 M20.3795,22.5466h-3.814l-1.9069-3.3033l0.6356-1.1012l-0.0001-0.0001h3.8145l1.9069,3.3034L20.3795,22.5466z M21.6509,20.344
		l-1.9069-3.3031h-3.8144l0.636-1.1008h3.8143l1.9069,3.3029h-0.0004L21.6509,20.344z"/>
</g>
</svg>
