<?xml version="1.0" encoding="utf-8"?>
<!-- Generator: Adobe Illustrator 24.1.3, SVG Export Plug-In . SVG Version: 6.00 Build 0)  -->
<svg version="1.1" id="Layer_1" xmlns="http://www.w3.org/2000/svg" xmlns:xlink="http://www.w3.org/1999/xlink" x="0px" y="0px"
	 viewBox="0 0 24 24" style="enable-background:new 0 0 24 24;" xml:space="preserve">
<style type="text/css">
	.st0{fill:url(#SVGID_1_);}
	.st1{fill:#4579F0;}
</style>
<linearGradient id="SVGID_1_" gradientUnits="userSpaceOnUse" x1="11.95" y1="0" x2="11.95" y2="24">
	<stop  offset="0" style="stop-color:#2E54EB"/>
	<stop  offset="1" style="stop-color:#66C6D2"/>
</linearGradient>
<path class="st0" d="M13.2709,22.5H3.8v-21H15v5.2h5.2v6.4839h1.5V5.2L16.5,0H2.2v24h11.937L13.2709,22.5z M16.5,2.1l3.1,3.1h-3.1
	V2.1z M13.9463,15l-0.866,1.5H6.8V15H13.9463z M6.8,12h10.5v1.5h-2.4877H6.8V12z M13.6,9v1.5H6.8V9H13.6z"/>
<g>
	<polygon class="st1" points="15.9982,19.3136 17.2693,21.5157 19.8121,21.5157 18.5407,19.3136 	"/>
	<path class="st1" d="M21.2568,14.6398h-5.4215l-2.7108,4.6952l2.7108,4.6951h5.4215l2.7108-4.6951L21.2568,14.6398z
		 M20.4477,22.6169h-3.814l-1.9069-3.3033l0.6356-1.1012l-0.0001-0.0001h3.8145l1.9069,3.3034L20.4477,22.6169z M21.7191,20.4144
		l-1.9069-3.3031h-3.8144l0.636-1.1008h3.8143l1.9069,3.3029h-0.0004L21.7191,20.4144z"/>
</g>
</svg>
