<svg width="24" height="25" viewBox="0 0 24 25" fill="none" xmlns="http://www.w3.org/2000/svg">
<g clip-path="url(#clip0_19279_5313)">
<path d="M10.7928 13.4061H14.8955L14.5304 14.0392L14.0325 14.9062H9.2926V4.24587C4.87997 4.96307 1.51188 8.79136 1.51188 13.4061C1.51188 18.5284 5.67047 22.6869 10.7928 22.6869C11.5811 22.6869 12.3464 22.5883 13.0772 22.4033L13.849 23.7475C12.8801 24.0334 11.8544 24.1869 10.7928 24.1869C4.84232 24.1869 0.011721 19.3565 0.0117188 13.4061C0.0117188 7.4522 4.83821 2.62573 10.7928 2.62573V13.4061Z" fill="url(#paint0_linear_19279_5313)"/>
<path fill-rule="evenodd" clip-rule="evenodd" d="M13.2108 0.207031C19.1645 0.207077 23.9909 5.03341 23.9909 10.9879H13.2108V0.207031ZM14.7107 9.48791H22.3709C21.7332 5.56365 18.6343 2.46542 14.7107 1.82771V9.48791Z" fill="url(#paint1_linear_19279_5313)"/>
<path d="M16.0273 19.4766L17.2986 21.6786H19.8418L18.5706 19.4766H16.0273Z" fill="#2754DF"/>
<path d="M21.7466 20.5777L19.8401 17.2747H16.0256L16.6616 16.1737H20.4761L22.3834 19.4767L21.7466 20.5777ZM20.4761 22.7805H16.6616L14.7551 19.4767L15.3896 18.3757H19.2041L21.1113 21.6795L20.4761 22.7805ZM21.2846 14.8027H15.8629L13.1523 19.4985L15.8629 24.1935H21.2846L23.9951 19.4985L21.2846 14.8027Z" fill="#2754DF"/>
</g>
<defs>
<linearGradient id="paint0_linear_19279_5313" x1="12.0013" y1="0.207031" x2="12.0013" y2="24.1869" gradientUnits="userSpaceOnUse">
<stop stop-color="#2754DF"/>
<stop offset="1" stop-color="#67B8CB"/>
</linearGradient>
<linearGradient id="paint1_linear_19279_5313" x1="12.0013" y1="0.207031" x2="12.0013" y2="24.1869" gradientUnits="userSpaceOnUse">
<stop stop-color="#2754DF"/>
<stop offset="1" stop-color="#67B8CB"/>
</linearGradient>
<clipPath id="clip0_19279_5313">
<rect width="24" height="24" fill="white" transform="translate(0 0.207031)"/>
</clipPath>
</defs>
</svg>
