<svg width="64" height="64" viewBox="0 0 64 64" fill="none" xmlns="http://www.w3.org/2000/svg">
<circle cx="32" cy="32" r="32" fill="#3B57F7"/>
<g clip-path="url(#clip0_11826_2765)">
<path d="M30.2521 44.2508H33.7334V46H25.0113V44.2508H28.5029V19.7494L19.7492 19.7492V21.4933H18V18L40.7447 18.0004L40.7439 21.4933H38.9947L38.9955 19.7496L30.2521 19.7494V44.2508ZM41.1564 44.2388C39.9675 44.238 39.0006 43.0337 39.0006 41.5553L39.0001 31.1164H42.482V29.3672H39L38.9998 25.8637H37.2506L37.2508 29.3672H33.7684V31.1164H37.2509L37.2514 41.5552C37.2514 43.9971 39.0023 45.9855 41.1547 45.988L45.1075 45.9914L45.1092 44.2423L41.1564 44.2388Z" fill="white"/>
</g>
<defs>
<clipPath id="clip0_11826_2765">
<rect width="28" height="28" fill="white" transform="translate(18 18)"/>
</clipPath>
</defs>
</svg>
