<?xml version="1.0" encoding="utf-8"?>
<!-- Generator: Adobe Illustrator 24.1.3, SVG Export Plug-In . SVG Version: 6.00 Build 0)  -->
<svg version="1.1" id="Layer_1" xmlns="http://www.w3.org/2000/svg" xmlns:xlink="http://www.w3.org/1999/xlink" x="0px" y="0px"
	 viewBox="0 0 24 24" style="enable-background:new 0 0 24 24;" xml:space="preserve">
<style type="text/css">
	.st0{fill:url(#SVGID_1_);}
	.st1{fill:#4579F0;}
</style>
<linearGradient id="SVGID_1_" gradientUnits="userSpaceOnUse" x1="12" y1="0" x2="12" y2="24">
	<stop  offset="0" style="stop-color:#2E54EB"/>
	<stop  offset="1" style="stop-color:#66C6D2"/>
</linearGradient>
<path class="st0" d="M19.5,2.25H21v1.5h-1.5V2.25z M14.1625,24H0V0h24v16.4352l-1.5-2.598V6h-21v10.5h11.5687l-0.866,1.5H1.5v1.5
	h10.0644l0.866,1.5H1.5v1.5h11.7965L14.1625,24z M1.5,4.5h21v-3h-21V4.5z"/>
<g>
	<polygon class="st1" points="16.0052,19.2814 17.2764,21.4835 19.8191,21.4835 18.5477,19.2814 	"/>
	<path class="st1" d="M21.2638,14.6076h-5.4215l-2.7108,4.6952l2.7108,4.6951h5.4215l2.7108-4.6951L21.2638,14.6076z
		 M20.4548,22.5848h-3.814l-1.9069-3.3033l0.6356-1.1012l-0.0001-0.0001h3.8145l1.9069,3.3034L20.4548,22.5848z M21.7261,20.3822
		l-1.9069-3.3031h-3.8144l0.636-1.1008h3.8143l1.9069,3.3029h-0.0004L21.7261,20.3822z"/>
</g>
</svg>
