<?xml version="1.0" encoding="utf-8"?>
<!-- Generator: Adobe Illustrator 24.1.3, SVG Export Plug-In . SVG Version: 6.00 Build 0)  -->
<svg version="1.1" id="Layer_1" xmlns="http://www.w3.org/2000/svg" xmlns:xlink="http://www.w3.org/1999/xlink" x="0px" y="0px"
	 viewBox="0 0 24 24" style="enable-background:new 0 0 24 24;" xml:space="preserve">
<style type="text/css">
	.st0{fill:url(#SVGID_1_);}
	.st1{fill:#4579F0;}
</style>
<linearGradient id="SVGID_1_" gradientUnits="userSpaceOnUse" x1="11.9976" y1="0" x2="11.9976" y2="19.8199">
	<stop  offset="0" style="stop-color:#2E54EB"/>
	<stop  offset="1" style="stop-color:#66C6D2"/>
</linearGradient>
<path class="st0" d="M13.9534,14.9271l-0.975,1.6888c-0.403-0.7901-0.6414-1.6779-0.643-2.6259V9.46h5.49v3.591h-1.51V10.96h-2.48v3
	C13.8354,14.2939,13.8807,14.6156,13.9534,14.9271z M11.6553,13.99c-0.0055,3.2175-2.6124,5.8245-5.83,5.83
	c-3.2175-0.0055-5.8245-2.6124-5.83-5.83V9.46h5.49v4.53c0.0001,0.1877,0.1525,0.3398,0.3403,0.3397
	c0.1876-0.0001,0.3396-0.1522,0.3397-0.3397V5.83c0-3.2198,2.6102-5.83,5.83-5.83s5.83,2.6102,5.83,5.83v2.13h-5.49V5.83
	c0-0.1877-0.1522-0.34-0.34-0.34s-0.34,0.1522-0.34,0.34V13.99z M11.9953,3.99c1.0162,0,1.84,0.8238,1.84,1.84v0.63h2.49V5.83
	c0.0002-2.3914-1.9383-4.3301-4.3297-4.3303C9.6042,1.4995,7.6655,3.4379,7.6653,5.8293c0,0.0002,0,0.0004,0,0.0007v8.16
	c0,1.0162-0.8238,1.84-1.84,1.84c-1.0162,0-1.84-0.8238-1.84-1.84v-3l-2.49-0.03v3c0.0002,2.3914,1.939,4.3298,4.3303,4.3297
	c2.3912-0.0002,4.3295-1.9385,4.3297-4.3297V5.83C10.1553,4.8138,10.9791,3.99,11.9953,3.99z M19.9953,13.051V10.96h2.5v2.7079
	l1.5046,2.6061L23.9953,9.46h-5.49v3.591H19.9953z"/>
<g>
	<polygon class="st1" points="16.04,19.1806 17.3111,21.3827 19.8539,21.3827 18.5825,19.1806 	"/>
	<path class="st1" d="M21.2986,14.5067h-5.4215l-2.7108,4.6952l2.7108,4.6951h5.4215l2.7108-4.6951L21.2986,14.5067z
		 M20.4895,22.4839h-3.814l-1.9069-3.3033l0.6356-1.1012l-0.0001-0.0001h3.8145l1.9069,3.3034L20.4895,22.4839z M21.7609,20.2813
		l-1.9069-3.3031h-3.8144l0.636-1.1008h3.8143l1.9069,3.3029h-0.0004L21.7609,20.2813z"/>
</g>
</svg>
