<svg width="24" height="24" viewBox="0 0 24 24" fill="none" xmlns="http://www.w3.org/2000/svg">
<g clip-path="url(#clip0_16159_2)">
<path fill-rule="evenodd" clip-rule="evenodd" d="M9.08258 0.0348315C9.18422 0.00225528 9.29169 -0.00760959 9.3974 0.00582225H14.7199C14.9413 0.00582225 15.1617 0.0499741 15.3217 0.207831C15.4825 0.366387 15.5299 0.587647 15.5299 0.815822V2.67582C15.5299 2.89362 15.4852 3.10913 15.3292 3.2651C15.1732 3.42106 14.9577 3.46582 14.7399 3.46582H12.7699V4.13181C14.7882 4.29018 16.7047 5.08405 18.2437 6.39916L18.6136 6.00812L18.4513 5.84101C18.3798 5.78206 18.3204 5.70964 18.2767 5.6278C18.23 5.54037 18.2021 5.44412 18.1948 5.34524C18.1876 5.24637 18.2011 5.14707 18.2345 5.05374C18.2673 4.96225 18.3185 4.87848 18.3849 4.80761C18.4499 4.73388 18.5298 4.67466 18.6192 4.63382C18.7105 4.59217 18.8096 4.57061 18.9099 4.57061C19.0102 4.57061 19.1094 4.59217 19.2006 4.63382C19.2884 4.67391 19.367 4.73171 19.4313 4.80356C19.9057 5.26818 20.3712 5.73363 20.8274 6.20924C20.9 6.2669 20.9604 6.33845 21.0052 6.41979C21.0538 6.50799 21.0827 6.60563 21.0901 6.70603C21.0975 6.80644 21.0831 6.90725 21.048 7.0016C21.0136 7.09392 20.9602 7.17793 20.8911 7.24814C20.7504 7.40129 20.5686 7.47979 20.3735 7.47577C20.1838 7.47186 20.0051 7.39089 19.8547 7.27183C19.7714 7.20586 19.7123 7.15257 19.6664 7.10562L19.307 7.47015C19.3605 7.54269 19.4157 7.61666 19.4719 7.69187C19.6708 7.95848 19.8814 8.24062 20.0694 8.5294L20.0704 8.53099C20.894 9.81684 21.3944 11.2828 21.5289 12.8038L21.5315 12.8332L21.5272 12.8624C21.5271 12.8634 21.5269 12.8644 21.5268 12.8655L20.1505 12.8961C20.0187 11.4932 19.5238 10.1473 18.713 8.99177C17.86 7.77616 16.69 6.81774 15.3302 6.22079C13.9705 5.62383 12.4731 5.41119 11.0009 5.60601C9.52868 5.80083 8.1381 6.39565 6.98042 7.32574C5.83411 8.24671 4.95961 9.4615 4.44992 10.8402V10.9571L4.4422 10.9874C4.41798 11.0827 4.37369 11.1717 4.3123 11.2484C4.25091 11.3251 4.17383 11.3879 4.08624 11.4324C3.99864 11.477 3.90254 11.5023 3.80436 11.5067C3.70791 11.511 3.61165 11.495 3.52179 11.4598C3.43224 11.4274 3.35021 11.3771 3.28076 11.3119C3.21004 11.2455 3.15389 11.1652 3.11587 11.076C3.07784 10.9868 3.05877 10.8906 3.05986 10.7937C3.06088 10.7023 3.07979 10.612 3.11545 10.528C3.37324 9.70993 3.7498 8.9341 4.23308 8.22539C5.03722 7.03578 6.10373 6.04665 7.35045 5.33425C8.58439 4.62913 9.96226 4.21373 11.3799 4.11917V3.50582H9.35992C9.14813 3.50582 8.9398 3.45926 8.78689 3.30635C8.63544 3.1549 8.58578 2.94622 8.58001 2.73258L8.57992 2.72582V0.811239C8.56796 0.704478 8.57971 0.596311 8.61442 0.494482C8.65117 0.386649 8.71266 0.288914 8.79395 0.209098C8.87525 0.129283 8.97409 0.0696023 9.08258 0.0348315ZM12.1205 21.7757C12.1068 21.7757 12.0932 21.7758 12.0795 21.7758L12.0782 21.7758C10.2595 21.7886 8.49106 21.1798 7.06569 20.0503L6.9799 19.9817C6.91442 19.9139 6.83638 19.8594 6.75006 19.8212C6.65709 19.7801 6.55657 19.7589 6.45492 19.7589C6.35327 19.7589 6.25274 19.7801 6.15977 19.8212C6.0668 19.8623 5.98344 19.9224 5.91502 19.9976L5.90728 20.0061L5.90035 20.0152C5.83893 20.0966 5.79551 20.1902 5.77295 20.2896C5.75039 20.389 5.74921 20.4921 5.76948 20.5921C5.78976 20.692 5.83103 20.7865 5.89056 20.8693C5.94594 20.9463 6.01595 21.0115 6.09651 21.0613C7.35512 22.0734 8.85106 22.7479 10.443 23.021C11.2648 23.162 12.098 23.1936 12.9216 23.1177L12.1205 21.7757ZM10.0099 2.00582V1.43582H14.0699V2.00582H10.0099ZM12.9999 12.3759L15.6199 9.74588C15.6784 9.68406 15.742 9.6272 15.8099 9.57588C15.8911 9.50748 15.9938 9.46997 16.0999 9.46997C16.2061 9.46997 16.3088 9.50748 16.3899 9.57588C16.4675 9.64987 16.5153 9.74963 16.5246 9.85643C16.5338 9.96322 16.5037 10.0697 16.4399 10.1559C16.3886 10.2238 16.3317 10.2874 16.2699 10.3459L13.6799 12.9259C13.637 12.9659 13.606 13.0168 13.5901 13.0733C13.5742 13.1297 13.5742 13.1894 13.5899 13.2459C13.6485 13.5022 13.6404 13.7692 13.5665 14.0216C13.4926 14.2739 13.3554 14.5031 13.1678 14.6874C12.9802 14.8716 12.7486 15.0048 12.495 15.0742C12.2414 15.1436 11.9743 15.1469 11.719 15.0838C11.4638 15.0207 11.229 14.8933 11.0369 14.7137C10.8448 14.5342 10.7019 14.3084 10.6218 14.058C10.5417 13.8076 10.527 13.5408 10.5792 13.2831C10.6314 13.0254 10.7487 12.7854 10.9199 12.5859C11.1501 12.3236 11.463 12.1478 11.8068 12.0878C12.1505 12.0278 12.5045 12.0871 12.8099 12.2559L12.9999 12.3759ZM12.7199 13.6359C12.7199 13.5089 12.6821 13.3847 12.6113 13.2793C12.5406 13.1738 12.44 13.0918 12.3225 13.0437C12.2049 12.9956 12.0758 12.9835 11.9513 13.009C11.8269 13.0345 11.7129 13.0965 11.6238 13.187C11.5347 13.2775 11.4746 13.3925 11.451 13.5173C11.4275 13.6421 11.4416 13.771 11.4916 13.8878C11.5415 14.0046 11.6251 14.1038 11.7317 14.1729C11.8382 14.242 11.9629 14.2779 12.0899 14.2759C12.2526 14.2657 12.4053 14.1938 12.5168 14.0749C12.6283 13.9559 12.6902 13.7989 12.6899 13.6359H12.7199ZM0.289215 18.9744H3.48906L6.11365 19.0059H6.65295C6.70522 19.0009 6.75603 18.9834 6.80214 18.9543C6.84826 18.9252 6.88867 18.8853 6.92081 18.837C6.95294 18.7887 6.97609 18.7332 6.98878 18.6739C7.00147 18.6147 7.00342 18.553 6.99451 18.4928C6.97653 18.21 6.82373 18.053 6.5361 18.053H0.459993C0.388347 18.0429 0.315919 18.0429 0.244273 18.053C0.165876 18.0939 0.100379 18.1623 0.0568864 18.2487C0.0133935 18.335 -0.00593465 18.4349 0.00158823 18.5347C0.00223466 18.6343 0.0306191 18.7311 0.0824809 18.8104C0.134343 18.8897 0.206884 18.9473 0.289215 18.9744ZM4.06421 16.4091H1.70028C1.61663 16.4195 1.53226 16.4195 1.44861 16.4091C1.35414 16.3937 1.26791 16.3381 1.20652 16.253C1.14512 16.1679 1.11289 16.0594 1.11604 15.9484C1.10975 15.8346 1.13908 15.7221 1.19857 15.6316C1.25807 15.5411 1.34371 15.4788 1.43962 15.4562H6.62588C6.72921 15.4643 6.8257 15.5193 6.89461 15.6094C6.96351 15.6994 6.99935 15.8174 6.99441 15.9379C6.9956 15.997 6.98678 16.0559 6.96845 16.111C6.95013 16.1662 6.92265 16.2166 6.88759 16.2594C6.85253 16.3022 6.81058 16.3365 6.76414 16.3604C6.71769 16.3843 6.66766 16.3973 6.6169 16.3986H4.06421V16.4091ZM2.69798 13.9485H4.67541V13.9589H6.58993C6.64338 13.9604 6.69653 13.9491 6.74616 13.926C6.79579 13.9028 6.84087 13.8681 6.87867 13.8241C6.91648 13.7801 6.94623 13.7275 6.96612 13.6697C6.98601 13.6119 6.99563 13.55 6.9944 13.4877C6.99952 13.4256 6.99325 13.363 6.97601 13.304C6.95877 13.245 6.93095 13.1909 6.8944 13.1453C6.85785 13.0998 6.81341 13.0638 6.76401 13.0398C6.71462 13.0158 6.66141 13.0043 6.6079 13.006H2.73393C2.63058 13.006 2.53133 13.0531 2.45741 13.1373C2.3835 13.2214 2.3408 13.3359 2.33845 13.4563C2.33324 13.5763 2.36756 13.694 2.43438 13.7855C2.50121 13.877 2.5955 13.9353 2.69798 13.9485Z" fill="url(#paint0_linear_16159_2)"/>
<path d="M15.0557 18.8455L16.4074 21.1284H19.1112L17.7593 18.8455H15.0557Z" fill="#4579F0"/>
<path d="M20.6476 14H14.8826L12 18.8676L14.8826 23.7351H20.6476L23.5301 18.8676L20.6476 14ZM19.7873 22.27H15.7316L13.7039 18.8454L14.3798 17.7038L14.3797 17.7037H18.4359L20.4636 21.1284L19.7873 22.27ZM21.1391 19.9866L19.1114 16.5622H15.0553L15.7316 15.421H19.7876L21.8153 18.8452H21.8149L21.1391 19.9866Z" fill="#4579F0"/>
</g>
<defs>
<linearGradient id="paint0_linear_16159_2" x1="3.5" y1="13.0059" x2="3.5" y2="19.0059" gradientUnits="userSpaceOnUse">
<stop stop-color="#2E54EB"/>
<stop offset="1" stop-color="#64C0D2"/>
</linearGradient>
<clipPath id="clip0_16159_2">
<rect width="24" height="24" fill="white"/>
</clipPath>
</defs>
</svg>
