<svg width="24" height="24" viewBox="0 0 24 24" fill="none" xmlns="http://www.w3.org/2000/svg">
<path d="M15.9766 19.2002L17.2765 21.4001H19.7763L18.5764 19.2002H15.9766Z" fill="#4579F0"/>
<path d="M21.2763 14.6006H15.8766L13.1768 19.3003L15.8766 24H21.2763L23.9761 19.3003L21.2763 14.6006ZM20.4763 22.5001H16.6765L14.7767 19.2003L15.3766 18.1004H19.1764L21.0763 21.4002L20.4763 22.5001ZM21.7762 20.3002L19.8763 17.0004H15.9766L16.5766 15.9005H20.3763L22.2762 19.2003L21.7762 20.3002Z" fill="#4579F0"/>
<path d="M5.24969 11.2432C2.3504 11.2432 0 9.39642 0 7.11841C0 4.84033 2.3504 2.99365 5.24969 2.99365V2.99072H11.2493V4.4906L9.74939 4.49146V17.2427H8.24951V4.49231L6.74957 4.49316V17.2427H5.24969V11.2432ZM21.7487 5.99091H13.4992V7.49078H21.7487V5.99091ZM23.9985 2.99365H13.5153V4.49353H23.9985V2.99365ZM11.5565 19.4911H2.24988V20.9911H12.4182L11.8762 20.0475L11.5565 19.4911ZM13.4992 13.4926H19.4988V11.9927H13.4992V13.4926ZM13.4992 8.99072V10.4906H24V8.99072H13.4992Z" fill="url(#paint0_linear_12712_5425)"/>
<defs>
<linearGradient id="paint0_linear_12712_5425" x1="12" y1="2.99072" x2="12" y2="20.9911" gradientUnits="userSpaceOnUse">
<stop stop-color="#2E54EB"/>
<stop offset="1" stop-color="#66C6D2"/>
</linearGradient>
</defs>
</svg>
