<?xml version="1.0" encoding="utf-8"?>
<!-- Generator: Adobe Illustrator 24.1.3, SVG Export Plug-In . SVG Version: 6.00 Build 0)  -->
<svg version="1.1" id="Layer_1" xmlns="http://www.w3.org/2000/svg" xmlns:xlink="http://www.w3.org/1999/xlink" x="0px" y="0px"
	 viewBox="0 0 24 24" style="enable-background:new 0 0 24 24;" xml:space="preserve">
<style type="text/css">
	.st0{fill:url(#SVGID_1_);}
	.st1{fill:#4579F0;}
</style>
<linearGradient id="SVGID_1_" gradientUnits="userSpaceOnUse" x1="9.2892" y1="0.6581" x2="9.2892" y2="22.4181">
	<stop  offset="0" style="stop-color:#2E54EB"/>
	<stop  offset="1" style="stop-color:#66C6D2"/>
</linearGradient>
<path class="st0" d="M10.882,19.4181H1.0392v-1.5h9.8182l-0.4207,0.7287L10.882,19.4181z M9.4592,9.5681l2.08-1.32l2.08,1.32
	l-0.61-2.39l1.86-1.58l-2.42-0.16l-0.91-2.29l-0.91,2.29l-2.42,0.16l1.86,1.58L9.4592,9.5681z M11.748,20.9181H3.2892v1.5h9.3248
	L11.748,20.9181z M12.5894,14.9181H5.5392v1.5h6.1842L12.5894,14.9181z M5.5392,6.6581c0-3.3137,2.6863-6,6-6s6,2.6863,6,6
	s-2.6863,6-6,6S5.5392,9.9718,5.5392,6.6581z M7.0392,6.6581c0,2.4853,2.0147,4.5,4.5,4.5s4.5-2.0147,4.5-4.5s-2.0147-4.5-4.5-4.5
	C9.0562,2.1636,7.0447,4.1751,7.0392,6.6581z"/>
<g>
	<polygon class="st1" points="14.9914,18.6254 16.2625,20.8275 18.8053,20.8275 17.5338,18.6254 	"/>
	<path class="st1" d="M20.25,13.9516h-5.4215l-2.7108,4.6952l2.7108,4.6951H20.25l2.7108-4.6951L20.25,13.9516z M19.4409,21.9288
		h-3.814l-1.9069-3.3033l0.6356-1.1012l-0.0001-0.0001h3.8145l1.9069,3.3034L19.4409,21.9288z M20.7122,19.7262l-1.9069-3.3031
		H14.991l0.636-1.1008h3.8143l1.9069,3.3029h-0.0004L20.7122,19.7262z"/>
</g>
</svg>
