<?xml version="1.0" encoding="utf-8"?>
<!-- Generator: Adobe Illustrator 24.1.3, SVG Export Plug-In . SVG Version: 6.00 Build 0)  -->
<svg version="1.1" id="Layer_1" xmlns="http://www.w3.org/2000/svg" xmlns:xlink="http://www.w3.org/1999/xlink" x="0px" y="0px"
	 viewBox="0 0 24 24" style="enable-background:new 0 0 24 24;" xml:space="preserve">
<style type="text/css">
	.st0{fill:url(#SVGID_1_);}
	.st1{fill:#4579F0;}
</style>
<linearGradient id="SVGID_1_" gradientUnits="userSpaceOnUse" x1="12" y1="0.44" x2="12" y2="18.4525">
	<stop  offset="0" style="stop-color:#2E54EB"/>
	<stop  offset="1" style="stop-color:#66C6D2"/>
</linearGradient>
<path class="st0" d="M18.75,12.88c-0.6185,0-1.12-0.5015-1.12-1.12c0-0.6186,0.5015-1.12,1.12-1.12c0.6186,0,1.12,0.5014,1.12,1.12
	C19.87,12.3785,19.3686,12.88,18.75,12.88z M14.25,10.64c-0.6185,0-1.12,0.5014-1.12,1.12c0,0.6185,0.5015,1.12,1.12,1.12
	s1.12-0.5015,1.12-1.12C15.37,11.1414,14.8685,10.64,14.25,10.64z M6.38,5.01c-0.6186,0-1.12,0.5014-1.12,1.12
	c0,0.6185,0.5014,1.12,1.12,1.12c0.6185,0,1.12-0.5015,1.12-1.12C7.5,5.5114,6.9985,5.01,6.38,5.01z M11.63,7.25
	c0.6185,0,1.12-0.5015,1.12-1.12c0-0.6186-0.5015-1.12-1.12-1.12c-0.6186,0-1.12,0.5014-1.12,1.12
	C10.51,6.7485,11.0114,7.25,11.63,7.25z M11.9576,18.4525c-1.262-0.7997-2.2182-1.914-2.6677-3.2125H9c-0.39,0-0.8-0.07-1.24-0.07
	l-4.93,2.29c-0.0958,0.049-0.2025,0.0731-0.31,0.07c-0.1542-0.002-0.3042-0.0508-0.43-0.14c-0.2221-0.1511-0.3416-0.4133-0.31-0.68
	l0.35-4.1C0.7983,11.3651,0.0295,9.6327,0,7.81c0-4.09,4.17-7.37,9-7.37s8.76,3.08,9,7c3.41,0.57,6,3.09,6,6.09
	c-0.0061,0.7339-0.1599,1.4503-0.4398,2.1129l-1.0594-1.835c0.0118-0.0963,0.0366-0.1899,0.0392-0.2879c0-2.6-2.69-4.72-6-4.72
	s-6,2.12-6,4.72c0,1.4563,0.8561,2.7474,2.1807,3.6109L11.9576,18.4525z M16.47,7.32C16.15,4.28,12.93,1.89,9,1.89
	c-4.13,0-7.5,2.65-7.5,5.92c0.0391,1.5272,0.7352,2.9633,1.91,3.94c0.1734,0.1578,0.2654,0.386,0.25,0.62l-0.28,3.18l3.95-1.84
	c0.1276-0.0604,0.2704-0.0812,0.41-0.06c0.4176,0.0574,0.8385,0.0874,1.26,0.09v-0.21C9,10.11,12.35,7.33,16.47,7.32z"/>
<g>
	<polygon class="st1" points="16.0221,19.2802 17.2932,21.4823 19.836,21.4823 18.5646,19.2802 	"/>
	<path class="st1" d="M21.2807,14.6064h-5.4215l-2.7108,4.6952l2.7108,4.6951h5.4215l2.7108-4.6951L21.2807,14.6064z
		 M20.4716,22.5835h-3.814l-1.9069-3.3033l0.6356-1.1012l-0.0001-0.0001h3.8145l1.9069,3.3034L20.4716,22.5835z M21.743,20.381
		l-1.9069-3.3031h-3.8144l0.636-1.1008h3.8143l1.9069,3.3029h-0.0004L21.743,20.381z"/>
</g>
</svg>
