<?xml version="1.0" encoding="utf-8"?>
<!-- Generator: Adobe Illustrator 24.1.3, SVG Export Plug-In . SVG Version: 6.00 Build 0)  -->
<svg version="1.1" id="Layer_1" xmlns="http://www.w3.org/2000/svg" xmlns:xlink="http://www.w3.org/1999/xlink" x="0px" y="0px"
	 viewBox="0 0 24 24" style="enable-background:new 0 0 24 24;" xml:space="preserve">
<style type="text/css">
	.st0{fill:url(#SVGID_1_);}
	.st1{fill:#4579F0;}
</style>
<linearGradient id="SVGID_1_" gradientUnits="userSpaceOnUse" x1="11.999" y1="2.2" x2="11.999" y2="21.7">
	<stop  offset="0" style="stop-color:#2E54EB"/>
	<stop  offset="1" style="stop-color:#66C6D2"/>
</linearGradient>
<path class="st0" d="M12.4252,16.1l-0.866,1.5H5.999v-1.5H12.4252z M5.999,11.6h12v-1.5h-12V11.6z M12.5416,19.8H1.999V4.2h5V8h15
	v3.6981h0.0701l1.9299,3.3427V6h-15V2.2H-0.001v19.5h13.6396L12.5416,19.8z M5.999,14.6h7.2922l0.866-1.5H5.999V14.6z"/>
<g>
	<polygon class="st1" points="15.97,17.8277 17.2411,20.0298 19.7839,20.0298 18.5125,17.8277 	"/>
	<path class="st1" d="M21.2286,13.1539h-5.4215l-2.7108,4.6952l2.7108,4.6951h5.4215l2.7108-4.6951L21.2286,13.1539z
		 M20.4195,21.1311h-3.814l-1.9069-3.3033l0.6356-1.1012l-0.0001-0.0001h3.8145l1.9069,3.3034L20.4195,21.1311z M21.6909,18.9285
		l-1.9069-3.3031h-3.8144l0.636-1.1008h3.8143l1.9069,3.3029h-0.0004L21.6909,18.9285z"/>
</g>
</svg>
