<?xml version="1.0" encoding="utf-8"?>
<!-- Generator: Adobe Illustrator 24.1.3, SVG Export Plug-In . SVG Version: 6.00 Build 0)  -->
<svg version="1.1" id="Layer_1" xmlns="http://www.w3.org/2000/svg" xmlns:xlink="http://www.w3.org/1999/xlink" x="0px" y="0px"
	 viewBox="0 0 24 24" style="enable-background:new 0 0 24 24;" xml:space="preserve">
<style type="text/css">
	.st0{fill:url(#SVGID_1_);}
	.st1{fill:#4579F0;}
</style>
<linearGradient id="SVGID_1_" gradientUnits="userSpaceOnUse" x1="12" y1="0" x2="12" y2="24">
	<stop  offset="0" style="stop-color:#2E54EB"/>
	<stop  offset="1" style="stop-color:#66C6D2"/>
</linearGradient>
<path class="st0" d="M14.1769,24H0V0h24v16.4103l-1.5-2.598V1.5h-21v21h1.69l12.5-15.37l6.0021,6.0021h-2.12L15.81,9.37L5.13,22.5
	h8.1808L14.1769,24z M7.14,3.7401c1.4525,0.0055,2.6255,1.1874,2.62,2.64S8.5725,9.0055,7.12,9
	C5.6753,8.9945,4.5055,7.8247,4.5,6.38c0-0.0067,0-0.0133,0-0.02C4.5055,4.9075,5.6874,3.7346,7.14,3.7401z M7.12,5.25
	c-0.0034,0-0.0067,0-0.01,0.0001C6.4914,5.2556,5.9945,5.7615,6,6.38C6,6.3833,6,6.3867,6.0001,6.39
	C6.0056,7.014,6.5159,7.5154,7.14,7.5099c0.624-0.0055,1.1255-0.5159,1.1199-1.14C8.2545,5.7459,7.7441,5.2445,7.12,5.25z"/>
<g>
	<polygon class="st1" points="16.0082,19.2618 17.2793,21.4639 19.8221,21.4639 18.5507,19.2618 	"/>
	<path class="st1" d="M21.2668,14.588h-5.4215l-2.7108,4.6952l2.7108,4.6951h5.4215l2.7108-4.6951L21.2668,14.588z M20.4577,22.5651
		h-3.814l-1.9069-3.3033l0.6356-1.1012l-0.0001-0.0001h3.8145l1.9069,3.3034L20.4577,22.5651z M21.7291,20.3626l-1.9069-3.3031
		h-3.8144l0.636-1.1008h3.8143l1.9069,3.3029h-0.0004L21.7291,20.3626z"/>
</g>
</svg>
