<svg fill="none" height="24" viewBox="0 0 24 24" width="24" xmlns="http://www.w3.org/2000/svg" xmlns:xlink="http://www.w3.org/1999/xlink"><linearGradient id="a" gradientUnits="userSpaceOnUse" x1="11.9998" x2="11.9998" y1="0" y2="22.2814"><stop offset="0" stop-color="#2e54eb"/><stop offset="1" stop-color="#66c6d2"/></linearGradient><clipPath id="b"><path d="m0 0h24v24h-24z"/></clipPath><g clip-path="url(#b)"><path d="m6.51215 6.9718.72918 1.76654h2.00226l-3.68597-8.243833h-1.88385l-3.67450242 8.243833h1.95514242l.73028-1.76654zm-1.90796-4.60492 1.30646 3.15583h-2.61414zm7.12471 5.64112c.4555.54974 1.1191.82464 1.9908.82464.5889 0 1.1248-.13574 1.6067-.406.483-.27143.8614-.6521 1.1374-1.14319.2737-.48993.4117-1.06152.4117-1.71362 0-.65094-.138-1.22254-.4117-1.71247-.276-.49109-.6544-.87176-1.1374-1.14319-.4819-.27026-1.0178-.40594-1.6067-.40594-.8096 0-1.4457.25531-1.9079.76593v-3.07416h-1.83786v8.73834h1.75496zm.5118-3.71589c.3025-.31744.6901-.47613 1.1605-.47613.4715 0 .8579.15869 1.1604.47613.3013.31855.4531.74408.4531 1.27771 0 .53479-.1518.96033-.4531 1.27778-.3025.31854-.6889.47729-1.1604.47729-.4704 0-.858-.15875-1.1605-.47729-.3013-.31745-.4531-.74299-.4531-1.27778 0-.53363.1518-.95916.4531-1.27771zm10.3335 2.16101 1.4261.77747c-.2289.50256-.5911.89587-1.0903 1.17767-.498.2829-1.081.42438-1.7481.42438-.6762 0-1.2823-.13916-1.8194-.41864-.5382-.27832-.958-.66473-1.2605-1.1593-.3025-.49451-.4532-1.05579-.4532-1.68488 0-.62793.1507-1.18914.4532-1.68371.3025-.49451.7223-.88092 1.2605-1.1604.5371-.27832 1.1432-.41748 1.8194-.41748.6671 0 1.2501.13916 1.7481.41748.4992.27948.8614.67737 1.0903 1.19604l-1.4261.76483c-.3289-.58081-.8039-.8706-1.4249-.8706-.4785 0-.8753.15643-1.1892.4704-.314.31396-.4704.74176-.4704 1.28344 0 .54169.1564.97071.4704 1.28467.3139.31397.7107.4704 1.1892.4704.6291 0 1.1029-.28986 1.4249-.87177zm-17.98185 11.54778h7.63635l-.3508.6109-.5064.8892h-6.77915l1.71978 1.7198-1.0606 1.0606-3.00013-3.0002v-1.0606l3.00013-3.0001 1.0606 1.0606zm14.15535-8.78069 3.0002 3.00009v1.2804h-19.49869v-1.5001h17.15779l-1.7199-1.7198z" fill="url(#a)"/><g fill="#ff808b"><path d="m16.031 19.2832 1.2712 2.2022h2.5429l-1.2715-2.2022z"/><path d="m21.2899 14.6093h-5.4218l-2.7109 4.6954 2.7109 4.6953h5.4218l2.7109-4.6953zm-.8091 7.9775h-3.8142l-1.907-3.3034.6356-1.1013 3.8146-.0002 1.907 3.3036zm1.2714-2.2027-1.907-3.3032h-3.8145l.636-1.1009h3.8145l1.9069 3.3031z"/></g></g></svg>