<?xml version="1.0" encoding="utf-8"?>
<!-- Generator: Adobe Illustrator 24.1.3, SVG Export Plug-In . SVG Version: 6.00 Build 0)  -->
<svg version="1.1" id="Layer_1" xmlns="http://www.w3.org/2000/svg" xmlns:xlink="http://www.w3.org/1999/xlink" x="0px" y="0px"
	 viewBox="0 0 24 24" style="enable-background:new 0 0 24 24;" xml:space="preserve">
<style type="text/css">
	.st0{fill:url(#SVGID_1_);}
	.st1{fill:#4579F0;}
</style>
<linearGradient id="SVGID_1_" gradientUnits="userSpaceOnUse" x1="12" y1="-1.337531e-06" x2="12" y2="20.97">
	<stop  offset="0" style="stop-color:#2E54EB"/>
	<stop  offset="1" style="stop-color:#66C6D2"/>
</linearGradient>
<path class="st0" d="M13.2013,16.3201l-0.9476,1.6413c-0.085,0.0012-0.1688,0.0114-0.2542,0.0085
	c-1.6719,0.0518-3.2817-0.636-4.4-1.88c-0.2599-0.3183-0.2153-0.7865,0.1-1.05c0.3215-0.2611,0.793-0.2166,1.06,0.1
	c0.8394,0.8873,2.0193,1.3717,3.24,1.33C12.4105,16.4849,12.8107,16.4198,13.2013,16.3201z M9.7495,11.97
	c0-0.8284-0.6716-1.5-1.5-1.5s-1.5,0.6716-1.5,1.5s0.6716,1.5,1.5,1.5S9.7495,12.7984,9.7495,11.97z M17.1427,11.97
	c0-0.8284-0.6716-1.5-1.5-1.5s-1.5,0.6716-1.5,1.5s0.6716,1.5,1.5,1.5S17.1427,12.7984,17.1427,11.97z M12.4212,20.9471
	c-0.1418,0.0043-0.2785,0.0229-0.4218,0.0229c-5.35,0-9.76-2.98-10.26-6.78c-1.0898-0.763-1.7393-2.0095-1.74-3.34
	c0-2.277,1.843-4.1245,4.12-4.13c0.7291-0.0022,1.4448,0.1949,2.07,0.57c1.6162-0.7936,3.3808-1.2399,5.18-1.31l1.4-4.69
	c0.1072-0.3903,0.5082-0.622,0.9-0.52l3.17,0.8c0.525-0.9683,1.5385-1.571,2.64-1.5699c1.6569,0,3,1.3431,3,3c0,1.6568-1.3431,3-3,3
	s-3-1.3432-3-3l-2.48-0.6201L12.9294,6c1.6981,0.1026,3.3594,0.5375,4.89,1.28c0.6252-0.3653,1.3359-0.5585,2.06-0.56
	c1.3371-0.0018,2.5919,0.6453,3.3657,1.7357c1.1928,1.6809,0.9341,3.9398-0.502,5.3308l-0.1772,0.128l-0.4366-0.7563h-1.3422
	c-0.2311-3.0655-3.8198-5.5238-8.3077-5.6882h-0.48h-1.09c-4.35,0.41-7.72,2.94-7.72,6c0,3.2089,3.7153,5.8274,8.3701,5.9849
	L12.4212,20.9471z M19.4094,8.2599c1.3286,0.9415,2.2926,2.3116,2.73,3.88c0.2277-0.3777,0.3519-0.8089,0.36-1.25
	c0-1.4486-1.1714-2.6245-2.62-2.63C19.723,8.2496,19.566,8.2496,19.4094,8.2599z M17.9995,2.97c0,0.8284,0.6716,1.5,1.5,1.5
	s1.5-0.6716,1.5-1.5s-0.6716-1.5-1.5-1.5c-0.7036-0.0131-1.3242,0.4586-1.5,1.14c0.004,0.0198,0.004,0.0402,0,0.06
	C17.9891,2.7697,17.9891,2.8702,17.9995,2.97z M1.8594,12.14c0.4327-1.568,1.398-2.9363,2.73-3.87
	c-0.1547-0.0319-0.3121-0.0487-0.47-0.05C3.6484,8.2164,3.1852,8.3408,2.7794,8.58C1.5422,9.309,1.1304,10.9029,1.8594,12.14z"/>
<g>
	<polygon class="st1" points="16.0302,19.2878 17.3013,21.4899 19.8441,21.4899 18.5727,19.2878 	"/>
	<path class="st1" d="M21.2888,14.614h-5.4215l-2.7108,4.6952l2.7108,4.6951h5.4215l2.7108-4.6951L21.2888,14.614z M20.4797,22.5912
		h-3.814l-1.9069-3.3033l0.6356-1.1012l-0.0001-0.0001h3.8145l1.9069,3.3034L20.4797,22.5912z M21.7511,20.3886l-1.9069-3.3031
		h-3.8144l0.636-1.1008h3.8143l1.9069,3.3029h-0.0004L21.7511,20.3886z"/>
</g>
</svg>
