<?xml version="1.0" encoding="utf-8"?>
<!-- Generator: Adobe Illustrator 24.1.3, SVG Export Plug-In . SVG Version: 6.00 Build 0)  -->
<svg version="1.1" id="Layer_1" xmlns="http://www.w3.org/2000/svg" xmlns:xlink="http://www.w3.org/1999/xlink" x="0px" y="0px"
	 viewBox="0 0 24 24" style="enable-background:new 0 0 24 24;" xml:space="preserve">
<style type="text/css">
	.st0{fill:url(#SVGID_1_);}
	.st1{fill:#4579F0;}
</style>
<linearGradient id="SVGID_1_" gradientUnits="userSpaceOnUse" x1="10.9879" y1="3.675" x2="10.9879" y2="14.175">
	<stop  offset="0" style="stop-color:#2E54EB"/>
	<stop  offset="1" style="stop-color:#66C6D2"/>
</linearGradient>
<path class="st0" d="M15.0558,9.4788l3.288-5.6937l3.288,5.6937h-1.7329l-1.555-2.6937l-1.555,2.6937H15.0558z M0.3439,3.675h10.5
	v10.5h-10.5V3.675z M1.8439,12.675h7.5v-7.5h-7.5V12.675z"/>
<g>
	<polygon class="st1" points="15.6867,15.6085 16.9578,17.8106 19.5006,17.8106 18.2292,15.6085 	"/>
	<path class="st1" d="M20.9453,10.9346h-5.4215l-2.7108,4.6952l2.7108,4.6951h5.4215l2.7108-4.6951L20.9453,10.9346z
		 M20.1362,18.9118h-3.814l-1.9069-3.3033l0.6356-1.1012l-0.0001-0.0001h3.8145l1.9069,3.3034L20.1362,18.9118z M21.4076,16.7092
		l-1.9069-3.3031h-3.8144l0.636-1.1008h3.8143l1.9069,3.3029h-0.0004L21.4076,16.7092z"/>
</g>
</svg>
