<?xml version="1.0" encoding="utf-8"?>
<!-- Generator: Adobe Illustrator 24.1.3, SVG Export Plug-In . SVG Version: 6.00 Build 0)  -->
<svg version="1.1" id="Layer_1" xmlns="http://www.w3.org/2000/svg" xmlns:xlink="http://www.w3.org/1999/xlink" x="0px" y="0px"
	 viewBox="0 0 24 24" style="enable-background:new 0 0 24 24;" xml:space="preserve">
<style type="text/css">
	.st0{fill:url(#SVGID_1_);}
	.st1{fill:#4579F0;}
</style>
<linearGradient id="SVGID_1_" gradientUnits="userSpaceOnUse" x1="11.6139" y1="0.6414" x2="11.6139" y2="17.1378">
	<stop  offset="0" style="stop-color:#2E54EB"/>
	<stop  offset="1" style="stop-color:#66C6D2"/>
</linearGradient>
<path class="st0" d="M13.4554,15.8327l-4.9565-2.7614c0.0928-0.3622,0.1299-0.7366,0.11-1.11c0.0004-0.3798-0.0569-0.7574-0.17-1.12
	l7.07-4c0.707,0.8274,1.7416,1.3027,2.83,1.3c2.071,0.011,3.7589-1.659,3.77-3.7299c0.011-2.071-1.6589-3.7589-3.73-3.77
	c-2.071-0.0111-3.7589,1.6589-3.7699,3.73c-0.0001,0.0099-0.0001,0.0199-0.0001,0.0299c-0.0013,0.3839,0.0594,0.7655,0.18,1.1299
	l-7.06,4c-0.7108-0.8418-1.7582-1.3253-2.86-1.32c-2.0712,0-3.75,1.679-3.75,3.75c0,2.071,1.6788,3.75,3.75,3.75
	c1.1002,0.0012,2.1442-0.486,2.85-1.33l4.983,2.7566L13.4554,15.8327z M16.1389,4.4013c-0.0002-1.2272,0.983-2.2282,2.21-2.25
	c1.2535-0.0181,2.2845,0.9834,2.3026,2.2369c0.0181,1.2536-0.9834,2.2845-2.237,2.3026c-1.1307,0.0163-2.1011-0.8022-2.2756-1.9196
	C16.1235,4.6484,16.1235,4.5242,16.1389,4.4013z M7.1088,11.9613c0.0037,0.1204-0.0031,0.2408-0.02,0.36
	c-0.0435,0.2507-0.1244,0.4934-0.24,0.72c-0.1235,0.2238-0.286,0.4236-0.48,0.59c-0.4105,0.3732-0.9453,0.58-1.5,0.58
	c-1.2427,0-2.25-1.0074-2.25-2.25s1.0073-2.25,2.25-2.25c0.8344-0.0099,1.6052,0.4448,2,1.18c0.1215,0.2241,0.2027,0.4678,0.24,0.72
	C7.1191,11.7277,7.1191,11.8448,7.1088,11.9613z"/>
<g>
	<polygon class="st1" points="16.0025,19.2885 17.2736,21.4906 19.8164,21.4906 18.545,19.2885 	"/>
	<path class="st1" d="M21.2611,14.6146h-5.4215l-2.7108,4.6952l2.7108,4.6951h5.4215l2.7108-4.6951L21.2611,14.6146z
		 M20.452,22.5918h-3.814l-1.9069-3.3033l0.6356-1.1012l-0.0001-0.0001h3.8145l1.9069,3.3034L20.452,22.5918z M21.7234,20.3892
		l-1.9069-3.3031h-3.8144l0.636-1.1008h3.8143l1.9069,3.3029h-0.0004L21.7234,20.3892z"/>
</g>
</svg>
