<?xml version="1.0" encoding="utf-8"?>
<!-- Generator: Adobe Illustrator 24.1.3, SVG Export Plug-In . SVG Version: 6.00 Build 0)  -->
<svg version="1.1" id="Layer_1" xmlns="http://www.w3.org/2000/svg" xmlns:xlink="http://www.w3.org/1999/xlink" x="0px" y="0px"
	 viewBox="0 0 24 24" style="enable-background:new 0 0 24 24;" xml:space="preserve">
<style type="text/css">
	.st0{fill:url(#SVGID_1_);}
	.st1{fill:#4579F0;}
</style>
<linearGradient id="SVGID_1_" gradientUnits="userSpaceOnUse" x1="12.0023" y1="2.0458" x2="12.0023" y2="21.9301">
	<stop  offset="0" style="stop-color:#2E54EB"/>
	<stop  offset="1" style="stop-color:#66C6D2"/>
</linearGradient>
<path class="st0" d="M12.8389,19.4802C9.9463,20.6345,6.7181,20.7333,3.74,19.69c1.6334-0.356,3.1799-1.0323,4.55-1.99
	c0.1187-0.0799,0.212-0.1921,0.269-0.3232c0.1651-0.3799-0.009-0.8217-0.389-0.9868C1.61,13.47,2.32,7.82,3.02,5.31
	c2.2891,2.5426,5.5802,3.9504,9,3.85c0,0,0.0001,0,0.0001,0c0.4086-0.0056,0.7354-0.3413,0.7299-0.75v-1
	c-0.0125-1.1261,0.4702-2.201,1.32-2.94c1.5938-1.3875,4.0103-1.2219,5.4,0.3701c0.194,0.2271,0.5044,0.3175,0.79,0.23
	c0.5138-0.1515,1.0153-0.342,1.5-0.57c-0.3201,0.5512-0.7099,1.0587-1.16,1.51c-0.1798,0.1728-0.259,0.4255-0.21,0.67
	c0.0386,0.2349,0.062,0.4721,0.07,0.71c0,1.2404-0.1586,2.4149-0.4269,3.5297h1.5422C21.8065,9.8074,21.94,8.645,21.94,7.43V6.84
	C22.9427,5.7565,23.6519,4.4346,24,3c0.0659-0.233,0.0153-0.4834-0.1359-0.6725C23.6055,2.004,23.1335,1.9514,22.81,2.21
	c-0.7852,0.5612-1.6475,1.0058-2.56,1.32c-1.0011-0.9424-2.3271-1.4623-3.7018-1.4516C13.599,2.1015,11.227,4.5109,11.25,7.46v0.27
	C8.1103,7.5847,5.2151,5.993,3.41,3.42c-0.1589-0.2192-0.42-0.3403-0.69-0.32C2.451,3.1307,2.2187,3.3021,2.11,3.55
	c-0.04,0.09-3.9,9.06,4.24,13.65c-1.7266,0.8954-3.6565,1.3262-5.6,1.25C0.3992,18.4256,0.0822,18.6581,0,19
	c-0.0882,0.34,0.0748,0.6951,0.39,0.85c2.3774,1.3449,5.0587,2.0609,7.79,2.08c1.8754,0.0071,3.7226-0.3745,5.4386-1.0995
	L12.8389,19.4802z"/>
<g>
	<polygon class="st1" points="16.0025,17.0494 17.2736,19.2515 19.8164,19.2515 18.545,17.0494 	"/>
	<path class="st1" d="M21.2611,12.3755h-5.4215l-2.7108,4.6952l2.7108,4.6951h5.4215l2.7108-4.6951L21.2611,12.3755z
		 M20.452,20.3527h-3.814l-1.9069-3.3033l0.6356-1.1012l-0.0001-0.0001h3.8145l1.9069,3.3034L20.452,20.3527z M21.7234,18.1501
		l-1.9069-3.3031h-3.8144l0.636-1.1008h3.8143l1.9069,3.3029h-0.0004L21.7234,18.1501z"/>
</g>
</svg>
