<?xml version="1.0" encoding="utf-8"?>
<!-- Generator: Adobe Illustrator 24.1.3, SVG Export Plug-In . SVG Version: 6.00 Build 0)  -->
<svg version="1.1" id="Layer_1" xmlns="http://www.w3.org/2000/svg" xmlns:xlink="http://www.w3.org/1999/xlink" x="0px" y="0px"
	 viewBox="0 0 24 24" style="enable-background:new 0 0 24 24;" xml:space="preserve">
<style type="text/css">
	.st0{fill:url(#SVGID_1_);}
	.st1{fill:#4579F0;}
</style>
<linearGradient id="SVGID_1_" gradientUnits="userSpaceOnUse" x1="12" y1="3.75" x2="12" y2="20.25">
	<stop  offset="0" style="stop-color:#2E54EB"/>
	<stop  offset="1" style="stop-color:#66C6D2"/>
</linearGradient>
<path class="st0" d="M13.313,12.75H6.75v-1.5h7.429L13.313,12.75z M24,5.25H6.75v1.5H24V5.25z M4.5,18
	c0,1.2426-1.0074,2.25-2.25,2.25S0,19.2426,0,18s1.0074-2.25,2.25-2.25S4.5,16.7574,4.5,18z M3,18
	c-0.0054-0.412-0.338-0.7446-0.75-0.75c-0.4142,0-0.75,0.3358-0.75,0.75s0.3358,0.75,0.75,0.75S3,18.4142,3,18z M12.3047,17.25H6.75
	v1.5h6.4208L12.3047,17.25z M4.5,12c0,1.2426-1.0074,2.25-2.25,2.25S0,13.2426,0,12s1.0074-2.25,2.25-2.25S4.5,10.7574,4.5,12z
	 M3,12c-0.0054-0.412-0.338-0.7446-0.75-0.75c-0.4142,0-0.75,0.3358-0.75,0.75s0.3358,0.75,0.75,0.75S3,12.4142,3,12z M4.5,6
	c0,1.2426-1.0074,2.25-2.25,2.25S0,7.2426,0,6s1.0074-2.25,2.25-2.25S4.5,4.7574,4.5,6z M3,6C2.9946,5.588,2.662,5.2554,2.25,5.25
	C1.8358,5.25,1.5,5.5858,1.5,6s0.3358,0.75,0.75,0.75S3,6.4142,3,6z"/>
<g>
	<polyline class="st1" points="17.3356,18.0539 19.8784,18.0539 18.607,15.8518 16.0645,15.8518 	"/>
	<path class="st1" d="M21.2883,11.2684h-5.4215l-2.7108,4.6952l2.7108,4.6951h5.4215l2.7108-4.6951L21.2883,11.2684z
		 M20.514,19.1552H16.7l-1.9069-3.3034l0.6356-1.1012l-0.0001-0.0001h3.8144l1.9069,3.3034L20.514,19.1552z M21.7854,16.9526
		l-1.9069-3.3031h-3.8144l0.636-1.1008h3.8143l1.9069,3.3029h-0.0004L21.7854,16.9526z"/>
</g>
</svg>
