<svg width="13" height="13" viewBox="0 0 13 13" fill="none" xmlns="http://www.w3.org/2000/svg">
<path d="M13 6.5C13 8.22391 12.3152 9.87721 11.0962 11.0962C9.87721 12.3152 8.22391 13 6.5 13C4.77609 13 3.12279 12.3152 1.90381 11.0962C0.68482 9.87721 0 8.22391 0 6.5C0 4.77609 0.68482 3.12279 1.90381 1.90381C3.12279 0.68482 4.77609 0 6.5 0C8.22391 0 9.87721 0.68482 11.0962 1.90381C12.3152 3.12279 13 4.77609 13 6.5ZM9.77437 4.03813C9.71634 3.98029 9.64723 3.93475 9.57119 3.90424C9.49515 3.87372 9.41374 3.85885 9.33183 3.86052C9.24991 3.86219 9.16917 3.88036 9.09443 3.91395C9.0197 3.94754 8.95251 3.99585 8.89687 4.056L6.07506 7.65131L4.3745 5.94994C4.25898 5.8423 4.10619 5.7837 3.94833 5.78648C3.79046 5.78927 3.63983 5.85322 3.52818 5.96487C3.41653 6.07652 3.35258 6.22714 3.3498 6.38501C3.34701 6.54288 3.40561 6.69567 3.51325 6.81119L5.66313 8.96187C5.72104 9.01969 5.79001 9.06524 5.86591 9.09582C5.94182 9.1264 6.0231 9.14138 6.10492 9.13986C6.18674 9.13834 6.26741 9.12036 6.34213 9.08699C6.41685 9.05362 6.48408 9.00554 6.53981 8.94563L9.78331 4.89125C9.89389 4.77628 9.95497 4.62254 9.95345 4.46303C9.95194 4.30352 9.88793 4.15097 9.77519 4.03813H9.77437Z" fill="#40505D"/>
</svg>
