<svg width="24" height="24" viewBox="0 0 24 24" fill="none" xmlns="http://www.w3.org/2000/svg">
<path fill-rule="evenodd" clip-rule="evenodd" d="M1.875 7.33594V8.46094H0V13.7109H1.875V15.2552H0V20.5052H5.25V15.2552H3.375V13.7109H5.25V8.46094H3.375V7.33594H5.25V2.08594H0V7.33594H1.875ZM1.5 16.7552H3.75V19.0052H1.5V16.7552ZM12.1215 17.1302H6.75V18.6302H12.9832L12.1215 17.1302ZM1.5 9.96094H3.75V12.2109H1.5V9.96094ZM14.595 10.5429L14.7142 10.3359H6.75V11.8359H13.8525L14.595 10.5429ZM1.5 3.58594H3.75V5.83594H1.5V3.58594ZM6.75 5.46094H24V3.96094H6.75V5.46094Z" fill="url(#paint0_linear_17010_34)"/>
<path d="M21.2856 11.2949H15.8638L13.1533 15.9899L15.8638 20.6849H21.2856L23.9961 15.9899L21.2856 11.2949ZM20.4763 19.2719H16.6626L14.7553 15.9689L15.3906 14.8672H19.2051L21.1123 18.1709L20.4763 19.2719ZM16.0266 15.9689L17.2978 18.1717H19.8411L18.5698 15.9689H16.0266ZM21.7476 17.0692L19.8411 13.7662H16.0266L16.6626 12.6652H20.4771L22.3843 15.9682L21.7476 17.0692Z" fill="#4579F0"/>
<defs>
<linearGradient id="paint0_linear_17010_34" x1="12" y1="2.08594" x2="12" y2="20.5052" gradientUnits="userSpaceOnUse">
<stop stop-color="#3056EB"/>
<stop offset="1" stop-color="#64C3D3"/>
</linearGradient>
</defs>
</svg>
