<svg width="64" height="64" viewBox="0 0 64 64" fill="none" xmlns="http://www.w3.org/2000/svg">
<circle cx="32" cy="32" r="32" fill="#3B57F7"/>
<path d="M43.6428 31.6759V33.7019H33.311V31.6759H43.6428ZM33.2632 38.8206H33.2254C33.2254 38.8422 33.2252 38.8625 33.2252 38.8839L33.2632 38.8206ZM28.1399 29.65H43.6428V27.624H28.1399V29.65ZM34.0883 46.1954C27.0727 46.1892 17.4789 46.1826 17.4789 46.1826L17.4772 31.8246H19.5828V29.7987H17.4771L17.4765 25.1809H19.5828V23.155H16.4276C16.031 23.1497 15.6336 23.1444 15.375 23.1444V23.155V25.1809V48.2086H35.2954L34.0883 46.1954ZM22.4731 42.8625L28.349 37.2041V40.8464H30.4529V35.7816V33.7557H28.349H23.0893V35.7816H26.8509L20.9854 41.4299L22.4731 42.8625ZM42.5909 21.1409H44.6948V19.1149H42.5909V21.1409ZM23.0893 31.7331V15.793H49.0373V37.8977L46.9334 34.3887V24.4628H25.1932V31.7298C24.83 31.7227 23.5481 31.7358 23.0893 31.7331ZM25.1932 22.4367H46.9334V17.8189H25.1932V22.4367Z" fill="white"/>
<path d="M38.5859 41.7891L40.2361 44.6478H43.5371L41.8866 41.7891H38.5859Z" fill="white"/>
<path d="M45.4088 35.7207H38.3707L34.8516 41.816L38.3707 47.9111H45.4088L48.928 41.816L45.4088 35.7207ZM44.3585 46.0765H39.4072L36.9317 41.7882L37.7568 40.3586L42.7086 40.3585L45.1841 44.6469L44.3585 46.0765ZM46.009 43.2172L43.5335 38.9292H38.5817L39.4073 37.5001H44.359L46.8345 41.7879L46.009 43.2172Z" fill="white"/>
</svg>
