<?xml version="1.0" encoding="utf-8"?>
<!-- Generator: Adobe Illustrator 24.1.3, SVG Export Plug-In . SVG Version: 6.00 Build 0)  -->
<svg version="1.1" id="Layer_1" xmlns="http://www.w3.org/2000/svg" xmlns:xlink="http://www.w3.org/1999/xlink" x="0px" y="0px"
	 viewBox="0 0 24 24" style="enable-background:new 0 0 24 24;" xml:space="preserve">
<style type="text/css">
	.st0{fill:url(#SVGID_1_);}
	.st1{fill:#FF808B;}
</style>
<linearGradient id="SVGID_1_" gradientUnits="userSpaceOnUse" x1="10.5009" y1="23.7639" x2="10.5009" y2="2.777" gradientTransform="matrix(1 0 0 -1 0 24)">
	<stop  offset="0" style="stop-color:#2E54E9"/>
	<stop  offset="1" style="stop-color:#66C4D0"/>
</linearGradient>
<path class="st0" d="M16.9884,5.9865c0.0001,0.276-0.1097,0.5406-0.305,0.7357s-0.4602,0.3045-0.7364,0.304
	c-2.1977,0-3.0514,1.3387-4.1949,3.541l-0.7034,1.3287c-1.0787,2.0764-2.4202,4.6615-6.042,4.6615
	c-0.2758-0.0005-0.54-0.1102-0.7349-0.305c-0.0001,0-0.0002-0.0001-0.0002-0.0002c-0.406-0.4059-0.4061-1.0639-0.0003-1.4699
	c0.195-0.1952,0.4596-0.3046,0.7353-0.3045c2.1993,0,3.0528-1.3387,4.195-3.541l0.7048-1.3286
	c1.0787-2.0766,2.4203-4.6616,6.0405-4.6616v0.0002C16.5215,4.9471,16.9873,5.4122,16.9884,5.9865z M0.0075,0.2361V21.223h12.7016
	l-0.8097-1.4095l-0.0514-0.0896H1.5066V1.7352h17.9887v11.1355h1.4991V0.2361H0.0075z"/>
<g>
	<polygon class="st1" points="15.9975,18.9669 17.2967,21.1655 19.7951,21.1655 18.5959,18.9669 	"/>
	<path class="st1" d="M21.2942,14.3697h-5.3966l-2.6983,4.6971l2.6983,4.6971h5.3966l2.6983-4.6971L21.2942,14.3697z
		 M20.4947,22.2648h-3.7976l-1.8988-3.2979l0.5996-1.0993l0,0h3.7976l1.8988,3.2979L20.4947,22.2648z M21.7939,20.0662
		l-1.8988-3.2979h-3.8976l0.5996-1.0993h3.7976l1.8988,3.2979l0,0L21.7939,20.0662z"/>
</g>
</svg>