<?xml version="1.0" encoding="utf-8"?>
<!-- Generator: Adobe Illustrator 24.1.3, SVG Export Plug-In . SVG Version: 6.00 Build 0)  -->
<svg version="1.1" id="Layer_1" xmlns="http://www.w3.org/2000/svg" xmlns:xlink="http://www.w3.org/1999/xlink" x="0px" y="0px"
	 viewBox="0 0 24 24" style="enable-background:new 0 0 24 24;" xml:space="preserve">
<style type="text/css">
	.st0{fill:url(#SVGID_1_);}
	.st1{fill:#4579F0;}
</style>
<linearGradient id="SVGID_1_" gradientUnits="userSpaceOnUse" x1="11.7757" y1="4.557" x2="11.7757" y2="19.43">
	<stop  offset="0" style="stop-color:#2E54EB"/>
	<stop  offset="1" style="stop-color:#66C6D2"/>
</linearGradient>
<path class="st0" d="M11.9075,17.9113C9.4933,17.8141,7.0208,16.2849,5.25,13.74C2.38,9.72,1.59,6.78,1.51,6.07h2.54
	c0.22,0,0.25,0,0.41,0.45c0.97,2.85,3.17,7.08,4.77,7.08c1.21,0,1.21-1.27,1.21-1.69V8.24c-0.0107-0.7935-0.293-1.5594-0.8-2.17
	h3.51c0.0057,0.0498,0.0057,0.1002,0,0.15v4.88c0,0.8516,0.3955,1.3191,0.9507,1.4115c0,0,0.6189,0.0433,1.1431-0.249
	c0.5421-0.3023,1.2039-1.3027,1.2039-1.3027C17.5433,9.5193,18.4625,7.9521,19.16,6.28C19.23,6.1,19.3,6.04,19.53,6.04h2.55
	c-0.2083,0.9327-2.0027,3.6656-2.8694,4.9197h1.7848c0.9872-1.4819,2.27-3.619,2.4646-4.5197c0.1652-0.4431,0.1055-0.9387-0.16-1.33
	c-0.3199-0.3805-0.8046-0.5818-1.3-0.54h-2.47c-0.7745-0.0301-1.4822,0.4363-1.76,1.16c-0.7249,1.7225-1.6876,3.3348-2.86,4.79
	L14.65,10.77V6.22c0-1.4399-0.9-1.65-1.44-1.65H9.34C8.6136,4.5751,8.0215,5.1539,8,5.88c0.0087,0.3922,0.1577,0.7682,0.42,1.06
	c0.3334,0.3668,0.5187,0.8443,0.52,1.34v3.49C7.5827,10.0439,6.5432,8.0901,5.87,6C5.6909,5.1448,4.9233,4.5417,4.05,4.57H1.59
	C1.5126,4.5594,1.4344,4.5552,1.3563,4.5576C0.5834,4.5814-0.0237,5.2272,0,6c0,0.94,1,4.39,4.03,8.61
	C6.16,17.63,9.16,19.43,12.16,19.43c0.2086,0,0.4118-0.009,0.6107-0.0238L11.9075,17.9113z"/>
<g>
	<polygon class="st1" points="16,17.0893 17.2711,19.2914 19.8139,19.2914 18.5425,17.0893 	"/>
	<path class="st1" d="M21.2586,12.4155h-5.4215l-2.7108,4.6952l2.7108,4.6951h5.4215l2.7108-4.6951L21.2586,12.4155z
		 M20.4495,20.3927h-3.814l-1.9069-3.3033l0.6356-1.1012l-0.0001-0.0001h3.8145l1.9069,3.3034L20.4495,20.3927z M21.7209,18.1901
		L19.814,14.887h-3.8144l0.636-1.1008h3.8143l1.9069,3.3029h-0.0004L21.7209,18.1901z"/>
</g>
</svg>
