<svg width="24" height="24" viewBox="0 0 24 24" fill="none" xmlns="http://www.w3.org/2000/svg">
<g clip-path="url(#clip0_10325_3918)">
<path d="M16.0234 19.2837L17.2946 21.4857H19.8373L18.5659 19.2837H16.0234Z" fill="#FF808B"/>
<path d="M21.282 14.6097H15.8605L13.1497 19.3049L15.8605 24H21.282L23.9928 19.3049L21.282 14.6097ZM20.473 22.5869H16.659L14.7521 19.2836L15.3877 18.1824L19.2021 18.1823L21.109 21.4857L20.473 22.5869ZM21.7443 20.3843L19.8374 17.0812H16.023L16.659 15.9804H20.4733L22.3802 19.2833L21.7443 20.3843Z" fill="#FF808B"/>
<path d="M5.99927 10.5106H17.9993V12.0106H5.99927V10.5106ZM1.5 6.01424H12.75V4.51424H0V18.0139H12.2076L13.0692 16.5139H1.5V6.01424ZM22.5 9.76424V13.6893L22.5966 13.8575L24 16.3005V9.76424H22.5ZM17.2496 0.32959C16.5662 2.3546 16.0122 2.90863 13.9872 3.59212C16.0122 4.27556 16.5662 4.82959 17.2496 6.8546C17.9331 4.82959 18.4872 4.27556 20.5122 3.59212C18.4872 2.90863 17.9331 2.3546 17.2496 0.32959ZM21.5635 4.5943C21.1644 5.77675 20.8409 6.1003 19.6584 6.49937C20.8409 6.8985 21.1644 7.222 21.5635 8.4045C21.9626 7.222 22.2861 6.8985 23.4686 6.49937C22.2861 6.1003 21.9626 5.77675 21.5635 4.5943Z" fill="url(#paint0_linear_10325_3918)"/>
</g>
<defs>
<linearGradient id="paint0_linear_10325_3918" x1="12" y1="0.32959" x2="12" y2="18.0139" gradientUnits="userSpaceOnUse">
<stop stop-color="#2E54EB"/>
<stop offset="1" stop-color="#66C6D2"/>
</linearGradient>
<clipPath id="clip0_10325_3918">
<rect width="24" height="24" fill="white"/>
</clipPath>
</defs>
</svg>
