<?xml version="1.0" encoding="utf-8"?>
<!-- Generator: Adobe Illustrator 24.1.3, SVG Export Plug-In . SVG Version: 6.00 Build 0)  -->
<svg version="1.1" id="Layer_1" xmlns="http://www.w3.org/2000/svg" xmlns:xlink="http://www.w3.org/1999/xlink" x="0px" y="0px"
	 viewBox="0 0 24 24" style="enable-background:new 0 0 24 24;" xml:space="preserve">
<style type="text/css">
	.st0{fill:url(#SVGID_1_);}
	.st1{fill:#4579F0;}
</style>
<linearGradient id="SVGID_1_" gradientUnits="userSpaceOnUse" x1="12" y1="3.19" x2="12" y2="20.81">
	<stop  offset="0" style="stop-color:#2E54EB"/>
	<stop  offset="1" style="stop-color:#66C6D2"/>
</linearGradient>
<path class="st0" d="M7.13,10.31H0V9.56h7.13V10.31z M18,3.19H0v1.5h18V3.19z M24,6.19H0v1.5h24V6.19z M0,20.81h7.13v-0.75H0V20.81z
	 M11.4701,17.0019l0.1801-0.3119H0v1.5h12.1561L11.4701,17.0019z M13.3822,13.69H0v1.5h12.5162L13.3822,13.69z"/>
<g>
	<polygon class="st1" points="16.0248,16.9805 17.2959,19.1826 19.8387,19.1826 18.5672,16.9805 	"/>
	<path class="st1" d="M21.2834,12.3067h-5.4215l-2.7108,4.6952l2.7108,4.6951h5.4215l2.7108-4.6951L21.2834,12.3067z
		 M20.4743,20.2839h-3.814l-1.9069-3.3033l0.6356-1.1012l-0.0001-0.0001h3.8145l1.9069,3.3034L20.4743,20.2839z M21.7457,18.0813
		l-1.9069-3.3031h-3.8144l0.636-1.1008h3.8143l1.9069,3.3029h-0.0004L21.7457,18.0813z"/>
</g>
</svg>
