<?xml version="1.0" encoding="utf-8"?>
<!-- Generator: Adobe Illustrator 24.1.3, SVG Export Plug-In . SVG Version: 6.00 Build 0)  -->
<svg version="1.1" id="Layer_1" xmlns="http://www.w3.org/2000/svg" xmlns:xlink="http://www.w3.org/1999/xlink" x="0px" y="0px"
	 viewBox="0 0 24 24" style="enable-background:new 0 0 24 24;" xml:space="preserve">
<style type="text/css">
	.st0{display:none;}
	.st1{display:inline;fill:#406AF2;}
	.st2{fill:none;}
	.st3{display:inline;}
	.st4{fill:none;stroke:#406AF2;stroke-width:1.75;stroke-miterlimit:10;}
	.st5{display:inline;fill:none;stroke:#406AF2;stroke-width:1.75;stroke-miterlimit:10;}
	.st6{fill:url(#SVGID_1_);}
	.st7{fill:#4579F0;}
</style>
<linearGradient id="SVGID_1_" gradientUnits="userSpaceOnUse" x1="11.9998" y1="0" x2="11.9998" y2="23.875">
	<stop  offset="0" style="stop-color:#2E54EB"/>
	<stop  offset="1" style="stop-color:#66C6D2"/>
</linearGradient>
<polygon class="st6" points="4.375,12.875 19.625,12.875 19.625,13.1064 21.375,13.1064 21.375,12.875 22.4004,12.875 
	22.4004,11.125 21.375,11.125 21.375,1.75 23.0996,1.75 23.0996,0 17.9004,0 17.9004,1.75 19.625,1.75 19.625,11.125 4.375,11.125 
	4.375,1.7749 6.1001,1.7749 6.1001,0.0249 0.8999,0.0249 0.8999,1.7749 2.625,1.7749 2.625,11.125 1.6001,11.125 1.6001,12.875 
	2.625,12.875 2.625,22.125 0.8999,22.125 0.8999,23.875 6.1001,23.875 6.1001,22.125 4.375,22.125 "/>
<g>
	<polygon class="st7" points="16.0394,19.236 17.3105,21.4381 19.8533,21.4381 18.5819,19.236 	"/>
	<path class="st7" d="M21.298,14.5622h-5.4215l-2.7108,4.6952l2.7108,4.6951h5.4215l2.7108-4.6951L21.298,14.5622z M20.489,22.5394
		h-3.814L14.768,19.236l0.6356-1.1012l-0.0001-0.0001h3.8145l1.9069,3.3034L20.489,22.5394z M21.7603,20.3368l-1.9069-3.3031
		h-3.8144l0.636-1.1008h3.8143l1.9069,3.3029h-0.0004L21.7603,20.3368z"/>
</g>
</svg>
