<?xml version="1.0" encoding="utf-8"?>
<!-- Generator: Adobe Illustrator 24.1.3, SVG Export Plug-In . SVG Version: 6.00 Build 0)  -->
<svg version="1.1" id="Layer_1" xmlns="http://www.w3.org/2000/svg" xmlns:xlink="http://www.w3.org/1999/xlink" x="0px" y="0px"
	 viewBox="0 0 24 24" style="enable-background:new 0 0 24 24;" xml:space="preserve">
<style type="text/css">
	.st0{fill:url(#SVGID_1_);}
	.st1{fill:#4579F0;}
</style>
<linearGradient id="SVGID_1_" gradientUnits="userSpaceOnUse" x1="10.9448" y1="1.7974" x2="10.9448" y2="17.5073">
	<stop  offset="0" style="stop-color:#2E54EB"/>
	<stop  offset="1" style="stop-color:#66C6D2"/>
</linearGradient>
<path class="st0" d="M19.0648,11.0774c1.5464,0.0055,2.8044-1.2436,2.81-2.79c0.0055-1.5464-1.2437-2.8044-2.79-2.8099
	s-2.8044,1.2436-2.8099,2.79c0,0.0067,0,0.0134,0,0.02C16.2803,9.826,17.5262,11.0719,19.0648,11.0774z M19.0447,6.9974
	c0.0067-0.0001,0.0134-0.0001,0.0201,0c0.7125,0,1.29,0.5775,1.29,1.29c0,0.7125-0.5776,1.29-1.29,1.29s-1.29-0.5775-1.29-1.29
	C17.7692,7.5805,18.3378,7.003,19.0447,6.9974z M12.3329,15.9974H7.017c0.148-0.9904,0.5891-1.9136,1.2678-2.65
	c1.5887-1.7905,4.173-2.165,6.179-1.0407l0.5486-0.9503h0.6575c-2.3796-1.6271-5.6318-1.5477-7.9233,0.4191
	c-0.2514,0.2158-0.486,0.4504-0.7018,0.7018c-0.6781-0.3574-1.4335-0.5429-2.2-0.54c-2.6636-0.0001-4.8245,2.1563-4.83,4.8199v0.75
	h11.4464L12.3329,15.9974z M5.5048,16.0073h-3.89c0.4255-1.8005,2.2301-2.9152,4.0306-2.4897
	c0.1951,0.0461,0.3857,0.1096,0.5694,0.1898C5.8354,14.4225,5.5945,15.2029,5.5048,16.0073z M4.7248,11.0774
	c1.5464,0.0055,2.8044-1.2436,2.8099-2.79c0.0055-1.5464-1.2436-2.8044-2.79-2.8099s-2.8044,1.2436-2.81,2.79
	c0,0.0067,0,0.0134,0,0.02C1.9402,9.826,3.1862,11.0719,4.7248,11.0774z M4.7248,6.9974c0.7124,0,1.29,0.5775,1.29,1.29
	c0,0.7125-0.5776,1.29-1.29,1.29c-0.7125,0-1.29-0.5775-1.29-1.29C3.4347,7.5749,4.0123,6.9974,4.7248,6.9974z M11.8348,9.1175
	c2.0214,0,3.66-1.6387,3.66-3.66s-1.6386-3.66-3.66-3.66s-3.66,1.6385-3.66,3.6599S9.8134,9.1175,11.8348,9.1175z M9.6747,5.4574
	c0.0056-1.189,0.971-2.15,2.16-2.15c1.1929,0,2.16,0.967,2.16,2.16s-0.9671,2.16-2.16,2.16c-1.1929,0-2.16-0.967-2.16-2.16
	C9.6747,5.4641,9.6747,5.4607,9.6747,5.4574z"/>
<g>
	<polygon class="st1" points="16.0158,17.4861 17.2869,19.6881 19.8297,19.6881 18.5583,17.4861 	"/>
	<path class="st1" d="M21.2744,12.8122h-5.4215l-2.7108,4.6952l2.7108,4.6951h5.4215l2.7108-4.6951L21.2744,12.8122z
		 M20.4653,20.7894h-3.814l-1.9069-3.3033l0.6356-1.1012l-0.0001-0.0001h3.8145l1.9069,3.3034L20.4653,20.7894z M21.7367,18.5868
		l-1.9069-3.3031h-3.8144l0.636-1.1008h3.8143l1.9069,3.3029h-0.0004L21.7367,18.5868z"/>
</g>
</svg>
