<?xml version="1.0" encoding="utf-8"?>
<!-- Generator: Adobe Illustrator 24.1.3, SVG Export Plug-In . SVG Version: 6.00 Build 0)  -->
<svg version="1.1" id="Layer_1" xmlns="http://www.w3.org/2000/svg" xmlns:xlink="http://www.w3.org/1999/xlink" x="0px" y="0px"
	 viewBox="0 0 24 24" style="enable-background:new 0 0 24 24;" xml:space="preserve">
<style type="text/css">
	.st0{fill:url(#SVGID_1_);}
	.st1{fill:#4579F0;}
</style>
<linearGradient id="SVGID_1_" gradientUnits="userSpaceOnUse" x1="11.5524" y1="0" x2="11.5524" y2="24">
	<stop  offset="0" style="stop-color:#2E54EB"/>
	<stop  offset="1" style="stop-color:#66C6D2"/>
</linearGradient>
<path class="st0" d="M9.3824,22.5v-9H6.0123v-3h3.3701V6.38c0.0054-2.6929,2.1871-4.8745,4.8799-4.88h2.6201v3h-2.6201
	c-1.0383,0-1.8799,0.8417-1.8799,1.88v4.12h4.29l-0.6592,2.6368h1.505L18.5524,9h-4.67V6.38c0-0.2099,0.17-0.38,0.3799-0.38h4.1201
	V0h-4.12c-3.5236,0-6.38,2.8564-6.38,6.38V9h-3.33v6h3.33v9h3.6038l-0.866-1.5H9.3824z"/>
<g>
	<polygon class="st1" points="13.4225,19.2664 14.6936,21.4685 17.2364,21.4685 15.965,19.2664 	"/>
	<path class="st1" d="M18.6811,14.5926h-5.4215l-2.7108,4.6952l2.7108,4.6951h5.4215l2.7108-4.6951L18.6811,14.5926z
		 M17.872,22.5698h-3.814l-1.9069-3.3033l0.6356-1.1012l-0.0001-0.0001h3.8145l1.9069,3.3034L17.872,22.5698z M19.1434,20.3672
		l-1.9069-3.3031h-3.8144l0.636-1.1008h3.8143l1.9069,3.3029h-0.0004L19.1434,20.3672z"/>
</g>
</svg>
