<?xml version="1.0" encoding="utf-8"?>
<!-- Generator: Adobe Illustrator 24.1.3, SVG Export Plug-In . SVG Version: 6.00 Build 0)  -->
<svg version="1.1" id="Layer_1" xmlns="http://www.w3.org/2000/svg" xmlns:xlink="http://www.w3.org/1999/xlink" x="0px" y="0px"
	 viewBox="0 0 24 24" style="enable-background:new 0 0 24 24;" xml:space="preserve">
<style type="text/css">
	.st0{fill:url(#SVGID_1_);}
	.st1{fill:#4579F0;}
</style>
<linearGradient id="SVGID_1_" gradientUnits="userSpaceOnUse" x1="10.7452" y1="26" x2="10.7452" y2="2.0403" gradientTransform="matrix(1 0 0 -1 0 26)">
	<stop  offset="0" style="stop-color:#2E54EB"/>
	<stop  offset="1" style="stop-color:#66C6D2"/>
</linearGradient>
<path class="st0" d="M3.0135,8.0462C3.0135,3.6024,6.6159,0,11.0597,0s8.0462,3.6024,8.0462,8.0462
	c0,1.9257-0.6782,3.6919-1.8065,5.0769h-2.1055c1.4729-1.2008,2.4146-3.0283,2.4146-5.0769c0-3.6168-2.932-6.5488-6.5488-6.5488
	s-6.5488,2.932-6.5488,6.5488s2.932,6.5488,6.5488,6.5488c1.4247,0,2.7391-0.4599,3.8139-1.2324l-1.3527,2.343
	c-0.7762,0.2493-1.6022,0.3868-2.4611,0.3868C6.6159,16.0924,3.0135,12.49,3.0135,8.0462z M9.9416,18.5982v0.9983h1.7173
	l-0.1923-0.3329l0.3841-0.6654H9.9416z M12.2776,6.409l-1.2179-3.0747L9.8318,6.409L6.5973,6.6186L9.0831,8.735l-0.8186,3.2045
	l2.7952-1.767l2.7852,1.767L13.0363,8.735l2.4857-2.1164L12.2776,6.409z M11.8488,19.9255l-0.7891,0.8988v0.7986h0.569
	c0.6689,0,0.9983,0.2196,0.9983,0.6489c0.006,0.1975-0.0926,0.3834-0.2596,0.4892c-0.2166,0.1296-0.4667,0.1921-0.7188,0.1797
	c-0.274,0.0008-0.5466-0.0395-0.8086-0.1198c-0.2465-0.0799-0.4789-0.1978-0.6888-0.3494L9.672,23.3999
	c0.275,0.1914,0.583,0.33,0.9084,0.4093c0.3576,0.0993,0.727,0.1497,1.0981,0.1497c0.4111,0.0097,0.8196-0.0686,1.1979-0.2296
	c0.2981-0.1308,0.5515-0.3459,0.7288-0.6189c0.0158-0.0252,0.0217-0.0546,0.0358-0.0805L11.8488,19.9255z M8.3942,21.7427
	c0.2833-0.2412,0.5201-0.5322,0.6988-0.8585c0.1205-0.2489,0.182-0.5221,0.1797-0.7986c0.0079-0.2927-0.0797-0.5801-0.2496-0.8186
	c-0.1727-0.2385-0.4074-0.425-0.6788-0.5391c-0.3162-0.1316-0.6561-0.1962-0.9983-0.1897c-0.4269-0.0071-0.8498,0.0816-1.238,0.2596
	c-0.3406,0.1569-0.6335,0.4015-0.8485,0.7088l0.8885,0.579c0.1151-0.1713,0.2735-0.3091,0.4592-0.3993
	c0.1939-0.0896,0.4055-0.134,0.6189-0.1297c0.2227-0.0154,0.4441,0.0443,0.6289,0.1697c0.1435,0.1163,0.2216,0.2949,0.2096,0.4792
	c-0.0118,0.1614-0.067,0.3166-0.1597,0.4492c-0.1117,0.1997-0.257,0.3787-0.4294,0.5291L5.479,23.0905v0.7886h3.9931v-0.9983H7.2163
	L8.3942,21.7427z M2.3845,19.5964h1.0482v4.2727h1.2079v-5.241l-2.2561-0.0299V19.5964z"/>
<g>
	<polygon class="st1" points="16.0225,19.2341 17.2936,21.4362 19.8364,21.4362 18.565,19.2341 	"/>
	<path class="st1" d="M21.2811,14.5603h-5.4215l-2.7108,4.6952l2.7108,4.6951h5.4215l2.7108-4.6951L21.2811,14.5603z
		 M20.472,22.5375h-3.814l-1.9069-3.3033l0.6356-1.1012l-0.0001-0.0001h3.8145l1.9069,3.3034L20.472,22.5375z M21.7434,20.3349
		l-1.9069-3.3031h-3.8144l0.636-1.1008h3.8143l1.9069,3.3029h-0.0004L21.7434,20.3349z"/>
</g>
</svg>
