<svg width="24" height="24" viewBox="0 0 24 24" fill="none" xmlns="http://www.w3.org/2000/svg">
<path d="M2.24867 0V8.25037H21.7496V0H2.24867ZM20.2495 6.75031H11.4262L15.7982 4.56429L20.2495 6.1539V6.75031ZM20.2495 4.56095L15.7001 2.93605L8.07155 6.75031H3.74874V1.50007H20.2495V4.56095ZM5.24881 3.75017C5.24881 2.92167 5.92042 2.2501 6.74888 2.2501C7.57733 2.2501 8.24894 2.92167 8.24894 3.75017C8.24894 4.57862 7.57733 5.25024 6.74888 5.25024C5.92042 5.25024 5.24881 4.57862 5.24881 3.75017ZM4.59166 18.0008H12.2281L11.8772 18.6118L11.3659 19.5009H4.59166L6.31146 21.2207L5.25087 22.2813L2.25073 19.2811V18.2206L5.25087 15.2204L6.31146 16.281L4.59166 18.0008ZM18.7471 9.22014L21.7472 12.2203V13.5006H14.8133H2.24854V12.0005H19.4063L17.6865 10.2807L18.7471 9.22014Z" fill="url(#paint0_linear_10325_3923)"/>
<path d="M16.0303 19.2832L17.3014 21.4854H19.8443L18.5729 19.2832H16.0303Z" fill="#FF808B"/>
<path d="M21.2892 14.6093H15.8674L13.1565 19.3047L15.8674 24H21.2892L24.0001 19.3047L21.2892 14.6093ZM20.48 22.5868H16.6659L14.7589 19.2834L15.3945 18.1821L19.2091 18.1819L21.1161 21.4855L20.48 22.5868ZM21.7515 20.3841L19.8445 17.0809H16.0299L16.666 15.98H20.4804L22.3874 19.2831L21.7515 20.3841Z" fill="#FF808B"/>
<defs>
<linearGradient id="paint0_linear_10325_3923" x1="11.999" y1="0" x2="11.999" y2="22.2813" gradientUnits="userSpaceOnUse">
<stop stop-color="#2E54EB"/>
<stop offset="1" stop-color="#66C6D2"/>
</linearGradient>
</defs>
</svg>
