<?xml version="1.0" encoding="utf-8"?>
<!-- Generator: Adobe Illustrator 24.1.3, SVG Export Plug-In . SVG Version: 6.00 Build 0)  -->
<svg version="1.1" id="Layer_1" xmlns="http://www.w3.org/2000/svg" xmlns:xlink="http://www.w3.org/1999/xlink" x="0px" y="0px"
	 viewBox="0 0 24 24" style="enable-background:new 0 0 24 24;" xml:space="preserve">
<style type="text/css">
	.st0{fill:url(#SVGID_1_);}
	.st1{fill:#4579F0;}
</style>
<linearGradient id="SVGID_1_" gradientUnits="userSpaceOnUse" x1="12" y1="23.12" x2="12" y2="5.12" gradientTransform="matrix(1 0 0 -1 0 26)">
	<stop  offset="0" style="stop-color:#2E54EB"/>
	<stop  offset="1" style="stop-color:#66C6D2"/>
</linearGradient>
<path class="st0" d="M9,17.88H3v-1.5h6V17.88z M9,10.38H3v1.5h6V10.38z M9,13.38H3v1.5h6V13.38z M7.5,5.13H3v1.5h4.5V5.13z M24,2.88
	v6H12v12H0v-18C0,2.88,24,2.88,24,2.88z M10.5,8.88h-9v10.5h9V8.88z M22.5,4.38h-21v3h21V4.38z M14.25,5.13h-4.5v1.5h4.5V5.13z
	 M21,5.13h-4.5v1.5H21V5.13z"/>
<g>
	<polygon class="st1" points="15.9649,16.1766 17.236,18.3787 19.7788,18.3787 18.5073,16.1766 	"/>
	<path class="st1" d="M21.2235,11.5028H15.802l-2.7108,4.6952l2.7108,4.6951h5.4215l2.7108-4.6951L21.2235,11.5028z M20.4144,19.48
		h-3.814l-1.9069-3.3033l0.6356-1.1012l-0.0001-0.0001h3.8145l1.9069,3.3034L20.4144,19.48z M21.6857,17.2774l-1.9069-3.3031
		h-3.8144l0.636-1.1008h3.8143l1.9069,3.3029h-0.0004L21.6857,17.2774z"/>
</g>
</svg>
