<?xml version="1.0" encoding="utf-8"?>
<!-- Generator: Adobe Illustrator 24.1.3, SVG Export Plug-In . SVG Version: 6.00 Build 0)  -->
<svg version="1.1" id="Layer_1" xmlns="http://www.w3.org/2000/svg" xmlns:xlink="http://www.w3.org/1999/xlink" x="0px" y="0px"
	 viewBox="0 0 24 24" style="enable-background:new 0 0 24 24;" xml:space="preserve">
<style type="text/css">
	.st0{fill:url(#SVGID_1_);}
	.st1{fill:#4579F0;}
</style>
<linearGradient id="SVGID_1_" gradientUnits="userSpaceOnUse" x1="12" y1="0" x2="12" y2="24">
	<stop  offset="0" style="stop-color:#2E54EB"/>
	<stop  offset="1" style="stop-color:#66C6D2"/>
</linearGradient>
<path class="st0" d="M4.5,6.36c0,0.0067,0,0.0133,0,0.02C4.5055,7.8247,5.6753,8.9945,7.12,9c1.4525,0.0055,2.6345-1.1675,2.64-2.62
	S8.5925,3.7455,7.14,3.74S4.5055,4.9075,4.5,6.36z M8.2599,6.3699C8.2655,6.994,7.764,7.5044,7.14,7.5099
	C6.5159,7.5154,6.0056,7.014,6.0001,6.39C6,6.3867,6,6.3833,6,6.38C5.9945,5.7615,6.4914,5.2556,7.11,5.2501
	C7.1133,5.25,7.1166,5.25,7.12,5.25C7.7441,5.2445,8.2545,5.7459,8.2599,6.3699z M13.3179,22.5H5.13L15.81,9.37l3.7674,3.7674h2.12
	L15.69,7.13L3.19,22.5H1.5v-21h21v12.3l1.5,2.5981V0H0v24h14.184L13.3179,22.5z"/>
<g>
	<polygon class="st1" points="16.0183,19.267 17.2895,21.4691 19.8323,21.4691 18.5608,19.267 	"/>
	<path class="st1" d="M21.277,14.5932h-5.4215l-2.7108,4.6952l2.7108,4.6951h5.4215l2.7108-4.6951L21.277,14.5932z M20.4679,22.5704
		h-3.814l-1.9069-3.3033l0.6356-1.1012l-0.0001-0.0001h3.8145l1.9069,3.3034L20.4679,22.5704z M21.7392,20.3678l-1.9069-3.3031
		H16.018l0.636-1.1008h3.8143l1.9069,3.3029h-0.0004L21.7392,20.3678z"/>
</g>
</svg>
