<?xml version="1.0" encoding="utf-8"?>
<!-- Generator: Adobe Illustrator 24.1.3, SVG Export Plug-In . SVG Version: 6.00 Build 0)  -->
<svg version="1.1" id="Layer_1" xmlns="http://www.w3.org/2000/svg" xmlns:xlink="http://www.w3.org/1999/xlink" x="0px" y="0px"
	 viewBox="0 0 24 24" style="enable-background:new 0 0 24 24;" xml:space="preserve">
<style type="text/css">
	.st0{fill:url(#SVGID_1_);}
	.st1{fill:#4579F0;}
</style>
<linearGradient id="SVGID_1_" gradientUnits="userSpaceOnUse" x1="12" y1="0" x2="12" y2="24">
	<stop  offset="0" style="stop-color:#2E54EB"/>
	<stop  offset="1" style="stop-color:#66C6D2"/>
</linearGradient>
<path class="st0" d="M5.25,18h6v-3.75h-6V18z M6.75,15.75h3v0.75h-3V15.75z M12.3773,22.5H3.75v-21H15v5.25h5.25v6.3958h0.9317
	l0.5683,0.9843V5.25L16.5,0H2.25v24h10.9933L12.3773,22.5z M16.5,2.12l3.13,3.13H16.5V2.12z M12.75,12.75h6V9h-6V12.75z M14.25,10.5
	h3v0.75h-3V10.5z M11.25,9h-6v3.75h6V9z M9.75,11.25h-3V10.5h3V11.25z"/>
<g>
	<polygon class="st1" points="15.0826,19.2755 16.3537,21.4776 18.8965,21.4776 17.6251,19.2755 	"/>
	<path class="st1" d="M20.3412,14.6016h-5.4215l-2.7108,4.6952l2.7108,4.6951h5.4215l2.7108-4.6951L20.3412,14.6016z
		 M19.5321,22.5788h-3.814l-1.9069-3.3033l0.6356-1.1012l-0.0001-0.0001h3.8145l1.9069,3.3034L19.5321,22.5788z M20.8035,20.3762
		l-1.9069-3.3031h-3.8144l0.636-1.1008h3.8143l1.9069,3.3029H21.439L20.8035,20.3762z"/>
</g>
</svg>
