<?xml version="1.0" encoding="utf-8"?>
<!-- Generator: Adobe Illustrator 24.1.3, SVG Export Plug-In . SVG Version: 6.00 Build 0)  -->
<svg version="1.1" id="Layer_1" xmlns="http://www.w3.org/2000/svg" xmlns:xlink="http://www.w3.org/1999/xlink" x="0px" y="0px"
	 viewBox="0 0 24 24" style="enable-background:new 0 0 24 24;" xml:space="preserve">
<style type="text/css">
	.st0{fill:url(#SVGID_1_);}
	.st1{fill:#4579F0;}
</style>
<linearGradient id="SVGID_1_" gradientUnits="userSpaceOnUse" x1="12" y1="22.25" x2="12" y2="5.75" gradientTransform="matrix(1 0 0 -1 0 26)">
	<stop  offset="0" style="stop-color:#2E54EB"/>
	<stop  offset="1" style="stop-color:#66C6D2"/>
</linearGradient>
<path class="st0" d="M24,8.25H0v-1.5h24V8.25z M18,11.25v-1.5H0v1.5h14.9838H18z M18,3.75H0v1.5h18V3.75z M14.1178,12.75H0v1.5
	h13.2518L14.1178,12.75z M12.2114,18.75H0v1.5h13.0774L12.2114,18.75z M12.3857,15.75H0v1.5h11.5197L12.3857,15.75z"/>
<g>
	<polygon class="st1" points="15.9872,17.3796 17.2583,19.5817 19.8011,19.5817 18.5297,17.3796 	"/>
	<path class="st1" d="M21.2458,12.7058h-5.4215l-2.7108,4.6952l2.7108,4.6951h5.4215l2.7108-4.6951L21.2458,12.7058z
		 M20.4367,20.683h-3.814l-1.9069-3.3034l0.6356-1.1012l-0.0001-0.0001h3.8144l1.9069,3.3034L20.4367,20.683z M21.7081,18.4804
		l-1.9069-3.3031h-3.8144l0.636-1.1008h3.8143l1.9069,3.3029h-0.0004L21.7081,18.4804z"/>
</g>
</svg>
