<?xml version="1.0" encoding="utf-8"?>
<!-- Generator: Adobe Illustrator 24.1.3, SVG Export Plug-In . SVG Version: 6.00 Build 0)  -->
<svg version="1.1" id="Layer_1" xmlns="http://www.w3.org/2000/svg" xmlns:xlink="http://www.w3.org/1999/xlink" x="0px" y="0px"
	 viewBox="0 0 24 24" style="enable-background:new 0 0 24 24;" xml:space="preserve">
<style type="text/css">
	.st0{fill:url(#SVGID_1_);}
	.st1{fill:#4579F0;}
</style>
<linearGradient id="SVGID_1_" gradientUnits="userSpaceOnUse" x1="11.9925" y1="-6.080854e-07" x2="11.9925" y2="24">
	<stop  offset="0" style="stop-color:#2E54EB"/>
	<stop  offset="1" style="stop-color:#66C6D2"/>
</linearGradient>
<path class="st0" d="M13.1063,16.3856l-0.7552,1.308c-0.1373-0.0605-0.277-0.1152-0.4111-0.1836
	c-2.166-1.046-4.0105-2.7256-5.34-4.73c-0.8201-0.9999-1.3093-2.23-1.4-3.52C5.179,8.1606,5.6048,7.0998,6.38,6.32l0.06-0.05
	c0.3416-0.382,0.8276-0.6033,1.34-0.61H8.4c0.6179-0.0175,1.1639,0.3994,1.31,1l0.33,0.81c0.2401,0.58,0.5,1.22,0.56,1.35
	c0.1992,0.3681,0.1992,0.8119,0,1.18c-0.1982,0.4097-0.4617,0.7846-0.78,1.11c0.8075,1.3556,2.0369,2.4093,3.5,3
	c0.25-0.29,0.61-0.73,0.74-0.92c0.3211-0.5371,1.0056-0.7302,1.56-0.44c0.1425,0.0475,0.4999,0.2144,0.8799,0.3983h-1.5246
	l-1.4565,2.5226c-0.252,0.0234-0.5121-0.0235-0.7388-0.171c-1.8439-0.7441-3.3785-2.0952-4.35-3.83
	c-0.3192-0.5084-0.1978-1.1765,0.28-1.54c0.2037-0.2054,0.3787-0.4376,0.52-0.69C9.16,9.25,9,8.87,8.65,8c0,0-0.34-0.84-0.35-0.85
	H7.84L7.78,7.16C7.685,7.1667,7.5975,7.2141,7.54,7.29L7.48,7.35C6.9604,7.8469,6.6768,8.5414,6.7,9.26
	c0.0706,0.9492,0.4183,1.8567,1,2.61l0.09,0.12c1.1682,1.7756,2.7913,3.2053,4.7,4.14
	C12.714,16.2271,12.9171,16.3109,13.1063,16.3856z M13.2209,22.4116c-0.3917,0.0468-0.7854,0.0877-1.1897,0.0883
	C10.1806,22.5027,8.3621,22.0163,6.76,21.09l-0.54-0.31l-0.6,0.16l-3.5,0.94l0.94-3.5l0.16-0.6l-0.31-0.54
	C0.0105,12.2243,1.726,5.8078,6.7417,2.9083C8.34,1.9843,10.1539,1.4985,12,1.5c5.799-0.0086,10.507,4.6854,10.5156,10.4844
	c0.0009,0.5746-0.0465,1.1375-0.1362,1.6863l1.0715,1.8558c1.6159-5.2297-0.5031-11.062-5.4429-13.9166
	C16.1816,0.5546,14.1094-0.0007,12,0C5.3726,0.0013,0.001,5.3749,0.0023,12.0023C0.0027,14.108,0.5572,16.1765,1.61,18L0,24l6-1.61
	c2.5262,1.4598,5.3574,1.8729,8.0234,1.4115L13.2209,22.4116z"/>
<g>
	<polygon class="st1" points="15.9787,19.2779 17.2499,21.48 19.7926,21.48 18.5212,19.2779 	"/>
	<path class="st1" d="M21.2373,14.6041h-5.4215l-2.7108,4.6952l2.7108,4.6951h5.4215l2.7108-4.6951L21.2373,14.6041z
		 M20.4283,22.5813h-3.814l-1.9069-3.3033l0.6356-1.1012l-0.0001-0.0001h3.8145l1.9069,3.3034L20.4283,22.5813z M21.6996,20.3787
		l-1.9069-3.3031h-3.8144l0.636-1.1008h3.8143l1.9069,3.3029h-0.0004L21.6996,20.3787z"/>
</g>
</svg>
