<?xml version="1.0" encoding="utf-8"?>
<!-- Generator: Adobe Illustrator 24.1.3, SVG Export Plug-In . SVG Version: 6.00 Build 0)  -->
<svg version="1.1" id="Layer_1" xmlns="http://www.w3.org/2000/svg" xmlns:xlink="http://www.w3.org/1999/xlink" x="0px" y="0px"
	 viewBox="0 0 24 24" style="enable-background:new 0 0 24 24;" xml:space="preserve">
<style type="text/css">
	.st0{fill:url(#SVGID_1_);}
	.st1{fill:#4579F0;}
</style>
<linearGradient id="SVGID_1_" gradientUnits="userSpaceOnUse" x1="12" y1="2.8269" x2="12" y2="19.3269">
	<stop  offset="0" style="stop-color:#2E54EB"/>
	<stop  offset="1" style="stop-color:#66C6D2"/>
</linearGradient>
<path class="st0" d="M24,7.3269H0v-1.5h24V7.3269z M18,8.8269H0v1.5h18V8.8269z M18,2.8269H0v1.5h18V2.8269z M12.3853,14.8269H0v1.5
	h11.5193L12.3853,14.8269z M14.1173,11.8269H0v1.5h13.2513L14.1173,11.8269z M12.1628,17.8269H0v1.5h13.0289L12.1628,17.8269z"/>
<g>
	<polygon class="st1" points="15.9627,16.4566 17.2338,18.6587 19.7766,18.6587 18.5052,16.4566 	"/>
	<path class="st1" d="M21.2213,11.7827h-5.4215l-2.7108,4.6952l2.7108,4.6951h5.4215l2.7108-4.6951L21.2213,11.7827z
		 M20.4122,19.7599h-3.814l-1.9069-3.3033l0.6356-1.1012l-0.0001-0.0001h3.8145l1.9069,3.3034L20.4122,19.7599z M21.6836,17.5573
		l-1.9069-3.3031h-3.8144l0.636-1.1008h3.8143l1.9069,3.3029h-0.0004L21.6836,17.5573z"/>
</g>
</svg>
