<?xml version="1.0" encoding="utf-8"?>
<!-- Generator: Adobe Illustrator 24.1.3, SVG Export Plug-In . SVG Version: 6.00 Build 0)  -->
<svg version="1.1" id="Layer_1" xmlns="http://www.w3.org/2000/svg" xmlns:xlink="http://www.w3.org/1999/xlink" x="0px" y="0px"
	 viewBox="0 0 24 24" style="enable-background:new 0 0 24 24;" xml:space="preserve">
<style type="text/css">
	.st0{fill:url(#SVGID_1_);}
	.st1{fill:#4579F0;}
</style>
<linearGradient id="SVGID_1_" gradientUnits="userSpaceOnUse" x1="11.9998" y1="-1.109311e-08" x2="11.9998" y2="23.9015">
	<stop  offset="0" style="stop-color:#2E54EB"/>
	<stop  offset="1" style="stop-color:#66C6D2"/>
</linearGradient>
<path class="st0" d="M11.64,16.44c-1.3826-0.102-2.6391-0.8411-3.4-2L4.5,16.23c0.0049,0.09,0.0049,0.1801,0,0.27
	c0.0009,0.7211-0.3438,1.3989-0.9271,1.8229C2.5677,19.0535,1.1606,18.831,0.43,17.8258c-0.7306-1.0051-0.5081-2.4122,0.4971-3.1429
	C1.9323,13.9523,3.3394,14.1749,4.07,15.18l3.66-1.76C7.5775,12.9621,7.4999,12.4826,7.5,12c-0.0018-1.1711,0.4581-2.2957,1.28-3.13
	L6.92,6.55C6.6301,6.6786,6.3171,6.7466,6,6.75c-1.2426,0-2.25-1.0074-2.25-2.25S4.7574,2.25,6,2.25S8.25,3.2574,8.25,4.5
	C8.2529,4.9873,8.0947,5.4619,7.8,5.85l1.86,2.32C10.3604,7.7286,11.1721,7.4961,12,7.5c0.9977-0.0035,1.9672,0.3314,2.75,0.95
	l5.06-5.06c-0.2031-0.3455-0.3101-0.7391-0.3102-1.1398C19.4997,1.0076,20.507,0.0001,21.7496,0
	c1.2427-0.0001,2.2501,1.0072,2.2502,2.2498S22.9926,4.4999,21.75,4.5c-0.3973,0.0142-0.7912-0.0791-1.14-0.27l-5.06,5.06
	c0.6926,0.8748,1.0161,1.9728,0.9314,3.0696h-1.4638l-0.0504,0.0873C14.9805,12.3447,15.0079,12.115,15,12
	c0.0004-0.9924-0.49-1.9209-1.31-2.48c-0.9148-0.6238-2.0988-0.693-3.08-0.18c-0.3362,0.1823-0.6376,0.4226-0.89,0.71
	C9.2553,10.5934,8.9999,11.285,9,12c-0.0148,0.2758,0.0121,0.5522,0.08,0.82c0.0922,0.3618,0.2554,0.7017,0.48,1
	c0.4813,0.6459,1.202,1.0711,2,1.18c0.1465,0.0103,0.2932,0.0257,0.44,0.0257c0.2632,0,0.4551-0.0206,0.68-0.0557
	c0.4237-0.0988,0.8122-0.2919,1.1495-0.5526l-2.1257,3.6817L11.64,16.44z M11.7377,18.9808L11.76,19.56
	c-1.1714,0.3622-1.8273,1.6053-1.4651,2.7767c0.3622,1.1713,1.6054,1.8273,2.7767,1.4651c0.4254-0.1316,0.7802-0.3817,1.0455-0.7
	L11.7377,18.9808z"/>
<g>
	<polygon class="st1" points="16.021,18.4893 17.2921,20.6913 19.8349,20.6913 18.5635,18.4893 	"/>
	<path class="st1" d="M21.2796,13.8154h-5.4215l-2.7108,4.6952l2.7108,4.6951h5.4215l2.7108-4.6951L21.2796,13.8154z
		 M20.4705,21.7926h-3.814l-1.9069-3.3033l0.6356-1.1012l-0.0001-0.0001h3.8145l1.9069,3.3034L20.4705,21.7926z M21.7419,19.59
		l-1.9069-3.3031h-3.8144l0.636-1.1008h3.8143l1.9069,3.3029h-0.0004L21.7419,19.59z"/>
</g>
</svg>
