<svg width="64" height="64" viewBox="0 0 64 64" fill="none" xmlns="http://www.w3.org/2000/svg">
<circle cx="32" cy="32" r="32" fill="#3B57F7"/>
<g clip-path="url(#clip0_11826_2732)">
<path d="M23.7891 42.1289V46.7476H32.2566L31.2826 44.9761L32.8784 42.1289H23.7891Z" fill="white"/>
<path d="M23.7891 30.5805H40.2085V23.6523H23.7891V30.5805ZM25.988 25.9618H38.0094V28.271H25.988V25.9618Z" fill="white"/>
<path d="M23.7891 39.8188H34.1978L35.3706 37.5093H25.988V35.2001H38.0095H40.2085V32.8906H23.7891V39.8188Z" fill="white"/>
<path d="M18.2188 14.416V51.3656H34.7966L33.527 49.0564H20.4179V21.344H43.5813V37.5094L45.7803 41.5122V14.416H18.2188ZM43.5812 19.0346H20.4179V16.7253H43.5813V19.0346H43.5812Z" fill="white"/>
<path d="M40.3902 42.8957L43.2959 47.9815L42.3269 49.677H36.5151L33.6094 44.5912L34.5779 42.8957L37.4837 47.9815H41.3584L39.421 44.5912H35.5467L34.5778 42.8957H40.3902ZM42.3275 39.5059H36.5153L35.5461 41.2006H41.3586L44.2643 46.286L45.2327 44.5909H45.2333L42.3275 39.5059Z" fill="white"/>
</g>
<defs>
<clipPath id="clip0_11826_2732">
<rect width="36.5714" height="36.9496" fill="white" transform="translate(13.7109 13.7148)"/>
</clipPath>
</defs>
</svg>
