<?xml version="1.0" encoding="utf-8"?>
<!-- Generator: Adobe Illustrator 24.1.3, SVG Export Plug-In . SVG Version: 6.00 Build 0)  -->
<svg version="1.1" id="Layer_1" xmlns="http://www.w3.org/2000/svg" xmlns:xlink="http://www.w3.org/1999/xlink" x="0px" y="0px"
	 viewBox="0 0 24 24" style="enable-background:new 0 0 24 24;" xml:space="preserve">
<style type="text/css">
	.st0{fill:url(#SVGID_1_);}
	.st1{fill:#4579F0;}
</style>
<linearGradient id="SVGID_1_" gradientUnits="userSpaceOnUse" x1="12" y1="2.979" x2="12" y2="19.479">
	<stop  offset="0" style="stop-color:#2E54EB"/>
	<stop  offset="1" style="stop-color:#66C6D2"/>
</linearGradient>
<path class="st0" d="M24,2.979h-9.75H0v4.5h24V2.979z M22.5,5.979h-8.25v-1.5h8.25V5.979z M13.0426,19.479H0v-4.5h12.4327
	l-0.9941,1.7218L13.0426,19.479z M13.2987,13.479H0v-4.5h24v4.8749l-1.4979-2.5944L22.5,10.7124V10.479H9.75v1.5h4.4147
	L13.2987,13.479z"/>
<g>
	<polygon class="st1" points="15.9933,16.6794 17.2644,18.8815 19.8072,18.8815 18.5358,16.6794 	"/>
	<path class="st1" d="M21.2519,12.0056h-5.4215l-2.7108,4.6952l2.7108,4.6951h5.4215l2.7108-4.6951L21.2519,12.0056z
		 M20.4428,19.9828h-3.814l-1.9069-3.3033l0.6356-1.1012l-0.0001-0.0001h3.8145l1.9069,3.3034L20.4428,19.9828z M21.7142,17.7802
		l-1.9069-3.3031h-3.8144l0.636-1.1008h3.8143l1.9069,3.3029h-0.0004L21.7142,17.7802z"/>
</g>
</svg>
