<svg width="160" height="160" viewBox="0 0 40 40" fill="none" xmlns="http://www.w3.org/2000/svg">
<circle cx="20" cy="20" r="20" fill="#3B57F7"/>
<path d="M27.5775 26.6662H23.7283H16.0308L14.1071 23.3332H14.1061L12.1825 20.0003L10.2569 16.6663L8.33325 19.9992V20.0003L10.2569 23.3332H10.2579L12.1815 26.6662H12.1825L14.1061 30.0002H25.6529L27.5775 26.6662Z" fill="white"/>
<path d="M12.1825 20.0003H19.88L21.8046 23.3332L23.7282 26.6662H27.5775L25.6539 23.3332H25.6529L21.8046 16.6663H10.2568L12.1825 20.0003Z" fill="white"/>
<path d="M29.5023 16.667V16.6659L27.5777 13.333L25.6541 10H14.1063L12.1816 13.333H23.7294L25.653 16.6659L27.5777 19.9999L29.5023 23.3329L31.4259 19.9999H31.4269L29.5023 16.667Z" fill="white"/>
</svg>
