<svg width="109" height="24" viewBox="0 0 109 24" fill="none" xmlns="http://www.w3.org/2000/svg">
<circle cx="12" cy="12" r="12" fill="url(#paint0_linear_4679_10)"/>
<path d="M16.5466 16H14.237H9.61851L8.46434 14.0002H8.46373L7.30956 12.0004L6.15417 10L5 11.9998V12.0004L6.15417 14.0002H6.15478L7.30895 16H7.30956L8.46373 18.0004H15.3918L16.5466 16Z" fill="white"/>
<path d="M7.30969 12.0004H11.9282L13.083 14.0002L14.2371 16H16.5467L15.3925 14.0002H15.3919L13.083 10H6.1543L7.30969 12.0004Z" fill="white"/>
<path d="M17.701 10.0002V9.99957L16.5462 7.99978L15.392 6H8.46337L7.30859 7.99978H14.2373L15.3914 9.99957L16.5462 12L17.701 13.9997L18.8552 12H18.8558L17.701 10.0002Z" fill="white"/>
<path d="M33.936 17.168C33.1893 17.168 32.494 17.0327 31.85 16.762C31.206 16.4913 30.6413 16.1133 30.156 15.628C29.6707 15.1427 29.2927 14.5733 29.022 13.92C28.7513 13.2667 28.616 12.5527 28.616 11.778C28.616 11.0033 28.7467 10.2893 29.008 9.636C29.2693 8.97333 29.638 8.404 30.114 7.928C30.59 7.44267 31.1453 7.06933 31.78 6.808C32.424 6.53733 33.124 6.402 33.88 6.402C34.636 6.402 35.3127 6.528 35.91 6.78C36.5167 7.032 37.03 7.368 37.45 7.788C37.87 8.208 38.1687 8.67467 38.346 9.188L36.428 10.112C36.2507 9.608 35.938 9.19267 35.49 8.866C35.0513 8.53 34.5147 8.362 33.88 8.362C33.264 8.362 32.7227 8.50667 32.256 8.796C31.7893 9.08533 31.4253 9.48667 31.164 10C30.912 10.504 30.786 11.0967 30.786 11.778C30.786 12.4593 30.9213 13.0567 31.192 13.57C31.4627 14.0833 31.8313 14.4847 32.298 14.774C32.774 15.0633 33.32 15.208 33.936 15.208C34.412 15.208 34.8553 15.1193 35.266 14.942C35.686 14.7553 36.022 14.4893 36.274 14.144C36.5353 13.7987 36.666 13.3833 36.666 12.898V12.03L37.66 12.87H33.88V11.05H38.836V12.156C38.836 13.0053 38.696 13.7473 38.416 14.382C38.136 15.0073 37.758 15.53 37.282 15.95C36.8153 16.3607 36.288 16.6687 35.7 16.874C35.1213 17.07 34.5333 17.168 33.936 17.168ZM42.766 17.168C42.15 17.168 41.6226 17.0373 41.184 16.776C40.7546 16.5053 40.428 16.132 40.204 15.656C39.98 15.18 39.868 14.6247 39.868 13.99V9.356H41.968V13.822C41.968 14.1113 42.024 14.368 42.136 14.592C42.2573 14.8067 42.4253 14.9747 42.64 15.096C42.8546 15.2173 43.0973 15.278 43.368 15.278C43.648 15.278 43.8906 15.2173 44.096 15.096C44.3106 14.9747 44.474 14.8067 44.586 14.592C44.7073 14.368 44.768 14.1113 44.768 13.822V9.356H46.868V17H44.908V15.488L45.02 15.824C44.8426 16.2813 44.5533 16.622 44.152 16.846C43.76 17.0607 43.298 17.168 42.766 17.168ZM52.0848 17.084C51.1608 17.084 50.4421 16.8367 49.9288 16.342C49.4248 15.838 49.1728 15.138 49.1728 14.242V11.176H47.8848V9.356H47.9548C48.3468 9.356 48.6455 9.258 48.8508 9.062C49.0655 8.866 49.1728 8.572 49.1728 8.18V7.62H51.2728V9.356H53.0648V11.176H51.2728V14.102C51.2728 14.3633 51.3195 14.5827 51.4128 14.76C51.5061 14.928 51.6508 15.054 51.8468 15.138C52.0428 15.222 52.2855 15.264 52.5748 15.264C52.6401 15.264 52.7148 15.2593 52.7988 15.25C52.8828 15.2407 52.9715 15.2313 53.0648 15.222V17C52.9248 17.0187 52.7661 17.0373 52.5888 17.056C52.4115 17.0747 52.2435 17.084 52.0848 17.084ZM57.9774 17.168C57.1654 17.168 56.4607 16.9907 55.8634 16.636C55.2661 16.272 54.8041 15.7867 54.4774 15.18C54.1507 14.5733 53.9874 13.9013 53.9874 13.164C53.9874 12.3987 54.1554 11.7173 54.4914 11.12C54.8367 10.5227 55.2987 10.0513 55.8774 9.706C56.4561 9.36067 57.1094 9.188 57.8374 9.188C58.4441 9.188 58.9807 9.286 59.4474 9.482C59.9141 9.66867 60.3061 9.93467 60.6234 10.28C60.9501 10.6253 61.1974 11.0267 61.3654 11.484C61.5334 11.932 61.6174 12.422 61.6174 12.954C61.6174 13.1033 61.6081 13.2527 61.5894 13.402C61.5801 13.542 61.5567 13.6633 61.5194 13.766H55.7934V12.226H60.3294L59.3354 12.954C59.4287 12.5527 59.4241 12.198 59.3214 11.89C59.2187 11.5727 59.0367 11.3253 58.7754 11.148C58.5234 10.9613 58.2107 10.868 57.8374 10.868C57.4734 10.868 57.1607 10.9567 56.8994 11.134C56.6381 11.3113 56.4421 11.5727 56.3114 11.918C56.1807 12.2633 56.1294 12.6833 56.1574 13.178C56.1201 13.6073 56.1714 13.9853 56.3114 14.312C56.4514 14.6387 56.6661 14.8953 56.9554 15.082C57.2447 15.2593 57.5947 15.348 58.0054 15.348C58.3787 15.348 58.6961 15.2733 58.9574 15.124C59.2281 14.9747 59.4381 14.7693 59.5874 14.508L61.2674 15.306C61.1181 15.6793 60.8801 16.006 60.5534 16.286C60.2361 16.566 59.8581 16.7853 59.4194 16.944C58.9807 17.0933 58.5001 17.168 57.9774 17.168ZM62.854 17V9.356H64.814V10.868L64.702 10.532C64.8793 10.0747 65.164 9.73867 65.556 9.524C65.9573 9.3 66.424 9.188 66.956 9.188C67.5347 9.188 68.0387 9.30933 68.468 9.552C68.9067 9.79467 69.2473 10.1353 69.49 10.574C69.7327 11.0033 69.854 11.5073 69.854 12.086V17H67.754V12.534C67.754 12.2353 67.6933 11.9787 67.572 11.764C67.46 11.5493 67.2967 11.3813 67.082 11.26C66.8767 11.1387 66.634 11.078 66.354 11.078C66.0833 11.078 65.8407 11.1387 65.626 11.26C65.4113 11.3813 65.2433 11.5493 65.122 11.764C65.01 11.9787 64.954 12.2353 64.954 12.534V17H62.854ZM73.4921 17L70.4821 9.356H72.7501L74.8361 15.138H73.9681L76.0541 9.356H78.3221L75.3121 17H73.4921ZM82.7918 17.168C81.9798 17.168 81.2752 16.9907 80.6778 16.636C80.0805 16.272 79.6185 15.7867 79.2918 15.18C78.9652 14.5733 78.8018 13.9013 78.8018 13.164C78.8018 12.3987 78.9698 11.7173 79.3058 11.12C79.6512 10.5227 80.1132 10.0513 80.6918 9.706C81.2705 9.36067 81.9238 9.188 82.6518 9.188C83.2585 9.188 83.7952 9.286 84.2618 9.482C84.7285 9.66867 85.1205 9.93467 85.4378 10.28C85.7645 10.6253 86.0118 11.0267 86.1798 11.484C86.3478 11.932 86.4318 12.422 86.4318 12.954C86.4318 13.1033 86.4225 13.2527 86.4038 13.402C86.3945 13.542 86.3712 13.6633 86.3338 13.766H80.6078V12.226H85.1438L84.1498 12.954C84.2432 12.5527 84.2385 12.198 84.1358 11.89C84.0332 11.5727 83.8512 11.3253 83.5898 11.148C83.3378 10.9613 83.0252 10.868 82.6518 10.868C82.2878 10.868 81.9752 10.9567 81.7138 11.134C81.4525 11.3113 81.2565 11.5727 81.1258 11.918C80.9952 12.2633 80.9438 12.6833 80.9718 13.178C80.9345 13.6073 80.9858 13.9853 81.1258 14.312C81.2658 14.6387 81.4805 14.8953 81.7698 15.082C82.0592 15.2593 82.4092 15.348 82.8198 15.348C83.1932 15.348 83.5105 15.2733 83.7718 15.124C84.0425 14.9747 84.2525 14.7693 84.4018 14.508L86.0818 15.306C85.9325 15.6793 85.6945 16.006 85.3678 16.286C85.0505 16.566 84.6725 16.7853 84.2338 16.944C83.7952 17.0933 83.3145 17.168 82.7918 17.168ZM87.6684 17V9.356H89.6284V11.19L89.4884 10.924C89.6564 10.28 89.9318 9.846 90.3144 9.622C90.7064 9.38867 91.1684 9.272 91.7004 9.272H92.1484V11.092H91.4904C90.9771 11.092 90.5618 11.2507 90.2444 11.568C89.9271 11.876 89.7684 12.3147 89.7684 12.884V17H87.6684ZM96.0648 17.168C95.2248 17.168 94.4922 16.972 93.8668 16.58C93.2508 16.1787 92.8308 15.642 92.6068 14.97L94.1468 14.242C94.3428 14.6527 94.6088 14.9747 94.9448 15.208C95.2808 15.4413 95.6542 15.558 96.0648 15.558C96.3635 15.558 96.5922 15.4973 96.7508 15.376C96.9095 15.2547 96.9888 15.0867 96.9888 14.872C96.9888 14.76 96.9608 14.6667 96.9048 14.592C96.8488 14.508 96.7648 14.4333 96.6528 14.368C96.5408 14.3027 96.4008 14.2467 96.2328 14.2L94.9308 13.836C94.3055 13.6587 93.8248 13.374 93.4888 12.982C93.1528 12.5807 92.9848 12.1093 92.9848 11.568C92.9848 11.092 93.1062 10.6767 93.3488 10.322C93.5915 9.96733 93.9322 9.692 94.3708 9.496C94.8095 9.29067 95.3135 9.188 95.8828 9.188C96.6295 9.188 97.2828 9.36533 97.8428 9.72C98.4122 10.0653 98.8135 10.5553 99.0468 11.19L97.4928 11.918C97.3808 11.6007 97.1755 11.3487 96.8768 11.162C96.5875 10.966 96.2562 10.868 95.8828 10.868C95.6122 10.868 95.3975 10.924 95.2388 11.036C95.0895 11.148 95.0148 11.302 95.0148 11.498C95.0148 11.6007 95.0428 11.694 95.0988 11.778C95.1548 11.862 95.2435 11.9367 95.3648 12.002C95.4955 12.0673 95.6542 12.128 95.8408 12.184L97.0588 12.548C97.6935 12.7347 98.1788 13.0193 98.5148 13.402C98.8508 13.7753 99.0188 14.2373 99.0188 14.788C99.0188 15.264 98.8928 15.6793 98.6408 16.034C98.3982 16.3887 98.0575 16.6687 97.6188 16.874C97.1802 17.07 96.6622 17.168 96.0648 17.168ZM103.956 17.168C103.144 17.168 102.439 16.9907 101.842 16.636C101.245 16.272 100.783 15.7867 100.456 15.18C100.129 14.5733 99.9659 13.9013 99.9659 13.164C99.9659 12.3987 100.134 11.7173 100.47 11.12C100.815 10.5227 101.277 10.0513 101.856 9.706C102.435 9.36067 103.088 9.188 103.816 9.188C104.423 9.188 104.959 9.286 105.426 9.482C105.893 9.66867 106.285 9.93467 106.602 10.28C106.929 10.6253 107.176 11.0267 107.344 11.484C107.512 11.932 107.596 12.422 107.596 12.954C107.596 13.1033 107.587 13.2527 107.568 13.402C107.559 13.542 107.535 13.6633 107.498 13.766H101.772V12.226H106.308L105.314 12.954C105.407 12.5527 105.403 12.198 105.3 11.89C105.197 11.5727 105.015 11.3253 104.754 11.148C104.502 10.9613 104.189 10.868 103.816 10.868C103.452 10.868 103.139 10.9567 102.878 11.134C102.617 11.3113 102.421 11.5727 102.29 11.918C102.159 12.2633 102.108 12.6833 102.136 13.178C102.099 13.6073 102.15 13.9853 102.29 14.312C102.43 14.6387 102.645 14.8953 102.934 15.082C103.223 15.2593 103.573 15.348 103.984 15.348C104.357 15.348 104.675 15.2733 104.936 15.124C105.207 14.9747 105.417 14.7693 105.566 14.508L107.246 15.306C107.097 15.6793 106.859 16.006 106.532 16.286C106.215 16.566 105.837 16.7853 105.398 16.944C104.959 17.0933 104.479 17.168 103.956 17.168Z" fill="#011627"/>
<defs>
<linearGradient id="paint0_linear_4679_10" x1="12" y1="0" x2="12" y2="24" gradientUnits="userSpaceOnUse">
<stop stop-color="#3B57F7"/>
<stop offset="1" stop-color="#5CD0DA"/>
</linearGradient>
</defs>
</svg>
