<svg width="143" height="31" viewBox="0 0 143 31" fill="none" xmlns="http://www.w3.org/2000/svg">
    <path d="M47.1666 22C46.1608 22 45.2241 21.8114 44.3566 21.4343C43.489 21.0572 42.7283 20.5306 42.0746 19.8544C41.4208 19.1782 40.9115 18.3849 40.5469 17.4746C40.1823 16.5644 40 15.5696 40 14.4902C40 13.4109 40.176 12.4161 40.5281 11.5059C40.8801 10.5826 41.3767 9.78934 42.018 9.12614C42.6592 8.44994 43.4073 7.92978 44.2623 7.56567C45.1298 7.18856 46.0728 7 47.0912 7C48.1096 7 49.0212 7.17555 49.8258 7.52666C50.6431 7.87776 51.3346 8.3459 51.9004 8.93108C52.4662 9.51625 52.8685 10.1665 53.1074 10.8817L50.5236 12.1691C50.2847 11.4668 49.8635 10.8882 49.26 10.433C48.6691 9.96489 47.9462 9.73082 47.0912 9.73082C46.2614 9.73082 45.5321 9.93238 44.9035 10.3355C44.2748 10.7386 43.7845 11.2978 43.4324 12.013C43.093 12.7152 42.9232 13.541 42.9232 14.4902C42.9232 15.4395 43.1055 16.2718 43.4702 16.987C43.8348 17.7022 44.3314 18.2614 44.9601 18.6645C45.6013 19.0676 46.3368 19.2692 47.1666 19.2692C47.8079 19.2692 48.4051 19.1456 48.9583 18.8986C49.5241 18.6385 49.9767 18.2679 50.3162 17.7867C50.6682 17.3056 50.8442 16.7269 50.8442 16.0507V14.8414L52.1833 16.0117H47.0912V13.4759H53.7675V15.0169C53.7675 16.2003 53.5789 17.2341 53.2017 18.1183C52.8245 18.9896 52.3153 19.7178 51.6741 20.303C51.0454 20.8752 50.335 21.3043 49.5429 21.5904C48.7634 21.8635 47.9713 22 47.1666 22Z" fill="#011627"/>
    <path d="M58.6844 22C57.8545 22 57.1442 21.8179 56.5532 21.4538C55.9749 21.0767 55.5348 20.5566 55.2331 19.8934C54.9313 19.2302 54.7804 18.4564 54.7804 17.5722V11.1157H57.6094V17.3381C57.6094 17.7412 57.6848 18.0988 57.8357 18.4109C57.9991 18.71 58.2255 18.9441 58.5146 19.1131C58.8038 19.2822 59.1307 19.3667 59.4953 19.3667C59.8725 19.3667 60.1994 19.2822 60.476 19.1131C60.7652 18.9441 60.9852 18.71 61.1361 18.4109C61.2996 18.0988 61.3813 17.7412 61.3813 17.3381V11.1157H64.2102V21.7659H61.5699V19.6593L61.7208 20.1274C61.4819 20.7646 61.0921 21.2393 60.5515 21.5514C60.0234 21.8505 59.401 22 58.6844 22Z" fill="#011627"/>
    <path d="M70.8607 21.883C69.616 21.883 68.6479 21.5384 67.9563 20.8492C67.2774 20.1469 66.9379 19.1717 66.9379 17.9233V13.6515H65.2029V11.1157H65.2972C65.8252 11.1157 66.2276 10.9792 66.5042 10.7061C66.7933 10.433 66.9379 10.0234 66.9379 9.47724V8.69701H69.7669V11.1157H72.1809V13.6515H69.7669V17.7282C69.7669 18.0923 69.8297 18.3979 69.9555 18.645C70.0812 18.8791 70.2761 19.0546 70.5401 19.1717C70.8041 19.2887 71.131 19.3472 71.5208 19.3472C71.6088 19.3472 71.7094 19.3407 71.8226 19.3277C71.9357 19.3147 72.0552 19.3017 72.1809 19.2887V21.7659C71.9923 21.7919 71.7786 21.8179 71.5397 21.844C71.3008 21.87 71.0745 21.883 70.8607 21.883Z" fill="#011627"/>
    <path d="M78.4215 22C77.3276 22 76.3784 21.7529 75.5737 21.2588C74.769 20.7516 74.1467 20.0754 73.7066 19.2302C73.2665 18.3849 73.0465 17.4486 73.0465 16.4213C73.0465 15.355 73.2728 14.4057 73.7255 13.5735C74.1907 12.7412 74.813 12.0845 75.5925 11.6034C76.3721 11.1222 77.2522 10.8817 78.2329 10.8817C79.0501 10.8817 79.7731 11.0182 80.4017 11.2913C81.0304 11.5514 81.5585 11.922 81.9859 12.4031C82.426 12.8843 82.7592 13.4434 82.9855 14.0806C83.2118 14.7048 83.325 15.3875 83.325 16.1287C83.325 16.3368 83.3124 16.5449 83.2873 16.7529C83.2747 16.948 83.2432 17.117 83.193 17.2601H75.4794V15.1144H81.5899L80.2509 16.1287C80.3766 15.5696 80.3703 15.0754 80.232 14.6463C80.0937 14.2042 79.8485 13.8596 79.4965 13.6125C79.157 13.3524 78.7358 13.2224 78.2329 13.2224C77.7425 13.2224 77.3213 13.3459 76.9693 13.593C76.6173 13.8401 76.3532 14.2042 76.1772 14.6853C76.0012 15.1664 75.932 15.7516 75.9697 16.4408C75.9194 17.039 75.9886 17.5657 76.1772 18.0208C76.3658 18.4759 76.655 18.8335 77.0447 19.0936C77.4345 19.3407 77.906 19.4642 78.4592 19.4642C78.9621 19.4642 79.3896 19.3602 79.7417 19.1521C80.1063 18.9441 80.3892 18.658 80.5903 18.2939L82.8535 19.4057C82.6523 19.9259 82.3317 20.381 81.8916 20.7711C81.4642 21.1612 80.955 21.4668 80.364 21.6879C79.7731 21.896 79.1256 22 78.4215 22Z" fill="#011627"/>
    <path d="M84.6136 21.7659V11.1157H87.2539V13.2224L87.1031 12.7542C87.342 12.117 87.7254 11.6489 88.2535 11.3498C88.7941 11.0377 89.4228 10.8817 90.1395 10.8817C90.919 10.8817 91.5979 11.0507 92.1763 11.3888C92.7672 11.7269 93.2261 12.2016 93.553 12.8127C93.8799 13.4109 94.0434 14.1131 94.0434 14.9194V21.7659H91.2145V15.5436C91.2145 15.1274 91.1327 14.7698 90.9693 14.4707C90.8184 14.1717 90.5984 13.9376 90.3092 13.7685C90.0326 13.5995 89.7057 13.515 89.3285 13.515C88.9639 13.515 88.637 13.5995 88.3478 13.7685C88.0586 13.9376 87.8323 14.1717 87.6689 14.4707C87.518 14.7698 87.4425 15.1274 87.4425 15.5436V21.7659H84.6136Z" fill="#011627"/>
    <path d="M98.5672 21.7659L94.5124 11.1157H97.5676L100.378 19.1717H99.2084L102.018 11.1157H105.074L101.019 21.7659H98.5672Z" fill="#011627"/>
    <path d="M110.718 22C109.624 22 108.675 21.7529 107.87 21.2588C107.065 20.7516 106.443 20.0754 106.003 19.2302C105.563 18.3849 105.343 17.4486 105.343 16.4213C105.343 15.355 105.569 14.4057 106.022 13.5735C106.487 12.7412 107.109 12.0845 107.889 11.6034C108.668 11.1222 109.548 10.8817 110.529 10.8817C111.346 10.8817 112.069 11.0182 112.698 11.2913C113.327 11.5514 113.855 11.922 114.282 12.4031C114.722 12.8843 115.055 13.4434 115.282 14.0806C115.508 14.7048 115.621 15.3875 115.621 16.1287C115.621 16.3368 115.609 16.5449 115.584 16.7529C115.571 16.948 115.539 17.117 115.489 17.2601H107.776V15.1144H113.886L112.547 16.1287C112.673 15.5696 112.667 15.0754 112.528 14.6463C112.39 14.2042 112.145 13.8596 111.793 13.6125C111.453 13.3524 111.032 13.2224 110.529 13.2224C110.039 13.2224 109.618 13.3459 109.266 13.593C108.914 13.8401 108.649 14.2042 108.473 14.6853C108.297 15.1664 108.228 15.7516 108.266 16.4408C108.216 17.039 108.285 17.5657 108.473 18.0208C108.662 18.4759 108.951 18.8335 109.341 19.0936C109.731 19.3407 110.202 19.4642 110.755 19.4642C111.258 19.4642 111.686 19.3602 112.038 19.1521C112.403 18.9441 112.685 18.658 112.887 18.2939L115.15 19.4057C114.949 19.9259 114.628 20.381 114.188 20.7711C113.76 21.1612 113.251 21.4668 112.66 21.6879C112.069 21.896 111.422 22 110.718 22Z" fill="#011627"/>
    <path d="M116.91 21.7659V11.1157H119.55V13.671L119.362 13.3004C119.588 12.4031 119.959 11.7984 120.474 11.4863C121.002 11.1612 121.625 10.9987 122.341 10.9987H122.945V13.5345H122.059C121.367 13.5345 120.808 13.7555 120.38 14.1977C119.953 14.6268 119.739 15.238 119.739 16.0312V21.7659H116.91Z" fill="#011627"/>
    <path d="M127.844 22C126.712 22 125.725 21.7269 124.883 21.1808C124.053 20.6216 123.487 19.8739 123.185 18.9376L125.26 17.9233C125.524 18.4954 125.882 18.9441 126.335 19.2692C126.787 19.5943 127.29 19.7568 127.844 19.7568C128.246 19.7568 128.554 19.6723 128.768 19.5033C128.981 19.3342 129.088 19.1001 129.088 18.801C129.088 18.645 129.051 18.515 128.975 18.4109C128.9 18.2939 128.787 18.1899 128.636 18.0988C128.485 18.0078 128.296 17.9298 128.07 17.8648L126.316 17.3576C125.474 17.1105 124.826 16.7139 124.373 16.1678C123.921 15.6086 123.694 14.9519 123.694 14.1977C123.694 13.5345 123.858 12.9558 124.185 12.4616C124.512 11.9675 124.971 11.5839 125.562 11.3108C126.152 11.0247 126.831 10.8817 127.598 10.8817C128.604 10.8817 129.484 11.1287 130.239 11.6229C131.006 12.104 131.546 12.7867 131.861 13.671L129.767 14.6853C129.616 14.2432 129.34 13.8921 128.937 13.632C128.548 13.3589 128.101 13.2224 127.598 13.2224C127.234 13.2224 126.945 13.3004 126.731 13.4564C126.53 13.6125 126.429 13.827 126.429 14.1001C126.429 14.2432 126.467 14.3732 126.542 14.4902C126.618 14.6073 126.737 14.7113 126.901 14.8023C127.077 14.8934 127.29 14.9779 127.542 15.0559L129.183 15.5631C130.038 15.8231 130.691 16.2198 131.144 16.7529C131.597 17.2731 131.823 17.9168 131.823 18.684C131.823 19.3472 131.653 19.9259 131.314 20.42C130.987 20.9142 130.528 21.3043 129.937 21.5904C129.346 21.8635 128.648 22 127.844 22Z" fill="#011627"/>
    <path d="M138.097 22C137.003 22 136.053 21.7529 135.249 21.2588C134.444 20.7516 133.822 20.0754 133.382 19.2302C132.942 18.3849 132.722 17.4486 132.722 16.4213C132.722 15.355 132.948 14.4057 133.4 13.5735C133.866 12.7412 134.488 12.0845 135.268 11.6034C136.047 11.1222 136.927 10.8817 137.908 10.8817C138.725 10.8817 139.448 11.0182 140.077 11.2913C140.705 11.5514 141.233 11.922 141.661 12.4031C142.101 12.8843 142.434 13.4434 142.661 14.0806C142.887 14.7048 143 15.3875 143 16.1287C143 16.3368 142.987 16.5449 142.962 16.7529C142.95 16.948 142.918 17.117 142.868 17.2601H135.154V15.1144H141.265L139.926 16.1287C140.052 15.5696 140.045 15.0754 139.907 14.6463C139.769 14.2042 139.524 13.8596 139.172 13.6125C138.832 13.3524 138.411 13.2224 137.908 13.2224C137.418 13.2224 136.996 13.3459 136.644 13.593C136.292 13.8401 136.028 14.2042 135.852 14.6853C135.676 15.1664 135.607 15.7516 135.645 16.4408C135.594 17.039 135.664 17.5657 135.852 18.0208C136.041 18.4759 136.33 18.8335 136.72 19.0936C137.11 19.3407 137.581 19.4642 138.134 19.4642C138.637 19.4642 139.065 19.3602 139.417 19.1521C139.781 18.9441 140.064 18.658 140.265 18.2939L142.529 19.4057C142.327 19.9259 142.007 20.381 141.567 20.7711C141.139 21.1612 140.63 21.4668 140.039 21.6879C139.448 21.896 138.801 22 138.097 22Z" fill="#011627"/>
    <circle cx="15.0511" cy="15.0511" r="15.0511" fill="url(#paint0_linear_6680_243)"/>
    <path d="M20.7558 20.0685H17.859H12.0662L10.6186 17.5602H10.6178L9.17022 15.052L7.72106 12.543L6.27344 15.0512V15.052L7.72106 17.5602H7.72183L9.16945 20.0685H9.17022L10.6178 22.5775H19.3074L20.7558 20.0685Z" fill="white"/>
    <path d="M9.17181 15.052H14.9646L16.413 17.5602L17.8606 20.0685H20.7574L19.3098 17.5602H19.309L16.413 12.543H7.72266L9.17181 15.052Z" fill="white"/>
    <path d="M22.2027 12.5407V12.5399L20.7543 10.0317L19.3067 7.52344H10.6164L9.16797 10.0317H17.8583L19.3059 12.5399L20.7543 15.0489L22.2027 17.5572L23.6503 15.0489H23.6511L22.2027 12.5407Z" fill="white"/>
    <defs>
    <linearGradient id="paint0_linear_6680_243" x1="15.0511" y1="0" x2="15.0511" y2="30.1022" gradientUnits="userSpaceOnUse">
    <stop stop-color="#3B57F7"/>
    <stop offset="1" stop-color="#5CD0DA"/>
    </linearGradient>
    </defs>
</svg>    