<svg width="94" height="17" viewBox="0 0 94 17" fill="none" xmlns="http://www.w3.org/2000/svg">
<path d="M30.1 12.144C29.46 12.144 28.868 12.028 28.324 11.796C27.78 11.564 27.304 11.24 26.896 10.824C26.488 10.408 26.168 9.92 25.936 9.36C25.712 8.8 25.6 8.188 25.6 7.524C25.6 6.86 25.708 6.248 25.924 5.688C26.148 5.12 26.46 4.632 26.86 4.224C27.268 3.808 27.744 3.488 28.288 3.264C28.832 3.032 29.424 2.916 30.064 2.916C30.704 2.916 31.276 3.024 31.78 3.24C32.292 3.456 32.724 3.744 33.076 4.104C33.428 4.456 33.68 4.844 33.832 5.268L32.38 5.964C32.212 5.5 31.928 5.124 31.528 4.836C31.128 4.548 30.64 4.404 30.064 4.404C29.504 4.404 29.008 4.536 28.576 4.8C28.152 5.064 27.82 5.428 27.58 5.892C27.348 6.356 27.232 6.9 27.232 7.524C27.232 8.148 27.352 8.696 27.592 9.168C27.84 9.632 28.18 9.996 28.612 10.26C29.044 10.524 29.54 10.656 30.1 10.656C30.556 10.656 30.976 10.568 31.36 10.392C31.744 10.208 32.052 9.952 32.284 9.624C32.516 9.288 32.632 8.892 32.632 8.436V7.752L33.376 8.4H30.064V7.02H34.264V7.92C34.264 8.608 34.148 9.216 33.916 9.744C33.684 10.272 33.368 10.716 32.968 11.076C32.576 11.428 32.132 11.696 31.636 11.88C31.14 12.056 30.628 12.144 30.1 12.144ZM37.7514 12.144C37.2474 12.144 36.8074 12.032 36.4314 11.808C36.0634 11.584 35.7794 11.272 35.5794 10.872C35.3874 10.472 35.2914 10.004 35.2914 9.468V5.472H36.8634V9.336C36.8634 9.608 36.9154 9.848 37.0194 10.056C37.1314 10.256 37.2874 10.416 37.4874 10.536C37.6954 10.648 37.9274 10.704 38.1834 10.704C38.4394 10.704 38.6674 10.648 38.8674 10.536C39.0674 10.416 39.2234 10.252 39.3354 10.044C39.4474 9.836 39.5034 9.588 39.5034 9.3V5.472H41.0754V12H39.5874V10.716L39.7194 10.944C39.5674 11.344 39.3154 11.644 38.9634 11.844C38.6194 12.044 38.2154 12.144 37.7514 12.144ZM45.5127 12.072C44.7767 12.072 44.2047 11.872 43.7967 11.472C43.3967 11.064 43.1967 10.492 43.1967 9.756V6.876H42.0687V5.472H42.1887C42.5087 5.472 42.7567 5.388 42.9327 5.22C43.1087 5.052 43.1967 4.808 43.1967 4.488V3.984H44.7687V5.472H46.2687V6.876H44.7687V9.672C44.7687 9.888 44.8047 10.072 44.8767 10.224C44.9567 10.376 45.0767 10.492 45.2367 10.572C45.4047 10.652 45.6167 10.692 45.8727 10.692C45.9287 10.692 45.9927 10.688 46.0647 10.68C46.1447 10.672 46.2207 10.664 46.2927 10.656V12C46.1807 12.016 46.0527 12.032 45.9087 12.048C45.7647 12.064 45.6327 12.072 45.5127 12.072ZM50.5311 12.144C49.8591 12.144 49.2711 11.992 48.7671 11.688C48.2631 11.384 47.8711 10.972 47.5911 10.452C47.3111 9.932 47.1711 9.356 47.1711 8.724C47.1711 8.068 47.3111 7.488 47.5911 6.984C47.8791 6.472 48.2671 6.068 48.7551 5.772C49.2511 5.476 49.8031 5.328 50.4111 5.328C50.9231 5.328 51.3711 5.412 51.7551 5.58C52.1471 5.748 52.4791 5.98 52.7511 6.276C53.0231 6.572 53.2311 6.912 53.3751 7.296C53.5191 7.672 53.5911 8.08 53.5911 8.52C53.5911 8.632 53.5831 8.748 53.5671 8.868C53.5591 8.988 53.5391 9.092 53.5071 9.18H48.4671V7.98H52.6191L51.8751 8.544C51.9471 8.176 51.9271 7.848 51.8151 7.56C51.7111 7.272 51.5351 7.044 51.2871 6.876C51.0471 6.708 50.7551 6.624 50.4111 6.624C50.0831 6.624 49.7911 6.708 49.5351 6.876C49.2791 7.036 49.0831 7.276 48.9471 7.596C48.8191 7.908 48.7711 8.288 48.8031 8.736C48.7711 9.136 48.8231 9.492 48.9591 9.804C49.1031 10.108 49.3111 10.344 49.5831 10.512C49.8631 10.68 50.1831 10.764 50.5431 10.764C50.9031 10.764 51.2071 10.688 51.4551 10.536C51.7111 10.384 51.9111 10.18 52.0551 9.924L53.3271 10.548C53.1991 10.86 52.9991 11.136 52.7271 11.376C52.4551 11.616 52.1311 11.804 51.7551 11.94C51.3871 12.076 50.9791 12.144 50.5311 12.144ZM54.7828 12V5.472H56.2588V6.756L56.1388 6.528C56.2908 6.136 56.5388 5.84 56.8828 5.64C57.2348 5.432 57.6428 5.328 58.1068 5.328C58.5868 5.328 59.0108 5.432 59.3788 5.64C59.7548 5.848 60.0468 6.14 60.2548 6.516C60.4628 6.884 60.5668 7.312 60.5668 7.8V12H58.9948V8.172C58.9948 7.884 58.9388 7.636 58.8268 7.428C58.7148 7.22 58.5588 7.06 58.3588 6.948C58.1668 6.828 57.9388 6.768 57.6748 6.768C57.4188 6.768 57.1908 6.828 56.9908 6.948C56.7908 7.06 56.6348 7.22 56.5228 7.428C56.4108 7.636 56.3548 7.884 56.3548 8.172V12H54.7828ZM63.7469 12L61.1789 5.472H62.8949L64.7549 10.608H64.1189L65.9909 5.472H67.7069L65.1389 12H63.7469ZM71.5546 12.144C70.8826 12.144 70.2946 11.992 69.7906 11.688C69.2866 11.384 68.8946 10.972 68.6146 10.452C68.3346 9.932 68.1946 9.356 68.1946 8.724C68.1946 8.068 68.3346 7.488 68.6146 6.984C68.9026 6.472 69.2906 6.068 69.7786 5.772C70.2746 5.476 70.8266 5.328 71.4346 5.328C71.9466 5.328 72.3946 5.412 72.7786 5.58C73.1706 5.748 73.5026 5.98 73.7746 6.276C74.0466 6.572 74.2546 6.912 74.3986 7.296C74.5426 7.672 74.6146 8.08 74.6146 8.52C74.6146 8.632 74.6066 8.748 74.5906 8.868C74.5826 8.988 74.5626 9.092 74.5306 9.18H69.4906V7.98H73.6426L72.8986 8.544C72.9706 8.176 72.9506 7.848 72.8386 7.56C72.7346 7.272 72.5586 7.044 72.3106 6.876C72.0706 6.708 71.7786 6.624 71.4346 6.624C71.1066 6.624 70.8146 6.708 70.5586 6.876C70.3026 7.036 70.1066 7.276 69.9706 7.596C69.8426 7.908 69.7946 8.288 69.8266 8.736C69.7946 9.136 69.8466 9.492 69.9826 9.804C70.1266 10.108 70.3346 10.344 70.6066 10.512C70.8866 10.68 71.2066 10.764 71.5666 10.764C71.9266 10.764 72.2306 10.688 72.4786 10.536C72.7346 10.384 72.9346 10.18 73.0786 9.924L74.3506 10.548C74.2226 10.86 74.0226 11.136 73.7506 11.376C73.4786 11.616 73.1546 11.804 72.7786 11.94C72.4106 12.076 72.0026 12.144 71.5546 12.144ZM75.8062 12V5.472H77.2822V6.924L77.1622 6.708C77.3142 6.22 77.5502 5.88 77.8702 5.688C78.1982 5.496 78.5902 5.4 79.0462 5.4H79.4302V6.792H78.8662C78.4182 6.792 78.0582 6.932 77.7862 7.212C77.5142 7.484 77.3782 7.868 77.3782 8.364V12H75.8062ZM82.7785 12.144C82.0825 12.144 81.4745 11.98 80.9545 11.652C80.4425 11.316 80.0905 10.864 79.8985 10.296L81.0745 9.732C81.2425 10.1 81.4745 10.388 81.7705 10.596C82.0745 10.804 82.4105 10.908 82.7785 10.908C83.0665 10.908 83.2945 10.844 83.4625 10.716C83.6305 10.588 83.7145 10.42 83.7145 10.212C83.7145 10.084 83.6785 9.98 83.6065 9.9C83.5425 9.812 83.4505 9.74 83.3305 9.684C83.2185 9.62 83.0945 9.568 82.9585 9.528L81.8905 9.228C81.3385 9.068 80.9185 8.824 80.6305 8.496C80.3505 8.168 80.2105 7.78 80.2105 7.332C80.2105 6.932 80.3105 6.584 80.5105 6.288C80.7185 5.984 81.0025 5.748 81.3625 5.58C81.7305 5.412 82.1505 5.328 82.6225 5.328C83.2385 5.328 83.7825 5.476 84.2545 5.772C84.7265 6.068 85.0625 6.484 85.2625 7.02L84.0625 7.584C83.9505 7.288 83.7625 7.052 83.4985 6.876C83.2345 6.7 82.9385 6.612 82.6105 6.612C82.3465 6.612 82.1385 6.672 81.9865 6.792C81.8345 6.912 81.7585 7.068 81.7585 7.26C81.7585 7.38 81.7905 7.484 81.8545 7.572C81.9185 7.66 82.0065 7.732 82.1185 7.788C82.2385 7.844 82.3745 7.896 82.5265 7.944L83.5705 8.256C84.1065 8.416 84.5185 8.656 84.8065 8.976C85.1025 9.296 85.2505 9.688 85.2505 10.152C85.2505 10.544 85.1465 10.892 84.9385 11.196C84.7305 11.492 84.4425 11.724 84.0745 11.892C83.7065 12.06 83.2745 12.144 82.7785 12.144ZM89.5546 12.144C88.8826 12.144 88.2946 11.992 87.7906 11.688C87.2866 11.384 86.8946 10.972 86.6146 10.452C86.3346 9.932 86.1946 9.356 86.1946 8.724C86.1946 8.068 86.3346 7.488 86.6146 6.984C86.9026 6.472 87.2906 6.068 87.7786 5.772C88.2746 5.476 88.8266 5.328 89.4346 5.328C89.9466 5.328 90.3946 5.412 90.7786 5.58C91.1706 5.748 91.5026 5.98 91.7746 6.276C92.0466 6.572 92.2546 6.912 92.3986 7.296C92.5426 7.672 92.6146 8.08 92.6146 8.52C92.6146 8.632 92.6066 8.748 92.5906 8.868C92.5826 8.988 92.5626 9.092 92.5306 9.18H87.4906V7.98H91.6426L90.8986 8.544C90.9706 8.176 90.9506 7.848 90.8386 7.56C90.7346 7.272 90.5586 7.044 90.3106 6.876C90.0706 6.708 89.7786 6.624 89.4346 6.624C89.1066 6.624 88.8146 6.708 88.5586 6.876C88.3026 7.036 88.1066 7.276 87.9706 7.596C87.8426 7.908 87.7946 8.288 87.8266 8.736C87.7946 9.136 87.8466 9.492 87.9826 9.804C88.1266 10.108 88.3346 10.344 88.6066 10.512C88.8866 10.68 89.2066 10.764 89.5666 10.764C89.9266 10.764 90.2306 10.688 90.4786 10.536C90.7346 10.384 90.9346 10.18 91.0786 9.924L92.3506 10.548C92.2226 10.86 92.0226 11.136 91.7506 11.376C91.4786 11.616 91.1546 11.804 90.7786 11.94C90.4106 12.076 90.0026 12.144 89.5546 12.144Z" fill="white"/>
<path d="M15.3957 13.3341H12.3163H6.15813L4.61921 10.6677H4.6184L3.07947 8.00123L1.53892 5.33398L0 8.00042V8.00123L1.53892 10.6677H1.53974L3.07866 13.3341H3.07947L4.6184 16.0013H13.856L15.3957 13.3341Z" fill="white"/>
<path d="M3.07961 8.00123H9.23775L10.7775 10.6677L12.3164 13.3341H15.3959L13.857 10.6677H13.8561L10.7775 5.33398H1.53906L3.07961 8.00123Z" fill="white"/>
<path d="M16.9349 5.33368V5.33287L15.3952 2.66643L13.8563 0H4.61786L3.07812 2.66643H12.3165L13.8555 5.33287L15.3952 8.00012L16.9349 10.6665L18.4739 8.00012H18.4747L16.9349 5.33368Z" fill="white"/>
</svg>
