<svg width="20" height="18" viewBox="0 0 20 18" fill="none" xmlns="http://www.w3.org/2000/svg">
<path d="M16.6674 14.4324H13.3335H6.66677L5.00074 11.5457H4.99986L3.33383 8.65905L1.66603 5.77148L0 8.65817V8.65905L1.66603 11.5457H1.66691L3.33294 14.4324H3.33383L4.99986 17.32H15.0004L16.6674 14.4324Z" fill="#3B57F7"/>
<path d="M3.3299 8.65905H9.99667L11.6636 11.5457L13.3296 14.4324H16.6634L14.9974 11.5457H14.9965L11.6636 5.77148H1.66211L3.3299 8.65905Z" fill="#3B57F7"/>
<path d="M18.3334 5.77425V5.77336L16.6665 2.88668L15.0004 0H4.99894L3.33203 2.88668H13.3335L14.9995 5.77336L16.6665 8.66093L18.3334 11.5476L19.9994 8.66093H20.0003L18.3334 5.77425Z" fill="#5CD0DA"/>
</svg>
