<svg width="21" height="18" viewBox="0 0 21 18" fill="none" xmlns="http://www.w3.org/2000/svg">
<path d="M16.6662 14.4318H13.3326H6.66629L5.00038 11.5453H4.9995L3.33359 8.65883L1.66591 5.77148L0 8.65795V8.65883L1.66591 11.5453H1.66679L3.3327 14.4318H3.33359L4.9995 17.3191H14.9994L16.6662 14.4318Z" fill="white"/>
<path d="M3.33174 8.65883H9.99803L11.6648 11.5453L13.3307 14.4318H16.6643L14.9984 11.5453H14.9975L11.6648 5.77148H1.66406L3.33174 8.65883Z" fill="white"/>
<path d="M18.3342 5.77381V5.77292L16.6674 2.88646L15.0015 0H5.00078L3.33398 2.88646H13.3347L15.0007 5.77292L16.6674 8.66027L18.3342 11.5467L20.0001 8.66027H20.001L18.3342 5.77381Z" fill="white"/>
</svg>
