<svg width="19" height="16" viewBox="0 0 19 16" fill="none" xmlns="http://www.w3.org/2000/svg">
<path d="M15.3957 13.3341H12.3163H6.15813L4.61921 10.6677H4.6184L3.07947 8.00123L1.53892 5.33398L0 8.00042V8.00123L1.53892 10.6677H1.53974L3.07866 13.3341H3.07947L4.6184 16.0013H13.856L15.3957 13.3341Z" fill="white"/>
<path d="M3.07961 8.00123H9.23775L10.7775 10.6677L12.3164 13.3341H15.3959L13.857 10.6677H13.8561L10.7775 5.33398H1.53906L3.07961 8.00123Z" fill="white"/>
<path d="M16.9349 5.33368V5.33287L15.3952 2.66643L13.8563 0H4.61786L3.07812 2.66643H12.3165L13.8555 5.33287L15.3952 8.00012L16.9349 10.6665L18.4739 8.00012H18.4747L16.9349 5.33368Z" fill="white"/>
</svg>
