<svg fill="none" height="108" viewBox="0 0 1200 108" width="1200" xmlns="http://www.w3.org/2000/svg"><g fill="#000"><path d="m1200 0v46.29c-48.55 22.2-105.24 32.17-160.51 28-35.47-2.67-69.85-10.89-104.22-19-12.18-2.87-24.35-5.74-36.57-8.34-22.82-4.85-45.81-8.78-69.3-10.15-70.46-4.1-140.8 14.4-208.58 31.89l-13.09 3.37c-13.207 3.3733-26.41 6.3533-39.61 8.94-57.12 11-114.45 13.72-173.12 4.13-36.72-6-71-17.84-106.11-29.34l-5.51-1.79c-7.187-2.3467-14.543-4.7133-22.07-7.1-82.83-26.14-182.91-50.62-260.69-7.27l-.62.37v-40z" opacity=".25"/><path d="m1200 0v43.63c-11.22-6.6033-23.16-11.8916-35.59-15.76-72.94-22.87-157.41 2.27-229.14 28.41-9.12 3.33-18 6.68-26.7 9.94-36.21 13.65-71.47 27.71-109.31 34.83-74.4 14-146.65 5.84-219.14-15.53-4-1.18-8-2.3667-12-3.56-70.28-20.88-143.24-43.19-216.35-38.29-23.16 1.56-45.87 5.91-68.39 11.33-49.19 11.84-97.53 28.82-148 33.19-46.0281 3.9-92.3382-2.791-135.38-19.56v-68.63z" opacity=".5"/><path d="m1200 0v44.64c-11.15-7.2568-23.09-13.2186-35.59-17.77-82.33-30.24-185.36-2.63-265.71 20.07l-1.85.53c-34.6 9.78-68.3 19.86-104.45 25-58.16 8.21-114.93 5.79-171.58-3.75-12.607-2.1467-25.213-4.62-37.82-7.42-70.66-15.64-144.36-33.71-218.2-30-35.25 1.79-69.38 8.63-103.49 15.59s-68.15 14.03-103.31 16.32c-54.18 3.53-109.73-4.87-157.38-23.58l-.62-.24v-39.39z"/></g></svg>