<svg width="214" height="194" viewBox="0 0 214 194" fill="none" xmlns="http://www.w3.org/2000/svg">
<path d="M8.27403 193.382H200.772C205.471 193.382 208.837 188.586 207.476 183.831L207.348 183.384C205.446 176.742 199.728 172.14 193.166 171.972L181.054 171.661C178.706 171.59 176.402 170.995 174.304 169.916C172.206 168.837 170.367 167.301 168.915 165.417L161.782 156.27C161.719 156.189 161.624 156.075 161.501 155.933C159.434 153.521 156.883 151.589 154.021 150.268C151.159 148.948 148.052 148.269 144.911 148.278L136.867 148.321C136.693 148.321 136.518 148.314 136.345 148.298C122.988 147.095 129.734 147.566 122.903 147.092C117.966 146.75 113.016 146.768 108.985 143.733L98.7314 136.015C98.094 135.53 97.3605 135.191 96.5819 135.023C95.8034 134.855 94.9984 134.862 94.2228 135.044C94.2119 135.046 94.2011 135.049 94.1902 135.052C93.1421 135.313 92.1686 135.821 91.348 136.536C87.6332 139.762 78.1525 147.64 74.8477 150.382C74.0905 151.012 73.2108 151.471 72.2669 151.728C66.8234 157.431 59.4878 160.854 51.6987 161.325C43.9056 161.773 34.8562 163.576 30.7583 165.513C26.5131 167.519 26.1504 172.824 20.8402 175.188C20.0739 175.529 10.5843 176.611 6.61669 178.438C5.04733 179.16 2.06409 181.955 1.72948 182.308C-2.68712 186.972 2.03189 193.382 8.27403 193.382Z" fill="#EFF2FF"/>
<path d="M12.6027 193.602H202.433C207.067 193.602 210.386 188.57 209.043 183.58L208.917 183.111C207.042 176.142 201.403 171.313 194.932 171.136L182.988 170.81C178.342 170.683 173.974 168.293 171.017 164.258L163.983 154.661C163.921 154.576 163.827 154.457 163.706 154.307C159.514 149.144 153.562 146.24 147.346 146.275L139.413 146.32C139.242 146.321 139.07 146.313 138.899 146.297C125.727 145.034 132.38 145.528 125.643 145.031C120.774 144.672 115.893 144.691 111.918 141.507L101.806 133.408C101.191 132.902 100.47 132.547 99.6993 132.37C98.9285 132.193 98.1283 132.2 97.3603 132.389C97.3496 132.392 97.3389 132.394 97.3283 132.397C96.2846 132.677 95.3228 133.211 94.5254 133.954C90.8621 137.34 81.5129 145.606 78.2538 148.483C77.5168 149.138 76.648 149.621 75.7089 149.895C70.2625 155.918 63.051 159.498 55.4256 159.965C47.7405 160.435 38.8165 162.327 34.7754 164.359C30.5891 166.464 30.2315 172.031 24.9947 174.511C24.2391 174.868 14.881 176.004 10.9684 177.921C9.42081 178.679 6.47889 181.611 6.14894 181.982C1.79345 186.876 6.44702 193.602 12.6027 193.602Z" stroke="#EFF2FF" stroke-width="0.5" stroke-miterlimit="10"/>
<path d="M95.2267 107.948L94.3312 112.079L93.6309 115.59C93.6309 115.59 93.1487 119.733 95.7548 121.155C98.7053 122.762 100.565 122.314 100.565 122.314C100.565 122.314 100.933 128.339 100.565 129.601C99.8189 132.148 98.028 131.563 98.028 131.793C98.0509 132.458 99.0956 135.12 99.0956 135.12C99.0956 135.12 102.678 137.519 104.939 137.633C106.615 137.725 110.921 137.071 110.921 137.071C110.921 137.071 113.871 136.36 115.731 133.388C116.236 132.573 116.179 130.358 116.179 130.358C116.179 130.358 114.985 129.521 114.79 129.085C113.653 126.491 114.859 117.77 114.859 117.77L118.337 116.267L119.715 112.618C119.715 112.618 119.302 110.3 118.785 109.945C118.268 109.589 116.34 109.669 116.34 109.669L114.158 107.73L109.095 100.902L106.041 101.396L103.24 105.699L95.3874 105.137L95.2267 107.948Z" fill="white"/>
<path d="M68.4693 57.5714L63.1997 51.9831L60.3066 50.3307C60.3066 50.3307 59.9392 49.9865 58.1482 50.8356C56.3802 51.6848 56.5754 53.6814 56.5754 53.6814C56.5754 53.6814 55.1518 51.8798 52.5113 53.8191C51.0991 54.8518 51.8339 56.7681 51.8339 56.7681C51.8339 56.7681 49.0671 55.242 47.345 57.4796C46.174 58.9943 46.6791 61.0024 46.6791 61.0024L42.3739 75.8164L37.2535 93.132L27.8968 125.021L25.0841 133.799C25.0841 133.799 23.4883 140.867 23.4883 142.233C23.4883 145.102 24.6593 148.303 26.0599 150.128C27.5754 152.09 30.5374 153.903 32.845 154.809C34.2112 155.349 38.6082 156.026 38.6082 156.026L71.6839 156.232L72.9467 132.72L47.8157 132.009L49.5263 122.749L57.8842 85.9372C57.8842 85.9372 59.2159 84.5488 59.5144 83.6537C59.79 82.8046 59.8014 79.4769 59.8014 79.4769L73.5208 63.9399L68.4693 57.5714Z" fill="white"/>
<path d="M152.758 57.5714L158.028 51.9831L160.921 50.3307C160.921 50.3307 161.289 49.9865 163.08 50.8356C164.848 51.6848 164.652 53.6814 164.652 53.6814C164.652 53.6814 166.076 51.8798 168.717 53.8191C170.129 54.8518 169.394 56.7681 169.394 56.7681C169.394 56.7681 172.161 55.242 173.883 57.4796C175.054 58.9943 174.549 61.0024 174.549 61.0024L178.854 75.8164L183.974 93.132L193.331 125.021L196.144 133.799C196.144 133.799 197.74 140.867 197.74 142.233C197.74 145.102 196.569 148.303 195.168 150.128C193.652 152.09 190.69 153.903 188.383 154.809C187.017 155.349 182.62 156.026 182.62 156.026L149.544 156.232L148.281 132.72L173.412 132.009L171.702 122.749L163.631 85.4782C163.631 85.4782 162.115 84.9619 161.771 83.9291C161.541 83.2177 161.426 79.4769 161.426 79.4769L147.707 63.9399L152.758 57.5714Z" fill="white"/>
<path d="M161.431 23.457H60.0801V86.454H161.431V23.457Z" fill="white"/>
<path d="M95.3961 102.316C95.3961 102.316 91.8716 105.965 94.8106 109.385L96.1653 102.557L95.3961 102.316Z" fill="#1A1B22"/>
<path d="M94.8243 109.727C94.721 109.727 94.6291 109.681 94.5603 109.601C91.449 105.975 95.1228 102.096 95.1572 102.062C95.2491 101.97 95.3869 101.936 95.5132 101.97L96.2824 102.211C96.4546 102.268 96.5579 102.441 96.5234 102.613L95.1687 109.44C95.1458 109.566 95.0424 109.67 94.9162 109.704C94.8817 109.727 94.8473 109.727 94.8243 109.727ZM95.5246 102.705C95.2606 103.014 94.698 103.749 94.3306 104.701C93.8025 106.09 93.9059 107.386 94.6291 108.545L95.7772 102.785L95.5246 102.705Z" fill="#1A1B22"/>
<path d="M152.897 64.8282C148.867 69.3034 152.748 72.9754 156.02 69.8657C156.537 69.3723 157.409 68.374 158.339 67.2609V67.2953C158.121 67.5592 157.903 67.8232 157.696 68.0641C154.757 71.323 156.181 73.9622 158.339 73.9852V84.3929H62.8203V74.2261C65.0246 74.272 66.5171 71.6099 63.5436 68.3051C63.314 68.0297 63.0729 67.7428 62.8203 67.433V67.4101C63.7847 68.569 64.6802 69.6018 65.2198 70.1067C68.4917 73.2049 72.3722 69.5444 68.3425 65.0577C71.1667 67.5019 75.9426 64.5758 71.1667 60.1924L63.2336 51.7698C63.0958 51.6207 62.9696 51.483 62.8318 51.3453V25.6875H158.35V51.1961C158.236 51.2994 158.132 51.4141 158.029 51.5403L150.096 59.9629C145.297 64.3463 150.073 67.2609 152.897 64.8282Z" fill="#5CD0DA"/>
<path d="M113.499 118.033C113.316 118.033 113.166 117.895 113.155 117.712C113.143 117.516 113.281 117.356 113.476 117.333C117.116 117.023 118.803 115.003 119.171 113.213C119.458 111.813 118.964 110.517 117.954 109.989C117.357 109.679 116.737 109.645 116.048 109.897C115.864 109.966 115.669 109.874 115.6 109.691C115.531 109.507 115.623 109.312 115.807 109.243C116.68 108.922 117.518 108.968 118.275 109.369C119.561 110.046 120.193 111.653 119.848 113.351C119.435 115.382 117.564 117.689 113.534 118.033C113.522 118.033 113.511 118.033 113.499 118.033Z" fill="#1A1B22"/>
<path d="M99.5556 122.532C97.7647 122.532 96.4788 121.97 95.5948 121.315C93.425 119.698 92.8739 116.875 93.2757 114.935L95.3882 104.918C95.4226 104.734 95.6178 104.608 95.8015 104.654C95.9852 104.688 96.1114 104.883 96.0655 105.067L93.9531 115.085C93.5857 116.806 94.0794 119.33 96.0081 120.765C97.6269 121.97 100.727 122.773 106.329 119.766C106.501 119.675 106.708 119.743 106.8 119.904C106.892 120.076 106.823 120.283 106.662 120.375C103.7 121.97 101.37 122.532 99.5556 122.532Z" fill="#1A1B22"/>
<path d="M116.139 130.483C115.944 130.483 115.473 130.437 115.025 130.036C114.463 129.519 114.176 128.659 114.176 127.442V117.54C114.176 117.344 114.337 117.195 114.52 117.195C114.715 117.195 114.865 117.356 114.865 117.54V127.442C114.865 128.429 115.083 129.152 115.485 129.519C115.806 129.806 116.139 129.795 116.15 129.795C116.346 129.772 116.506 129.921 116.529 130.105C116.552 130.3 116.403 130.46 116.219 130.483C116.208 130.483 116.173 130.483 116.139 130.483Z" fill="#1A1B22"/>
<path d="M98.3869 131.931C98.2721 131.931 98.1458 131.92 98.0195 131.908C97.8243 131.885 97.6866 131.725 97.7095 131.53C97.7325 131.335 97.8932 131.197 98.0884 131.22C98.4443 131.254 98.7543 131.231 99.0183 131.151C100.166 130.807 100.235 129.476 100.235 129.418V124.083C100.235 123.887 100.396 123.738 100.58 123.738C100.763 123.738 100.924 123.899 100.924 124.083V129.43C100.924 129.522 100.844 131.323 99.2135 131.817C98.9724 131.885 98.6854 131.931 98.3869 131.931Z" fill="#1A1B22"/>
<path d="M116.695 107.375C116.087 108.133 115.938 108.856 115.995 109.498C114.813 109.682 113.687 110.451 113.068 110.956L112.918 110.921C113.527 110.003 114.434 108.018 111.414 107.49C107.465 106.802 108.843 100.927 108.843 100.927C106.73 101.317 105.64 101.948 104.893 105.7C100.841 106.572 91.3691 103.956 91.3691 103.956L94.2163 99.0447C94.2163 99.0447 99.3022 89.7616 110.84 96.7497C119.577 97.4727 118.601 104.954 116.695 107.375Z" fill="#1A1B22"/>
<path d="M113.074 111.288C113.051 111.288 113.028 111.288 113.005 111.277L112.855 111.242C112.741 111.219 112.649 111.139 112.603 111.036C112.557 110.933 112.568 110.806 112.637 110.715C112.936 110.267 113.384 109.418 113.108 108.787C112.901 108.316 112.316 107.995 111.363 107.823C110.364 107.651 109.595 107.157 109.067 106.354C108.022 104.771 108.24 102.407 108.412 101.363C106.748 101.753 105.898 102.487 105.244 105.757C105.221 105.895 105.106 105.998 104.98 106.033C100.893 106.916 91.6737 104.392 91.2833 104.289C91.18 104.266 91.0996 104.185 91.0537 104.082C91.0078 103.979 91.0193 103.864 91.0767 103.772L93.9239 98.8611C94.0042 98.7234 95.933 95.258 100.135 94.1334C103.372 93.2613 107.012 94.0301 110.961 96.4054C115.324 96.7841 117.092 98.8152 117.804 100.456C118.975 103.164 118.022 106.239 116.977 107.57C116.495 108.179 116.288 108.798 116.357 109.441C116.38 109.624 116.242 109.797 116.058 109.82C114.945 109.992 113.854 110.76 113.303 111.208C113.223 111.265 113.154 111.288 113.074 111.288ZM108.849 100.582C108.941 100.582 109.032 100.617 109.101 100.686C109.182 100.766 109.216 100.892 109.193 101.007C109.182 101.041 108.47 104.197 109.652 105.987C110.077 106.63 110.674 107.008 111.489 107.146C112.683 107.352 113.452 107.811 113.751 108.511C113.969 109.005 113.923 109.533 113.751 110.026C114.313 109.67 114.956 109.349 115.645 109.188C115.645 108.477 115.909 107.788 116.437 107.134C117.356 105.975 118.228 103.141 117.172 100.731C116.254 98.6086 114.061 97.3464 110.823 97.0825C110.766 97.0825 110.72 97.0595 110.674 97.0366C106.863 94.7301 103.384 93.9728 100.319 94.799C96.4037 95.8546 94.5438 99.1594 94.5323 99.1938L91.9148 103.715C93.7746 104.197 101.088 105.998 104.612 105.379C105.37 101.787 106.53 100.984 108.791 100.559C108.803 100.582 108.826 100.582 108.849 100.582Z" fill="#1A1B22"/>
<path d="M150.072 155.76L124.952 156.001L136.755 193.317H85.6773C85.6773 193.317 90.545 177.734 91.1076 170.356C83.7256 165.766 87.1353 157.298 87.1353 157.298H71.1543L72.6123 132.512C72.6123 132.512 76.975 132.627 84.5062 132.523L98.0419 131.56C98.0419 131.56 99.3622 138.364 108.019 137.343C116.526 136.345 116.181 130.137 116.181 130.137C116.181 130.137 138.81 132.271 148.603 132.271L150.072 155.76Z" fill="#3B57F7"/>
<mask id="mask0_1315_11954" style="mask-type:luminance" maskUnits="userSpaceOnUse" x="71" y="130" width="80" height="64">
<path d="M150.031 155.76L124.911 156.001L136.714 193.317H85.6363C85.6363 193.317 90.504 177.734 91.0666 170.356C83.6845 165.766 87.0943 157.298 87.0943 157.298H71.1133L72.5713 132.512C72.5713 132.512 76.9339 132.627 84.4652 132.523L98.0009 131.56C98.0009 131.56 99.3211 138.364 107.978 137.343C116.485 136.345 116.14 130.137 116.14 130.137C116.14 130.137 138.769 132.271 148.561 132.271L150.031 155.76Z" fill="white"/>
</mask>
<g mask="url(#mask0_1315_11954)">
<path d="M85.2277 154.923C71.9102 154.923 61.084 144.091 61.084 130.792C61.084 117.481 71.9217 106.66 85.2277 106.66C98.5337 106.66 109.371 117.492 109.371 130.792C109.371 144.103 98.5337 154.923 85.2277 154.923ZM85.2277 107.211C72.2202 107.211 61.6351 117.791 61.6351 130.792C61.6351 143.793 72.2202 154.373 85.2277 154.373C98.2352 154.373 108.82 143.793 108.82 130.792C108.809 117.791 98.2352 107.211 85.2277 107.211Z" fill="white"/>
</g>
<mask id="mask1_1315_11954" style="mask-type:luminance" maskUnits="userSpaceOnUse" x="71" y="130" width="80" height="64">
<path d="M150.031 155.76L124.911 156.001L136.714 193.317H85.6363C85.6363 193.317 90.504 177.734 91.0666 170.356C83.6845 165.766 87.0943 157.298 87.0943 157.298H71.1133L72.5713 132.512C72.5713 132.512 76.9339 132.627 84.4652 132.523L98.0009 131.56C98.0009 131.56 99.3211 138.364 107.978 137.343C116.485 136.345 116.14 130.137 116.14 130.137C116.14 130.137 138.769 132.271 148.561 132.271L150.031 155.76Z" fill="white"/>
</mask>
<g mask="url(#mask1_1315_11954)">
<path d="M123.943 163.426C118.363 163.426 113.828 158.893 113.828 153.316C113.828 147.74 118.363 143.207 123.943 143.207C129.522 143.207 134.057 147.74 134.057 153.316C134.057 158.893 129.511 163.426 123.943 163.426ZM123.943 143.769C118.673 143.769 114.391 148.049 114.391 153.316C114.391 158.583 118.673 162.863 123.943 162.863C129.212 162.863 133.494 158.583 133.494 153.316C133.494 148.049 129.212 143.769 123.943 143.769Z" fill="white"/>
</g>
<mask id="mask2_1315_11954" style="mask-type:luminance" maskUnits="userSpaceOnUse" x="71" y="130" width="80" height="64">
<path d="M150.031 155.76L124.911 156.001L136.714 193.317H85.6363C85.6363 193.317 90.504 177.734 91.0666 170.356C83.6845 165.766 87.0943 157.298 87.0943 157.298H71.1133L72.5713 132.512C72.5713 132.512 76.9339 132.627 84.4652 132.523L98.0009 131.56C98.0009 131.56 99.3211 138.364 107.978 137.343C116.485 136.345 116.14 130.137 116.14 130.137C116.14 130.137 138.769 132.271 148.561 132.271L150.031 155.76Z" fill="white"/>
</mask>
<g mask="url(#mask2_1315_11954)">
<path d="M131.514 203.761C116.405 203.761 104.109 191.472 104.109 176.371C104.109 161.27 116.405 148.98 131.514 148.98C146.622 148.98 158.918 161.27 158.918 176.371C158.918 191.472 146.622 203.761 131.514 203.761ZM131.514 149.531C116.704 149.531 104.66 161.568 104.66 176.371C104.66 191.174 116.704 203.211 131.514 203.211C146.324 203.211 158.367 191.162 158.367 176.371C158.367 161.58 146.324 149.531 131.514 149.531Z" fill="white"/>
</g>
<mask id="mask3_1315_11954" style="mask-type:luminance" maskUnits="userSpaceOnUse" x="71" y="130" width="80" height="64">
<path d="M150.031 155.76L124.911 156.001L136.714 193.317H85.6363C85.6363 193.317 90.504 177.734 91.0666 170.356C83.6845 165.766 87.0943 157.298 87.0943 157.298H71.1133L72.5713 132.512C72.5713 132.512 76.9339 132.627 84.4652 132.523L98.0009 131.56C98.0009 131.56 99.3211 138.364 107.978 137.343C116.485 136.345 116.14 130.137 116.14 130.137C116.14 130.137 138.769 132.271 148.561 132.271L150.031 155.76Z" fill="white"/>
</mask>
<g mask="url(#mask3_1315_11954)">
<path d="M69.3827 219.078C54.2743 219.078 41.9785 206.788 41.9785 191.687C41.9785 176.586 54.2743 164.297 69.3827 164.297C84.4912 164.297 96.787 176.586 96.787 191.687C96.787 206.788 84.4912 219.078 69.3827 219.078ZM69.3827 164.848C54.5727 164.848 42.5296 176.885 42.5296 191.687C42.5296 206.49 54.5727 218.527 69.3827 218.527C84.1927 218.527 96.2359 206.49 96.2359 191.687C96.2359 176.885 84.1927 164.848 69.3827 164.848Z" fill="white"/>
</g>
<path d="M106.398 137.77C103.528 137.77 101.29 137.059 99.7512 135.659C97.7995 133.88 97.7076 131.665 97.7076 131.574C97.6961 131.379 97.8569 131.218 98.0406 131.218H98.052C98.2357 131.218 98.3964 131.367 98.3964 131.551C98.3964 131.574 98.4883 133.593 100.222 135.154C101.829 136.6 104.286 137.242 107.524 137.036C110.704 136.841 113.023 135.9 114.423 134.259C116.031 132.365 115.835 130.185 115.835 130.162C115.813 129.967 115.962 129.795 116.145 129.784C116.341 129.761 116.513 129.91 116.524 130.093C116.536 130.197 116.742 132.595 114.951 134.706C113.425 136.508 110.933 137.518 107.569 137.724C107.168 137.759 106.777 137.77 106.398 137.77Z" fill="#1A1B22"/>
<path d="M108.247 118.539C108.247 118.539 105.641 124.231 100.566 124.07V122.096C100.566 122.085 104.986 121.718 108.247 118.539Z" fill="#1A1B22"/>
<path d="M100.774 124.412C100.705 124.412 100.636 124.412 100.556 124.412C100.372 124.4 100.223 124.251 100.223 124.068V122.094C100.223 121.91 100.36 121.761 100.544 121.75C100.59 121.75 104.895 121.348 108.006 118.296C108.121 118.181 108.316 118.158 108.454 118.261C108.592 118.365 108.638 118.537 108.569 118.686C108.546 118.743 107.88 120.178 106.571 121.6C104.872 123.448 102.875 124.412 100.774 124.412ZM100.923 122.392V123.712C103.759 123.643 105.768 121.623 106.893 120.086C104.425 121.784 101.818 122.277 100.923 122.392Z" fill="#1A1B22"/>
<path d="M113.948 114.431C113.867 114.431 113.799 114.408 113.73 114.35C113.58 114.236 113.557 114.018 113.672 113.857C114.292 113.088 115.899 111.837 117.599 112.652C117.771 112.732 117.84 112.939 117.759 113.111C117.679 113.283 117.472 113.352 117.3 113.272C116.634 112.95 115.922 113.008 115.188 113.455C114.602 113.811 114.223 114.27 114.223 114.282C114.154 114.385 114.051 114.431 113.948 114.431Z" fill="#1A1B22"/>
<path d="M98.8277 116.497C98.5636 116.497 98.2537 116.451 97.9666 116.279C97.5878 116.049 97.3467 115.659 97.2548 115.131C97.0367 113.869 98.047 113.066 98.7358 112.745L99.1147 110.851C99.1491 110.668 99.3328 110.542 99.528 110.576C99.7117 110.61 99.838 110.794 99.8035 110.989L99.3902 113.055C99.3673 113.169 99.2869 113.273 99.1721 113.307C99.1147 113.33 97.7485 113.846 97.9552 114.994C98.0126 115.327 98.1389 115.545 98.3455 115.671C98.7358 115.9 99.2869 115.728 99.2984 115.728C99.4821 115.671 99.6773 115.763 99.7347 115.946C99.7921 116.13 99.7002 116.325 99.5165 116.382C99.4821 116.405 99.1951 116.497 98.8277 116.497Z" fill="#1A1B22"/>
<path d="M103.505 111.241C103.653 110.508 103.486 109.856 103.132 109.784C102.778 109.713 102.37 110.249 102.222 110.982C102.073 111.714 102.24 112.367 102.594 112.438C102.949 112.51 103.356 111.974 103.505 111.241Z" fill="#1A1B22"/>
<path d="M97.4812 110.112C97.6296 109.379 97.4628 108.727 97.1086 108.655C96.7544 108.584 96.3469 109.12 96.1985 109.853C96.05 110.586 96.2168 111.238 96.5711 111.309C96.9253 111.381 97.3328 110.845 97.4812 110.112Z" fill="#1A1B22"/>
<path d="M104.666 109.611C104.528 109.577 104.414 109.45 104.402 109.29C104.345 108.383 103.38 108.246 103.334 108.234C103.139 108.211 103.013 108.039 103.036 107.844C103.059 107.649 103.231 107.523 103.426 107.546C103.977 107.615 105.022 108.062 105.091 109.244C105.102 109.439 104.953 109.6 104.758 109.611C104.735 109.623 104.701 109.611 104.666 109.611Z" fill="#1A1B22"/>
<path d="M101.797 118.667C101.544 118.782 101.28 118.793 101.131 118.678C100.281 118.047 98.6741 118.885 98.6167 118.931C98.2952 119.103 97.9508 119.103 97.8245 118.931C97.6982 118.77 97.859 118.495 98.1689 118.323C99.0644 117.841 101.062 117.152 102.164 117.967C102.348 118.105 102.256 118.368 101.969 118.564C101.923 118.598 101.866 118.632 101.797 118.667Z" fill="#1A1B22"/>
<path d="M96.3298 108.487C96.2036 108.522 96.0658 108.476 95.974 108.373C95.8477 108.223 95.8821 108.005 96.0314 107.879C96.9154 107.168 97.7994 107.042 97.8338 107.03C98.029 107.007 98.2012 107.133 98.2241 107.328C98.2471 107.523 98.1208 107.696 97.9257 107.719C97.9142 107.719 97.1909 107.833 96.4561 108.418C96.4332 108.453 96.3758 108.476 96.3298 108.487Z" fill="#1A1B22"/>
<path d="M72.6076 132.857H72.5961L47.5569 131.928C47.4536 131.928 47.3618 131.87 47.2929 131.79C47.2355 131.71 47.201 131.607 47.224 131.503L57.2466 85.3744C57.281 85.2367 57.3843 85.1334 57.5106 85.1104C57.591 85.099 59.4738 84.6514 59.4738 81.8286C59.4738 81.6335 59.6345 81.4844 59.8182 81.4844C60.0019 81.4844 60.1626 81.645 60.1626 81.8286C60.1626 84.617 58.4865 85.4891 57.8665 85.7186L47.9702 131.239L72.5961 132.157C72.7913 132.169 72.9406 132.329 72.9291 132.513C72.952 132.708 72.7913 132.857 72.6076 132.857Z" fill="#1A1B22"/>
<path d="M161.431 86.9361H59.8503C59.6551 86.9361 59.5059 86.7754 59.5059 86.5919V73.0745C59.5059 72.8794 59.6666 72.7302 59.8503 72.7302C60.034 72.7302 60.1947 72.8909 60.1947 73.0745V86.2361H161.086V72.5122C161.086 72.3171 161.247 72.168 161.431 72.168C161.614 72.168 161.775 72.3286 161.775 72.5122V86.5919C161.787 86.7869 161.626 86.9361 161.431 86.9361Z" fill="#1A1B22"/>
<path d="M59.9792 50.4691C59.784 50.4691 59.6348 50.3085 59.6348 50.1249V22.895C59.6348 22.7 59.7955 22.5508 59.9792 22.5508H161.571C161.766 22.5508 161.916 22.7114 161.916 22.895V49.7347C161.916 49.9298 161.755 50.079 161.571 50.079C161.387 50.079 161.227 49.9183 161.227 49.7347V23.2393H60.3236V50.1134C60.3236 50.3085 60.1744 50.4691 59.9792 50.4691Z" fill="#1A1B22"/>
<path d="M71.1442 156.349L41.4898 156.268C33.8667 156.062 28.5397 153.916 25.6351 149.9C21.6972 144.449 23.6948 137.61 23.7867 137.323L41.685 76.5179C43.4874 70.792 44.314 67.9462 45.2669 64.6415C45.6458 63.3219 46.0476 61.9564 46.5298 60.3155C46.1968 58.8811 46.8283 57.2058 48.0452 56.2878C49.0325 55.5534 50.238 55.4386 51.432 55.9435C51.3746 54.2797 52.339 53.201 53.3493 52.7421C54.6466 52.1454 56.1161 52.4093 56.9312 53.3961C57.0575 53.5453 57.0345 53.7633 56.8853 53.8895C56.736 54.0158 56.5179 53.9928 56.3916 53.8436C55.7831 53.1092 54.6466 52.9142 53.6477 53.3732C53.2115 53.5797 51.8223 54.3944 52.1897 56.4829C52.2127 56.6206 52.1553 56.7583 52.0405 56.8271C51.9257 56.9074 51.7764 56.9074 51.6616 56.8386C50.5135 56.1501 49.377 56.1501 48.4585 56.8386C47.4482 57.5959 46.9086 59.0532 47.2186 60.2237C47.2301 60.281 47.2301 60.3499 47.2186 60.4073C46.7249 62.0826 46.3231 63.471 45.9328 64.8136C44.9799 68.1184 44.1533 70.9641 42.3508 76.6901L24.4526 137.495C24.4296 137.564 22.4664 144.3 26.1976 149.464C28.9644 153.296 34.1077 155.339 41.4898 155.545L71.1442 155.626C71.3394 155.626 71.4886 155.786 71.4886 155.97C71.5001 156.188 71.3394 156.349 71.1442 156.349Z" fill="#1A1B22"/>
<path d="M56.6725 53.9769C56.4774 53.9769 56.3281 53.8162 56.3281 53.6326C56.3281 52.5196 56.7185 51.5098 57.4417 50.7984C58.1076 50.1328 59.0146 49.7656 59.979 49.7656C59.9904 49.7656 59.9904 49.7656 60.0019 49.7656C61.0926 49.7771 62.1488 50.2361 63.0672 51.0967C63.205 51.2229 63.2165 51.4524 63.0787 51.5901C62.9524 51.7278 62.7228 51.7393 62.5851 51.6016C61.7929 50.8672 60.8974 50.4656 59.9904 50.4656C59.2098 50.4541 58.475 50.7525 57.9354 51.2918C57.3499 51.877 57.0284 52.7032 57.0284 53.6326C57.017 53.8162 56.8562 53.9769 56.6725 53.9769Z" fill="#1A1B22"/>
<path d="M62.815 74.5659C62.8035 74.5659 62.792 74.5659 62.792 74.5659C61.8621 74.5545 60.8977 74.0955 60.1056 73.3037C58.5327 71.7317 53.8027 65.7418 53.596 65.4893C53.4812 65.3402 53.5042 65.1221 53.6534 64.9959C53.8027 64.8812 54.0208 64.9041 54.1471 65.0533C54.193 65.1107 59.0608 71.2612 60.5992 72.8103C61.2651 73.4873 62.0573 73.8545 62.815 73.8775C62.8265 73.8775 63.9286 73.8889 64.4911 73.1431C64.9044 72.5923 64.9389 71.7431 64.6059 70.6301L62.528 67.6466C60.6911 65.409 54.6637 58.3405 54.6063 58.2717C54.48 58.1225 54.503 57.9045 54.6408 57.7782C54.79 57.652 55.0082 57.675 55.1344 57.8127C55.1918 57.8815 61.2536 64.973 63.079 67.2106C63.079 67.222 63.0905 67.222 63.0905 67.2335L65.2029 70.2744C65.2259 70.3088 65.2374 70.3317 65.2489 70.3662C65.6736 71.7431 65.6048 72.8103 65.0422 73.5562C64.3075 74.5315 63.0216 74.5659 62.815 74.5659Z" fill="#1A1B22"/>
<path d="M42.2663 137.802C42.1744 137.802 42.0826 137.768 42.0252 137.699C41.8874 137.561 41.8874 137.343 42.0252 137.206C42.2433 136.988 45.9171 132.891 47.3063 131.342C47.4326 131.204 47.6507 131.181 47.7999 131.319C47.9492 131.457 47.9607 131.663 47.8229 131.812C47.6163 132.042 42.7944 137.424 42.5189 137.711C42.45 137.768 42.3581 137.802 42.2663 137.802Z" fill="#1A1B22"/>
<path d="M57.0061 79.444C56.8224 79.444 56.6731 79.3063 56.6616 79.1227C56.3517 74.7393 51.989 74.1771 51.8053 74.1541C51.702 74.1426 51.6217 74.0853 51.5642 74.0049C51.5068 73.9246 51.4839 73.8213 51.5068 73.7295L53.5504 65.1923C53.5963 65.0087 53.78 64.8939 53.9752 64.9398C54.1589 64.9857 54.2737 65.1693 54.2277 65.3644L52.276 73.546C53.47 73.8099 57.0635 74.9344 57.362 79.0883C57.3734 79.2834 57.2357 79.444 57.0405 79.4555C57.029 79.444 57.0175 79.444 57.0061 79.444Z" fill="#1A1B22"/>
<path d="M53.3203 86.9369C53.1711 86.9369 53.0218 86.8336 52.9874 86.673C52.9415 86.4894 53.0448 86.2943 53.24 86.2484L57.5222 85.1124C57.7059 85.0665 57.9011 85.1697 57.947 85.3648C57.9929 85.5484 57.8896 85.7435 57.6944 85.7894L53.4122 86.9254C53.3892 86.9369 53.3548 86.9369 53.3203 86.9369Z" fill="#1A1B22"/>
<path d="M148.605 132.619C148.421 132.619 148.26 132.47 148.26 132.287C148.249 132.091 148.398 131.931 148.593 131.931L173.219 131.013L163.323 85.492C162.703 85.2625 161.027 84.3904 161.027 81.6021C161.027 81.407 161.188 81.2578 161.371 81.2578C161.555 81.2578 161.716 81.4185 161.716 81.6021C161.716 84.4134 163.61 84.8609 163.69 84.8839C163.828 84.9183 163.931 85.0216 163.954 85.1478L173.988 131.277C174.011 131.38 173.988 131.483 173.92 131.564C173.851 131.644 173.759 131.69 173.656 131.701L148.616 132.631C148.605 132.619 148.605 132.619 148.605 132.619Z" fill="#1A1B22"/>
<path d="M150.065 156.107C149.87 156.107 149.721 155.946 149.721 155.763C149.721 155.568 149.87 155.418 150.065 155.418L179.72 155.338C187.09 155.131 192.233 153.089 195.012 149.256C198.743 144.093 196.78 137.357 196.757 137.288L178.858 76.4713C177.056 70.7454 176.229 67.8996 175.277 64.5949C174.886 63.2523 174.484 61.8638 173.991 60.1885C173.968 60.1311 173.968 60.0623 173.991 60.0049C174.301 58.8345 173.773 57.3772 172.751 56.6198C171.832 55.9313 170.696 55.9313 169.548 56.6198C169.433 56.6887 169.284 56.6887 169.169 56.6083C169.054 56.528 168.997 56.3903 169.02 56.2641C169.398 54.1757 167.998 53.3495 167.562 53.1544C166.551 52.6839 165.426 52.879 164.818 53.6249C164.691 53.7741 164.473 53.797 164.324 53.6708C164.175 53.5446 164.152 53.3265 164.278 53.1774C165.093 52.1905 166.563 51.9266 167.86 52.5233C168.87 52.9938 169.835 54.0609 169.777 55.7248C170.971 55.2199 172.177 55.3346 173.164 56.069C174.381 56.987 175.012 58.6623 174.68 60.0967C175.162 61.7261 175.564 63.0916 175.942 64.4113C176.895 67.7045 177.722 70.5503 179.524 76.2763L197.423 137.093C197.514 137.38 199.512 144.219 195.574 149.669C192.67 153.686 187.343 155.831 179.731 156.038L150.065 156.107Z" fill="#1A1B22"/>
<path d="M158.362 74.3375C158.35 74.3375 158.339 74.3375 158.327 74.3375C158.293 74.3375 158.258 74.326 158.224 74.3145C156.95 73.89 156.18 73.19 155.928 72.2261C155.365 70.0115 157.868 67.2805 158.063 67.0624C159.912 64.8019 162.196 61.8987 162.219 61.8643C162.334 61.7151 162.552 61.6922 162.713 61.8069C162.862 61.9217 162.885 62.1397 162.77 62.3004C162.747 62.3348 160.451 65.2494 158.603 67.5214C158.603 67.5329 158.591 67.5329 158.591 67.5444C158.568 67.5673 156.135 70.1836 156.617 72.0655C156.8 72.7769 157.397 73.3047 158.396 73.649C159.154 73.6375 159.946 73.2589 160.623 72.5818C162.162 71.0442 167.03 64.8937 167.076 64.8248C167.19 64.6757 167.408 64.6527 167.569 64.7675C167.718 64.8822 167.741 65.1002 167.627 65.2609C167.42 65.5133 162.69 71.5032 161.117 73.0753C160.291 73.8785 159.315 74.3375 158.362 74.3375Z" fill="#1A1B22"/>
<path d="M164.555 53.7408C164.36 53.7408 164.211 53.5801 164.211 53.3965C164.211 52.031 163.533 50.9294 162.408 50.459C161.168 49.9426 159.745 50.3098 158.574 51.4458C158.436 51.5835 158.218 51.5835 158.08 51.4458C157.942 51.3081 157.942 51.0901 158.08 50.9524C159.423 49.6328 161.191 49.1967 162.672 49.8278C164.05 50.4016 164.899 51.7786 164.899 53.408C164.899 53.5801 164.75 53.7408 164.555 53.7408Z" fill="#1A1B22"/>
<path d="M153.57 71.2728C152.399 71.2728 151.664 70.6417 151.63 70.6073C151.607 70.5958 151.595 70.5728 151.584 70.5614C149.184 67.3943 152.64 64.583 152.674 64.5485C153.845 63.5388 156.555 60.7159 158.07 59.1095C158.69 58.4554 159.092 58.0193 159.092 58.0193C159.218 57.8816 159.448 57.8702 159.586 58.0079C159.723 58.1341 159.735 58.3636 159.597 58.5013C159.597 58.5013 159.195 58.9373 158.564 59.5914C157.037 61.1979 154.305 64.0436 153.099 65.0879C152.973 65.1911 150.149 67.4976 152.089 70.1138C152.215 70.2171 152.846 70.6646 153.788 70.5728C154.81 70.481 155.843 69.7925 156.853 68.5418C156.979 68.3926 157.198 68.3697 157.347 68.4844C157.496 68.6106 157.519 68.8287 157.404 68.9778C156.268 70.3892 155.062 71.1581 153.845 71.2613C153.765 71.2613 153.662 71.2728 153.57 71.2728Z" fill="#1A1B22"/>
<path d="M164.199 79.2055C164.187 79.2055 164.187 79.2055 164.176 79.2055C163.98 79.194 163.843 79.0219 163.854 78.8383C164.153 74.6844 167.746 73.5599 168.94 73.296L166.988 65.1144C166.942 64.9308 167.057 64.7357 167.241 64.6898C167.425 64.6439 167.62 64.7587 167.666 64.9423L169.709 73.4795C169.732 73.5713 169.709 73.6746 169.652 73.7549C169.594 73.8353 169.503 73.8926 169.411 73.9041C169.227 73.9271 164.864 74.4893 164.554 78.8727C164.543 79.0678 164.382 79.2055 164.199 79.2055Z" fill="#1A1B22"/>
<path d="M167.893 86.694C167.858 86.694 167.835 86.694 167.801 86.6825L163.519 85.5465C163.335 85.5006 163.22 85.3055 163.266 85.1219C163.312 84.9383 163.507 84.8236 163.691 84.8695L167.973 86.0055C168.157 86.0514 168.272 86.2465 168.226 86.4301C168.191 86.5907 168.053 86.694 167.893 86.694Z" fill="#1A1B22"/>
<path d="M89.7503 102.656C89.7159 102.656 89.67 102.645 89.6355 102.634C89.4518 102.576 89.36 102.37 89.4174 102.186C90.9099 97.8714 93.8604 95.9551 96.0761 95.1175C98.5559 94.1765 100.875 94.2569 101.231 94.4519C101.403 94.5437 101.461 94.7618 101.369 94.9224C101.277 95.0831 101.082 95.1404 100.921 95.0716C100.691 95.0142 98.6937 94.8536 96.3057 95.7715C94.2392 96.5633 91.4839 98.3534 90.0833 102.404C90.0259 102.565 89.8996 102.656 89.7503 102.656Z" fill="#1A1B22"/>
<path d="M112.641 97.115C116.477 97.115 119.587 94.0069 119.587 90.1728C119.587 86.3386 116.477 83.2305 112.641 83.2305C108.805 83.2305 105.695 86.3386 105.695 90.1728C105.695 94.0069 108.805 97.115 112.641 97.115Z" fill="#1A1B22"/>
<path d="M112.641 97.4704C111.091 97.4704 109.599 96.977 108.324 96.0476C105.087 93.6608 104.398 89.0938 106.786 85.8579C109.174 82.622 113.743 81.9335 116.981 84.3202C118.553 85.4792 119.575 87.1775 119.862 89.0938C120.149 91.0216 119.679 92.9379 118.519 94.5099C117.359 96.082 115.66 97.1032 113.743 97.3901C113.376 97.436 112.997 97.4704 112.641 97.4704ZM112.664 83.5859C110.643 83.5859 108.634 84.5153 107.348 86.2595C105.19 89.1856 105.81 93.3165 108.738 95.4853C110.161 96.5295 111.895 96.9655 113.64 96.7016C115.385 96.4377 116.923 95.5082 117.968 94.0968C119.013 92.6854 119.449 90.9412 119.185 89.1971C118.921 87.4529 118.002 85.9153 116.579 84.871C115.396 83.999 114.019 83.5859 112.664 83.5859Z" fill="#1A1B22"/>
<path d="M113.954 97.7667C113.816 97.7667 113.678 97.6749 113.632 97.5372C113.563 97.3536 113.655 97.1585 113.839 97.0897C116.904 95.9651 118.982 94.2095 120.038 91.8916C121.657 88.3114 120.222 84.5477 120.211 84.5018C120.142 84.3182 120.234 84.1231 120.406 84.0542C120.589 83.9854 120.785 84.0772 120.854 84.2493C120.922 84.41 122.403 88.3114 120.67 92.167C119.545 94.6685 117.329 96.5389 114.08 97.7323C114.034 97.7552 114 97.7667 113.954 97.7667Z" fill="#1A1B22"/>
<path d="M119.589 101.18C119.463 101.18 119.337 101.111 119.279 100.996C119.256 100.962 117.511 97.6568 113.447 97.0027C113.252 96.9683 113.126 96.7962 113.16 96.6011C113.194 96.406 113.367 96.2798 113.562 96.3142C117.982 97.0257 119.83 100.526 119.911 100.675C120.002 100.847 119.934 101.053 119.761 101.145C119.692 101.168 119.646 101.18 119.589 101.18Z" fill="#1A1B22"/>
<path d="M87.1243 157.646C87.0783 157.646 87.0209 157.635 86.975 157.612C86.8028 157.531 86.7224 157.325 86.8028 157.153L89.5237 151.278C89.6041 151.106 89.8107 151.025 89.9829 151.106C90.1551 151.186 90.2355 151.392 90.1551 151.565L87.4342 157.44C87.3768 157.566 87.2505 157.646 87.1243 157.646Z" fill="#1A1B22"/>
<path d="M77.7982 157.643H77.7867C77.5915 157.632 77.4423 157.471 77.4537 157.276L78.4985 132.548C78.51 132.353 78.6707 132.215 78.8659 132.215C79.061 132.226 79.2103 132.387 79.1988 132.582L78.1541 157.31C78.1311 157.494 77.9819 157.643 77.7982 157.643Z" fill="#1A1B22"/>
<path d="M144.451 156.167C144.279 156.167 144.119 156.029 144.107 155.857L141.811 132.311C141.788 132.116 141.937 131.943 142.121 131.932C142.316 131.909 142.488 132.058 142.5 132.242L144.796 155.788C144.819 155.983 144.67 156.155 144.486 156.167C144.474 156.167 144.463 156.167 144.451 156.167Z" fill="#1A1B22"/>
<path d="M177.882 135.269C177.802 135.269 177.722 135.246 177.653 135.189L173.428 131.609C173.279 131.482 173.267 131.264 173.382 131.115C173.508 130.966 173.726 130.955 173.876 131.069L178.1 134.65C178.25 134.776 178.261 134.994 178.146 135.143C178.077 135.223 177.974 135.269 177.882 135.269Z" fill="#1A1B22"/>
<path d="M67.8522 71.653C65.9465 71.653 63.857 69.5302 63.7651 69.4384C63.6274 69.3007 63.6389 69.0827 63.7766 68.945C63.9144 68.8073 64.1325 68.8187 64.2703 68.9564C64.2933 68.9794 66.3024 71.0104 67.9211 70.9645C68.3803 70.9531 68.7477 70.7695 69.0577 70.4023C69.6317 69.7252 69.8843 69.0023 69.8154 68.245C69.6662 66.627 68.1163 65.3533 68.0933 65.3419C66.8649 64.2862 60.5735 57.1947 60.3095 56.8849C60.1832 56.7357 60.1947 56.5177 60.3439 56.3915C60.4932 56.2652 60.7113 56.2767 60.8376 56.4259C60.9065 56.4947 67.3701 63.7813 68.5526 64.8025C68.6214 64.8599 70.3435 66.2713 70.5157 68.1761C70.6076 69.1286 70.2976 70.0236 69.5973 70.8498C69.161 71.3662 68.61 71.6301 67.9556 71.653C67.9096 71.653 67.8867 71.653 67.8522 71.653Z" fill="#1A1B22"/>
<path d="M70.7497 66.3262C69.4065 66.3262 68.1321 65.4312 67.4662 64.7427C67.3285 64.605 67.34 64.387 67.4777 64.2493C67.6155 64.1116 67.8336 64.1231 67.9714 64.2608C68.0403 64.3296 69.3261 65.6378 70.7382 65.6378C71.2434 65.6378 71.7715 65.4656 72.2537 65.0181C72.644 64.6509 72.8392 64.2378 72.8277 63.7329C72.8162 62.1724 70.9334 60.4626 70.9104 60.4511C70.899 60.4396 70.899 60.4396 70.8875 60.4282L63.5054 52.6023C63.3792 52.4646 63.3791 52.2466 63.5169 52.1089C63.6547 51.9827 63.8728 51.9827 64.0106 52.1204L71.3811 59.9348C71.5648 60.1069 73.5051 61.9084 73.5165 63.7215C73.528 64.4214 73.2525 65.0181 72.7129 65.523C72.1044 66.1082 71.4156 66.3262 70.7497 66.3262Z" fill="#1A1B22"/>
<path d="M150.6 66.1202C149.853 66.1202 149.153 65.8448 148.499 65.3055C147.775 64.7088 147.419 64.0089 147.442 63.2286C147.488 61.6221 149.188 60.268 149.429 60.0845L156.799 52.3045C156.937 52.1668 157.155 52.1553 157.293 52.293C157.431 52.4307 157.442 52.6487 157.304 52.7864L149.911 60.5893C149.899 60.6008 149.876 60.6123 149.865 60.6353C149.853 60.6467 148.177 61.909 148.143 63.263C148.131 63.8253 148.384 64.3187 148.946 64.7777C149.543 65.2711 150.175 65.4891 150.852 65.4203C152.299 65.2711 153.458 63.8482 153.47 63.8367C153.585 63.6876 153.814 63.6646 153.963 63.7794C154.113 63.8941 154.136 64.1121 154.021 64.2728C153.963 64.3416 152.678 65.9366 150.933 66.1088C150.806 66.1088 150.703 66.1202 150.6 66.1202Z" fill="#1A1B22"/>
<path d="M124.954 156.347C124.943 156.347 124.931 156.347 124.92 156.347L122.934 156.164C122.738 156.141 122.601 155.98 122.624 155.785C122.647 155.59 122.807 155.452 123.002 155.475L124.989 155.659C125.184 155.682 125.322 155.842 125.299 156.037C125.287 156.21 125.126 156.347 124.954 156.347Z" fill="#1A1B22"/>
<path d="M91.0932 170.344C92.1724 171.113 94.5948 172.501 99.3019 173.476C99.3019 173.476 92.5513 172.57 90.6914 173.476L91.0932 170.344Z" fill="#1A1B22"/>
<path d="M99.3097 173.834C99.2983 173.834 99.2753 173.834 99.2638 173.834C97.4155 173.581 92.2951 173.099 90.86 173.799C90.7452 173.856 90.6074 173.845 90.5041 173.765C90.4008 173.696 90.3434 173.57 90.3664 173.443L90.7682 170.311C90.7797 170.185 90.86 170.081 90.9748 170.035C91.0896 169.989 91.2159 170.001 91.3192 170.07C92.5936 170.976 95.039 172.25 99.4016 173.145C99.5853 173.179 99.7001 173.363 99.6771 173.547C99.6312 173.707 99.482 173.834 99.3097 173.834ZM91.3766 170.953L91.1241 172.973C92.0081 172.743 93.4202 172.686 95.326 172.778C93.535 172.158 92.2607 171.516 91.3766 170.953Z" fill="#1A1B22"/>
<path d="M101.046 184.966C100.966 184.966 100.885 184.943 100.817 184.886C100.667 184.76 100.656 184.541 100.771 184.392L117.716 164.346C117.842 164.197 118.06 164.185 118.21 164.3C118.359 164.426 118.37 164.644 118.256 164.793L101.31 184.84C101.253 184.92 101.149 184.966 101.046 184.966Z" fill="#1A1B22"/>
<path d="M109.529 182.741C109.461 182.741 109.38 182.718 109.323 182.672C109.174 182.557 109.139 182.339 109.254 182.19L118.369 170.153C118.484 170.004 118.702 169.969 118.852 170.084C119.001 170.199 119.035 170.417 118.921 170.566L109.805 182.603C109.748 182.695 109.644 182.741 109.529 182.741Z" fill="#1A1B22"/>
<path d="M101.531 131.931H99.1198C98.9246 131.931 98.7754 131.77 98.7754 131.586C98.7754 131.403 98.9361 131.242 99.1198 131.242H101.531C101.726 131.242 101.875 131.403 101.875 131.586C101.875 131.77 101.726 131.931 101.531 131.931Z" fill="#1A1B22"/>
<path d="M90.704 115.374C90.6351 115.374 90.5662 115.351 90.5088 115.316L86.2495 112.333C86.0888 112.218 86.0544 112 86.1692 111.851C86.284 111.69 86.5021 111.656 86.6514 111.771L90.9107 114.754C91.0714 114.869 91.1058 115.087 90.991 115.236C90.9221 115.328 90.8188 115.374 90.704 115.374Z" fill="#1A1B22"/>
<path d="M88.5891 117.896H82.9636C82.7684 117.896 82.6191 117.735 82.6191 117.551C82.6191 117.356 82.7799 117.207 82.9636 117.207H88.5891C88.7842 117.207 88.9335 117.368 88.9335 117.551C88.9335 117.735 88.7842 117.896 88.5891 117.896Z" fill="#1A1B22"/>
<path d="M86.4457 122.109C86.285 122.109 86.1357 121.994 86.1013 121.833C86.0554 121.65 86.1816 121.466 86.3653 121.42L89.6717 120.709C89.8554 120.663 90.0506 120.789 90.085 120.973C90.131 121.156 90.0047 121.351 89.821 121.386L86.5146 122.097C86.4916 122.109 86.4687 122.109 86.4457 122.109Z" fill="#1A1B22"/>
<path d="M175.756 40.0395C175.676 40.0395 175.595 40.0051 175.526 39.9477C175.377 39.8215 175.366 39.6034 175.503 39.4543C178.041 36.6085 182.311 34.543 188.201 33.2923C189.223 33.0743 190.21 32.9021 191.129 32.7759C184.963 32.4546 175.067 31.6628 171.497 29.8039C170.796 29.4482 170.659 28.9318 170.659 28.5532C170.67 26.6942 174.551 23.4813 182.541 18.7307C183.173 18.352 183.815 17.9848 184.435 17.6176C179.154 19.7405 172.702 21.8059 167.341 21.9092C165.412 21.9436 164.161 21.3699 163.587 20.188C162.324 17.5832 164.872 12.4425 167.697 8.00169C164.092 11.6736 161.003 13.6473 158.512 13.8768C157.134 14.003 155.941 13.5785 154.965 12.6261C154.827 12.4884 154.827 12.2703 154.965 12.1326C155.102 11.9949 155.321 11.9949 155.458 12.1326C156.285 12.9474 157.261 13.2916 158.455 13.1883C162.542 12.8211 167.8 7.15256 170.854 3.42323C172.209 1.57578 173.242 0.302067 173.38 0.129945C173.494 -0.0192285 173.712 -0.0421782 173.862 0.0725703C174.011 0.187319 174.045 0.393866 173.942 0.554514C173.931 0.577464 172.955 1.95445 171.451 3.8019C170.463 5.14446 169.292 6.80831 168.19 8.56396C163.759 15.5521 163.598 18.5815 164.23 19.8896C164.677 20.8076 165.722 21.2551 167.352 21.2207C175.951 21.0601 187.489 15.7357 192.162 13.3834C193.459 12.7064 194.251 12.2933 194.274 12.2818C194.446 12.2015 194.653 12.2589 194.745 12.431C194.837 12.6031 194.768 12.8097 194.607 12.9015C194.573 12.9244 193.804 13.3375 192.506 13.9916C190.279 15.162 186.582 17.1586 182.92 19.3389C178.615 21.8977 171.393 26.4992 171.382 28.5646C171.382 28.7253 171.428 28.9777 171.841 29.1843C176.927 31.835 196.134 32.271 196.329 32.271C196.513 32.271 196.674 32.4317 196.674 32.6153C196.674 32.7989 196.524 32.9595 196.329 32.9595C196.18 32.9595 181.852 33.3726 176.043 39.9018C175.951 39.9936 175.848 40.0395 175.756 40.0395Z" fill="#1A1B22"/>
<path d="M152.462 11.671C153.692 11.671 154.689 10.6743 154.689 9.44487C154.689 8.21542 153.692 7.21875 152.462 7.21875C151.232 7.21875 150.234 8.21542 150.234 9.44487C150.234 10.6743 151.232 11.671 152.462 11.671Z" fill="#3B57F7"/>
<path d="M16.944 62.7257C18.1741 62.7257 19.1713 61.729 19.1713 60.4996C19.1713 59.2701 18.1741 58.2734 16.944 58.2734C15.714 58.2734 14.7168 59.2701 14.7168 60.4996C14.7168 61.729 15.714 62.7257 16.944 62.7257Z" fill="#3B57F7"/>
<path d="M25.2081 28.2535C23.7845 28.2535 22.625 27.0946 22.625 25.6717C22.625 24.2488 23.7845 23.0898 25.2081 23.0898C26.6317 23.0898 27.7913 24.2488 27.7913 25.6717C27.7913 27.0946 26.6317 28.2535 25.2081 28.2535ZM25.2081 23.8013C24.1749 23.8013 23.3253 24.6504 23.3253 25.6832C23.3253 26.7159 24.1749 27.565 25.2081 27.565C26.2414 27.565 27.091 26.7159 27.091 25.6832C27.091 24.639 26.2529 23.8013 25.2081 23.8013Z" fill="#1A1B22"/>
<path d="M41.39 58.1806C41.3671 58.1806 41.3441 58.1805 41.3097 58.1691C41.126 58.1232 40.9997 57.9396 41.0456 57.756C41.0915 57.5494 41.0456 57.3888 40.9078 57.2511C39.5531 55.8856 31.4937 56.9642 26.1093 58.0773C25.8568 58.1347 25.6846 58.1691 25.6386 58.1806C25.4549 58.215 25.2713 58.1002 25.2253 57.9052C25.1909 57.7216 25.3057 57.538 25.4894 57.4921C25.5583 57.4806 25.6616 57.4576 25.7879 57.4347C26.6948 57.2396 29.5994 56.5626 32.7566 55.3348C36.2238 53.9808 40.7127 51.6628 42.4348 48.3122C42.7103 47.7843 42.6988 47.2909 42.4233 46.7975C41.6082 45.3746 38.1295 43.3091 26.1553 41.542C18.9225 40.4748 11.9652 40.0388 11.8963 40.0388C11.7012 40.0273 11.5634 39.8667 11.5749 39.6716C11.5864 39.4765 11.7471 39.3274 11.9308 39.3388C12.2063 39.3503 39.9664 40.3486 47.3829 36.2062C48.0947 35.8161 48.4162 35.403 48.3588 34.9899C48.2554 34.2555 46.9352 32.6605 39.2776 30.2049C34.8461 28.782 30.4146 27.7607 30.3686 27.7607C30.185 27.7148 30.0587 27.5312 30.1046 27.3476C30.1505 27.164 30.3342 27.0378 30.5179 27.0837C30.5638 27.0952 35.0183 28.1164 39.4843 29.5508C45.6838 31.5474 48.8065 33.2916 49.0361 34.8981C49.1395 35.621 48.6917 36.2636 47.7044 36.8144C44.5013 38.6044 37.4981 39.6831 26.8785 40.0388C24.7661 40.1077 22.6996 40.1421 20.8283 40.1536C22.5389 40.3486 24.3758 40.5781 26.2241 40.8535C36.063 42.2993 41.7 44.1812 42.9973 46.4532C43.3991 47.1532 43.3991 47.8876 43.0203 48.6335C41.103 52.3857 36.1204 54.8758 31.9759 56.3675C35.8449 55.8512 40.196 55.5758 41.3671 56.7577C41.677 57.0675 41.7804 57.4691 41.6885 57.9052C41.6885 58.0658 41.5508 58.1806 41.39 58.1806Z" fill="#1A1B22"/>
<path d="M164.809 193.665H56.3405C56.1453 193.665 55.9961 193.504 55.9961 193.321C55.9961 193.137 56.1568 192.977 56.3405 192.977H164.809C165.004 192.977 165.154 193.137 165.154 193.321C165.154 193.504 164.993 193.665 164.809 193.665Z" fill="#1A1B22"/>
<path d="M27.2812 97.4204V114.747C27.2812 115.493 27.8897 116.102 28.636 116.102H50.9428C51.2987 116.102 51.6431 116.239 51.9072 116.503L57.7163 122.309C58.5659 123.159 60.0354 122.562 60.0354 121.346V117.456C60.0354 116.71 60.6439 116.102 61.3901 116.102H63.4452C64.1914 116.102 64.7999 115.493 64.7999 114.747V97.4204C64.7999 96.6746 64.1914 96.0664 63.4452 96.0664H28.6474C27.8897 96.0664 27.2812 96.6746 27.2812 97.4204Z" fill="white"/>
<path d="M58.676 123.052C58.2397 123.052 57.815 122.88 57.482 122.547L51.6728 116.741C51.4777 116.546 51.2251 116.442 50.961 116.442H28.6542C27.7128 116.442 26.9551 115.674 26.9551 114.744V97.417C26.9551 96.4761 27.7243 95.7188 28.6542 95.7188H63.4519C64.3934 95.7188 65.1511 96.4876 65.1511 97.417V114.744C65.1511 115.685 64.3819 116.442 63.4519 116.442H61.3969C60.8458 116.442 60.3866 116.89 60.3866 117.452V121.342C60.3866 122.042 59.9848 122.65 59.3304 122.914C59.1123 123.006 58.8941 123.052 58.676 123.052ZM28.6542 96.4072C28.1031 96.4072 27.6439 96.8548 27.6439 97.417V114.744C27.6439 115.295 28.0917 115.754 28.6542 115.754H50.961C51.4203 115.754 51.845 115.926 52.1665 116.247L57.9757 122.054C58.3316 122.409 58.7793 122.398 59.0778 122.272C59.3763 122.145 59.6978 121.836 59.6978 121.342V117.452C59.6978 116.511 60.467 115.754 61.3969 115.754H63.4519C64.003 115.754 64.4622 115.306 64.4622 114.744V97.417C64.4622 96.8662 64.0145 96.4072 63.4519 96.4072H28.6542Z" fill="#1A1B22"/>
<path d="M37.4148 108.491C38.7464 108.491 39.8258 107.412 39.8258 106.082C39.8258 104.751 38.7464 103.672 37.4148 103.672C36.0833 103.672 35.0039 104.751 35.0039 106.082C35.0039 107.412 36.0833 108.491 37.4148 108.491Z" fill="#3B57F7"/>
<path d="M46.0476 108.491C47.3792 108.491 48.4586 107.412 48.4586 106.082C48.4586 104.751 47.3792 103.672 46.0476 103.672C44.7161 103.672 43.6367 104.751 43.6367 106.082C43.6367 107.412 44.7161 108.491 46.0476 108.491Z" fill="#3B57F7"/>
<path d="M54.6824 108.491C56.0139 108.491 57.0933 107.412 57.0933 106.082C57.0933 104.751 56.0139 103.672 54.6824 103.672C53.3509 103.672 52.2715 104.751 52.2715 106.082C52.2715 107.412 53.3509 108.491 54.6824 108.491Z" fill="#3B57F7"/>
<path d="M46.1961 172.504L48.2741 160.938L49.0777 172.298L59.2266 166.503C59.2266 166.503 50.4324 173.835 50.7309 173.858C51.0294 173.881 56.0924 181.363 56.0924 181.363L50.0076 175.694L48.6759 186.687L47.103 176.199L43.1996 187.135L45.3006 175.258L38.2285 172.378L46.1961 172.504Z" fill="#7ADFE6"/>
<path d="M75.8108 13.5898L71.7582 5.27054L77.9003 10.9162L77.5559 4.21486C77.5559 4.21486 80.3112 11.2719 80.4146 11.0768C80.5179 10.8703 88.715 3.66406 88.715 3.66406L83.3306 11.2719L89.1283 9.88343L82.2285 13.6472L95.7067 15.1619L82.3089 15.6897L83.2617 25.363L79.8979 17.1585L71.2989 25.3515L77.7511 15.5979L65.9375 21.5189L75.8108 13.5898Z" fill="#7ADFE6"/>
<path d="M83.2553 25.7289C83.1175 25.7289 82.9912 25.6486 82.9338 25.5109L79.7652 17.7883L71.5336 25.6141C71.4073 25.7404 71.2006 25.7404 71.0743 25.6256C70.9366 25.5109 70.9136 25.3158 71.0055 25.1666L76.7343 16.4916L66.0803 21.8274C65.9195 21.9077 65.7244 21.8504 65.6325 21.7012C65.5407 21.552 65.5636 21.357 65.7129 21.2422L75.391 13.4852L71.4532 5.41838C71.3843 5.26921 71.4188 5.08561 71.5565 4.98234C71.6943 4.87906 71.878 4.89054 72.0043 5.00529L77.515 10.0772L77.2165 4.23647C77.205 4.06435 77.3198 3.91517 77.492 3.88075C77.6642 3.84632 77.8249 3.93812 77.8938 4.09877C78.7089 6.19867 80.0177 9.45753 80.5114 10.5247C81.1888 9.8821 83.0945 8.16087 88.5019 3.41028C88.6397 3.29553 88.8348 3.29553 88.9611 3.41028C89.0874 3.52503 89.1104 3.7201 89.0185 3.86927L84.1737 10.7312L89.0645 9.5608C89.2367 9.5149 89.4089 9.6067 89.4663 9.77883C89.5237 9.93947 89.4663 10.1231 89.3055 10.2034L83.3701 13.4393L95.7462 14.8278C95.9299 14.8507 96.0561 14.9999 96.0561 15.1835C96.0447 15.3671 95.9069 15.5163 95.7232 15.5163L82.6927 16.0326L83.6112 25.3387C83.6226 25.5109 83.5193 25.6715 83.3471 25.7059C83.3127 25.7174 83.2897 25.7289 83.2553 25.7289ZM79.8914 16.8359C79.9144 16.8359 79.9374 16.8359 79.9603 16.8473C80.0751 16.8703 80.167 16.9506 80.2129 17.0539L82.6812 23.0552L81.958 15.7458C81.9465 15.654 81.9809 15.5507 82.0383 15.4818C82.0957 15.413 82.1876 15.3671 82.2909 15.3671L91.108 15.0228L82.199 14.0245C82.0498 14.013 81.9235 13.8983 81.9005 13.7491C81.8661 13.6 81.9465 13.4508 82.0728 13.3819L86.6765 10.8689L83.416 11.6492C83.2782 11.6837 83.129 11.6263 83.0486 11.5115C82.9682 11.3968 82.9682 11.2361 83.0486 11.1214L86.7109 5.94622C83.9211 8.41332 80.9477 11.0525 80.6951 11.3394C80.6262 11.4312 80.5114 11.4886 80.3966 11.4886C80.1096 11.4771 80.0637 11.4771 78.5941 7.83957C78.399 7.34616 78.1923 6.84126 78.0086 6.38227L78.2497 10.9493C78.2612 11.087 78.1808 11.2247 78.0545 11.282C77.9283 11.3394 77.779 11.3165 77.6757 11.2247L72.8883 6.81831L76.1373 13.4852C76.2062 13.6344 76.1717 13.8065 76.0454 13.9098L68.6978 19.7505L77.5838 15.2982C77.7216 15.2294 77.8938 15.2638 77.9971 15.3786C78.1005 15.4933 78.1119 15.6654 78.0316 15.8031L73.2786 22.9979L79.6504 16.9277C79.7192 16.8588 79.7996 16.8359 79.8914 16.8359Z" fill="#7ADFE6"/>
<path d="M165.439 123.906C165.428 123.906 165.416 123.906 165.393 123.906C162.305 123.539 159.01 120.131 157.736 115.977C156.105 110.664 157.862 105.294 162.546 101.243C164.188 99.8318 166.461 99.3957 168.47 99.0171C172.178 98.3171 176.093 98.3745 179.779 99.2007C181.271 99.5334 182.741 99.9924 184.176 100.44C186.242 101.083 188.366 101.748 190.524 102.023C193.796 102.437 198.067 101.782 200.214 98.7072C200.352 98.5122 200.478 98.3056 200.593 98.0991C199.273 97.9155 197.975 97.5827 196.747 97.0778C195.277 96.4696 193.934 95.5631 192.97 94.5304C191.845 93.3141 191.225 91.9141 191.202 90.4912C191.167 88.4717 192.373 86.5209 194.198 85.6489C196.024 84.7768 198.297 85.0636 199.847 86.3603C201.282 87.5537 202.108 89.5274 202.303 92.201C202.453 94.2435 202.235 96.0336 201.638 97.5253C205.656 97.8237 209.823 96.5959 212.912 94.037C213.061 93.9107 213.279 93.9337 213.405 94.0829C213.532 94.232 213.509 94.4501 213.359 94.5763C210.064 97.3073 205.61 98.5925 201.339 98.2023C201.178 98.5236 200.995 98.8335 200.788 99.1318C198.457 102.471 193.911 103.182 190.433 102.746C188.217 102.46 186.047 101.794 183.957 101.14C182.545 100.704 181.076 100.245 179.618 99.9236C176.024 99.1203 172.213 99.063 168.585 99.74C166.668 100.107 164.486 100.52 162.982 101.817C160.56 103.905 158.964 106.304 158.252 108.92C157.644 111.157 157.69 113.533 158.39 115.816C159.584 119.729 162.626 122.931 165.462 123.263C165.657 123.286 165.795 123.458 165.772 123.654C165.761 123.768 165.611 123.906 165.439 123.906ZM196.448 85.8095C195.782 85.8095 195.117 85.9472 194.52 86.2341C192.958 86.9799 191.891 88.7126 191.925 90.4339C191.959 92.3157 193.326 94.8632 197.034 96.3893C198.274 96.9057 199.594 97.2385 200.937 97.3991C201.546 95.9762 201.787 94.232 201.638 92.201C201.454 89.7224 200.708 87.9209 199.433 86.8422C198.595 86.1652 197.516 85.8095 196.448 85.8095Z" fill="#1A1B22"/>
<rect x="76.8613" y="34.1172" width="66.4544" height="40.5372" rx="2" fill="white"/>
<path d="M141.214 75.0974H79.1836C77.9045 75.0974 76.8613 74.0553 76.8613 72.7775L76.8619 36.4371C76.8619 35.1593 77.9051 34.1172 79.1842 34.1172H141.215C142.494 34.1172 143.537 35.1593 143.537 36.4371L143.537 72.7775C143.537 74.0553 142.506 75.0974 141.214 75.0974ZM79.1842 34.7747C78.2652 34.7747 77.5201 35.519 77.5201 36.4371L77.5195 72.7775C77.5195 73.6955 78.2646 74.4399 79.1836 74.4399H141.214C142.133 74.4399 142.878 73.6955 142.878 72.7775L142.879 36.4371C142.879 35.519 142.134 34.7747 141.215 34.7747H79.1842Z" fill="#1A1B22"/>
<rect x="85.0664" y="41.8672" width="50.2838" height="2.87969" rx="1.43984" fill="#1A1B22"/>
<rect x="85.0664" y="49.1758" width="50.2838" height="2.87969" rx="1.43984" fill="#1A1B22"/>
<rect x="85.0664" y="56.707" width="28.7969" height="2.87969" rx="1.43984" fill="#1A1B22"/>
<rect x="55.252" y="46.3633" width="17.8932" height="2.0956" rx="1.0478" fill="#1A1B22"/>
<path d="M126.468 48.5117L143.968 78.6377H108.969L126.468 48.5117Z" fill="#FFC908"/>
<path fill-rule="evenodd" clip-rule="evenodd" d="M126.495 47.625L144.881 79.3016H108.109L126.495 47.625ZM109.699 78.3884H143.291L126.495 49.4514L109.699 78.3884Z" fill="#011627"/>
<path fill-rule="evenodd" clip-rule="evenodd" d="M126.564 59.3796C127.32 59.3903 127.923 60.0112 127.913 60.7665L127.807 68.2399C127.796 68.9952 127.175 69.5989 126.42 69.5882C125.665 69.5776 125.061 68.9566 125.072 68.2013L125.177 60.7279C125.188 59.9726 125.809 59.3689 126.564 59.3796ZM126.402 70.8642C127.157 70.8748 127.761 71.4958 127.75 72.2511L127.737 73.2011C127.726 73.9564 127.105 74.56 126.35 74.5493C125.595 74.5387 124.991 73.9177 125.002 73.1624L125.015 72.2124C125.026 71.4571 125.647 70.8535 126.402 70.8642Z" fill="white"/>
</svg>
