<svg width="12" height="11" viewBox="0 0 12 11" fill="none" xmlns="http://www.w3.org/2000/svg">
<path d="M11.9449 10.3767L6.37739 0.213362C6.33918 0.148505 6.28416 0.0946353 6.21788 0.0571784C6.1516 0.0197216 6.0764 0 5.99984 0C5.92328 0 5.84808 0.0197216 5.7818 0.0571784C5.71552 0.0946353 5.6605 0.148505 5.6223 0.213362L0.0553965 10.3767C0.0185645 10.4401 -0.000537125 10.5119 1.14929e-05 10.5849C0.000560111 10.6578 0.0207397 10.7293 0.0585218 10.7922C0.136656 10.9212 0.278548 11 0.432315 11H11.5674C11.6427 10.9998 11.7167 10.9805 11.7822 10.9441C11.8477 10.9077 11.9024 10.8554 11.9412 10.7922C11.979 10.7294 11.9993 10.6579 12 10.585C12.0006 10.512 11.9816 10.4402 11.9449 10.3767ZM6.62491 9.77786H5.37477V8.55571H6.62491V9.77786ZM6.62491 7.63911H5.37477V3.66714H6.62491V7.63911Z" fill="#EEBC0D"/>
</svg>
