<?xml version="1.0" encoding="utf-8"?>
<!-- Generator: Adobe Illustrator 24.1.3, SVG Export Plug-In . SVG Version: 6.00 Build 0)  -->
<svg version="1.1" id="Layer_1" xmlns="http://www.w3.org/2000/svg" xmlns:xlink="http://www.w3.org/1999/xlink" x="0px" y="0px"
	 viewBox="0 0 24.000095 24" style="enable-background:new 0 0 24.000095 24;" xml:space="preserve">
<style type="text/css">
	.st0{fill:url(#SVGID_1_);}
	.st1{fill:#FD8089;}
</style>
<linearGradient id="SVGID_1_" gradientUnits="userSpaceOnUse" x1="11.410329" y1="-9.094947e-13" x2="11.410329" y2="23.992218">
	<stop  offset="0" style="stop-color:#2E54EB"/>
	<stop  offset="1" style="stop-color:#66C6D2"/>
</linearGradient>
<path class="st0" d="M5.139627,20.229019l3.246505,1.874392l-0.815836,1.888807H1.889461L5.139627,20.229019z M11.438792,16.0741
	l-4.873236-2.813509l-1.124635,1.94793c0,0,0.548955,2.048377-0.57568,3.996308l4.545218,2.624149
	c0.274203-0.475006,0.603686-0.86558,0.944701-1.186506l-0.341381-0.593983l-0.42906-0.74692l0.42906-0.74692L11.438792,16.0741z
	 M15.08745,0l-1.470592,2.163788L7.315313,11.96197l4.870491,2.811909l0.527173-0.917747l0.432355-0.752594h0.868004h1.962987
	l4.954874-9.729631L15.08745,0z"/>
<g>
	<polygon class="st1" points="14.113229,19.201557 15.412807,21.400843 17.911995,21.400843 16.712385,19.201557 	"/>
	<path class="st1" d="M19.411509,14.603048h-5.398248l-2.699124,4.698475L14.013261,24h5.398248l2.699125-4.698477
		L19.411509,14.603048z M18.611769,22.500486h-3.798766l-1.899384-3.298929l0.599806-1.099644l0,0h3.798766l1.899384,3.298929
		L18.611769,22.500486z M19.911346,20.301199l-1.899384-3.298929h-3.898734l0.599806-1.099644h3.798766l1.899384,3.298929l0,0
		L19.911346,20.301199z"/>
</g>
</svg>
