<svg width="24" height="24" viewBox="0 0 24 24" fill="none" xmlns="http://www.w3.org/2000/svg">
<path d="M12.3217 9.49757V10.7472H6.69849V9.49757H12.3217ZM6.69849 13.2464H13.3914H15.4457V11.9968H6.69849V13.2464ZM6.69849 15.7455H11.9557L12.6736 14.4959H6.69849V15.7455ZM19.1944 6.37358V7.62318V12.9196H18.8009H17.9448V7.62318H13.5713V3.24959H4.1993V20.7439H12.1397L12.8575 21.9935H2.94971V2H13.5713H14.8209L19.1944 6.37358ZM17.4273 6.37358L14.8209 3.76723V6.37358H17.4273Z" fill="url(#paint0_linear_8460_2068)"/>
<path d="M14.3857 18.0012L15.4687 19.834H17.5514L16.5517 18.0012H14.3857Z" fill="#4579F0"/>
<path d="M18.801 14.1692H14.3025L12.0532 18.0846L14.3025 22H18.801L21.0503 18.0846L18.801 14.1692ZM18.1346 20.7504H14.9689L13.3861 18.0013L13.886 17.0849H17.0516L18.6344 19.834L18.1346 20.7504ZM19.2176 18.9176L17.6347 16.1685H14.3858L14.8856 15.2522H18.0513L19.6341 18.0013L19.2176 18.9176Z" fill="#4579F0"/>
<defs>
<linearGradient id="paint0_linear_8460_2068" x1="11.0721" y1="2" x2="11.0721" y2="21.9935" gradientUnits="userSpaceOnUse">
<stop stop-color="#2E54EB"/>
<stop offset="1" stop-color="#66C6D2"/>
</linearGradient>
</defs>
</svg>
