<?xml version="1.0" encoding="utf-8"?>
<!-- Generator: Adobe Illustrator 24.1.3, SVG Export Plug-In . SVG Version: 6.00 Build 0)  -->
<svg version="1.1" id="Layer_1" xmlns="http://www.w3.org/2000/svg" xmlns:xlink="http://www.w3.org/1999/xlink" x="0px" y="0px"
	 viewBox="0 0 24.000095 24" style="enable-background:new 0 0 24.000095 24;" xml:space="preserve">
<style type="text/css">
	.st0{fill:url(#SVGID_1_);}
	.st1{fill:#FD8089;}
</style>
<linearGradient id="SVGID_1_" gradientUnits="userSpaceOnUse" x1="11.261454" y1="0" x2="11.261454" y2="20.993206">
	<stop  offset="0" style="stop-color:#2E54EB"/>
	<stop  offset="1" style="stop-color:#66C6D2"/>
</linearGradient>
<path class="st0" d="M17.887362,6.747817c1.603119-0.39927,2.934414-0.93889,3.870695-1.572596v3.145192v0.935961v1.24023
	c0,0.870385-3.678314,2.99903-10.496603,2.99903S0.76485,11.366988,0.76485,10.496603v-1.24023V8.320413V5.17522
	c0.936282,0.633706,2.267577,1.173326,3.870696,1.572596C5.230263,6.895901,5.861589,7.024857,6.5244,7.131847
	c1.45357,0.23462,3.054127,0.365726,4.737054,0.365726s3.283484-0.131107,4.737053-0.365726
	C16.661318,7.024857,17.292645,6.895901,17.887362,6.747817z M1.337785,3.748787
	C1.649879,3.989355,2.089373,4.245895,2.65407,4.498544c1.733997,0.775796,4.632717,1.499515,8.607384,1.499515
	s6.873386-0.723719,8.607384-1.499515c0.564697-0.252649,1.00419-0.509189,1.316284-0.749757
	c0.373415-0.287932,0.572935-0.552022,0.572935-0.749758C21.758057,2.128645,18.079742,0,11.261454,0
	S0.76485,2.128645,0.76485,2.999029C0.76485,3.196765,0.964371,3.460855,1.337785,3.748787z M13.221147,14.929251
	c-0.639197,0.039721-1.290476,0.065897-1.959693,0.065897c-1.682927,0-3.283484-0.131107-4.737054-0.365726
	c-0.66281-0.106991-1.294137-0.235947-1.888854-0.384031c-1.603119-0.399269-2.934414-0.93889-3.870696-1.572596v3.145192v0.676677
	c0,0,0,1.301779,0,1.499514c0,0.870384,3.678314,2.999029,10.496603,2.999029c0.14241,0,0.275301-0.006224,0.415149-0.008053
	l-0.538156-0.936693l-0.429061-0.746922l0.429061-0.74692L13.221147,14.929251z"/>
<g>
	<polygon class="st1" points="15.237833,19.201553 16.537413,21.400841 19.036604,21.400841 17.836992,19.201553 	"/>
	<path class="st1" d="M20.536118,14.603042h-5.398252l-2.699126,4.698478L15.137865,24h5.398252l2.699127-4.698481
		L20.536118,14.603042z M19.736378,22.500484h-3.79877l-1.899385-3.298931l0.599807-1.099644l0,0h3.798769l1.899385,3.298931
		L19.736378,22.500484z M21.035955,20.301197l-1.899384-3.298933h-3.898739l0.599807-1.099644h3.79877l1.899385,3.298931l0,0
		L21.035955,20.301197z"/>
</g>
</svg>
