<svg width="24" height="24" viewBox="0 0 24 24" fill="none" xmlns="http://www.w3.org/2000/svg">
<path d="M12.1397 20.7439H4.1993V3.24959H13.5713V7.62318H17.9449V12.9196H18.8009H19.1944V7.62318V6.37358L14.8209 2H13.5713H2.94971V21.9935H12.8575L12.1397 20.7439ZM14.8209 3.76723L17.4273 6.37358H14.8209V3.76723Z" fill="url(#paint0_linear_8460_2062)"/>
<path d="M14.3857 18.0012L15.4687 19.834H17.5514L16.5517 18.0012H14.3857Z" fill="#4579F0"/>
<path d="M18.801 14.1692H14.3025L12.0532 18.0846L14.3025 22H18.801L21.0503 18.0846L18.801 14.1692ZM18.1346 20.7504H14.9689L13.3861 18.0013L13.886 17.0849H17.0516L18.6344 19.834L18.1346 20.7504ZM19.2176 18.9177L17.6347 16.1685H14.3858L14.8856 15.2522H18.0513L19.6341 18.0013L19.2176 18.9177Z" fill="#4579F0"/>
<defs>
<linearGradient id="paint0_linear_8460_2062" x1="11.0721" y1="2" x2="11.0721" y2="21.9935" gradientUnits="userSpaceOnUse">
<stop stop-color="#2E54EB"/>
<stop offset="1" stop-color="#66C6D2"/>
</linearGradient>
</defs>
</svg>
