<svg width="24" height="24" viewBox="0 0 24 24" fill="none" xmlns="http://www.w3.org/2000/svg">
<path d="M12.5621 6.37359V6.99838H9.19769V6.37359V5.74879H12.5621V6.37359ZM9.19769 8.87278V9.49757H14.1961V8.87278V8.24798H9.19769V8.87278ZM9.19769 10.7472V11.372V11.9968H14.8209H16.0705V11.372V10.7472H14.8209H9.19769ZM19.1945 5.51632V12.9196H18.8009H17.9449V6.99838H16.0705H14.8209V6.37359V5.12399V3.2496H7.32329V5.12399V6.37359V15.7456H11.9557L11.2379 16.9951H6.0737V6.37359H4.1993V18.8695H11.0629L11.7808 20.1191H2.94971V5.12399H6.0737V2H16.1577L19.1945 5.51632ZM17.7441 5.74879L16.0705 3.8112V5.12399V5.74879L17.7441 5.74879Z" fill="url(#paint0_linear_8430_1992)"/>
<path d="M14.3857 18.0012L15.4687 19.834H17.5514L16.5517 18.0012H14.3857Z" fill="#4579F0"/>
<path d="M18.801 14.1692H14.3025L12.0532 18.0846L14.3025 22H18.801L21.0503 18.0846L18.801 14.1692ZM18.1346 20.7504H14.9689L13.3861 18.0013L13.886 17.0849H17.0516L18.6344 19.834L18.1346 20.7504ZM19.2176 18.9177L17.6348 16.1685H14.3858L14.8856 15.2522H18.0513L19.6341 18.0013L19.2176 18.9177Z" fill="#4579F0"/>
<defs>
<linearGradient id="paint0_linear_8430_1992" x1="11.0721" y1="2" x2="11.0721" y2="20.1191" gradientUnits="userSpaceOnUse">
<stop stop-color="#2E54EB"/>
<stop offset="1" stop-color="#66C6D2"/>
</linearGradient>
</defs>
</svg>
