<svg width="24" height="24" viewBox="0 0 24 24" fill="none" xmlns="http://www.w3.org/2000/svg">
<path d="M11.0629 18.8695H4.1993V6.37359H6.0737V16.9951H11.2379L13.2189 13.5467L13.5792 12.9196H14.3024H18.8009H19.1945V5.51632L16.1577 2H15.4457H14.8209H14.1961H6.0737V5.12399H2.94971V20.1191H11.7808L11.0629 18.8695ZM15.4457 5.12399V3.2496V2.72894L18.0341 5.74879H17.7441H16.0705H15.4457V5.12399ZM9.19769 6.37359V5.74879H12.5621V6.37359V6.99838H9.19769V6.37359ZM9.19769 8.24798H14.1961V9.49757H9.19769V8.24798ZM9.19769 10.7472H14.8209H16.0705V11.9968H14.8209H9.19769V10.7472Z" fill="url(#paint0_linear_8430_1998)"/>
<path d="M14.3857 18.0012L15.4687 19.834H17.5514L16.5517 18.0012H14.3857Z" fill="#4579F0"/>
<path d="M18.801 14.1692H14.3025L12.0532 18.0846L14.3025 22H18.801L21.0503 18.0846L18.801 14.1692ZM18.1346 20.7504H14.9689L13.3861 18.0013L13.886 17.0849H17.0516L18.6344 19.834L18.1346 20.7504ZM19.2176 18.9177L17.6348 16.1685H14.3858L14.8856 15.2522H18.0513L19.6341 18.0013L19.2176 18.9177Z" fill="#4579F0"/>
<defs>
<linearGradient id="paint0_linear_8430_1998" x1="11.0721" y1="2" x2="11.0721" y2="20.1191" gradientUnits="userSpaceOnUse">
<stop stop-color="#2E54EB"/>
<stop offset="1" stop-color="#66C6D2"/>
</linearGradient>
</defs>
</svg>
