<?xml version="1.0" encoding="utf-8"?>
<!-- Generator: Adobe Illustrator 24.1.3, SVG Export Plug-In . SVG Version: 6.00 Build 0)  -->
<svg version="1.1" id="Layer_1" xmlns="http://www.w3.org/2000/svg" xmlns:xlink="http://www.w3.org/1999/xlink" x="0px" y="0px"
	 viewBox="0 0 24 24" style="enable-background:new 0 0 24 24;" xml:space="preserve">
<style type="text/css">
	.st0{fill:url(#SVGID_1_);}
	.st1{fill:#FF808B;}
</style>
<linearGradient id="SVGID_1_" gradientUnits="userSpaceOnUse" x1="9.0594" y1="25.8789" x2="9.0594" y2="2.1347" gradientTransform="matrix(1 0 0 -1 0 26)">
	<stop  offset="0" style="stop-color:#2E54EB"/>
	<stop  offset="1" style="stop-color:#66C6D2"/>
</linearGradient>
<path class="st0" d="M8.4,12.6c0-0.6-0.2-1.1-0.6-1.5c0.4-0.1,0.8-0.2,1.3-0.2c2.2,0,3.9,1.8,3.9,3.9s-1.8,3.9-3.9,3.9
	S5.1,17,5.1,14.8c0-0.1,0-0.2,0-0.3c0.3,0.2,0.7,0.3,1,0.3C7.4,14.8,8.4,13.8,8.4,12.6z M9.1,5.9c-1.7,0-3.3,0.5-4.7,1.3V4.1
	c0-1.3,1-2.4,2.2-2.4h4.9c1.2,0,2.2,1.1,2.2,2.4v1h1.6v-1c0-2.2-1.7-4-3.8-4H6.7c-2.1,0-3.8,1.8-3.8,4v4.3c-1.7,1.6-2.7,3.9-2.7,6.4
	c0,5,4,9,9,9c1.6,0,3-0.4,4.3-1.1l-0.8-1.4c-1,0.6-2.2,0.9-3.5,0.9c-4.1,0-7.4-3.3-7.4-7.4s3.3-7.4,7.4-7.4c3.5,0,6.4,2.4,7.2,5.7
	H18C17.2,9,13.5,5.9,9.1,5.9z"/>
<path class="st1" d="M16,19.3h2.5l1.3,2.2h-2.5 M24,19.3L21.3,24h-5.4l-2.7-4.7l2.7-4.7h5.4L24,19.3z M21.1,21.5l-1.9-3.3h-3.8l0,0
	l-0.6,1.1l1.9,3.3h3.8L21.1,21.5z M22.4,19.3L22.4,19.3L20.5,16h-3.8L16,17.1h3.8l1.9,3.3L22.4,19.3z"/>
</svg>
