<svg width="48" height="48" viewBox="0 0 48 48" fill="none" xmlns="http://www.w3.org/2000/svg">
<circle cx="24" cy="24" r="23.5" fill="white" stroke="#E3E4E6"/>
<path fill-rule="evenodd" clip-rule="evenodd" d="M34.4676 27.0551L34.7172 27.0613C35.961 27.1231 37.1416 27.6439 38.0264 28.5287C38.9702 29.4725 39.5 30.7528 39.5 32.0876C39.5 33.4223 38.9702 34.7026 38.0264 35.6464C37.0826 36.5902 35.8023 37.12 34.4676 37.12C33.1328 37.12 31.8525 36.5902 30.9087 35.6464C30.0516 34.7892 29.5367 33.6544 29.4492 32.4534C29.4477 32.4342 29.4465 32.415 29.4453 32.3957C29.443 32.3583 29.4413 32.3209 29.4398 32.2834C29.4372 32.2182 29.4351 32.153 29.4351 32.0876C29.4351 31.9842 29.4397 31.8812 29.446 31.7786C29.4484 31.7409 29.4499 31.7031 29.4531 31.6655C29.4544 31.6499 29.4555 31.6343 29.457 31.6187C29.4622 31.5623 29.4693 31.5062 29.4765 31.4502C29.4796 31.4255 29.4815 31.4007 29.485 31.3761C29.4913 31.332 29.4994 31.2881 29.5069 31.2443C29.5134 31.2057 29.5197 31.1671 29.5272 31.1288C29.5334 31.0967 29.5406 31.0648 29.5474 31.0328C29.5569 30.9885 29.5664 30.9442 29.5771 30.9002C29.5873 30.8582 29.5986 30.8164 29.6099 30.7746C29.6189 30.741 29.6282 30.7074 29.6379 30.674C29.6503 30.6319 29.6635 30.5901 29.6769 30.5484C29.6867 30.5182 29.6963 30.4879 29.7066 30.4579C29.7232 30.4095 29.7408 30.3615 29.7589 30.3136C29.7694 30.2857 29.7798 30.2578 29.7908 30.2301C29.8072 30.189 29.8242 30.1483 29.8415 30.1076C29.8562 30.0734 29.8714 30.0394 29.8868 30.0055C29.9039 29.9679 29.921 29.9303 29.9391 29.8931C29.9566 29.8569 29.9753 29.8213 29.9937 29.7855C30.0115 29.7508 30.0289 29.7159 30.0475 29.6817C30.0676 29.6447 30.0888 29.6082 30.1099 29.5717C30.1272 29.5417 30.1442 29.5116 30.1622 29.482C30.1886 29.4383 30.2163 29.3954 30.2441 29.3525C30.2602 29.3276 30.2758 29.3023 30.2924 29.2776C30.3207 29.2356 30.351 29.1948 30.3806 29.1536C30.3982 29.129 30.4148 29.1037 30.4329 29.0795C30.528 28.9519 30.6295 28.8285 30.7371 28.7097C30.7928 28.6482 30.8498 28.5876 30.9087 28.5287C31.8525 27.585 33.1329 27.0551 34.4676 27.0551ZM34.3584 29.3026C34.2864 29.3169 34.2181 29.3453 34.1571 29.386C34.1268 29.4063 34.0982 29.4294 34.0721 29.4555C34.0459 29.4816 34.0229 29.5102 34.0026 29.5405C33.9619 29.6015 33.9335 29.6698 33.9192 29.7418C33.912 29.7775 33.9082 29.814 33.9082 29.851V31.5282H32.231L32.1218 31.5391C32.1189 31.5397 32.1161 31.5401 32.1132 31.5407C32.0088 31.5631 31.9122 31.6154 31.8355 31.692C31.8094 31.7182 31.7863 31.7468 31.7661 31.7771C31.7253 31.8381 31.6969 31.9064 31.6826 31.9783C31.6755 32.0141 31.6717 32.0506 31.6717 32.0876C31.6717 32.1245 31.6755 32.161 31.6826 32.1968C31.704 32.3044 31.7568 32.4043 31.8355 32.4831C31.8587 32.5063 31.8846 32.5261 31.9112 32.5447C31.9722 32.5874 32.0405 32.618 32.1132 32.6336C32.1161 32.6342 32.1189 32.6354 32.1218 32.636L32.231 32.6469H33.9082V34.3241C33.9082 34.4724 33.9672 34.6148 34.0721 34.7196C34.1769 34.8245 34.3193 34.8834 34.4676 34.8834C34.6158 34.8834 34.7582 34.8245 34.8631 34.7196C34.9679 34.6148 35.0269 34.4723 35.0269 34.3241V32.6469H36.7041C36.8524 32.6469 36.9948 32.5879 37.0996 32.4831C37.2045 32.3782 37.2635 32.2359 37.2635 32.0876C37.2635 31.9393 37.2045 31.7969 37.0996 31.692C36.9948 31.5872 36.8524 31.5282 36.7041 31.5282H35.0269V29.851C35.0269 29.7027 34.9679 29.5603 34.8631 29.4555C34.7844 29.3768 34.6844 29.324 34.5768 29.3026L34.4676 29.2917C34.4306 29.2917 34.3941 29.2955 34.3584 29.3026Z" fill="#3B57F7"/>
<path d="M22.7083 18.1993C23.0928 18.1993 23.3948 18.2934 23.6155 18.4802C23.8377 18.667 23.9755 18.9193 24.0282 19.2377L23.3238 19.325C23.3038 19.2439 23.269 19.1671 23.2192 19.0957C23.1709 19.0244 23.105 18.9663 23.0227 18.9225C22.9401 18.8787 22.8379 18.857 22.7184 18.857C22.5579 18.8571 22.423 18.897 22.3135 18.9763C22.2054 19.0559 22.1515 19.1595 22.1528 19.286C22.1515 19.3947 22.187 19.4839 22.2582 19.5521C22.3308 19.6201 22.4508 19.676 22.617 19.7198L23.1763 19.8563C23.4863 19.9326 23.7166 20.0536 23.8675 20.219C24.0198 20.3847 24.0977 20.6017 24.0992 20.8696C24.0978 21.1052 24.037 21.3134 23.9174 21.4937C23.7993 21.6724 23.6343 21.8119 23.4236 21.9126C23.213 22.0132 22.9712 22.0639 22.6981 22.064C22.2965 22.064 21.9726 21.9678 21.7277 21.7761C21.4829 21.5828 21.337 21.3137 21.29 20.9695L22.0444 20.8868C22.0786 21.0556 22.151 21.1838 22.2621 21.2698C22.3731 21.3558 22.518 21.3993 22.6958 21.3993C22.8793 21.3993 23.0271 21.3559 23.1381 21.2698C23.2505 21.1838 23.3066 21.0766 23.3066 20.95C23.3065 20.843 23.2699 20.7545 23.1974 20.6848C23.1262 20.615 23.015 20.5614 22.8643 20.5241L22.3042 20.3899C21.9898 20.3152 21.7569 20.1891 21.606 20.0123C21.4553 19.8338 21.38 19.6078 21.3813 19.3352C21.3799 19.1045 21.4356 18.9035 21.5467 18.7345C21.6592 18.5643 21.8157 18.4322 22.0148 18.3398C22.2154 18.2458 22.4466 18.1994 22.7083 18.1993Z" fill="#3B57F7"/>
<path fill-rule="evenodd" clip-rule="evenodd" d="M20.7916 21.9914H20.0317V21.4009H19.9841C19.9443 21.4918 19.8864 21.5888 19.811 21.6911C19.7356 21.7916 19.6358 21.8779 19.5122 21.9493C19.3884 22.0206 19.2318 22.0569 19.0441 22.057C18.7866 22.0569 18.5556 21.9809 18.3522 21.83C18.1486 21.6789 17.9874 21.459 17.8693 21.1715C17.7512 20.8842 17.6922 20.5353 17.6922 20.1246C17.6922 19.7088 17.752 19.3574 17.8716 19.0715C17.9926 18.7843 18.1552 18.5671 18.36 18.4209C18.565 18.2731 18.7952 18.1993 19.0472 18.1993C19.239 18.1995 19.3971 18.2363 19.5208 18.3109C19.6445 18.3839 19.7431 18.4724 19.8156 18.5761C19.8882 18.6784 19.9443 18.7762 19.9841 18.8671H20.0161V17.0003H20.7916V21.9914ZM19.2594 18.9225C19.0876 18.9226 18.944 18.9742 18.8288 19.0762C18.7136 19.1785 18.6266 19.3204 18.5683 19.5006C18.5099 19.6808 18.4809 19.887 18.4809 20.1192C18.4809 20.353 18.5099 20.5621 18.5683 20.7456C18.6281 20.9274 18.7159 21.0715 18.8312 21.177C18.9477 21.2807 19.0904 21.3329 19.2594 21.333C19.4232 21.333 19.5638 21.2831 19.6791 21.1825C19.7944 21.0802 19.8814 20.9375 19.9412 20.7558C20.0011 20.5738 20.0317 20.3612 20.0317 20.1192C20.0317 19.8772 20.001 19.6667 19.9412 19.4881C19.8829 19.3097 19.7966 19.1706 19.6815 19.0715C19.5675 18.9724 19.426 18.9225 19.2594 18.9225Z" fill="#3B57F7"/>
<path fill-rule="evenodd" clip-rule="evenodd" d="M17.565 21.9914H16.7186L16.3559 20.7597H14.7122L14.3502 21.9914H13.5046L15.0445 17.0003H16.0228L17.565 21.9914ZM14.9252 20.0342H16.1429L15.5508 18.023H15.5157L14.9252 20.0342Z" fill="#3B57F7"/>
<path fill-rule="evenodd" clip-rule="evenodd" d="M33.5229 14.8855C34.0533 14.9395 34.4674 15.3876 34.4676 15.9324V25.8569C32.8151 25.8569 31.23 26.5131 30.0615 27.6815C28.8931 28.85 28.2369 30.4351 28.2369 32.0876C28.2369 32.3181 28.2507 32.5471 28.2759 32.774H12.3633C11.8186 32.774 11.3705 32.3598 11.3164 31.8293L11.3109 31.7209V15.9324C11.3111 15.3512 11.7822 14.8801 12.3633 14.88H33.4152L33.5229 14.8855ZM12.3633 31.7209L33.4152 15.9324H12.3633V31.7209Z" fill="#3B57F7"/>
</svg>
