<?xml version="1.0" encoding="utf-8"?>
<!-- Generator: Adobe Illustrator 24.1.3, SVG Export Plug-In . SVG Version: 6.00 Build 0)  -->
<svg version="1.1" id="Layer_1" xmlns="http://www.w3.org/2000/svg" xmlns:xlink="http://www.w3.org/1999/xlink" x="0px" y="0px"
	 viewBox="0 0 24 24" style="enable-background:new 0 0 24 24;" xml:space="preserve">
<style type="text/css">
	.st0{fill:url(#SVGID_1_);}
	.st1{fill:#FF808B;}
</style>
<linearGradient id="SVGID_1_" gradientUnits="userSpaceOnUse" x1="12" y1="-3.6342" x2="12" y2="19.6158" gradientTransform="matrix(1 0 0 1 0 4)">
	<stop  offset="0" style="stop-color:#2E54EB"/>
	<stop  offset="1" style="stop-color:#66C6D2"/>
</linearGradient>
<path class="st0" d="M7.5,3.3204h2.25v1.5454h4.5V3.3204h2.25v1.5454H21v-4.5h-4.5v1.4546h-2.25V0.3658h-4.5v1.4546H7.5V0.3658H3
	v4.5h4.5V3.3204z M18,1.8658h1.5v1.5H18V1.8658z M11.25,1.8658h1.5v1.5h-1.5V1.8658z M6,3.3658H4.5v-1.5H6V3.3658z M0,6.3658v17.25
	h14.1667l-0.8617-1.5H1.5v-11.25h21v2.4335l0.0975,0.1697L24,15.9105V6.3658H0z M22.5,9.3658h-21v-1.5h21V9.3658z M3.75,12.3658
	h16.5v0.3504h-4.3532h-0.8682l-0.4325,0.7528l-0.228,0.3968H5.25v1.5h8.2564l-0.8617,1.5H3.75V12.3658z M11.783,18.3658
	l-0.3161,0.5504l0.4292,0.7472l0.5471,0.9524H3.75v-2.25H11.783z"/>
<g>
	<polygon class="st1" points="15.9968,18.8163 17.2968,21.0163 19.7968,21.0163 18.5968,18.8163 	"/>
	<path class="st1" d="M21.2968,14.2163h-5.4l-2.7,4.7l2.7,4.7h5.4l2.7-4.7L21.2968,14.2163z M20.4968,22.1163h-3.8l-1.9-3.3l0.6-1.1
		l0,0h3.8l1.9,3.3L20.4968,22.1163z M21.7968,19.9163l-1.9-3.3h-3.9l0.6-1.1h3.8l1.9,3.3l0,0L21.7968,19.9163z"/>
</g>
</svg>
