<?xml version="1.0" encoding="utf-8"?>
<!-- Generator: Adobe Illustrator 24.1.3, SVG Export Plug-In . SVG Version: 6.00 Build 0)  -->
<svg version="1.1" id="Layer_1" xmlns="http://www.w3.org/2000/svg" xmlns:xlink="http://www.w3.org/1999/xlink" x="0px" y="0px"
	 viewBox="0 0 24 24" style="enable-background:new 0 0 24 24;" xml:space="preserve">
<style type="text/css">
	.st0{fill:#FF808B;}
	.st1{fill:url(#SVGID_1_);}
</style>
<g>
	<polygon class="st0" points="15.9891,18.4483 17.2891,20.6483 19.7891,20.6483 18.5891,18.4483 	"/>
	<path class="st0" d="M21.2891,13.8483h-5.4l-2.7,4.7l2.7,4.7h5.4l2.7-4.7L21.2891,13.8483z M20.4891,21.7483h-3.8l-1.9-3.3l0.6-1.1
		l0,0h3.8l1.9,3.3L20.4891,21.7483z M21.7891,19.5483l-1.9-3.3h-3.9l0.6-1.1h3.8l1.9,3.3l0,0L21.7891,19.5483z"/>
</g>
<g>
	
		<linearGradient id="SVGID_1_" gradientUnits="userSpaceOnUse" x1="12" y1="-3.2483" x2="12" y2="8.0017" gradientTransform="matrix(1 0 0 1 0 4)">
		<stop  offset="0" style="stop-color:#2E54EB"/>
		<stop  offset="1" style="stop-color:#66C6D2"/>
	</linearGradient>
	<path class="st1" d="M17.959,8.8427l-1.0679-1.0532l1.3997-1.4187l-1.4187-1.3997l1.0532-1.0679l2.4866,2.4529L17.959,8.8427z
		 M22.5,2.2517h-8.25v8.25h8.25V2.2517 M24,0.7517v11.25H12.75v-11.25L24,0.7517L24,0.7517z M7.1089,7.7895L5.7092,6.3708
		l1.4187-1.3997L6.0747,3.9033L3.5881,6.3562L6.041,8.8427L7.1089,7.7895z M9.75,2.2517H1.5v8.25h8.25V2.2517 M11.25,0.7517v11.25H0
		v-11.25L11.25,0.7517L11.25,0.7517z"/>
</g>
</svg>
