<svg width="9" height="13" viewBox="0 0 9 13" fill="none" xmlns="http://www.w3.org/2000/svg">
    <path d="M3.625 1H2.3125C1.9644 1 1.63056 1.12417 1.38442 1.3452C1.13828 1.56622 1 1.86599 1 2.17857V10.8214C1 11.134 1.13828 11.4338 1.38442 11.6548C1.63056 11.8758 1.9644 12 2.3125 12H6.6875C7.0356 12 7.36944 11.8758 7.61558 11.6548C7.86172 11.4338 8 11.134 8 10.8214V2.17857C8 1.86599 7.86172 1.56622 7.61558 1.3452C7.36944 1.12417 7.0356 1 6.6875 1H5.375M3.625 1V1.78571H5.375V1M3.625 1H5.375M3.625 10.8214H5.375" stroke="currentColor" stroke-linecap="round" stroke-linejoin="round"/>
</svg>    