<svg viewBox="0 0 28 28" fill="none" xmlns="http://www.w3.org/2000/svg">
<path d="M24.7741 0C25.0265 0.148686 25.1109 0.364706 25.1086 0.659821C25.0967 2.16342 25.1037 3.66708 25.1028 5.17073C25.1025 5.63116 24.9388 5.79253 24.4764 5.79519C24.3762 5.79577 24.276 5.79558 24.1758 5.79523C23.761 5.79377 23.6585 5.72109 23.5114 5.3292C23.2394 4.6049 22.889 3.93149 22.2738 3.43084C21.8733 3.09189 21.3666 2.90445 20.842 2.90125C18.9106 2.89426 16.9791 2.89319 15.0477 2.89805C14.6527 2.89847 14.4898 3.07934 14.4897 3.50293C14.4888 6.50112 14.4887 9.4993 14.4892 12.4975C14.4892 16.3158 14.5056 20.1343 14.4781 23.9525C14.4709 24.9465 15.1647 25.6494 16.1237 25.5951C16.5324 25.5719 16.9435 25.5867 17.3534 25.5933C17.6545 25.5982 17.8505 25.7599 17.8581 26.0549C17.8746 26.6907 17.8632 27.3273 17.8632 27.9826H7.25892C7.25364 27.9085 7.24336 27.8295 7.24313 27.7505C7.24167 27.2402 7.24032 26.7299 7.24302 26.2195C7.2455 25.7513 7.40372 25.5929 7.86436 25.5914C8.28345 25.5901 8.70258 25.5949 9.12162 25.5902C10.0041 25.5802 10.618 24.9725 10.6184 24.09C10.621 17.2188 10.6213 10.3475 10.6192 3.47631C10.6191 3.06659 10.4483 2.89788 10.035 2.89749C8.18553 2.89572 6.33598 2.90805 4.48666 2.89193C3.55106 2.88378 2.81636 3.25487 2.29927 4.0085C2.01425 4.42389 1.80812 4.89683 1.59505 5.3571C1.43598 5.70073 1.33894 5.79254 0.961489 5.79527C0.0566463 5.80191 0.00562347 5.75111 0.00562347 4.84357C0.00562347 3.44928 0.012539 2.05492 5.89334e-05 0.660742C-0.00258459 0.365539 0.0833298 0.150184 0.333683 0H24.7741Z" fill="currentColor"/>
<path d="M27.9996 23.4075C27.8521 23.9485 27.7277 24.4972 27.5515 25.0288C27.2851 25.8324 26.8867 26.566 26.262 27.1566C25.706 27.6961 24.9621 27.9982 24.1875 27.999C23.4637 28.0087 22.7516 27.9303 22.0661 27.6794C20.8646 27.2396 20.2119 26.3369 19.9737 25.1221C19.8661 24.5772 19.8099 24.0234 19.8057 23.4681C19.7894 20.3874 19.7968 17.3067 19.796 14.226C19.7959 13.6537 19.6583 13.5155 19.0886 13.5153C18.551 13.5151 18.0134 13.5179 17.4758 13.5142C17.0675 13.5115 16.9028 13.3405 16.8997 12.9261C16.8978 12.671 16.8983 12.4157 16.8996 12.1605C16.9017 11.7432 17.0425 11.5938 17.4588 11.5397C18.4481 11.4244 19.3982 11.0856 20.2375 10.5491C21.0609 10.0136 21.4652 9.54541 22.1905 8.29102C22.1971 8.40367 22.2053 8.47834 22.2054 8.55303C22.2064 9.21839 22.2034 9.88377 22.2069 10.5491C22.2102 11.1865 22.6105 11.5848 23.2524 11.5891C23.8446 11.593 24.437 11.5876 25.0292 11.591C25.4035 11.5932 25.5813 11.7697 25.5884 12.1433C25.5935 12.4166 25.5935 12.69 25.5883 12.9635C25.5809 13.3352 25.4032 13.5117 25.0264 13.5138C24.2975 13.518 23.5685 13.5143 22.8395 13.5156C22.3761 13.5164 22.2064 13.6813 22.2064 14.1355C22.2056 17.1341 22.2059 20.1328 22.2075 23.1315C22.2097 24.4837 22.9846 25.4807 24.2147 25.6809C25.2134 25.8435 26.0779 25.4926 26.781 24.8056C27.1798 24.4158 27.4854 23.9306 27.8313 23.487C27.8919 23.4093 27.9437 23.3248 27.9997 23.2434L27.9996 23.4075Z" fill="currentColor"/>
</svg>
