<?xml version="1.0" encoding="utf-8"?>
<!-- Generator: Adobe Illustrator 24.1.3, SVG Export Plug-In . SVG Version: 6.00 Build 0)  -->
<svg version="1.1" id="Layer_1" xmlns="http://www.w3.org/2000/svg" xmlns:xlink="http://www.w3.org/1999/xlink" x="0px" y="0px"
	 viewBox="0 0 24 24" style="enable-background:new 0 0 24 24;" xml:space="preserve">
<style type="text/css">
	.st0{fill:url(#SVGID_1_);}
	.st1{fill:#4579F0;}
</style>
<linearGradient id="SVGID_1_" gradientUnits="userSpaceOnUse" x1="11.9969" y1="3.2841" x2="11.9969" y2="19.7841">
	<stop  offset="0" style="stop-color:#2E54EB"/>
	<stop  offset="1" style="stop-color:#66C6D2"/>
</linearGradient>
<path class="st0" d="M12.7969,13.8381V3.2841h11.2v9.9145l-1.5-2.5981V4.6841h-8.2V11.24L12.7969,13.8381z M-0.0031,3.2841h11.2
	v16.5h-11.2V3.2841z M1.4969,18.1841h8.3v-13.5h-8.3V18.1841z"/>
<g>
	<polygon class="st1" points="16.0337,16.0994 17.3048,18.3015 19.8476,18.3015 18.5761,16.0994 	"/>
	<path class="st1" d="M21.2923,11.4256h-5.4215l-2.7108,4.6952l2.7108,4.6951h5.4215l2.7108-4.6951L21.2923,11.4256z
		 M20.4832,19.4028h-3.814l-1.9069-3.3033l0.6356-1.1012l-0.0001-0.0001h3.8145l1.9069,3.3034L20.4832,19.4028z M21.7545,17.2002
		l-1.9069-3.3031h-3.8144l0.636-1.1008h3.8143l1.9069,3.3029H22.39L21.7545,17.2002z"/>
</g>
</svg>
