<svg viewBox="0 0 11 11" fill="none" xmlns="http://www.w3.org/2000/svg">
<path d="M5.5 0C2.46265 0 0 2.46353 0 5.5C0 8.53824 2.46265 11 5.5 11C8.53735 11 11 8.53824 11 5.5C11 2.46353 8.53735 0 5.5 0ZM5.5 2.43952C6.01443 2.43952 6.43145 2.85654 6.43145 3.37097C6.43145 3.8854 6.01443 4.30242 5.5 4.30242C4.98557 4.30242 4.56855 3.8854 4.56855 3.37097C4.56855 2.85654 4.98557 2.43952 5.5 2.43952ZM6.74194 8.07258C6.74194 8.21955 6.62278 8.33871 6.47581 8.33871H4.52419C4.37722 8.33871 4.25806 8.21955 4.25806 8.07258V7.54032C4.25806 7.39335 4.37722 7.27419 4.52419 7.27419H4.79032V5.85484H4.52419C4.37722 5.85484 4.25806 5.73568 4.25806 5.58871V5.05645C4.25806 4.90948 4.37722 4.79032 4.52419 4.79032H5.94355C6.09052 4.79032 6.20968 4.90948 6.20968 5.05645V7.27419H6.47581C6.62278 7.27419 6.74194 7.39335 6.74194 7.54032V8.07258Z" fill="currentColor"/>
</svg>
