<svg width="14" height="14" viewBox="0 0 14 14" fill="none" xmlns="http://www.w3.org/2000/svg">
    <path d="M13.9988 6.99913V6.99563C13.9988 4.9243 13.0971 3.06413 11.6651 1.78494L11.6581 1.7791C11.6404 1.76004 11.6207 1.74301 11.5992 1.72835L11.598 1.72777C10.3262 0.611046 8.69071 -0.00328501 6.99825 1.32119e-05C5.22973 1.32119e-05 3.6152 0.656818 2.38447 1.7406L2.39205 1.73419C2.37722 1.74544 2.36354 1.75814 2.35122 1.7721V1.77269C1.61134 2.42785 1.01911 3.23276 0.613767 4.13409C0.208422 5.03542 -0.000785619 6.01259 2.21687e-06 7.00088C2.21687e-06 9.07162 0.900593 10.9318 2.33139 12.2116L2.33839 12.2174C2.35692 12.2384 2.37765 12.2574 2.40022 12.274L2.40138 12.2746C3.67285 13.3896 5.30712 14.0031 6.99825 14C8.69728 14.0026 10.3386 13.3835 11.6126 12.2594L11.605 12.2658C12.3577 11.6114 12.9611 10.8029 13.3743 9.89506C13.7875 8.98723 14.0009 8.00124 14 7.00379V6.99971L13.9988 6.99913ZM11.3962 11.5518C11.0495 11.2714 10.6766 11.0249 10.2827 10.8157L10.2448 10.797C10.6024 9.76634 10.8176 8.57814 10.838 7.34211V7.33278H13.3234C13.2396 8.93186 12.5513 10.4394 11.398 11.5501L11.3962 11.5518ZM7.33305 10.674C8.08141 10.7142 8.78077 10.8787 9.42588 11.1464L9.38388 11.1313C8.86709 12.3096 8.13974 13.1192 7.33305 13.2971V10.674ZM7.33305 10.0067V7.33278H10.1725C10.15 8.44005 9.95797 9.53734 9.6032 10.5865L9.62595 10.5101C8.90177 10.2124 8.13156 10.0423 7.34939 10.0072L7.33364 10.0067H7.33305ZM7.33305 6.66547V3.99159C8.13634 3.95493 8.92715 3.77907 9.67028 3.47186L9.6242 3.48878C9.94792 4.43315 10.1468 5.52161 10.1725 6.65322V6.66547H7.33305ZM7.33305 3.32429V0.702316C8.13974 0.880225 8.86709 1.68636 9.38388 2.86814C8.78077 3.11896 8.08141 3.28287 7.34997 3.3237L7.33305 3.32429ZM8.99775 0.991053C9.68506 1.22031 10.3279 1.566 10.8981 2.01301L10.8847 2.00251C10.6263 2.2055 10.3364 2.39683 10.0307 2.56307L9.99808 2.5794C9.75111 1.99652 9.41153 1.45739 8.9925 0.982887L8.99775 0.989304V0.991053ZM6.66461 0.704066V3.32429C5.94512 3.28758 5.23726 3.12777 4.57179 2.85181L4.61378 2.86697C5.13291 1.68869 5.8591 0.879642 6.66578 0.701733L6.66461 0.704066ZM4.00017 2.57765C3.68398 2.40753 3.38272 2.21104 3.09958 1.99026L3.11357 2.00076C3.66719 1.56687 4.28989 1.22928 4.95559 1.00214L4.99992 0.98872C4.59186 1.45037 4.25937 1.97364 4.01475 2.53915L4.00017 2.57707V2.57765ZM6.66578 3.99101V6.66489H3.82635C3.85201 5.52102 4.05091 4.43257 4.39738 3.41178L4.37464 3.48819C5.09853 3.78537 5.86831 3.95528 6.65003 3.99042L6.66578 3.99101ZM6.66578 7.33219V10.0061C5.8625 10.0427 5.07168 10.2186 4.32856 10.5258L4.37464 10.5089C4.05091 9.5651 3.85201 8.47606 3.82635 7.34444V7.33219H6.66578ZM6.66578 10.6734V13.2954C5.8591 13.1174 5.13174 12.3113 4.61495 11.1295C5.21807 10.8787 5.91742 10.7154 6.64886 10.6746L6.66578 10.674V10.6734ZM5.00342 13.0066C4.31628 12.778 3.67349 12.4331 3.10308 11.987L3.11707 11.9975C3.37547 11.7945 3.66536 11.6032 3.971 11.4369L4.00367 11.4206C4.24858 12.0037 4.58815 12.5424 5.00867 13.0148L5.00342 13.0089V13.0066ZM9.99867 11.42C10.337 11.6038 10.6269 11.7945 10.8993 12.0074L10.8853 11.9969C10.3316 12.4308 9.70894 12.7684 9.04324 12.9955L8.99892 13.0089C9.40697 12.5475 9.73946 12.0244 9.98408 11.4591L9.99867 11.4212V11.42ZM13.3234 6.66547H10.838C10.8201 5.45858 10.6119 4.26207 10.2209 3.12013L10.2448 3.20062C10.6568 2.98367 11.0469 2.72738 11.4096 2.43532L11.3956 2.44582C12.5466 3.55238 13.2351 5.05428 13.3222 6.64856L13.3228 6.66489L13.3234 6.66547ZM2.60262 2.44641C2.93859 2.7194 3.31597 2.96963 3.71611 3.18254L3.75402 3.20121C3.39647 4.23191 3.18124 5.42011 3.16082 6.65614V6.66547H0.674862C0.758676 5.06639 1.44693 3.5589 2.60028 2.44816L2.60203 2.44641H2.60262ZM0.675446 7.33278H3.16082C3.1787 8.53967 3.38697 9.73618 3.77794 10.8781L3.75402 10.7976C3.31597 11.0304 2.93917 11.2806 2.5892 11.5629L2.6032 11.5524C1.45223 10.4459 0.763734 8.94397 0.676612 7.34969L0.676029 7.33336L0.675446 7.33278Z" fill="currentColor"/>
</svg>    