<?xml version="1.0" encoding="utf-8"?>
<!-- Generator: Adobe Illustrator 24.1.3, SVG Export Plug-In . SVG Version: 6.00 Build 0)  -->
<svg version="1.1" id="Layer_1" xmlns="http://www.w3.org/2000/svg" xmlns:xlink="http://www.w3.org/1999/xlink" x="0px" y="0px"
	 viewBox="0 0 24 24" style="enable-background:new 0 0 24 24;" xml:space="preserve">
<style type="text/css">
	.st0{fill:url(#SVGID_1_);}
	.st1{fill:#FF808B;}
</style>
<linearGradient id="SVGID_1_" gradientUnits="userSpaceOnUse" x1="12" y1="23.6284" x2="12" y2="0.3754" gradientTransform="matrix(1 0 0 -1 0 24)">
	<stop  offset="0" style="stop-color:#2E54EB"/>
	<stop  offset="1" style="stop-color:#66C6D2"/>
</linearGradient>
<path class="st0" d="M7.4994,3.3265h2.2503v1.5456h4.5006V3.3265h2.2503v1.5456h4.5006V0.3716h-4.5006v1.4548h-2.2503V0.3716H9.7497
	v1.4548H7.4994V0.3716H2.9988v4.5006h4.5006V3.3265z M18.0008,1.8718h1.5002V3.372h-1.5002V1.8718z M11.2499,1.8718h1.5002V3.372
	h-1.5002V1.8718z M5.9992,3.3719H4.499V1.8718h1.5002V3.3719z M8.2495,22.1244V7.8725h7.501v4.8544h0.1477h1.3525V7.8725h5.2507
	v5.436l0.0984,0.1714l1.4018,2.4401V6.3723h-6.7509h-1.5002h-7.501H6.7493h-6.7509v17.2523h6.7509h1.5002h5.9164l-0.8618-1.5002
	H8.2495z M6.7493,22.1244H1.4986V7.8725h5.2507V22.1244z"/>
<g>
	<polygon class="st1" points="15.9982,18.8278 17.2984,21.0281 19.7987,21.0281 18.5986,18.8278 	"/>
	<path class="st1" d="M21.2989,14.2272h-5.4007l-2.7004,4.7006l2.7004,4.7006h5.4007l2.7004-4.7006L21.2989,14.2272z
		 M20.4988,22.1283h-3.8005l-1.9003-3.3004l0.6001-1.1001l0,0h3.8005l1.9003,3.3004L20.4988,22.1283z M21.799,19.928l-1.9003-3.3004
		h-3.9005l0.6001-1.1001h3.8005l1.9003,3.3004l0,0L21.799,19.928z"/>
</g>
</svg>
