<svg viewBox="0 0 12 12" fill="none" xmlns="http://www.w3.org/2000/svg">
    <path d="M3.5 8.63993H2.25C1.91848 8.63993 1.60054 8.50085 1.36612 8.2533C1.1317 8.00575 1 7.66999 1 7.31989V2.03976C1 1.68967 1.1317 1.35391 1.36612 1.10636C1.60054 0.858801 1.91848 0.719727 2.25 0.719727H7.25C7.58152 0.719727 7.89946 0.858801 8.13388 1.10636C8.3683 1.35391 8.5 1.68967 8.5 2.03976V3.35979M4.75 11.28H9.75C10.0815 11.28 10.3995 11.1409 10.6339 10.8934C10.8683 10.6458 11 10.3101 11 9.95996V4.67983C11 4.32973 10.8683 3.99398 10.6339 3.74642C10.3995 3.49887 10.0815 3.35979 9.75 3.35979H4.75C4.41848 3.35979 4.10054 3.49887 3.86612 3.74642C3.6317 3.99398 3.5 4.32973 3.5 4.67983V9.95996C3.5 10.3101 3.6317 10.6458 3.86612 10.8934C4.10054 11.1409 4.41848 11.28 4.75 11.28Z" stroke="currentColor" stroke-width="0.8" stroke-linecap="round" stroke-linejoin="round"/>
</svg>    