<?xml version="1.0" encoding="utf-8"?>
<!-- Generator: Adobe Illustrator 24.1.3, SVG Export Plug-In . SVG Version: 6.00 Build 0)  -->
<svg version="1.1" id="Layer_1" xmlns="http://www.w3.org/2000/svg" xmlns:xlink="http://www.w3.org/1999/xlink" x="0px" y="0px"
	 viewBox="0 0 24 24" style="enable-background:new 0 0 24 24;" xml:space="preserve">
<style type="text/css">
	.st0{fill:url(#SVGID_1_);}
	.st1{fill:#FF808B;}
</style>
<linearGradient id="SVGID_1_" gradientUnits="userSpaceOnUse" x1="11.998" y1="25.4436" x2="11.998" y2="4.4436" gradientTransform="matrix(1 0 0 -1 0 26)">
	<stop  offset="0" style="stop-color:#2E54EB"/>
	<stop  offset="1" style="stop-color:#66C6D2"/>
</linearGradient>
<path class="st0" d="M16.5,2.8H21v1.5h-4.5V2.8z M9.8,4.3h4.5V2.8H9.8V4.3z M12.5,12.6h8.4v-1.5H11v7.5h0.6l0.9-1.6
	C12.5,17,12.5,12.6,12.5,12.6z M3,4.3h4.5V2.8H3C3,2.8,3,4.3,3,4.3z M9.1,14.1h-6v1.5h6V14.1z M9.1,11.1h-6v1.5h6V11.1z M1.5,6.6H0
	v-6h24v6h-1.5H1.5z M1.5,5.1h21v-3h-21C1.5,2.1,1.5,5.1,1.5,5.1z M3.1,18.6h6v-1.5h-6C3.1,17.1,3.1,18.6,3.1,18.6z M12.2,20.1H1.5
	V9.6h3.3h0.5h0.6h16.5v3.5l1.6,2.8l0-0.9V8.1h-1.5H6.6L5.3,7L4,8.1H1.5H0v13.5h13.1L12.2,20.1z"/>
<g>
	<polygon class="st1" points="16,18.7 17.3,20.9 19.8,20.9 18.6,18.7 	"/>
	<path class="st1" d="M21.3,14.1h-5.4l-2.7,4.7l2.7,4.7h5.4l2.7-4.7L21.3,14.1z M20.5,22h-3.8l-1.9-3.3l0.6-1.1l0,0h3.8l1.9,3.3
		L20.5,22z M21.8,19.8l-1.9-3.3H16l0.6-1.1h3.8l1.9,3.3h0L21.8,19.8z"/>
</g>
</svg>
