<svg width="24" height="24" viewBox="0 0 24 24" fill="none" xmlns="http://www.w3.org/2000/svg">
<g clip-path="url(#clip0_19807_5152)">
<mask id="mask0_19807_5152" style="mask-type:luminance" maskUnits="userSpaceOnUse" x="0" y="0" width="25" height="24">
<path d="M24.0015 0H0.00146484V24H24.0015V0Z" fill="white"/>
</mask>
<g mask="url(#mask0_19807_5152)">
<path d="M8.20232 3.78385H15.821V3.7832H17.21V3.78385H24.002V8.84197H22.5007V5.28515H17.21V13.1512H15.821V5.28515H8.20232V18.7967H11.772L11.45 19.3568L11.991 20.298H0.00146484V15.1582H1.50277V18.7967H6.81332V5.28515H1.50277V8.84197H0.00146484V3.78385H6.81332V3.7832H8.20232V3.78385Z" fill="url(#paint0_linear_19807_5152)"/>
<path d="M3.5871 14.2573L-0.0159302 12.0054L3.5871 9.75342V14.2573Z" fill="url(#paint1_linear_19807_5152)"/>
<path d="M23.9842 12.0054L22.1508 13.1512H20.3812V9.75342L23.9842 12.0054Z" fill="url(#paint2_linear_19807_5152)"/>
<path d="M16.0103 19.2827L17.2827 21.4867H19.8273L18.555 19.2827H16.0103Z" fill="#FB7780"/>
<path d="M15.8473 14.6045L13.133 19.3034L15.8458 24.0033H21.2707L23.9827 19.3034L21.2707 14.6045H15.8443H15.8473ZM16.6445 15.9767H20.4637L22.3725 19.2824L21.7353 20.3844L19.8257 17.0786H16.0072L16.6445 15.9767ZM14.7378 19.2833L15.3744 18.1806H19.1913L21.1002 21.4864L20.463 22.5883H16.646L14.7371 19.2833H14.7378Z" fill="#FB7780"/>
</g>
</g>
<defs>
<linearGradient id="paint0_linear_19807_5152" x1="11.993" y1="3.7832" x2="11.993" y2="20.298" gradientUnits="userSpaceOnUse">
<stop stop-color="#2E54EB"/>
<stop offset="1" stop-color="#66C6D2"/>
</linearGradient>
<linearGradient id="paint1_linear_19807_5152" x1="11.993" y1="3.7832" x2="11.993" y2="20.298" gradientUnits="userSpaceOnUse">
<stop stop-color="#2E54EB"/>
<stop offset="1" stop-color="#66C6D2"/>
</linearGradient>
<linearGradient id="paint2_linear_19807_5152" x1="11.993" y1="3.7832" x2="11.993" y2="20.298" gradientUnits="userSpaceOnUse">
<stop stop-color="#2E54EB"/>
<stop offset="1" stop-color="#66C6D2"/>
</linearGradient>
<clipPath id="clip0_19807_5152">
<rect width="24" height="24" fill="white"/>
</clipPath>
</defs>
</svg>
