<svg width="11" height="8" viewBox="0 0 11 8" fill="none" xmlns="http://www.w3.org/2000/svg">
    <path d="M8 8H3V7.11111H4V6.66667H1C0.734784 6.66667 0.48043 6.57302 0.292893 6.40632C0.105357 6.23962 0 6.01353 0 5.77778V0.888889C0 0.653141 0.105357 0.427048 0.292893 0.260349C0.48043 0.0936505 0.734784 0 1 0H10C10.2652 0 10.5196 0.0936505 10.7071 0.260349C10.8946 0.427048 11 0.653141 11 0.888889V5.77778C11 6.01353 10.8946 6.23962 10.7071 6.40632C10.5196 6.57302 10.2652 6.66667 10 6.66667H7V7.11111H8V8ZM1 0.888889V5.77778H10V0.888889H1Z" fill="currentColor"/>
</svg>    