<svg width="12" height="12" viewBox="0 0 12 12" fill="none" xmlns="http://www.w3.org/2000/svg">
    <path d="M3.47852 8.9202H2.22852C1.897 8.9202 1.57905 8.78113 1.34463 8.53357C1.11021 8.28602 0.978516 7.95026 0.978516 7.60017V2.32003C0.978516 1.96994 1.11021 1.63418 1.34463 1.38663C1.57905 1.13907 1.897 1 2.22852 1H7.22852C7.56004 1 7.87798 1.13907 8.1124 1.38663C8.34682 1.63418 8.47852 1.96994 8.47852 2.32003V3.64007M4.72852 11.5603H9.72852C10.06 11.5603 10.378 11.4212 10.6124 11.1736C10.8468 10.9261 10.9785 10.5903 10.9785 10.2402V4.9601C10.9785 4.61001 10.8468 4.27425 10.6124 4.0267C10.378 3.77914 10.06 3.64007 9.72852 3.64007H4.72852C4.397 3.64007 4.07905 3.77914 3.84463 4.0267C3.61021 4.27425 3.47852 4.61001 3.47852 4.9601V10.2402C3.47852 10.5903 3.61021 10.9261 3.84463 11.1736C4.07905 11.4212 4.397 11.5603 4.72852 11.5603Z" stroke="currentColor" stroke-width="0.8" stroke-linecap="round" stroke-linejoin="round"/>
</svg>    