<svg width="12" height="12" viewBox="0 0 12 12" fill="none" xmlns="http://www.w3.org/2000/svg">
<path d="M10.3143 7.99945C10.2754 7.95258 10.2372 7.9057 10.1997 7.86047C9.68409 7.2368 9.37214 6.86039 9.37214 5.09484C9.37214 4.18078 9.15346 3.43078 8.72245 2.86828C8.40464 2.45273 7.97503 2.1375 7.40878 1.90453C7.40149 1.90048 7.39498 1.89516 7.38956 1.88883C7.18589 1.2068 6.62854 0.75 5.99995 0.75C5.37135 0.75 4.81424 1.2068 4.61057 1.88812C4.60515 1.89423 4.59873 1.89938 4.59159 1.90336C3.27018 2.44734 2.62799 3.49102 2.62799 5.09414C2.62799 6.86039 2.31651 7.2368 1.80042 7.85977C1.76292 7.905 1.72471 7.95094 1.68581 7.99875C1.58531 8.11995 1.52163 8.26741 1.50232 8.42366C1.483 8.57992 1.50886 8.73844 1.57682 8.88047C1.72143 9.18516 2.02964 9.3743 2.38143 9.3743H9.62104C9.9712 9.3743 10.2773 9.18539 10.4224 8.88211C10.4906 8.74005 10.5167 8.5814 10.4976 8.42496C10.4784 8.26852 10.4148 8.12085 10.3143 7.99945ZM5.99995 11.25C6.33863 11.2497 6.67092 11.1578 6.96158 10.9839C7.25224 10.8101 7.49043 10.5608 7.65089 10.2626C7.65845 10.2483 7.66218 10.2323 7.66172 10.2161C7.66127 10.2 7.65664 10.1842 7.64829 10.1703C7.63994 10.1565 7.62815 10.145 7.61407 10.1371C7.59999 10.1291 7.58409 10.125 7.56792 10.125H4.43245C4.41626 10.1249 4.40033 10.1291 4.38621 10.137C4.3721 10.1449 4.36028 10.1564 4.3519 10.1702C4.34352 10.1841 4.33887 10.1999 4.33841 10.2161C4.33794 10.2322 4.34168 10.2483 4.34925 10.2626C4.50968 10.5608 4.74784 10.81 5.03845 10.9839C5.32906 11.1577 5.66131 11.2497 5.99995 11.25Z" fill="#011627"/>
</svg>
