<svg width="10" height="12" viewBox="0 0 10 12" fill="none" xmlns="http://www.w3.org/2000/svg">
    <path d="M4 8.85714H6H4ZM1.66667 11H8.33333C8.51014 11 8.67971 10.9247 8.80474 10.7908C8.92976 10.6568 9 10.4752 9 10.2857V1.71429C9 1.52485 8.92976 1.34316 8.80474 1.20921C8.67971 1.07525 8.51014 1 8.33333 1H1.66667C1.48986 1 1.32029 1.07525 1.19526 1.20921C1.07024 1.34316 1 1.52485 1 1.71429V10.2857C1 10.4752 1.07024 10.6568 1.19526 10.7908C1.32029 10.9247 1.48986 11 1.66667 11Z" stroke="currentColor"/>
</svg>    