<?xml version="1.0" encoding="utf-8"?>
<!-- Generator: Adobe Illustrator 24.1.3, SVG Export Plug-In . SVG Version: 6.00 Build 0)  -->
<svg version="1.1" id="Layer_1" xmlns="http://www.w3.org/2000/svg" xmlns:xlink="http://www.w3.org/1999/xlink" x="0px" y="0px"
	 viewBox="0 0 24 24" style="enable-background:new 0 0 24 24;" xml:space="preserve">
<style type="text/css">
	.st0{fill:url(#SVGID_1_);}
	.st1{fill:#FF808B;}
</style>
<linearGradient id="SVGID_1_" gradientUnits="userSpaceOnUse" x1="12" y1="22.1252" x2="12" y2="3.3752" gradientTransform="matrix(1 0 0 -1 0 24)">
	<stop  offset="0" style="stop-color:#2E54E9"/>
	<stop  offset="1" style="stop-color:#66C4D0"/>
</linearGradient>
<path class="st0" d="M1.5,19.1248v-9.75h21v2.4539l0.0859,0.1494L24,14.4398v-5.065v-3.75v-3.75H0v3.75v3.75v11.25h13.2933
	l-0.8618-1.5H1.5z M1.5,3.3748h21v2.25h-21V3.3748z M3.75,15.3748h6v1.5h-6V15.3748z"/>
<g>
	<polygon class="st1" points="15.9851,17.3252 17.2851,19.5252 19.7851,19.5252 18.5851,17.3252 	"/>
	<path class="st1" d="M21.2851,12.7252h-5.4l-2.7,4.7l2.7,4.7h5.4l2.7-4.7L21.2851,12.7252z M20.4851,20.6252h-3.8l-1.9-3.3l0.6-1.1
		l0,0h3.8l1.9,3.3L20.4851,20.6252z M21.7851,18.4252l-1.9-3.3h-3.9l0.6-1.1h3.8l1.9,3.3l0,0L21.7851,18.4252z"/>
</g>
</svg>
