<svg width="48" height="48" viewBox="0 0 48 48" fill="none" xmlns="http://www.w3.org/2000/svg">
<circle cx="24" cy="24" r="23.5" fill="white" stroke="#E3E4E6"/>
<path d="M14.2031 15.2492C14.2031 14.9707 14.3137 14.7037 14.5107 14.5068C14.7076 14.3098 14.9746 14.1992 15.2531 14.1992H29.2531C29.5316 14.1992 29.7987 14.3098 29.9956 14.5068C30.1925 14.7037 30.3031 14.9707 30.3031 15.2492V17.3492C30.3031 17.6277 30.1925 17.8948 29.9956 18.0917C29.7987 18.2886 29.5316 18.3992 29.2531 18.3992C28.9746 18.3992 28.7076 18.2886 28.5107 18.0917C28.3137 17.8948 28.2031 17.6277 28.2031 17.3492V16.2992H23.3031V27.0876C22.8405 28.095 22.6017 29.1907 22.6031 30.2992C22.6031 31.5592 22.9055 32.7492 23.4431 33.7992H19.4531C19.1746 33.7992 18.9076 33.6886 18.7107 33.4917C18.5137 33.2948 18.4031 33.0277 18.4031 32.7492C18.4031 32.4707 18.5137 32.2037 18.7107 32.0068C18.9076 31.8098 19.1746 31.6992 19.4531 31.6992H21.2031V16.2992H16.3031V17.3492C16.3031 17.6277 16.1925 17.8948 15.9956 18.0917C15.7987 18.2886 15.5316 18.3992 15.2531 18.3992C14.9746 18.3992 14.7076 18.2886 14.5107 18.0917C14.3137 17.8948 14.2031 17.6277 14.2031 17.3492V15.2492ZM36.6031 30.2992C36.6031 31.9701 35.9394 33.5725 34.7579 34.754C33.5764 35.9355 31.974 36.5992 30.3031 36.5992C28.6323 36.5992 27.0298 35.9355 25.8483 34.754C24.6669 33.5725 24.0031 31.9701 24.0031 30.2992C24.0031 28.6284 24.6669 27.0259 25.8483 25.8444C27.0298 24.663 28.6323 23.9992 30.3031 23.9992C31.974 23.9992 33.5764 24.663 34.7579 25.8444C35.9394 27.0259 36.6031 28.6284 36.6031 30.2992ZM31.0031 27.4992C31.0031 27.3136 30.9294 27.1355 30.7981 27.0042C30.6668 26.873 30.4888 26.7992 30.3031 26.7992C30.1175 26.7992 29.9394 26.873 29.8081 27.0042C29.6769 27.1355 29.6031 27.3136 29.6031 27.4992V29.5992H27.5031C27.3175 29.5992 27.1394 29.673 27.0081 29.8042C26.8769 29.9355 26.8031 30.1136 26.8031 30.2992C26.8031 30.4849 26.8769 30.6629 27.0081 30.7942C27.1394 30.9255 27.3175 30.9992 27.5031 30.9992H29.6031V33.0992C29.6031 33.2849 29.6769 33.4629 29.8081 33.5942C29.9394 33.7255 30.1175 33.7992 30.3031 33.7992C30.4888 33.7992 30.6668 33.7255 30.7981 33.5942C30.9294 33.4629 31.0031 33.2849 31.0031 33.0992V30.9992H33.1031C33.2888 30.9992 33.4668 30.9255 33.5981 30.7942C33.7294 30.6629 33.8031 30.4849 33.8031 30.2992C33.8031 30.1136 33.7294 29.9355 33.5981 29.8042C33.4668 29.673 33.2888 29.5992 33.1031 29.5992H31.0031V27.4992Z" fill="#3B57F7"/>
</svg>
