<svg width="10" height="10" viewBox="0 0 10 10" fill="none" xmlns="http://www.w3.org/2000/svg">
<path d="M5.39798 1.07918C5.24228 0.783501 4.75811 0.783501 4.60242 1.07918L0.552618 8.76514C0.516163 8.83403 0.49809 8.91123 0.50016 8.98923C0.50223 9.06722 0.524373 9.14335 0.564432 9.21019C0.60449 9.27702 0.661098 9.3323 0.728738 9.37062C0.796379 9.40894 0.872746 9.429 0.950398 9.42885H9.04999C9.12759 9.42901 9.20391 9.40897 9.2715 9.37067C9.3391 9.33237 9.39566 9.27713 9.43568 9.21033C9.4757 9.14353 9.4978 9.06744 9.49984 8.9895C9.50189 8.91156 9.48379 8.83442 9.44732 8.7656L5.39798 1.07918ZM5.45017 8.0725H4.55022V7.16827H5.45017V8.0725ZM4.55022 6.26404V4.00347H5.45017L5.45062 6.26404H4.55022Z" fill="#FFB200"/>
</svg>
