<svg width="15" height="15" viewBox="0 0 15 15" fill="none" xmlns="http://www.w3.org/2000/svg">
<path d="M7.5 0C3.3645 0 0 3.3645 0 7.5V10.6072C0 11.3752 0.67275 12 1.5 12H2.25C2.44891 12 2.63968 11.921 2.78033 11.7803C2.92098 11.6397 3 11.4489 3 11.25V7.39275C3 7.19384 2.92098 7.00307 2.78033 6.86242C2.63968 6.72177 2.44891 6.64275 2.25 6.64275H1.569C1.986 3.74025 4.4835 1.5 7.5 1.5C10.5165 1.5 13.014 3.74025 13.431 6.64275H12.75C12.5511 6.64275 12.3603 6.72177 12.2197 6.86242C12.079 7.00307 12 7.19384 12 7.39275V12C12 12.8273 11.3273 13.5 10.5 13.5H9V12.75H6V15H10.5C12.1545 15 13.5 13.6545 13.5 12C14.3273 12 15 11.3752 15 10.6072V7.5C15 3.3645 11.6355 0 7.5 0Z" fill="#99A2A9"/>
</svg>
