<?xml version="1.0" encoding="utf-8"?>
<!-- Generator: Adobe Illustrator 24.1.3, SVG Export Plug-In . SVG Version: 6.00 Build 0)  -->
<svg version="1.1" id="Layer_1" xmlns="http://www.w3.org/2000/svg" xmlns:xlink="http://www.w3.org/1999/xlink" x="0px" y="0px"
	 viewBox="0 0 24 24" style="enable-background:new 0 0 24 24;" xml:space="preserve">
<style type="text/css">
	.st0{fill:none;}
	.st1{fill:#1E1E1E;}
</style>
<rect x="0.0249" y="-0.0031" class="st0" width="24.0062" height="24.0062"/>
<rect x="0.0249" y="-0.0031" class="st0" width="24.0062" height="24.0062"/>
<rect x="0.0249" y="-0.0031" class="st0" width="24.0062" height="24.0062"/>
<g>
	<polygon class="st1" points="14.8748,16.6893 15.4006,10.5759 8.6128,10.5759 9.212,16.6893 	"/>
	<polygon class="st1" points="10.688,7.3108 10.688,8.213 7.8551,8.213 7.8551,9.6137 16.1583,9.6137 16.1583,8.213 13.3254,8.213 
		13.3254,7.3108 	"/>
</g>
<g>
	<polygon class="st1" points="19.0166,3.1893 12.7922,3.1893 12.7989,5.7852 14.3833,5.7852 14.3833,4.7894 16.1922,4.7894 
		22.4922,4.7894 22.4922,19.2107 14.3866,19.2107 14.3866,18.2148 12.8023,18.2148 12.7922,20.8107 23.9922,20.8107 23.9922,3.1893 
			"/>
	<polygon class="st1" points="9.6267,19.2107 1.5078,19.2107 1.5078,4.7894 7.8078,4.7894 9.6234,4.7894 9.6234,5.7852 
		11.2078,5.7852 11.2078,4.7894 11.2078,4.7769 11.2078,3.1893 4.9834,3.1893 0.0078,3.1893 0.0078,20.8107 11.2078,20.8107 
		11.2112,18.2148 9.6267,18.2148 	"/>
</g>
</svg>
