<svg width="16" height="17" viewBox="0 0 16 17" fill="none" xmlns="http://www.w3.org/2000/svg">
<path d="M3.085 1C3.18844 0.707422 3.38008 0.454129 3.63351 0.275028C3.88694 0.0959278 4.18967 -0.00016248 4.5 2.06237e-07H7.5C7.81033 -0.00016248 8.11306 0.0959278 8.36649 0.275028C8.61992 0.454129 8.81156 0.707422 8.915 1H10.5C10.8978 1 11.2794 1.15804 11.5607 1.43934C11.842 1.72064 12 2.10218 12 2.5V7.232C11.674 7.372 11.369 7.575 11.103 7.841L6.943 12H2.5C2.36739 12 2.24021 12.0527 2.14645 12.1464C2.05268 12.2402 2 12.3674 2 12.5C2 12.6326 2.05268 12.7598 2.14645 12.8536C2.24021 12.9473 2.36739 13 2.5 13H5.986C5.726 13.343 5.538 13.735 5.433 14.155L5.058 15.653C5.02955 15.7668 5.01147 15.8829 5.004 16H1.5C1.10218 16 0.720644 15.842 0.43934 15.5607C0.158035 15.2794 0 14.8978 0 14.5V2.5C0 2.10218 0.158035 1.72064 0.43934 1.43934C0.720644 1.15804 1.10218 1 1.5 1H3.085ZM8 1.5C8 1.36739 7.94732 1.24022 7.85355 1.14645C7.75979 1.05268 7.63261 1 7.5 1H4.5C4.36739 1 4.24021 1.05268 4.14645 1.14645C4.05268 1.24022 4 1.36739 4 1.5C4 1.63261 4.05268 1.75979 4.14645 1.85355C4.24021 1.94732 4.36739 2 4.5 2H7.5C7.63261 2 7.75979 1.94732 7.85355 1.85355C7.94732 1.75979 8 1.63261 8 1.5ZM9.5 6H2.5C2.36739 6 2.24021 6.05268 2.14645 6.14645C2.05268 6.24021 2 6.36739 2 6.5C2 6.63261 2.05268 6.75979 2.14645 6.85355C2.24021 6.94732 2.36739 7 2.5 7H9.5C9.63261 7 9.75979 6.94732 9.85355 6.85355C9.94732 6.75979 10 6.63261 10 6.5C10 6.36739 9.94732 6.24021 9.85355 6.14645C9.75979 6.05268 9.63261 6 9.5 6ZM6 9.5C6 9.36739 5.94732 9.24021 5.85355 9.14645C5.75979 9.05268 5.63261 9 5.5 9H2.5C2.36739 9 2.24021 9.05268 2.14645 9.14645C2.05268 9.24021 2 9.36739 2 9.5C2 9.63261 2.05268 9.75979 2.14645 9.85355C2.24021 9.94732 2.36739 10 2.5 10H5.5C5.63261 10 5.75979 9.94732 5.85355 9.85355C5.94732 9.75979 6 9.63261 6 9.5ZM6.98 13.377L11.81 8.547C11.9837 8.37339 12.19 8.23571 12.4169 8.1418C12.6439 8.04789 12.8871 7.99961 13.1327 7.9997C13.3783 7.9998 13.6215 8.04826 13.8484 8.14234C14.0753 8.23642 14.2814 8.37426 14.455 8.548C14.6286 8.72174 14.7663 8.92797 14.8602 9.15492C14.9541 9.38187 15.0024 9.6251 15.0023 9.87071C15.0022 10.1163 14.9537 10.3595 14.8597 10.5864C14.7656 10.8133 14.6277 11.0194 14.454 11.193L9.624 16.022C9.34263 16.3035 8.99008 16.5033 8.604 16.6L7.106 16.974C6.95705 17.0111 6.80103 17.0091 6.6531 16.9681C6.50516 16.9271 6.37035 16.8485 6.26175 16.74C6.15316 16.6315 6.07447 16.4968 6.03333 16.3489C5.9922 16.201 5.99002 16.045 6.027 15.896L6.402 14.398C6.49791 14.0116 6.69781 13.6588 6.98 13.378V13.377Z" fill="#99A2A9"/>
</svg>
