<?xml version="1.0" encoding="utf-8"?>
<!-- Generator: Adobe Illustrator 24.1.3, SVG Export Plug-In . SVG Version: 6.00 Build 0)  -->
<svg version="1.1" id="Layer_1" xmlns="http://www.w3.org/2000/svg" xmlns:xlink="http://www.w3.org/1999/xlink" x="0px" y="0px"
	 viewBox="0 0 24 24" style="enable-background:new 0 0 24 24;" xml:space="preserve">
<style type="text/css">
	.st0{fill:url(#SVGID_1_);}
	.st1{fill:#FF808B;}
</style>
<linearGradient id="SVGID_1_" gradientUnits="userSpaceOnUse" x1="10.5077" y1="24.0041" x2="10.5077" y2="-0.0041" gradientTransform="matrix(1 0 0 -1 0 24)">
	<stop  offset="0" style="stop-color:#2E54EB"/>
	<stop  offset="1" style="stop-color:#66C6D2"/>
</linearGradient>
<path class="st0" d="M13.3124,22.5036l0.862,1.5005H0.0041V-0.0041h21.0071V13.094h-1.5005V1.4964H1.5046v21.0071L13.3124,22.5036
	L13.3124,22.5036z M18.0102,2.9969v5.2518H3.0051V2.9969H18.0102z M16.5097,4.4975H4.5056v2.2508h12.0041V4.4975z M11.8993,20.0436
	l0.1202,0.2092H7.5066H3.0051v-6.002V9.7492h4.5015h6.002h4.5015v3.3448h-1.5005v-1.8443h-3.001v3.001v1.4965l-1.5005,2.612v-2.6079
	h-3.001v3.001h2.7753l-0.3125,0.544L11.8993,20.0436z M9.0071,14.2508h3.001v-3.001h-3.001
	C9.0071,11.2498,9.0071,14.2508,9.0071,14.2508z M7.5066,15.7513h-3.001v3.001h3.001V15.7513z M7.5066,11.2497h-3.001v3.001h3.001
	V11.2497z"/>
<g>
	<polygon class="st1" points="16.0014,19.1962 17.3018,21.3969 19.8026,21.3969 18.6022,19.1962 	"/>
	<path class="st1" d="M21.3032,14.5946h-5.4018l-2.7009,4.7016l2.7009,4.7016h5.4018l2.7009-4.7016L21.3032,14.5946z
		 M20.5029,22.4973h-3.8013l-1.9006-3.3011l0.6002-1.1004l0,0h3.8013l1.9006,3.3011L20.5029,22.4973z M21.8033,20.2966
		l-1.9006-3.3011h-3.9013l0.6002-1.1004h3.8013l1.9006,3.3011l0,0L21.8033,20.2966z"/>
</g>
</svg>
