<?xml version="1.0" encoding="utf-8"?>
<!-- Generator: Adobe Illustrator 24.1.3, SVG Export Plug-In . SVG Version: 6.00 Build 0)  -->
<svg version="1.1" id="Layer_1" xmlns="http://www.w3.org/2000/svg" xmlns:xlink="http://www.w3.org/1999/xlink" x="0px" y="0px"
	 viewBox="0 0 24 24" style="enable-background:new 0 0 24 24;" xml:space="preserve">
<style type="text/css">
	.st0{fill:url(#SVGID_1_);}
	.st1{fill:#FF808B;}
</style>
<linearGradient id="SVGID_1_" gradientUnits="userSpaceOnUse" x1="12" y1="-4.0002" x2="12" y2="18.4353" gradientTransform="matrix(1 0 0 1 0 4)">
	<stop  offset="0" style="stop-color:#2E54EB"/>
	<stop  offset="1" style="stop-color:#66C6D2"/>
</linearGradient>
<path class="st0" d="M24-0.0002H0v11.25h24V-0.0002z M22.5,9.7498H9.4171l7.5161-5.0021L22.5,7.9349V9.7498z M22.5,6.2058
	l-5.6254-3.2203L6.7113,9.7498H1.5v-8.25h21V6.2058z M3.75,4.4998c0-0.8285,0.6716-1.5,1.5-1.5s1.5,0.6715,1.5,1.5
	c0,0.8284-0.6716,1.5-1.5,1.5S3.75,5.3282,3.75,4.4998z M14.3969,14.2026l-0.8617,1.5H8.3551v-1.5H14.3969z M6.5261,14.9523
	c0,1.1808-0.9573,2.138-2.138,2.138c-1.1808,0-2.138-0.9573-2.138-2.138c0-1.1808,0.9572-2.138,2.138-2.138
	C5.5688,12.8143,6.5261,13.7714,6.5261,14.9523z M11.8976,20.0474l0.5742,0.9997H8.3551v-1.5h3.2551L11.8976,20.0474z
	 M4.388,18.1593c-1.1808,0-2.138,0.9573-2.138,2.138c0,1.1808,0.9572,2.138,2.138,2.138s2.138-0.9572,2.138-2.138
	C6.5261,19.1166,5.5688,18.1593,4.388,18.1593z M4.388,20.9354c-0.3518,0-0.638-0.2862-0.638-0.638s0.2862-0.638,0.638-0.638
	s0.638,0.2862,0.638,0.638S4.7399,20.9354,4.388,20.9354z"/>
<g>
	<polygon class="st1" points="15.9983,19.2002 17.2983,21.4002 19.7983,21.4002 18.5983,19.2002 	"/>
	<path class="st1" d="M21.2983,14.6002h-5.4l-2.7,4.7l2.7,4.7h5.4l2.7-4.7L21.2983,14.6002z M20.4983,22.5002h-3.8l-1.9-3.3l0.6-1.1
		l0,0h3.8l1.9,3.3L20.4983,22.5002z M21.7983,20.3002l-1.9-3.3h-3.9l0.6-1.1h3.8l1.9,3.3l0,0L21.7983,20.3002z"/>
</g>
</svg>
