<svg width="24" height="24" viewBox="0 0 24 24" fill="none" xmlns="http://www.w3.org/2000/svg">
<g clip-path="url(#clip0_22933_14775)">
<rect width="24" height="24" rx="12" fill="#99A2A9"/>
<path d="M17.8867 17.9243H9.05371V17.9233H7.58105L5.96191 7.49658H9.05371V5.96338H17.8867V17.9243ZM10.5264 16.3901H14.3545V15.4702H10.5264V16.3901ZM14.9434 16.3901H16.415V15.4702H14.9434V16.3901ZM9.05371 16.0298V9.33643H8.01465L9.05371 16.0298ZM10.5264 14.5493H14.3545V13.6294H10.5264V14.5493ZM14.9434 14.5493H16.415V13.6294H14.9434V14.5493ZM10.5264 12.7095H14.3545V11.7896H10.5264V12.7095ZM14.9434 11.7896V12.7095H16.415V11.7896H14.9434ZM10.5264 10.8696H16.416V7.49658H10.5264V10.8696Z" fill="white"/>
</g>
<defs>
<clipPath id="clip0_22933_14775">
<rect width="24" height="24" rx="12" fill="white"/>
</clipPath>
</defs>
</svg>
