<svg width="18" height="18" viewBox="0 0 18 18" fill="none" xmlns="http://www.w3.org/2000/svg">
<g clip-path="url(#clip0_22933_14122)">
<path d="M12.8725 6.28486L16.042 3.11538L14.8845 1.95793L11.7151 5.1274L12.8725 6.28486ZM17.7079 3.11538C17.7079 3.3101 17.643 3.47236 17.5131 3.60216L3.60209 17.5132C3.47228 17.643 3.31002 17.7079 3.11531 17.7079C2.9206 17.7079 2.75834 17.643 2.62853 17.5132L0.486704 15.3714C0.356896 15.2416 0.291992 15.0793 0.291992 14.8846C0.291992 14.6899 0.356896 14.5276 0.486704 14.3978L14.3978 0.486779C14.5276 0.356971 14.6898 0.292067 14.8845 0.292067C15.0793 0.292067 15.2415 0.356971 15.3713 0.486779L17.5131 2.62861C17.643 2.75841 17.7079 2.92067 17.7079 3.11538ZM3.09367 1.0601L4.15377 1.38462L3.09367 1.70913L2.76916 2.76923L2.44464 1.70913L1.38454 1.38462L2.44464 1.0601L2.76916 0L3.09367 1.0601ZM6.87973 2.8125L8.99992 3.46154L6.87973 4.11058L6.23069 6.23077L5.58166 4.11058L3.46146 3.46154L5.58166 2.8125L6.23069 0.692308L6.87973 2.8125ZM16.9398 7.98317L17.9999 8.30769L16.9398 8.63221L16.6153 9.69231L16.2908 8.63221L15.2307 8.30769L16.2908 7.98317L16.6153 6.92308L16.9398 7.98317ZM10.0168 1.0601L11.0768 1.38462L10.0168 1.70913L9.69223 2.76923L9.36771 1.70913L8.30762 1.38462L9.36771 1.0601L9.69223 0L10.0168 1.0601Z" fill="#99A2A9"/>
</g>
<defs>
<clipPath id="clip0_22933_14122">
<rect width="18" height="18" fill="white"/>
</clipPath>
</defs>
</svg>
