<svg width="18" height="18" viewBox="0 0 18 18" fill="none" xmlns="http://www.w3.org/2000/svg">
<path d="M7.89389 5.43346L6.13668 10.0624C6.36408 10.0624 6.8344 10.0692 7.54762 10.0829C8.26084 10.0967 8.81384 10.1035 9.20663 10.1035C9.33756 10.1035 9.53396 10.0967 9.79582 10.0829C9.1963 8.34796 8.56232 6.79813 7.89389 5.43346ZM0.399902 16.8L0.420575 15.9874C0.579069 15.9394 0.772018 15.8965 0.999422 15.8588C1.22683 15.8211 1.42322 15.7851 1.5886 15.7508C1.75399 15.7165 1.92454 15.6668 2.10026 15.6016C2.27598 15.5365 2.42931 15.437 2.56024 15.3033C2.69117 15.1696 2.79798 14.9964 2.88067 14.7839L5.33043 8.4474L8.22466 1H9.54774C9.60287 1.09601 9.64077 1.16801 9.66144 1.21602L11.7804 6.15352C12.0078 6.68841 12.3731 7.57133 12.8761 8.80228C13.3791 10.0332 13.7719 10.9744 14.0545 11.6259C14.1578 11.8591 14.3577 12.3545 14.654 13.1123C14.9503 13.8701 15.1984 14.4478 15.3982 14.8456C15.536 15.1542 15.6566 15.3496 15.76 15.4319C15.8909 15.5348 16.1941 15.6359 16.6696 15.7354C17.1451 15.8348 17.4345 15.9051 17.5379 15.9462C17.5792 16.2068 17.5999 16.4023 17.5999 16.5326C17.5999 16.5668 17.5982 16.6131 17.5947 16.6714C17.5913 16.7297 17.5896 16.7726 17.5896 16.8C17.1554 16.8 16.5008 16.7726 15.6256 16.7177C14.7505 16.6628 14.0924 16.6354 13.6513 16.6354C13.1276 16.6354 12.3868 16.6594 11.429 16.7074C10.4711 16.7554 9.85783 16.7829 9.58908 16.7897C9.58908 16.4948 9.60287 16.2274 9.63043 15.9874L10.9845 15.6993C10.9914 15.6993 11.0345 15.6908 11.1137 15.6736C11.193 15.6565 11.2464 15.6445 11.2739 15.6376C11.3015 15.6308 11.3515 15.6153 11.4238 15.5913C11.4962 15.5673 11.5479 15.5451 11.5789 15.5245C11.6099 15.5039 11.6478 15.4765 11.6926 15.4422C11.7374 15.4079 11.7684 15.3702 11.7856 15.329C11.8028 15.2879 11.8114 15.2399 11.8114 15.185C11.8114 15.0753 11.7046 14.7444 11.491 14.1924C11.2774 13.6403 11.0293 13.0317 10.7468 12.3665C10.4642 11.7013 10.3195 11.3585 10.3126 11.3379L5.6612 11.3173C5.48203 11.7151 5.21845 12.3854 4.87045 13.3283C4.52246 14.2712 4.34846 14.8284 4.34846 14.9999C4.34846 15.1507 4.3967 15.2793 4.49317 15.3856C4.58965 15.4919 4.73953 15.5759 4.94281 15.6376C5.1461 15.6993 5.3132 15.7456 5.44413 15.7765C5.57506 15.8074 5.77146 15.8365 6.03332 15.8639C6.29517 15.8914 6.43644 15.9051 6.45711 15.9051C6.464 16.0354 6.46745 16.2342 6.46745 16.5017C6.46745 16.5634 6.46056 16.656 6.44678 16.7794C6.0471 16.7794 5.44586 16.7451 4.64305 16.6766C3.84025 16.608 3.239 16.5737 2.83933 16.5737C2.7842 16.5737 2.69289 16.5874 2.56541 16.6148C2.43792 16.6423 2.36384 16.656 2.34317 16.656C1.79189 16.752 1.14413 16.8 0.399902 16.8Z" fill="#99A2A9"/>
</svg>
