<svg width="18" height="18" viewBox="0 0 18 18" fill="none" xmlns="http://www.w3.org/2000/svg">
<g clip-path="url(#clip0_22933_14255)">
<path d="M15.9262 0C16.0882 0.0957857 16.1428 0.234643 16.1415 0.424286C16.1338 1.3905 16.1383 2.35736 16.1377 3.32357C16.1377 3.61993 16.0323 3.72407 15.7346 3.72536H15.5418C15.275 3.72471 15.2094 3.67779 15.1143 3.42579C14.9394 2.96036 14.7144 2.52707 14.319 2.20564C14.0616 1.98776 13.7358 1.86718 13.3985 1.86493C12.1569 1.86048 10.9153 1.85983 9.67376 1.863C9.41983 1.863 9.31505 1.97936 9.31505 2.25193V8.03379C9.31505 10.4889 9.32533 12.9433 9.30733 15.3984C9.30283 16.0374 9.74898 16.4886 10.3655 16.4539C10.6278 16.4391 10.8926 16.4488 11.1562 16.4526C11.349 16.4559 11.4757 16.56 11.4802 16.7496C11.4911 17.1585 11.4834 17.5674 11.4834 17.9891H4.66719C4.66398 17.9409 4.65691 17.8901 4.65691 17.8393C4.65562 17.5114 4.65562 17.1836 4.65691 16.8557C4.65819 16.5542 4.75976 16.4526 5.05612 16.4514C5.32612 16.4514 5.59548 16.4539 5.86483 16.4514C6.43183 16.4449 6.82655 16.0534 6.82655 15.4864C6.82826 11.0696 6.82848 6.65229 6.82719 2.23457C6.82719 1.971 6.71791 1.863 6.45176 1.86236C5.26248 1.86171 4.07383 1.86943 2.88519 1.85914C2.28348 1.854 1.81162 2.0925 1.47862 2.57657C1.29541 2.844 1.16362 3.14807 1.02605 3.44443C0.923834 3.66493 0.861477 3.72407 0.618477 3.72536C0.0373342 3.72986 0.00454852 3.69707 0.00454852 3.114C0.00390567 2.21721 0.00840567 1.32043 4.85246e-05 0.424286C-0.00188005 0.235286 0.0534057 0.0964286 0.214763 0H15.9262Z" fill="#99A2A9"/>
<path d="M18 15.048C17.9048 15.3951 17.8251 15.7487 17.712 16.0894C17.5403 16.6063 17.2845 17.0781 16.8827 17.4581C16.5252 17.8052 16.047 17.9987 15.5487 17.9994C15.084 18.0058 14.6262 17.955 14.1859 17.7936C13.4132 17.5108 12.9934 16.9309 12.8404 16.1499C12.7717 15.7995 12.7355 15.4436 12.7324 15.0866C12.7215 13.1066 12.726 11.1259 12.726 9.14528C12.726 8.77757 12.6372 8.68885 12.2715 8.68885C11.9256 8.68971 11.58 8.68928 11.2345 8.68757C10.9716 8.68628 10.8662 8.57635 10.8642 8.30957C10.863 8.14585 10.863 7.98193 10.8642 7.81778C10.8655 7.54907 10.9562 7.45328 11.2236 7.41857C11.8595 7.34394 12.4703 7.12636 13.0101 6.78214C13.5392 6.43757 13.7989 6.13607 14.2656 5.32993C14.2695 5.40257 14.2746 5.45014 14.2746 5.49835C14.2752 5.92585 14.2733 6.35335 14.2759 6.7815C14.2778 7.19164 14.535 7.4475 14.9477 7.45007C15.3289 7.45264 15.7095 7.44942 16.09 7.45135C16.3311 7.45264 16.4449 7.56643 16.45 7.80621C16.453 7.98193 16.453 8.15764 16.45 8.33335C16.4449 8.5725 16.3305 8.68628 16.0881 8.68692C15.6195 8.69014 15.1515 8.68757 14.6828 8.68885C14.3845 8.68885 14.2752 8.79492 14.2752 9.08742C14.2752 11.0147 14.2757 12.9424 14.2765 14.8706C14.2778 15.7397 14.776 16.3806 15.5667 16.5092C16.2083 16.6134 16.7644 16.3884 17.2163 15.9467C17.4728 15.696 17.6689 15.3842 17.8913 15.0988C17.9299 15.0486 17.964 14.9946 18 14.9419V15.048Z" fill="#99A2A9"/>
</g>
<defs>
<clipPath id="clip0_22933_14255">
<rect width="18" height="18" fill="white"/>
</clipPath>
</defs>
</svg>
