<svg width="18" height="18" viewBox="0 0 18 18" fill="none" xmlns="http://www.w3.org/2000/svg">
<path fill-rule="evenodd" clip-rule="evenodd" d="M3.99853 0.709188C4.45261 0.255103 5.06849 0 5.71066 0H15.5787C16.2209 0 16.8367 0.255102 17.2908 0.709188C17.7449 1.16327 18 1.77915 18 2.42132V15.5787C18 16.2209 17.7449 16.8367 17.2908 17.2908C16.8367 17.7449 16.2209 18 15.5787 18H2.42132C1.77915 18 1.16327 17.7449 0.709188 17.2908C0.255102 16.8367 0 16.2209 0 15.5787V8.17766C0 6.84416 1.08782 5.75634 2.42132 5.75634H3.28934V2.42132C3.28934 1.77915 3.54444 1.16327 3.99853 0.709188ZM3.28934 7.30964H2.42132C1.94568 7.30964 1.5533 7.70203 1.5533 8.17766V15.5787C1.5533 15.8089 1.64475 16.0297 1.80754 16.1925C1.97032 16.3552 2.19111 16.4467 2.42132 16.4467C2.65153 16.4467 2.87232 16.3552 3.0351 16.1925C3.19789 16.0297 3.28934 15.8089 3.28934 15.5787V7.30964ZM4.6817 16.4467C4.78709 16.1723 4.84264 15.8783 4.84264 15.5787V2.42132C4.84264 2.19111 4.93409 1.97032 5.09688 1.80754C5.25966 1.64475 5.48045 1.5533 5.71066 1.5533H15.5787C15.8089 1.5533 16.0297 1.64475 16.1925 1.80754C16.3552 1.97032 16.4467 2.19111 16.4467 2.42132V15.5787C16.4467 15.8089 16.3552 16.0297 16.1925 16.1925C16.0297 16.3552 15.8089 16.4467 15.5787 16.4467H4.6817ZM6.57868 10.6447C6.57868 10.2157 6.9264 9.86802 7.35533 9.86802H13.934C14.3629 9.86802 14.7107 10.2157 14.7107 10.6447C14.7107 11.0736 14.3629 11.4213 13.934 11.4213H7.35533C6.9264 11.4213 6.57868 11.0736 6.57868 10.6447ZM6.57868 13.934C6.57868 13.5051 6.9264 13.1574 7.35533 13.1574H11.467C11.8959 13.1574 12.2437 13.5051 12.2437 13.934C12.2437 14.3629 11.8959 14.7107 11.467 14.7107H7.35533C6.9264 14.7107 6.57868 14.3629 6.57868 13.934Z" fill="#99A2A9"/>
<path d="M7.35547 4.06595H13.9341V7.35529H7.35547V4.06595Z" stroke="#99A2A9" stroke-width="1.7" stroke-linecap="round" stroke-linejoin="round"/>
</svg>
