<svg width="24" height="24" viewBox="0 0 24 24" fill="none" xmlns="http://www.w3.org/2000/svg">
<g clip-path="url(#clip0_22933_14218)">
<rect width="24" height="24" rx="12" fill="#99A2A9"/>
<g clip-path="url(#clip1_22933_14218)">
<path d="M17.2645 8.62974C17.1108 8.8596 16.9317 9.11346 16.7359 9.37968H17.2499V11.2541H15.1724C14.9173 11.5219 14.6623 11.7682 14.4097 12.0041H17.2499V12.924L17.4257 13.2299L17.9999 14.2295V8.62974H17.2645Z" fill="white"/>
<path d="M6.75048 16.8794V12.0041H9.51126C9.62028 11.8161 9.77568 11.5608 9.975 11.2541H6.75048V9.37968H11.3555C11.56 9.13284 11.779 8.88228 12.0119 8.62974H6.00048V11.2541L6 12.0041L6.00048 17.6293H13.2571L12.8263 16.8794H6.75048Z" fill="white"/>
<path d="M14.3624 13.7357L13.9673 14.4196H16.337L17.5216 16.4716L17.9164 15.7876H17.9166L16.732 13.7357H14.3624Z" fill="white"/>
<path d="M13.5726 15.1036L13.9677 15.7876H15.5471L16.337 17.1557H14.7572L13.5726 15.1036L13.1777 15.7876L14.3624 17.8398H16.7318L17.1268 17.1557L15.9422 15.1036H13.5726Z" fill="white"/>
<path d="M10.0852 12.5239C10.0122 12.5104 9.93837 12.5005 9.86379 12.5005C9.58167 12.5005 9.29553 12.5967 9.05877 12.7935C8.83635 12.9783 8.78967 13.3474 8.78775 13.6122C8.78439 14.0744 8.56611 14.5162 8.17383 14.7608C8.13633 14.7842 8.11353 14.7958 8.11353 14.7958C8.11353 14.7958 8.74533 15.1159 9.46803 15.1159C9.86649 15.1159 10.2926 15.0187 10.6557 14.7167C10.9986 14.4317 11.1498 14.0068 11.0992 13.603C11.1439 13.5847 11.1898 13.5694 11.2311 13.5431C11.7873 13.1885 13.231 12.2056 14.6329 10.7334C16.0357 9.26034 16.9468 7.77012 17.2734 7.19778C17.4151 6.94962 17.4146 6.64278 17.272 6.39726C17.1298 6.15222 16.8654 6 16.582 6C16.4287 6 16.2787 6.04392 16.1485 6.12708C15.5931 6.48114 14.1489 7.46412 12.7465 8.93688C11.3443 10.4093 10.4332 11.8992 10.1066 12.4715C10.0971 12.4882 10.0934 12.5068 10.0852 12.5239ZM13.2895 9.45408C14.656 8.01906 16.0785 7.06104 16.5519 6.7593C16.562 6.75282 16.5723 6.74994 16.5819 6.74994C16.6171 6.74994 16.6437 6.78792 16.6219 6.82602C16.3437 7.31364 15.4563 8.78112 14.0898 10.2161C13.7303 10.5935 13.3681 10.9357 13.0192 11.2439L12.3206 10.5666C12.61 10.2053 12.9324 9.82914 13.2895 9.45408ZM10.7579 12.8433C10.922 12.5558 11.3022 11.9254 11.8614 11.166L12.444 11.7308C11.7155 12.3239 11.1068 12.733 10.8283 12.9104C10.8181 12.9169 10.8078 12.9198 10.7981 12.9198C10.7627 12.9197 10.736 12.8816 10.7579 12.8433ZM10.2624 13.4726C10.4239 13.6669 10.3854 13.9663 10.1764 14.14C9.99351 14.2919 9.76185 14.3659 9.46803 14.3659C9.44649 14.3659 9.42507 14.3654 9.40365 14.3647C9.48933 14.1314 9.53571 13.8792 9.53763 13.6176C9.53871 13.4737 9.55809 13.3847 9.57147 13.3446C9.67995 13.2675 9.78867 13.2504 9.86373 13.2504C9.94365 13.2504 10.0947 13.2709 10.2084 13.4075L10.2624 13.4726Z" fill="white"/>
</g>
</g>
<defs>
<clipPath id="clip0_22933_14218">
<rect width="24" height="24" rx="12" fill="white"/>
</clipPath>
<clipPath id="clip1_22933_14218">
<rect width="12" height="12" fill="white" transform="translate(6 6)"/>
</clipPath>
</defs>
</svg>
