<svg width="116" height="94" viewBox="0 0 116 94" fill="none" xmlns="http://www.w3.org/2000/svg">
<rect x="59" y="14" width="57" height="74" rx="2" fill="#425885"/>
<g opacity="0.4">
<rect x="45" y="27" width="63.6632" height="5.84838" rx="1" fill="white"/>
<rect x="45" y="37.2891" width="63.6632" height="5.84838" rx="1" fill="white"/>
<rect x="45" y="46.7207" width="63.6632" height="5.84838" rx="1" fill="white"/>
<rect x="45" y="56.1523" width="63.6632" height="5.84838" rx="1" fill="white"/>
<rect x="45" y="66" width="63.6632" height="5.84838" rx="1" fill="white"/>
</g>
<rect width="86.4" height="108" rx="2" fill="#F9F9FF"/>
<rect x="4.1" y="3.1" width="14.8" height="6.8" rx="0.9" fill="#FFDBDE"/>
<path d="M7.63672 6.95117V6.54492H8.37109C8.4987 6.54492 8.60091 6.52474 8.67773 6.48438C8.75586 6.44401 8.81315 6.38802 8.84961 6.31641C8.88607 6.24479 8.9043 6.16276 8.9043 6.07031C8.9043 5.98177 8.88607 5.89909 8.84961 5.82227C8.81315 5.74544 8.75586 5.68294 8.67773 5.63477C8.60091 5.58659 8.4987 5.5625 8.37109 5.5625H7.78906V8H7.28516V5.15625H8.37109C8.59245 5.15625 8.7806 5.19531 8.93555 5.27344C9.09049 5.35156 9.20833 5.45898 9.28906 5.5957C9.37109 5.73242 9.41211 5.88932 9.41211 6.06641C9.41211 6.25 9.37109 6.4082 9.28906 6.54102C9.20833 6.67253 9.09049 6.77409 8.93555 6.8457C8.7806 6.91602 8.59245 6.95117 8.37109 6.95117H7.63672ZM11.1335 5.15625C11.351 5.15625 11.5365 5.1888 11.6902 5.25391C11.8438 5.31901 11.961 5.41536 12.0417 5.54297C12.1237 5.67057 12.1648 5.82747 12.1648 6.01367C12.1648 6.1569 12.1387 6.28255 12.0866 6.39062C12.0346 6.4987 11.9603 6.58984 11.864 6.66406C11.7689 6.73698 11.6563 6.79362 11.5261 6.83398L11.3737 6.91211H10.4734L10.4695 6.50781H11.1374C11.2533 6.50781 11.3497 6.48763 11.4265 6.44727C11.5046 6.4069 11.5626 6.35156 11.6003 6.28125C11.6394 6.21094 11.6589 6.13086 11.6589 6.04102C11.6589 5.89518 11.6166 5.7793 11.532 5.69336C11.4486 5.60612 11.3158 5.5625 11.1335 5.5625H10.6277V8H10.1237V5.15625H11.1335ZM11.0749 6.72461L11.6042 6.72266L12.278 7.97461V8H11.739L11.0749 6.72461ZM15.1967 6.65234C15.1967 6.9401 15.1472 7.1875 15.0483 7.39453C14.9493 7.60156 14.8113 7.76107 14.6342 7.87305C14.4584 7.98372 14.2521 8.03906 14.0151 8.03906C13.7833 8.03906 13.5776 7.98372 13.3979 7.87305C13.2195 7.76107 13.0795 7.60156 12.978 7.39453C12.8777 7.1875 12.8276 6.9401 12.8276 6.65234V6.50586C12.8276 6.2181 12.8777 5.9707 12.978 5.76367C13.0782 5.55534 13.2176 5.39583 13.3959 5.28516C13.5743 5.17318 13.7794 5.11719 14.0112 5.11719C14.2482 5.11719 14.4552 5.17318 14.6323 5.28516C14.8093 5.39583 14.9474 5.55534 15.0463 5.76367C15.1466 5.9707 15.1967 6.2181 15.1967 6.50586V6.65234ZM14.6909 6.50195C14.6909 6.29232 14.6642 6.11589 14.6108 5.97266C14.5574 5.82812 14.4799 5.7194 14.3784 5.64648C14.2768 5.57227 14.1544 5.53516 14.0112 5.53516C13.8705 5.53516 13.7495 5.57227 13.6479 5.64648C13.5476 5.7194 13.4702 5.82812 13.4155 5.97266C13.3621 6.11589 13.3354 6.29232 13.3354 6.50195V6.65234C13.3354 6.86198 13.3627 7.03906 13.4174 7.18359C13.4721 7.32812 13.5502 7.4375 13.6518 7.51172C13.7534 7.58594 13.8745 7.62305 14.0151 7.62305C14.1596 7.62305 14.282 7.58594 14.3823 7.51172C14.4838 7.4375 14.5607 7.32812 14.6127 7.18359C14.6648 7.03906 14.6909 6.86198 14.6909 6.65234V6.50195Z" fill="#C1313F"/>
<rect x="4.1" y="3.1" width="14.8" height="6.8" rx="0.9" stroke="#C1313F" stroke-width="0.2"/>
<rect x="11.3672" y="27.7383" width="63.6632" height="6.82105" rx="1" fill="#EFEFF8"/>
<rect x="11.3672" y="39.1074" width="63.6632" height="6.82105" rx="1" fill="#EFEFF8"/>
<rect x="12.5078" y="61.8438" width="63.6632" height="6.82105" rx="1" fill="#EFEFF8"/>
<rect x="12.6078" y="75.5863" width="63.4632" height="6.62105" rx="0.9" fill="#3B57F7" stroke="#DDDDEF" stroke-width="0.2"/>
<rect x="11.3672" y="50.4746" width="29.5579" height="6.82105" rx="1" fill="#EFEFF8"/>
<rect x="45.4688" y="50.4746" width="29.5579" height="6.82105" rx="1" fill="#EFEFF8"/>
<line x1="31" y1="16.75" x2="56" y2="16.75" stroke="#D6E2FA" stroke-width="0.5"/>
<circle cx="29.0547" cy="16.5957" r="2.5" fill="#C5D8FF"/>
<circle cx="43.6016" cy="16.5957" r="2.5" fill="#C5D8FF"/>
<circle cx="58.1484" cy="16.5957" r="2.5" fill="#C5D8FF"/>
<g filter="url(#filter0_d_12895_3993)">
<rect x="75" y="38" width="22" height="22" rx="11" fill="white"/>
<g clip-path="url(#clip0_12895_3993)">
<path d="M84.125 45.3834H85.0625V46.0273H86.9375V45.3834H87.875V46.0273H89.75V44.1523H87.875V44.7584H86.9375V44.1523H85.0625V44.7584H84.125V44.1523H82.25V46.0273H84.125V45.3834ZM88.5 44.7773H89.125V45.4023H88.5V44.7773ZM85.6875 44.7773H86.3125V45.4023H85.6875V44.7773ZM83.5 45.4023H82.875V44.7773H83.5V45.4023ZM81 46.6523V53.8398H86.9028L86.5437 53.2148H81.625V48.5273H90.375V49.5413L90.4156 49.612L91 50.6293V46.6523H81ZM90.375 47.9023H81.625V47.2773H90.375V47.9023ZM82.5625 49.1523H89.4375V49.2983H87.6237H87.2619L87.0817 49.612L86.9867 49.7773H83.1875V50.4023H86.6277L86.2686 51.0273H82.5625V49.1523ZM85.9096 51.6523L85.7779 51.8817L85.9567 52.193L86.1847 52.5898H82.5625V51.6523H85.9096Z" fill="url(#paint0_linear_12895_3993)"/>
<path d="M87.6641 51.8398L88.2057 52.7565H89.2474L88.7474 51.8398H87.6641Z" fill="#FF808B"/>
<path d="M89.875 49.9238H87.625L86.5 51.8822L87.625 53.8405H89.875L91 51.8822L89.875 49.9238ZM89.5417 53.2155H87.9583L87.1667 51.8405L87.4167 51.3822H89L89.7917 52.7572L89.5417 53.2155ZM90.0833 52.2988L89.2917 50.9238H87.6667L87.9167 50.4655H89.5L90.2917 51.8405L90.0833 52.2988Z" fill="#FF808B"/>
</g>
</g>
<defs>
<filter id="filter0_d_12895_3993" x="70" y="36" width="30" height="30" filterUnits="userSpaceOnUse" color-interpolation-filters="sRGB">
<feFlood flood-opacity="0" result="BackgroundImageFix"/>
<feColorMatrix in="SourceAlpha" type="matrix" values="0 0 0 0 0 0 0 0 0 0 0 0 0 0 0 0 0 0 127 0" result="hardAlpha"/>
<feOffset dx="-1" dy="2"/>
<feGaussianBlur stdDeviation="2"/>
<feComposite in2="hardAlpha" operator="out"/>
<feColorMatrix type="matrix" values="0 0 0 0 0.109804 0 0 0 0 0.113725 0 0 0 0 0.129412 0 0 0 0.15 0"/>
<feBlend mode="normal" in2="BackgroundImageFix" result="effect1_dropShadow_12895_3993"/>
<feBlend mode="normal" in="SourceGraphic" in2="effect1_dropShadow_12895_3993" result="shape"/>
</filter>
<linearGradient id="paint0_linear_12895_3993" x1="86" y1="44.1523" x2="86" y2="53.8398" gradientUnits="userSpaceOnUse">
<stop stop-color="#2E54EB"/>
<stop offset="1" stop-color="#66C6D2"/>
</linearGradient>
<clipPath id="clip0_12895_3993">
<rect width="10" height="10" fill="white" transform="translate(81 44)"/>
</clipPath>
</defs>
</svg>
