<svg width="22" height="22" viewBox="0 0 22 22" fill="none" xmlns="http://www.w3.org/2000/svg">
<path d="M11.0013 13.7489L8.2513 10.9989M11.0013 13.7489C12.2817 13.2619 13.5101 12.6478 14.668 11.9156M11.0013 13.7489V18.3323C11.0013 18.3323 13.7788 17.8281 14.668 16.4989C15.658 15.0139 14.668 11.9156 14.668 11.9156M8.2513 10.9989C8.7391 9.7334 9.35332 8.52032 10.0846 7.37809C11.1527 5.67033 12.64 4.26422 14.4049 3.29351C16.1698 2.3228 18.1537 1.81977 20.168 1.83226C20.168 4.32559 19.453 8.70726 14.668 11.9156M8.2513 10.9989H3.66797C3.66797 10.9989 4.17214 8.22143 5.5013 7.33226C6.9863 6.34226 10.0846 7.33226 10.0846 7.33226M4.1263 15.1239C2.7513 16.2789 2.29297 19.7073 2.29297 19.7073C2.29297 19.7073 5.7213 19.2489 6.8763 17.8739C7.52714 17.1039 7.51797 15.9214 6.7938 15.2064C6.4375 14.8664 5.96815 14.6698 5.47584 14.6546C4.98353 14.6394 4.50294 14.8065 4.1263 15.1239Z" stroke="#00223D" stroke-width="1.5" stroke-linecap="round" stroke-linejoin="round"/>
</svg>
