<svg width="22" height="22" viewBox="0 0 22 22" fill="none" xmlns="http://www.w3.org/2000/svg">
<path d="M5.95703 11.9154L6.67612 13.3535C6.91948 13.8403 7.04117 14.0836 7.20373 14.2945C7.34797 14.4817 7.51574 14.6494 7.70287 14.7937C7.91376 14.9562 8.15713 15.0779 8.64386 15.3213L10.082 16.0404L8.64386 16.7595C8.15713 17.0028 7.91376 17.1245 7.70287 17.2871C7.51574 17.4313 7.34797 17.5991 7.20373 17.7862C7.04117 17.9971 6.91948 18.2405 6.67612 18.7272L5.95703 20.1654L5.23794 18.7272C4.99458 18.2405 4.8729 17.9971 4.71034 17.7862C4.56609 17.5991 4.39832 17.4313 4.21119 17.2871C4.0003 17.1245 3.75694 17.0028 3.2702 16.7595L1.83203 16.0404L3.2702 15.3213C3.75693 15.0779 4.0003 14.9562 4.21119 14.7937C4.39832 14.6494 4.56609 14.4817 4.71034 14.2945C4.8729 14.0836 4.99458 13.8403 5.23794 13.3535L5.95703 11.9154Z" stroke="#00223D" stroke-width="1.5" stroke-linecap="round" stroke-linejoin="round"/>
<path d="M13.7487 1.83203L14.8291 4.64108C15.0876 5.31321 15.2169 5.64927 15.4179 5.93195C15.596 6.18249 15.8149 6.40138 16.0654 6.57953C16.3481 6.78053 16.6842 6.90978 17.3563 7.16829L20.1654 8.2487L17.3563 9.3291C16.6842 9.58761 16.3481 9.71687 16.0654 9.91787C15.8149 10.096 15.596 10.3149 15.4179 10.5654C15.2169 10.8481 15.0876 11.1842 14.8291 11.8563L13.7487 14.6654L12.6683 11.8563C12.4098 11.1842 12.2805 10.8481 12.0795 10.5654C11.9014 10.3149 11.6825 10.096 11.432 9.91787C11.1493 9.71687 10.8132 9.58761 10.1411 9.3291L7.33203 8.2487L10.1411 7.16829C10.8132 6.90978 11.1493 6.78053 11.432 6.57953C11.6825 6.40138 11.9014 6.18249 12.0795 5.93195C12.2805 5.64927 12.4098 5.31321 12.6683 4.64108L13.7487 1.83203Z" stroke="#00223D" stroke-width="1.5" stroke-linecap="round" stroke-linejoin="round"/>
</svg>
