<svg width="22" height="22" viewBox="0 0 22 22" fill="none" xmlns="http://www.w3.org/2000/svg">
<path d="M10.4987 14.6667V19.25M15.9987 19.25L12.3766 16.2316C11.7085 15.6749 11.3745 15.3965 11.0016 15.2901C10.6729 15.1964 10.3245 15.1964 9.99576 15.2901C9.62289 15.3965 9.28887 15.6749 8.62083 16.2316L4.9987 19.25M6.83203 10.0833V11M10.4987 8.25V11M14.1654 6.41667V11M19.6654 2.75H1.33203M2.2487 2.75H18.7487V10.2667C18.7487 11.8068 18.7487 12.5769 18.449 13.1651C18.1853 13.6826 17.7646 14.1033 17.2472 14.3669C16.6589 14.6667 15.8888 14.6667 14.3487 14.6667H6.6487C5.10855 14.6667 4.33848 14.6667 3.75022 14.3669C3.23278 14.1033 2.81208 13.6826 2.54843 13.1651C2.2487 12.5769 2.2487 11.8068 2.2487 10.2667V2.75Z" stroke="#00223D" stroke-width="1.5" stroke-linecap="round" stroke-linejoin="round"/>
</svg>
