<svg width="22" height="22" viewBox="0 0 22 22" fill="none" xmlns="http://www.w3.org/2000/svg">
<path d="M1.83203 10.9987C1.83203 16.0613 5.93609 20.1654 10.9987 20.1654C12.5175 20.1654 13.7487 18.9341 13.7487 17.4154V16.957C13.7487 16.5313 13.7487 16.3185 13.7722 16.1398C13.9347 14.9057 14.9057 13.9347 16.1398 13.7722C16.3185 13.7487 16.5313 13.7487 16.957 13.7487H17.4154C18.9341 13.7487 20.1654 12.5175 20.1654 10.9987C20.1654 5.93609 16.0613 1.83203 10.9987 1.83203C5.93609 1.83203 1.83203 5.93609 1.83203 10.9987Z" stroke="#00223D" stroke-width="1.5" stroke-linecap="round" stroke-linejoin="round"/>
<path d="M6.41536 11.9154C6.92163 11.9154 7.33203 11.505 7.33203 10.9987C7.33203 10.4924 6.92163 10.082 6.41536 10.082C5.9091 10.082 5.4987 10.4924 5.4987 10.9987C5.4987 11.505 5.9091 11.9154 6.41536 11.9154Z" stroke="#00223D" stroke-width="1.5" stroke-linecap="round" stroke-linejoin="round"/>
<path d="M14.6654 8.2487C15.1716 8.2487 15.582 7.83829 15.582 7.33203C15.582 6.82577 15.1716 6.41536 14.6654 6.41536C14.1591 6.41536 13.7487 6.82577 13.7487 7.33203C13.7487 7.83829 14.1591 8.2487 14.6654 8.2487Z" stroke="#00223D" stroke-width="1.5" stroke-linecap="round" stroke-linejoin="round"/>
<path d="M9.16536 7.33203C9.67163 7.33203 10.082 6.92163 10.082 6.41536C10.082 5.9091 9.67163 5.4987 9.16536 5.4987C8.6591 5.4987 8.2487 5.9091 8.2487 6.41536C8.2487 6.92163 8.6591 7.33203 9.16536 7.33203Z" stroke="#00223D" stroke-width="1.5" stroke-linecap="round" stroke-linejoin="round"/>
</svg>
