<svg width="24" height="24" viewBox="0 0 24 24" fill="none" xmlns="http://www.w3.org/2000/svg">
<g clip-path="url(#clip0_111_389)">
<path d="M19.9997 19.3212H15.9993H7.99966L6.00054 15.8574H5.99948L4.00036 12.3936L1.99912 8.92871L0 12.3925V12.3936L1.99912 15.8574H2.00018L3.9993 19.3212H4.00036L5.99948 22.786H17.9995L19.9997 19.3212Z" fill="white"/>
<path d="M4.00075 12.3936H12.0004L14.0006 15.8574L15.9997 19.3212H20.0001L18.0009 15.8574H17.9999L14.0006 8.92871H1.99951L4.00075 12.3936Z" fill="white"/>
<path d="M22.0001 8.92866V8.9276L19.9999 5.4638L18.0008 2H5.99969L3.99951 5.4638H16.0006L17.9997 8.9276L19.9999 12.3925L22.0001 15.8563L23.9992 12.3925H24.0002L22.0001 8.92866Z" fill="white"/>
</g>
<defs>
<clipPath id="clip0_111_389">
<rect width="24" height="24" fill="white"/>
</clipPath>
</defs>
</svg>
