<svg width="16" height="16" viewBox="0 0 16 16" fill="none" xmlns="http://www.w3.org/2000/svg">
<path d="M14.8804 4.78006C14.7997 4.46425 14.6752 4.1613 14.5104 3.88006C14.3522 3.58749 14.1498 3.32103 13.9104 3.09006C13.5634 2.74419 13.1525 2.46909 12.7004 2.28006C11.7906 1.90665 10.7703 1.90665 9.86044 2.28006C9.4332 2.4609 9.04068 2.71468 8.70044 3.03006L8.65044 3.09006L8.00044 3.74006L7.35044 3.09006L7.30044 3.03006C6.96019 2.71468 6.56767 2.4609 6.14044 2.28006C5.23059 1.90665 4.21028 1.90665 3.30044 2.28006C2.84842 2.46909 2.43746 2.74419 2.09044 3.09006C1.6158 3.55189 1.27981 4.13728 1.12044 4.78006C1.03565 5.10648 0.995288 5.44285 1.00044 5.78006C1.00044 6.09706 1.04044 6.41306 1.12044 6.72006C1.20427 7.0301 1.32514 7.32892 1.48044 7.61006C1.64815 7.89907 1.85325 8.16469 2.09044 8.40006L8.00044 14.3101L13.9104 8.40006C14.1474 8.16706 14.3504 7.90006 14.5104 7.61006C14.8352 7.05516 15.0045 6.423 15.0004 5.78006C15.0056 5.44284 14.9653 5.10647 14.8804 4.78006V4.78006ZM13.8804 6.41006C13.7607 6.86698 13.5227 7.2843 13.1904 7.62006L7.98044 12.8201L2.77044 7.62006C2.60066 7.44907 2.45285 7.2576 2.33044 7.05006C2.21524 6.84474 2.12462 6.62657 2.06044 6.40006C2.0092 6.17358 1.98238 5.94226 1.98044 5.71006C1.98179 5.47122 2.00861 5.23321 2.06044 5.00006C2.12274 4.7729 2.21345 4.55451 2.33044 4.35006C2.45044 4.14006 2.59844 3.95006 2.77044 3.78006C3.02733 3.5266 3.32913 3.32314 3.66044 3.18006C4.32805 2.91298 5.07282 2.91298 5.74044 3.18006C6.07044 3.31706 6.36844 3.51806 6.62044 3.77006L7.98044 5.14006L9.34044 3.77006C9.59226 3.51761 9.89127 3.31714 10.2204 3.18006C10.8881 2.91298 11.6328 2.91298 12.3004 3.18006C12.6314 3.32306 12.9334 3.52706 13.1904 3.78006C13.3644 3.94506 13.5104 4.13706 13.6204 4.35006C13.8521 4.75852 13.9727 5.2205 13.9704 5.69006C13.984 5.93168 13.9638 6.17402 13.9104 6.41006H13.8804V6.41006Z" fill="#99A2A9"/>
</svg>
