<svg width="14" height="14" viewBox="0 0 14 14" fill="none" xmlns="http://www.w3.org/2000/svg">
<path d="M6.78125 0C3.03633 0 0 3.03743 0 6.78125C0 10.5273 3.03633 13.5625 6.78125 13.5625C10.5262 13.5625 13.5625 10.5273 13.5625 6.78125C13.5625 3.03743 10.5262 0 6.78125 0ZM6.78125 3.00781C7.41552 3.00781 7.92969 3.52198 7.92969 4.15625C7.92969 4.79052 7.41552 5.30469 6.78125 5.30469C6.14698 5.30469 5.63281 4.79052 5.63281 4.15625C5.63281 3.52198 6.14698 3.00781 6.78125 3.00781ZM8.3125 9.95312C8.3125 10.1343 8.16558 10.2812 7.98438 10.2812H5.57812C5.39692 10.2812 5.25 10.1343 5.25 9.95312V9.29688C5.25 9.11567 5.39692 8.96875 5.57812 8.96875H5.90625V7.21875H5.57812C5.39692 7.21875 5.25 7.07183 5.25 6.89062V6.23438C5.25 6.05317 5.39692 5.90625 5.57812 5.90625H7.32812C7.50933 5.90625 7.65625 6.05317 7.65625 6.23438V8.96875H7.98438C8.16558 8.96875 8.3125 9.11567 8.3125 9.29688V9.95312Z" fill="#3B57F7"/>
</svg>
