<svg width="15" height="16" viewBox="0 0 15 16" fill="none" xmlns="http://www.w3.org/2000/svg">
<path d="M9.5 6.8356e-07C8.44031 -0.000527531 7.40303 0.305084 6.51291 0.880081C5.62279 1.45508 4.91772 2.27498 4.48251 3.24117C4.0473 4.20737 3.90048 5.27872 4.05969 6.32638C4.21891 7.37403 4.67739 8.35339 5.38 9.14667L0 15.2533L0.746667 15.92L6.11333 9.84C6.80365 10.38 7.61299 10.7472 8.47394 10.911C9.33489 11.0749 10.2225 11.0306 11.0629 10.782C11.9033 10.5333 12.6721 10.0875 13.3053 9.48156C13.9385 8.87563 14.4178 8.12718 14.7032 7.29854C14.9886 6.46991 15.0718 5.58507 14.946 4.71774C14.8202 3.85041 14.489 3.02569 13.9799 2.31229C13.4709 1.59888 12.7987 1.01744 12.0195 0.61639C11.2402 0.21534 10.3764 0.0062954 9.5 0.00666735V6.8356e-07ZM9.5 10C8.30653 10 7.16193 9.5259 6.31802 8.68198C5.47411 7.83807 5 6.69348 5 5.5C5 4.30653 5.47411 3.16193 6.31802 2.31802C7.16193 1.47411 8.30653 1 9.5 1C10.6935 1 11.8381 1.47411 12.682 2.31802C13.5259 3.16193 14 4.30653 14 5.5C14 6.69348 13.5259 7.83807 12.682 8.68198C11.8381 9.5259 10.6935 10 9.5 10Z" fill="#99A2A9"/>
</svg>
